<?xml version="1.0" encoding="UTF-8" standalone="no"?>
<!DOCTYPE svg PUBLIC "-//W3C//DTD SVG 1.1//EN" "http://www.w3.org/Graphics/SVG/1.1/DTD/svg11.dtd">
<svg width="100%" height="100%" viewBox="0 0 527 544" version="1.1" xmlns="http://www.w3.org/2000/svg" xmlns:xlink="http://www.w3.org/1999/xlink" xml:space="preserve" xmlns:serif="http://www.serif.com/" style="fill-rule:evenodd;clip-rule:evenodd;stroke-linecap:round;stroke-linejoin:round;stroke-miterlimit:1.5;">
    <g transform="matrix(1,0,0,1,-6939.28,-2888.13)">
        <g transform="matrix(1,0,0,1,6691,0)">
            <g transform="matrix(0.877709,0,0,0.877709,-12583.6,4287.52)">
                <g transform="matrix(1.72917,0,0,1.72917,13711.8,-1588.54)">
                    <path d="M753,30L747,18L727,4L709,-2L680,2L664,8L652,21L646,34L647,47L653,58C653,58 661.953,69.467 668,71C674.047,72.533 681,77 681,77L675,92C675,92 688.637,89.536 693,85C697.363,80.464 703,79 703,79L708,79L714,88C714,88 724.488,102.758 732,107C739.512,111.242 744,114 744,114C744,114 740.779,118.981 747,126C753.221,133.019 758,134 758,134L760,119C760,119 774.471,122.813 791,120C807.529,117.187 838.854,107.487 844,96C849.146,84.513 854.574,65.061 848,56C841.426,46.939 815.303,29.557 803,29C790.697,28.443 776.514,25.221 769,27C761.486,28.779 753,30 753,30Z" style="fill:white;stroke:black;stroke-width:2.75px;"/>
                </g>
                <g transform="matrix(1.72917,0,0,1.72917,13711.8,-1588.54)">
                    <path d="M605,160.5C605,157.2 605.2,157 608.5,157C611.8,157 612,157.2 612,160.5C612,163.8 611.8,164 608.5,164C605.2,164 605,163.8 605,160.5Z" style="fill:rgb(219,232,228);fill-rule:nonzero;"/>
                </g>
                <g transform="matrix(1.72917,0,0,1.72917,13711.8,-1588.54)">
                    <path d="M786.2,199C784.4,197.9 782.2,195.7 781.1,194C779.4,191.2 779.2,191.1 777.9,192.6C773.9,197.4 760.7,198.6 754.9,194.7C750.9,192.1 748,186.8 748,182.3C748,179.3 748.3,179 751,179C752.7,179 755.1,179.7 756.5,180.6C758.7,182 759,182 761,180C762.7,178.3 762.8,177.6 761.9,175.9C761.3,174.7 759.5,173.3 757.9,172.7C755.5,171.8 755,171 755,168.4C755,164.5 756.1,164 764.8,164C775.7,164 781,168.8 781,178.5C781,182.4 781.3,183 783,183C784.2,183 786.1,183.7 787.4,184.5C789.5,185.9 789.8,185.8 791.5,183.9C793.9,181.4 792.8,179.1 788.2,177.1C785.5,175.9 785,175.1 785,172.4C785,169.3 785.3,169 789.3,167.9C794.6,166.5 802.7,167.4 806,169.8C809.9,172.7 812,177.8 812,184.6C812,191.8 809.4,196.5 804,199.2C799.1,201.7 790.4,201.6 786.2,199Z" style="fill:rgb(219,232,228);fill-rule:nonzero;"/>
                </g>
                <g transform="matrix(1.72917,0,0,1.72917,13711.8,-1588.54)">
                    <path d="M629.5,351.5C619.6,349.3 618.2,348.5 617.6,344.8C617.3,343 616.8,333.9 616.4,324.5C616.1,315.2 615.4,307 614.9,306.4C614.3,305.7 606.6,305.1 592.7,304.7C568.5,304.1 562.6,302.9 556,297.3C549.2,291.5 547.6,287.2 547.4,274.7C547.2,266.1 546.7,263.1 545,259.6C539,247 542.4,223 554.1,196.2L556.4,191L554,189.3C548.4,185.6 542.2,178.2 540.6,173.2C537.5,163.9 535.8,114.2 538,100.1C538.6,96.6 540.1,91.7 541.4,89.1C544.4,83.2 552.6,75.5 558.8,72.8C565.3,69.9 575.2,69.3 582.5,71.4C589.4,73.5 592.1,75.1 597.7,80.3L601.9,84.3L607.2,79.6C614.2,73.4 621.9,69.9 629.5,69.2C646.1,67.9 661.3,79.2 665.6,96C668.1,105.7 668.2,162 665.7,170.1C663.6,177.1 659.2,183.2 653.8,186.7C651.4,188.2 649.3,189.5 649.1,189.7C648.9,189.8 650.5,192.5 652.7,195.7C654.9,198.9 658.6,204.8 660.9,208.8C663.2,212.8 665.7,215.9 666.3,215.7C668.4,215.1 673.9,204.8 675,199.5C675.6,196.6 677.1,192.3 678.3,189.9C680.3,185.9 680.8,185.5 684.8,185.2L689,184.9L689,188.4C689,190.4 689.4,192 689.8,192C690.2,192 693,190.4 696,188.5C702.9,184 709,183.6 709,187.5C709,189.6 709.5,190 712,190C714.8,190 715,190.3 715,193.5C715,195.9 715.5,197 716.5,197C717.6,197 718,198.2 718,201.4C718,207.4 714.7,211.1 705.5,215.5C698.5,218.9 698.1,219.2 695.9,224.8C690.2,239.1 684.4,247.2 676.5,251.3C671.5,254 659.2,254.4 654.5,251.9L651.5,250.4L651.8,255.2C652.2,260.5 652,260.3 661,261.4C671.3,262.7 679.4,267.1 682.6,273.1C685.3,278.5 686.9,290.7 687,307.1C687,323.7 687.1,324.2 692,325.3C693.4,325.7 695.9,327.3 697.5,329C700,331.6 700.5,333 700.8,338.4C701.2,344.5 701.1,344.9 698.4,346.7C696,348.2 693.5,348.5 682.8,348.5C671.2,348.5 670,348.7 668.6,350.5C667.3,352.3 665.9,352.5 651.3,352.7C640.9,352.8 633.5,352.4 629.5,351.5Z" style="fill:rgb(237,145,182);fill-rule:nonzero;"/>
                </g>
                <g transform="matrix(1.72917,0,0,1.72917,13711.8,-1588.54)">
                    <path d="M768.6,214.9C766.5,212.4 766,210.8 766,206.3L766,200.7L776.3,201.4C792.2,202.4 792,202.4 792,207.7C792,211.3 791.4,212.7 789.1,215.1C786.4,217.8 785.6,218 778.7,218C771.5,218 771.1,217.9 768.6,214.9Z" style="fill:rgb(237,145,182);fill-rule:nonzero;"/>
                </g>
                <g transform="matrix(1.72917,0,0,1.72917,13711.8,-1588.54)">
                    <path d="M679,84.5C679,81.7 679.4,81 681,81C683.2,81 683.6,83 682,86.1C680.4,89.1 679,88.4 679,84.5Z" style="fill:rgb(60,165,223);fill-rule:nonzero;"/>
                </g>
                <g transform="matrix(1.72917,0,0,1.72917,13711.8,-1588.54)">
                    <path d="M719.1,47.1C719.8,46.1 721.1,44.8 722.1,44.1C723.8,43.1 724,43.3 724,46C724,48.7 723.7,49 721,49C718.3,49 718.1,48.8 719.1,47.1Z" style="fill:rgb(60,165,223);fill-rule:nonzero;"/>
                </g>
                <g transform="matrix(1.72917,0,0,1.72917,13711.8,-1588.54)">
                    <path d="M630.4,353.5C618.7,351 615,347.2 615,338C615,334.7 615.3,334 617,334C618.6,334 619,334.7 619,337.5C619,343.4 620.8,345.8 626.9,348.1C630,349.2 635.1,350.4 638.3,350.7C643,351.2 644,351.6 644,353.1C644,355.4 639.7,355.5 630.4,353.5Z" style="fill:rgb(146,148,146);fill-rule:nonzero;"/>
                </g>
                <g transform="matrix(1.72917,0,0,1.72917,13711.8,-1588.54)">
                    <path d="M658,353.3C658,351.8 658.9,351.1 661,350.7C662.6,350.3 664.8,349.1 665.7,348C667.4,346.1 668.2,346 676.7,346.6C682.9,347 688,346.8 691.9,346C697.5,344.8 697.9,344.6 698.5,341.3C698.9,338.9 698.6,337.1 697.6,335.5C696.7,334.1 696,332.2 696,331C696,329.5 695.3,329 693.6,329C692.2,329 690.5,328.3 689.6,327.5C688.8,326.7 687.7,326 687.1,326C686.5,326 686,324.4 686,322.5C686,320.1 686.5,319 687.5,319C688.3,319 689,319.7 689,320.5C689,321.3 690.2,322.7 691.8,323.7C702.6,330.4 706.1,339.6 700.3,346C696.8,349.8 688.7,351.5 678.3,350.6C671.9,350 670.7,350.2 668.2,352C666.7,353.1 663.8,354.3 661.7,354.7C658.5,355.2 658,355 658,353.3Z" style="fill:rgb(146,148,146);fill-rule:nonzero;"/>
                </g>
                <g transform="matrix(1.72917,0,0,1.72917,13711.8,-1588.54)">
                    <path d="M749.6,348.6C747.5,347.8 745.1,346.5 744.3,345.7C743.2,344.6 741.9,344.5 739.2,345.1C733.2,346.5 731,346.2 731,344.1C731,342.7 732,342.1 735.6,341.6C743.7,340.5 746.8,340.9 748.3,343C751.1,347 761.9,346.6 774.1,341.8C780.5,339.4 782,336.8 782,328.7C782,324.7 782.3,324 784,324C785.8,324 786,324.7 786,329.8C786,340.1 782.3,344.4 770.7,347.4C761.5,349.8 754,350.2 749.6,348.6Z" style="fill:rgb(146,148,146);fill-rule:nonzero;"/>
                </g>
                <g transform="matrix(1.72917,0,0,1.72917,13711.8,-1588.54)">
                    <path d="M721.3,344.5C713.5,341.1 714.4,330.2 722.9,323.9C724.6,322.6 726,321 726,320.3C726,319.6 726.7,319 727.5,319C728.5,319 729,320 729,322.4C729,325.2 728.5,326.1 726.3,327.1C723.6,328.2 720,333.6 720,336.5C720,338.3 724.8,342 727.1,342C728.3,342 729,342.7 729,344C729,346.4 726.1,346.6 721.3,344.5Z" style="fill:rgb(146,148,146);fill-rule:nonzero;"/>
                </g>
                <g transform="matrix(1.72917,0,0,1.72917,13711.8,-1588.54)">
                    <path d="M614.6,323.8C614.3,322.5 614,319.6 614,317.3C614,313.7 614.3,313 616,313C617.8,313 618,313.7 618,319.5C618,324.4 617.7,326 616.6,326C615.9,326 615,325 614.6,323.8Z" style="fill:rgb(146,148,146);fill-rule:nonzero;"/>
                </g>
                <g transform="matrix(1.72917,0,0,1.72917,13711.8,-1588.54)">
                    <path d="M783,317.8C783,315.4 783.3,311.9 783.6,310L784.2,306.4L793.8,304.7C799.2,303.7 805.4,303 807.8,303C811.8,303 812,302.9 812,300.1C812,296.5 815.1,294 819.6,294C823,294 824,295.3 824,300C824,302.6 824.3,302.8 829.3,303.2C832.2,303.4 838.8,303.4 843.8,303.2C852.7,302.8 853,302.7 853,300.4C853,298.6 853.6,298 855.1,298C856.9,298 857,298.3 856,299.5C855,300.7 856,301 863.2,301.2C870.4,301.5 871.5,301.7 871.8,303.4C872,304.4 871.6,305.6 870.9,306C869.2,307.1 843.8,307.6 817,307.1C807.9,307 799.7,307.4 795,308.3C787.8,309.6 787.5,309.7 787.2,312.6C786.6,319.4 785.9,322 784.5,322C783.4,322 783,320.8 783,317.8ZM820,298.9C819.3,297.8 818.7,297 818.6,297.2C818.5,297.3 817.8,298.3 817.1,299.3C815.9,300.8 816,301 818.4,301C820.8,301 821,300.8 820,298.9Z" style="fill:rgb(146,148,146);fill-rule:nonzero;"/>
                </g>
                <g transform="matrix(1.72917,0,0,1.72917,13711.8,-1588.54)">
                    <path d="M725.4,314.5C725.1,312.6 725,310.1 725.3,309C725.8,307.1 725.3,307 707.4,307C691.7,307 689,307.2 689,308.5C689,309.3 688.4,310 687.6,310C686.7,310 686.1,307.5 685.6,300.8C684.4,284.6 682.2,277.9 676.1,271.4C672.8,267.8 662.8,263.5 655.5,262.5L650.4,261.9L649.1,256.3C648.1,251.7 648.1,250.6 649.2,249.9C651.2,248.6 655.4,248.8 659.5,250.6C662.7,251.9 664,251.9 668.4,250.9C671.2,250.2 674.1,249.1 674.8,248.3C675.5,247.6 677,247 678.1,247C679.1,247 680,246.4 680,245.6C680,244.8 681,243.3 682.3,242.3C683.5,241.3 685.1,239.3 685.9,237.8C686.7,236.2 687.6,235 688,235C688.3,235 690.1,231 692,226C693.9,221.1 696.1,217 696.8,217C697.4,217 698,216.6 698,216.2C698,215.2 706.5,211 708.5,211C709.3,211 710,210.4 710,209.6C710,208.8 711,207.3 712.3,206.3C714.1,204.8 717,200.1 717,198.5C717,198.2 716.4,198 715.6,198C714.8,198 714,197 713.8,195.8C713.6,194.5 712.5,193.1 711.3,192.5C710,192 709,191.1 709,190.5C709,188.8 705.4,187.1 703.1,187.7C702,188 701,188.6 701,189.1C701,189.6 700.6,190 700,190C699.5,190 698.1,190.9 697,192C694.5,194.5 688,194.8 688,192.4C688,189.4 686.1,187.2 684,187.7C682.9,188 682,188.8 682,189.5C682,190.2 681.6,191 681.1,191.2C680.5,191.4 678.8,196.2 677.1,201.9C675.5,207.6 673.7,212.6 673.2,212.9C672.7,213.2 672.1,214.3 671.7,215.3C671.2,216.6 669.9,217 666,217C661.2,217 660.9,216.9 659.2,213.3C658.3,211.2 657.3,209.3 657,209C654.1,206.1 649,196.4 649,193.8L649,190.7L651.3,192.8C652.6,194 656.3,199.5 659.6,205C662.8,210.5 665.7,215 666,215C666.3,215 667.5,213.5 668.6,211.7C670.8,208.5 671.3,207 674.6,195.6C677.5,185.6 685,180.1 689.4,184.6C690.3,185.4 691,187 691,188.1C691,190.6 691.4,190.5 696.5,187C698.9,185.3 702.2,183.7 703.8,183.4C707.1,182.7 711,184.4 711,186.4C711,187.2 712.1,188.1 713.5,188.4C715.1,188.8 716.5,190.1 717,191.8C717.6,193.3 718.7,195.8 719.6,197.3C721,199.9 721,200.4 719,204.6C716.6,209.6 710.3,214.8 703.6,217.6C699.4,219.3 699,219.9 696.1,227.5C690.3,242.5 682,251.2 670.3,254.6C665,256.1 661,255.8 654.8,253.5C653.7,253 653.4,253.6 653.8,256C654.1,258.5 654.7,259 656.9,259C660.4,259 668.8,261.3 672.6,263.3C677.6,265.9 681.9,270 684.1,274.1C686.4,278.7 689,290.5 689,296.6L689,301L726,301L726,298.7C726,297.4 726.7,293.9 727.6,290.9C729.6,284.2 735.6,278.1 742.6,275.5C749.1,273.1 750.2,271.9 744.9,273.1C735.7,275.2 726.4,270.3 719,259.5C716.7,256.2 715.1,255.1 710.4,253.6C704,251.6 698,246.5 698,243.1C698,239.9 700.3,240.6 704.7,244.9C707.1,247.3 710.2,249.2 713,250C715.5,250.7 718.1,251.4 718.8,251.6C719.5,251.8 720.6,253.2 721.2,254.7C721.9,256.2 723,257.9 723.7,258.3C724.4,258.7 725,260.7 725,262.5C725,265.7 725.2,266 728,266C729.7,266 732.3,266.8 733.7,267.8C735.7,269 738.5,269.5 744,269.5L751.5,269.5L751.8,273C752.1,276.5 752,276.5 745.6,278.9C742,280.3 738.8,282 738.6,282.7C738.3,283.4 737.5,284 736.8,284C735.2,284 731.3,292 730,298C729.5,300.5 729,306 729,310.3C729,316.4 728.7,318 727.5,318C726.7,318 725.8,316.6 725.4,314.5Z" style="fill:rgb(146,148,146);fill-rule:nonzero;"/>
                </g>
                <g transform="matrix(1.72917,0,0,1.72917,13711.8,-1588.54)">
                    <path d="M526.2,305.8C524.5,304.1 524.7,302.3 526.6,301.6C527.5,301.3 535,301 543.2,301L558.3,301L554.2,297.2C547.8,291.3 545.7,285.5 545.5,273C545.4,265.8 544.8,261.5 543.8,259.5C539.3,250.8 539.2,238 543.5,221.6C547.5,206.2 554.8,191 558.2,191C559.2,191 560,191.7 560,192.6C560,194.9 556.8,200 555.3,200C554.6,200 554,200.8 554,201.8C554,202.7 552.4,208 550.4,213.4C543.5,233 542.4,244.4 546.5,254.5C548.5,259.4 549,262.2 549,269.6C549,275.2 549.6,280.4 550.5,283C552.3,288.1 557.6,295.4 560.5,296.6C561.6,297.1 562.6,298.7 562.8,300.3L563.1,303L575.1,303C586.3,303 587,303.1 587,305C587,307 586.3,307 557.2,307C535.4,307 527.1,306.7 526.2,305.8Z" style="fill:rgb(146,148,146);fill-rule:nonzero;"/>
                </g>
                <g transform="matrix(1.72917,0,0,1.72917,13711.8,-1588.54)">
                    <path d="M738,244.5C738,242.5 737.5,242 735.6,242C733.6,242 732.9,241.2 731.5,237C729.6,231.2 724.7,225.7 723.1,227.3C722.5,227.9 722,229 722,229.7C722,230.4 721.4,231 720.8,231C720.1,231.1 716.5,231.5 712.9,231.9C706.1,232.8 702,235.3 702,238.5C702,239.3 701.1,240 700,240C695.6,240 699.1,232.1 704.6,229.5C707.3,228.3 709.5,227.9 712.9,228.4C717.4,229 717.6,228.9 718.7,226.1C720.3,221.7 724.1,221.1 728.4,224.4C730.3,225.8 732.4,228.4 733.2,230.1C738.1,241.8 740.9,244.9 743.4,241.5C744.9,239.6 744.9,239.7 745,243.3C745,246.9 744.9,247 741.5,247C738.4,247 738,246.7 738,244.5Z" style="fill:rgb(146,148,146);fill-rule:nonzero;"/>
                </g>
                <g transform="matrix(1.72917,0,0,1.72917,13711.8,-1588.54)">
                    <path d="M746.1,219.4C743.4,215.9 743.5,215 746.5,215C748.7,215 749,215.4 749,218.5C749,220.4 748.8,222 748.6,222C748.3,222 747.2,220.8 746.1,219.4Z" style="fill:rgb(146,148,146);fill-rule:nonzero;"/>
                </g>
                <g transform="matrix(1.72917,0,0,1.72917,13711.8,-1588.54)">
                    <path d="M786,197L786,194.1L789.5,196.1C791.4,197.3 793,198.6 793,199.1C793,199.6 791.4,200 789.5,200C786.3,200 786,199.8 786,197Z" style="fill:rgb(146,148,146);fill-rule:nonzero;"/>
                </g>
                <g transform="matrix(1.72917,0,0,1.72917,13711.8,-1588.54)">
                    <path d="M737.6,193.4C736.7,189.8 737.8,185 739.6,185C740.6,185 741,186.4 741,190.5C741,194.5 740.6,196 739.6,196C738.8,196 737.9,194.8 737.6,193.4Z" style="fill:rgb(146,148,146);fill-rule:nonzero;"/>
                </g>
                <g transform="matrix(1.72917,0,0,1.72917,13711.8,-1588.54)">
                    <path d="M781.7,190.9C780.6,190.2 780,188.7 780,186.5C780,183.2 780.2,183 783.4,183C785.3,183 787.2,183.5 787.5,184C788.6,185.8 791.8,185 792.4,182.8C793.5,178.7 793.1,178.1 788.5,177.4C784.2,176.8 784,176.6 784,173.4C784,170 784,170 788.8,170L793.5,170.1L787.5,172.7L790,173.5C796.6,175.5 798.8,181.4 794.9,186.4C792.5,189.4 787.7,189.9 784.2,187.4C781.8,185.7 781.5,186.1 783.1,189.2C784.4,191.6 784,192.1 781.7,190.9Z" style="fill:rgb(146,148,146);fill-rule:nonzero;"/>
                </g>
                <g transform="matrix(1.72917,0,0,1.72917,13711.8,-1588.54)">
                    <path d="M748.2,183.3C748.5,179.8 748.8,179.5 752,179.2C754.2,179 755.8,179.4 756.5,180.4C757.5,181.8 757.9,181.8 759.8,180.4C761,179.6 762,178.3 762,177.6C762,175.8 758.7,173 756.7,173C755.4,173 755,172.1 755,169.5L755,166L759.8,166.1L764.5,166.2L757.5,168.2L760.7,169.5C764.3,171 766,173.6 766,177.5C766,183.9 760.6,187.1 754.6,184.1L751.2,182.3L752.1,184.6C752.8,186.7 752.7,187 750.4,187C748.1,187 747.9,186.7 748.2,183.3Z" style="fill:rgb(146,148,146);fill-rule:nonzero;"/>
                </g>
                <g transform="matrix(1.72917,0,0,1.72917,13711.8,-1588.54)">
                    <path d="M738,182.8C738,179.8 739.3,177 740.6,177C741.5,177 742,178.2 742,180.5C742,183.3 741.6,184 740,184C738.9,184 738,183.4 738,182.8Z" style="fill:rgb(146,148,146);fill-rule:nonzero;"/>
                </g>
                <g transform="matrix(1.72917,0,0,1.72917,13711.8,-1588.54)">
                    <path d="M742,168.4C743.2,165.5 748.6,157.4 750,156.5C750.6,156.1 751,157.4 751,159.4C751,162.3 750.6,163 749,163C747.6,163 747,163.7 747,165.4C747,169.3 745.9,171 743.4,171C741.3,171 741.1,170.7 742,168.4Z" style="fill:rgb(146,148,146);fill-rule:nonzero;"/>
                </g>
                <g transform="matrix(1.72917,0,0,1.72917,13711.8,-1588.54)">
                    <path d="M604,162C604,160.9 603.6,160 603,160C602.5,160 602,158.4 602,156.5C602,153.2 602.2,153 605.5,153C607.4,153 609,153.5 609,154C609,154.6 608.1,155 607,155C605.6,155 605.2,155.5 605.7,156.8C606.1,157.7 606.6,158.7 606.9,159C607.2,159.3 608.1,160.5 608.8,161.8C609.9,163.9 609.8,164 607,164C604.7,164 604,163.6 604,162Z" style="fill:rgb(146,148,146);fill-rule:nonzero;"/>
                </g>
                <g transform="matrix(1.72917,0,0,1.72917,13711.8,-1588.54)">
                    <path d="M754.5,137.2C748.1,133.2 743,125.6 740.5,116.4C740.3,115.9 737.2,113.6 733.4,111.4C723.8,105.8 715.1,96.9 711.5,88.7L708.5,82.1L703.6,82C699.1,82 698.3,82.4 694.5,86.3C687.3,93.8 675.2,98.3 672.1,94.6C671.3,93.6 671.5,92.7 673,90.7C676.9,85.7 679.3,78 676.9,78C673.7,78 662.2,71.1 656.5,65.8C643.5,53.7 640.1,37.9 647.2,23.1C650.3,16.6 660.3,7 667.7,3.3L674,0.2L700.4,-0L726.9,-0.1L732.8,2.9C740.8,6.9 749.1,14.8 752.6,21.5C755.5,27 755.6,27.1 759,26.4C760.9,26 764.5,25.5 767,25.3C769.5,25.1 774,24.7 777.2,24.4C789.9,23 812.2,27.5 825,34C832.1,37.6 841.7,44.9 845.3,49.4C855.1,62 856.8,76.8 850.1,90.5C842.2,106.4 819.2,119.6 794.2,122.5C787.9,123.2 787.8,123.2 788.2,120.9C788.4,119 789.4,118.3 792.5,117.7C817.3,112.6 826.9,108.3 837.6,97.5C846.6,88.4 849.4,81.9 848.7,72C847.6,54.9 832.7,40.7 808.5,33.4C795.6,29.6 773.7,28.9 760.2,31.9C744.8,35.3 731.9,41.9 723.4,50.7C718.2,56.1 715.6,60.7 713.9,67.4C712.8,72 711.8,72.8 709.1,71.1C707.4,70 708.2,65.3 711.4,58.5C714.8,51.2 718.5,47.1 721.2,47.8C723,48.2 723.2,48 722.8,46.2C721.9,42.8 728.5,37.9 742,32C746.1,30.2 749.6,28.6 749.8,28.5C750.7,27.7 745.3,19.2 741.5,15.6C725.6,0.1 694.8,-3.6 672.1,7.2C660.9,12.5 651.6,23 649.5,32.8C649.2,34.5 648.4,36 647.9,36C647.4,36 647,37.1 647,38.5C647,39.9 647.4,41 647.9,41C648.4,41 649.3,43.1 649.9,45.8C652.4,55.9 662.8,66.7 674.7,71.6C677.9,72.9 681,74 681.6,74C683.6,74 683.9,77.9 682.5,83.3C681.8,86.2 681.3,88.7 681.6,88.9C682.5,89.8 690.2,83.7 692.3,80.5C694.5,77 697.5,75.9 698.2,78.2C698.5,79.1 699.6,78.9 702.2,77.7C704.2,76.8 706.3,76 706.9,76C707.5,76 708,75.3 708,74.5C708,73.7 708.5,73 709,73C709.6,73 710,73.5 710,74C710,74.6 710.6,75 711.4,75C712.2,75 713.3,77 714,79.8C716.8,91 724.9,100.5 737.5,107.5C745.5,111.9 745.6,112 746.4,116.9C746.7,118.9 748.4,122.8 750.2,125.5L753.4,130.5L754.7,124.5C756.6,116.3 757.3,115.7 763.5,116.4C771.6,117.5 775,118.9 775,121.2C775,123.1 774.6,123.2 768.8,122.6C765.4,122.2 762.1,121.8 761.5,121.7C760.9,121.6 760.6,124.7 760.7,130.3C760.9,140 760.3,140.7 754.5,137.2ZM658,63C658,62.5 657.3,62 656.5,62C655.7,62 655,62.5 655,63C655,63.6 655.7,64 656.5,64C657.3,64 658,63.6 658,63ZM746,14C746,13.5 745.3,13 744.5,13C743.7,13 743,13.5 743,14C743,14.6 743.7,15 744.5,15C745.3,15 746,14.6 746,14Z" style="fill:rgb(146,148,146);fill-rule:nonzero;"/>
                </g>
                <g transform="matrix(1.72917,0,0,1.72917,13711.8,-1588.54)">
                    <path d="M604,159.3C604,155.7 604,155.7 605.9,157.6C606.9,158.6 607.6,159.7 607.4,159.9C607.2,160.1 607.5,160.9 608.1,161.7C609,162.7 608.7,163 606.6,163C604.3,163 604,162.6 604,159.3Z" style="fill:rgb(214,143,81);fill-rule:nonzero;"/>
                </g>
                <g transform="matrix(1.72917,0,0,1.72917,13711.8,-1588.54)">
                    <path d="M633.5,352.5C633,352.4 629.9,351.7 626.8,351C622.1,350.1 621,349.5 621,347.9C621,346.7 620.3,346 619,346C617.4,346 617,345.3 617,342.5C617,338 619.4,337.8 620.6,342.2C621.5,345.1 622.2,345.6 627.5,347.2C630.8,348.1 635.2,349.1 637.3,349.5C642.1,350.3 642.5,353 637.8,352.9C636,352.9 634.1,352.7 633.5,352.5Z" style="fill:rgb(208,74,49);fill-rule:nonzero;"/>
                </g>
                <g transform="matrix(1.72917,0,0,1.72917,13711.8,-1588.54)">
                    <path d="M659,351.6C659,350.8 660.4,349.9 662,349.5C668.2,348.1 668.3,341.6 662.2,335.8C660.2,333.8 657.3,332 655.8,331.6C653.9,331.2 653,330.3 653,329C653,327.9 653.5,327 654,327C654.6,327 655,326.3 655,325.5C655,324.7 655.7,324 656.5,324C657.3,324 658,324.6 658,325.4C658,326.1 659.2,327.6 660.7,328.5C666.4,332.3 669.8,336.2 671,340.4L672.2,344.7L678.8,345.3C686.4,345.9 694.2,344.9 696.4,343C697.8,341.9 698,342.2 698,344.7C698,347.4 697.6,347.8 694.3,348.4C692.2,348.7 687,349 682.8,349C676.5,349 675,348.7 675,347.5C675,346.6 674.1,346 672.5,346C670.7,346 670,346.5 670,348C670,349.3 669.3,350 668,350C666.9,350 666,350.7 666,351.5C666,352.5 664.9,353 662.5,353C660.1,353 659,352.5 659,351.6Z" style="fill:rgb(208,74,49);fill-rule:nonzero;"/>
                </g>
                <g transform="matrix(1.72917,0,0,1.72917,13711.8,-1588.54)">
                    <path d="M697.3,336.5C696.2,333.2 696.3,333 698.6,333C700.7,333 701,333.5 701,336.5C701,338.7 700.5,340 699.7,340C698.9,340 697.9,338.4 697.3,336.5Z" style="fill:rgb(208,74,49);fill-rule:nonzero;"/>
                </g>
                <g transform="matrix(1.72917,0,0,1.72917,13711.8,-1588.54)">
                    <path d="M685.2,326.8C683.3,324.9 683.8,324 687,324C689.3,324 690,324.4 690,326C690,328.3 687.1,328.7 685.2,326.8Z" style="fill:rgb(208,74,49);fill-rule:nonzero;"/>
                </g>
                <g transform="matrix(1.72917,0,0,1.72917,13711.8,-1588.54)">
                    <path d="M616,320.5C616,316.5 618.4,315.6 619.4,319.3C620.4,323 620.1,324 618,324C616.4,324 616,323.3 616,320.5Z" style="fill:rgb(208,74,49);fill-rule:nonzero;"/>
                </g>
                <g transform="matrix(1.72917,0,0,1.72917,13711.8,-1588.54)">
                    <path d="M653.2,304.5C651.6,298.5 651.7,298 653.8,298C655.1,298 656,299.2 656.8,301.9C658.5,307.2 658.3,309 656.2,309C654.9,309 654.1,307.7 653.2,304.5Z" style="fill:rgb(208,74,49);fill-rule:nonzero;"/>
                </g>
                <g transform="matrix(1.72917,0,0,1.72917,13711.8,-1588.54)">
                    <path d="M615,305C615,301.8 615.9,301.3 617.8,303.2C619.7,305.1 619.3,308 617,308C615.4,308 615,307.3 615,305Z" style="fill:rgb(208,74,49);fill-rule:nonzero;"/>
                </g>
                <g transform="matrix(1.72917,0,0,1.72917,13711.8,-1588.54)">
                    <path d="M577,303C577,300.9 578.6,300.5 582.8,301.6C586.7,302.7 585.5,305 581,305C577.7,305 577,304.7 577,303Z" style="fill:rgb(208,74,49);fill-rule:nonzero;"/>
                </g>
                <g transform="matrix(1.72917,0,0,1.72917,13711.8,-1588.54)">
                    <path d="M565.8,302.8C563.7,302.2 562,301.4 562,300.9C562,300.4 561.1,300 560,300C558.9,300 558,299.4 558,298.6C558,297.8 557,297 555.8,296.8C554.3,296.6 553.4,295.7 553.2,294.3C553,293 552.3,292 551.5,292C549.9,292 549,289.8 549,285.9C549,284.3 548.6,283 548,283C547.5,283 547,281.4 547,279.5C547,274.6 549.7,274.8 550.6,279.8C552.4,289.6 559.3,296.8 569.6,299.6C573.4,300.6 576,301.8 576,302.6C576,304.2 571.4,304.3 565.8,302.8Z" style="fill:rgb(208,74,49);fill-rule:nonzero;"/>
                </g>
                <g transform="matrix(1.72917,0,0,1.72917,13711.8,-1588.54)">
                    <path d="M652,294.4C650.5,290.5 650.8,289 653,289C655,289 657,292.3 657,295.6C657,298.1 653,297.2 652,294.4Z" style="fill:rgb(208,74,49);fill-rule:nonzero;"/>
                </g>
                <g transform="matrix(1.72917,0,0,1.72917,13711.8,-1588.54)">
                    <path d="M683.5,292.3C683.2,290.2 682.3,285.9 681.6,282.8C680.4,277.1 680.4,277 682.5,277C684.4,277 684.8,277.8 685.9,283.9C687.4,293.3 687.3,296 685.5,296C684.6,296 683.9,294.6 683.5,292.3Z" style="fill:rgb(208,74,49);fill-rule:nonzero;"/>
                </g>
                <g transform="matrix(1.72917,0,0,1.72917,13711.8,-1588.54)">
                    <path d="M649.2,284.6C648.1,281.5 645,278.3 637.6,272.5C636,271.2 635,269.5 635,267.8C635,266.3 633.7,262.8 632,260C630.4,257.3 629.5,255 630,255C630.6,255 631,254.6 631,254C631,253.5 629.9,253 628.5,253C627,253 624.6,252.3 623,251.5C621.4,250.7 617.8,249.5 615,248.9C610.7,248 610,247.5 610,245.4C610,243.9 610.6,243 611.6,243C614.1,243 622,245.2 622,245.9C622,246.3 622.9,246.6 624,246.7C629.6,247.1 637.6,256.6 638.6,264C639.1,267.5 639.8,269 641.4,269.8C644.8,271.4 650,276.2 650,277.6C650,278.4 650.4,279 650.8,279C651.9,279 655,284.5 655,286.4C655,287.4 654.1,288 652.7,288C651,288 650.1,287.1 649.2,284.6Z" style="fill:rgb(208,74,49);fill-rule:nonzero;"/>
                </g>
                <g transform="matrix(1.72917,0,0,1.72917,13711.8,-1588.54)">
                    <path d="M615.5,279.6C613.9,278.9 611.2,277.2 609.5,275.8C607.3,274 606,273.5 604.5,274.1C600.7,275.6 598,275.1 598,273C598,269.1 607.1,267.6 610.7,270.9C611.8,271.9 614.1,273.5 615.9,274.5C619,276.1 619.2,276.1 619.7,274.1C620.7,270.3 623,271.7 623,276C623,278.2 622.6,280 622.1,280C621.6,280 620.6,280.2 619.8,280.5C619.1,280.7 617.2,280.3 615.5,279.6Z" style="fill:rgb(208,74,49);fill-rule:nonzero;"/>
                </g>
                <g transform="matrix(1.72917,0,0,1.72917,13711.8,-1588.54)">
                    <path d="M624,276C624,274.4 624.7,274 627.5,274C631.4,274 632.1,275.4 629.1,277C626,278.6 624,278.2 624,276Z" style="fill:rgb(208,74,49);fill-rule:nonzero;"/>
                </g>
                <g transform="matrix(1.72917,0,0,1.72917,13711.8,-1588.54)">
                    <path d="M563,273.4C560,272.6 556,271 554.2,269.9C550.8,268 550.8,268 550.3,270C549.4,273.5 547,272.4 547,268.5C547,265.7 547.4,265 549,265C550.1,265 551,264.6 551,264C551,263.5 549.9,263 548.5,263C546.3,263 546,262.6 546,259.5C546,255.2 547,255.1 549.3,259C550.3,260.6 553.2,263.4 555.8,265.2C558.4,266.9 560.8,268.8 561.1,269.2C561.4,269.7 562.8,269.8 564.1,269.5C567.7,268.6 572,270.5 572,273C572,275.4 570.6,275.4 563,273.4Z" style="fill:rgb(208,74,49);fill-rule:nonzero;"/>
                </g>
                <g transform="matrix(1.72917,0,0,1.72917,13711.8,-1588.54)">
                    <path d="M575,272C575,270.1 575.7,270 584,270C592.3,270 593,270.1 593,272C593,273.9 592.3,274 584,274C575.7,274 575,273.9 575,272Z" style="fill:rgb(208,74,49);fill-rule:nonzero;"/>
                </g>
                <g transform="matrix(1.72917,0,0,1.72917,13711.8,-1588.54)">
                    <path d="M673.3,269.7C669.1,266.9 669.2,266 673.5,266C676.7,266 677,266.2 677,269C677,270.7 676.9,272 676.8,271.9C676.6,271.9 675,270.9 673.3,269.7Z" style="fill:rgb(208,74,49);fill-rule:nonzero;"/>
                </g>
                <g transform="matrix(1.72917,0,0,1.72917,13711.8,-1588.54)">
                    <path d="M616.1,267.2C615.4,265.9 615.5,264.9 616.2,264.2C618,262.4 618.7,262.7 621,266L623.1,269L620.1,269C618.2,269 616.7,268.3 616.1,267.2Z" style="fill:rgb(208,74,49);fill-rule:nonzero;"/>
                </g>
                <g transform="matrix(1.72917,0,0,1.72917,13711.8,-1588.54)">
                    <path d="M625.3,265C624,262.9 623,260.6 623,260C623,259.4 624,259 625.3,259.2C626.8,259.4 628.2,260.9 629.5,263.7C630.6,266 632.2,268.1 633,268.3C633.8,268.6 632.9,268.8 631,268.9C627.9,269 627.2,268.5 625.3,265Z" style="fill:rgb(208,74,49);fill-rule:nonzero;"/>
                </g>
                <g transform="matrix(1.72917,0,0,1.72917,13711.8,-1588.54)">
                    <path d="M663.8,265.5C663.5,265.2 660.1,264.6 656.1,264.1C652.1,263.6 648.6,263 648.4,262.7C648.1,262.4 648.2,261.1 648.6,259.6C649.2,256.9 652,255.9 652,258.4C652,259.3 653.7,260 656.8,260.4C667.2,261.9 668,262.2 668,264.1C668,265.9 665.1,266.8 663.8,265.5Z" style="fill:rgb(208,74,49);fill-rule:nonzero;"/>
                </g>
                <g transform="matrix(1.72917,0,0,1.72917,13711.8,-1588.54)">
                    <path d="M648.6,253.8C647.7,250.1 647.9,249 649.6,249C651,249 651,248.8 649.6,247.5C648.2,246.1 647.2,242.1 647.1,238C647.1,237.2 646.8,234.5 646.4,232C646.1,229.5 645.7,225.5 645.5,223C645.3,220.5 644.9,217.1 644.5,215.4C644,213.3 644.2,212 645,211.5C647.1,210.2 649,213.4 649.6,219C649.9,222 650.4,226.3 650.6,228.5C650.9,230.7 651.3,234.5 651.4,237C651.9,244.6 652.9,246.7 656.8,248.6C661.8,251 668.6,250.8 673.6,248.2C677.5,246.2 687,236.8 687,234.9C687,234.4 687.5,234 688,234C688.6,234 689,235.6 689,237.5C689,239.9 688.5,241 687.5,241C686.7,241 686,241.8 686,242.8C686,245.4 682.8,248 679.7,248C677.7,248 677,248.5 677,250C677,251.6 676.3,252 674,252C672.4,252 671,252.5 671,253.1C671,254.7 655.7,253.7 655.2,252.1C654.5,249.9 652,251 652,253.5C652,256.6 649.5,256.8 648.6,253.8Z" style="fill:rgb(208,74,49);fill-rule:nonzero;"/>
                </g>
                <g transform="matrix(1.72917,0,0,1.72917,13711.8,-1588.54)">
                    <path d="M542,247.5C542,243.5 544.4,242.6 545.4,246.3C546.4,250 546.1,251 544,251C542.4,251 542,250.3 542,247.5Z" style="fill:rgb(208,74,49);fill-rule:nonzero;"/>
                </g>
                <g transform="matrix(1.72917,0,0,1.72917,13711.8,-1588.54)">
                    <path d="M600.3,247C597.1,245.7 597.2,242 600.4,242C604.6,242 608,243.8 608,246C608,247.5 607.4,248 605.3,247.9C603.7,247.9 601.5,247.5 600.3,247Z" style="fill:rgb(208,74,49);fill-rule:nonzero;"/>
                </g>
                <g transform="matrix(1.72917,0,0,1.72917,13711.8,-1588.54)">
                    <path d="M588.8,246.4C588.5,246.1 585.2,245.7 581.5,245.5C574.2,245 573,244.6 573,242.6C573,241.5 575,241.3 581.8,241.5C591.8,241.8 594,242.4 594,245.1C594,246.4 593.3,247 591.7,247C590.4,247 589.1,246.7 588.8,246.4Z" style="fill:rgb(208,74,49);fill-rule:nonzero;"/>
                </g>
                <g transform="matrix(1.72917,0,0,1.72917,13711.8,-1588.54)">
                    <path d="M542,239.3C542,238.3 542.3,235.1 542.6,232.3C543.2,227.9 543.6,227 545.2,227C547.2,227 547.3,228.3 545.4,238.3C544.8,241.3 542,242.1 542,239.3Z" style="fill:rgb(208,74,49);fill-rule:nonzero;"/>
                </g>
                <g transform="matrix(1.72917,0,0,1.72917,13711.8,-1588.54)">
                    <path d="M573.5,232.8C575.1,222.4 577.2,218.1 579.6,220.1C580.4,220.7 580.3,222.8 579.4,228.1C577.8,236.5 577.5,237 574.9,237C573,237 572.9,236.6 573.5,232.8Z" style="fill:rgb(208,74,49);fill-rule:nonzero;"/>
                </g>
                <g transform="matrix(1.72917,0,0,1.72917,13711.8,-1588.54)">
                    <path d="M691.3,225.8C693.2,221.2 695,221 695,225.4C695,228.6 694.7,229 692.5,229C690.1,229 690,228.9 691.3,225.8Z" style="fill:rgb(208,74,49);fill-rule:nonzero;"/>
                </g>
                <g transform="matrix(1.72917,0,0,1.72917,13711.8,-1588.54)">
                    <path d="M546,219.4C546,215.9 548.1,209 549.2,209C549.6,209 550,207.9 550,206.5C550,204.5 550.5,204 552.4,204L554.8,204L551.6,213C548.6,221.8 546,224.7 546,219.4Z" style="fill:rgb(208,74,49);fill-rule:nonzero;"/>
                </g>
                <g transform="matrix(1.72917,0,0,1.72917,13711.8,-1588.54)">
                    <path d="M658.7,213.1C656.1,208.8 654,205 654,204.6C654,204.3 655.1,204 656.5,204C658.5,204 659,204.5 659,206.5C659,208 659.6,209 660.4,209C662,209 663,211.1 663,214.6C663,215.9 663.4,217 664,217C665.2,217 670,212.2 670,211C670,210.4 670.7,210 671.5,210C672.3,210 673,209.2 673,208.3C673,207.3 673.7,203.5 674.6,199.8C676.1,193.8 676.6,193 678.6,193C680.9,193 680.9,193.1 679.5,197.1C678.7,199.4 678,202 678,203C678,203.9 676.6,207.4 674.9,210.8C672,216.7 667.7,221 664.8,221C664,221 661.3,217.5 658.7,213.1Z" style="fill:rgb(208,74,49);fill-rule:nonzero;"/>
                </g>
                <g transform="matrix(1.72917,0,0,1.72917,13711.8,-1588.54)">
                    <path d="M774,217C774,215.3 774.7,215 778.5,215C782.3,215 783,215.3 783,217C783,218.7 782.3,219 778.5,219C774.7,219 774,218.7 774,217Z" style="fill:rgb(208,74,49);fill-rule:nonzero;"/>
                </g>
                <g transform="matrix(1.72917,0,0,1.72917,13711.8,-1588.54)">
                    <path d="M788.7,208.1C789.1,206.6 788.5,206 786.1,205.5C781.8,204.6 782,202 786.4,202C791.8,202 793,202.8 793,206.6C793,209.5 792.7,210 790.6,210C788.7,210 788.3,209.6 788.7,208.1Z" style="fill:rgb(208,74,49);fill-rule:nonzero;"/>
                </g>
                <g transform="matrix(1.72917,0,0,1.72917,13711.8,-1588.54)">
                    <path d="M765,205L765,201L772.5,201C779.5,201 780,201.1 780,203.1C780,205.1 779.6,205.2 774.5,204.5C769.1,203.9 769,203.9 769,206.4C769,208.3 768.5,209 767,209C765.3,209 765,208.3 765,205Z" style="fill:rgb(208,74,49);fill-rule:nonzero;"/>
                </g>
                <g transform="matrix(1.72917,0,0,1.72917,13711.8,-1588.54)">
                    <path d="M704.1,204C702.1,202.8 703.4,200.3 707.1,198.5C710.1,196.9 710.2,196.9 709.6,198.5C709.3,199.4 709,200.8 709,201.5C709,203.4 705.7,205.1 704.1,204Z" style="fill:rgb(208,74,49);fill-rule:nonzero;"/>
                </g>
                <g transform="matrix(1.72917,0,0,1.72917,13711.8,-1588.54)">
                    <path d="M649,197.7C647.1,195 645.5,192.3 645.5,191.7C645.5,189.7 649.2,190.4 650.4,192.5C651,193.6 651.9,194.8 652.3,195.1C652.8,195.4 653,197.2 652.8,199.1L652.5,202.5L649,197.7Z" style="fill:rgb(208,74,49);fill-rule:nonzero;"/>
                </g>
                <g transform="matrix(1.72917,0,0,1.72917,13711.8,-1588.54)">
                    <path d="M556,195.5C556,192.4 556.3,192 558.5,192C561.5,192 561.5,192.3 559.3,196.1C557,199.9 556,199.8 556,195.5Z" style="fill:rgb(208,74,49);fill-rule:nonzero;"/>
                </g>
                <g transform="matrix(1.72917,0,0,1.72917,13711.8,-1588.54)">
                    <path d="M700.8,197.3C698.2,196.6 698.6,195.6 702.5,192.6C705.8,190 707,188 705.2,188C704.7,188 702.3,189.3 699.9,191C694.5,194.6 694,194.7 694,191.5C694,189.4 694.5,189 697,189C699.3,189 700,188.6 700,187C700,185.4 700.7,185 703.1,185C706.7,185 708.5,186.5 709.2,190.3C709.6,192.6 709.2,193.5 706.5,195.5C704.8,196.9 703.1,197.9 702.9,197.9C702.7,197.8 701.7,197.6 700.8,197.3Z" style="fill:rgb(208,74,49);fill-rule:nonzero;"/>
                </g>
                <g transform="matrix(1.72917,0,0,1.72917,13711.8,-1588.54)">
                    <path d="M686.2,195.7C684.8,194 685.8,190 687.6,190C688.4,190 689,190.7 689,191.5C689,192.3 689.9,193 691,193C693.5,193 693.6,194.6 691.1,196C688.5,197.3 687.5,197.3 686.2,195.7Z" style="fill:rgb(208,74,49);fill-rule:nonzero;"/>
                </g>
                <g transform="matrix(1.72917,0,0,1.72917,13711.8,-1588.54)">
                    <path d="M614.3,170.1C608.7,169.1 603.1,164.4 601.1,158.8C600.2,156.2 600.3,156 602.6,156C604.5,156 605.2,156.6 605.6,158.8C606.3,161.9 613.1,166 617.7,166C621.9,166 625,167.1 625,168.5C625,169.2 624,170 622.8,170.4C620.3,171 620.3,171 614.3,170.1Z" style="fill:rgb(208,74,49);fill-rule:nonzero;"/>
                </g>
                <g transform="matrix(1.72917,0,0,1.72917,13711.8,-1588.54)">
                    <path d="M629,165.3C629,164 628.6,163 628,163C627.5,163 627.9,161.5 629,159.8C630.1,158 631,156.2 631,155.8C631,155.3 628.3,155 625,155C619.8,155 619,154.8 619,153.1C619,151.4 620,151.2 627.3,150.8C632.3,150.6 635.8,150.8 636.2,151.5C637.1,152.7 636.1,156.3 634.9,156.8C634.4,157 634,158.2 634,159.5C634,160.8 632.9,163.2 631.5,164.7C629.1,167.4 629.1,167.4 629,165.3Z" style="fill:rgb(208,74,49);fill-rule:nonzero;"/>
                </g>
                <g transform="matrix(1.72917,0,0,1.72917,13711.8,-1588.54)">
                    <path d="M600,153C600,151.6 603.5,150 606.4,150C608.3,150 609,150.5 609,152C609,153.7 608.3,154 604.5,154C602,154 600,153.6 600,153Z" style="fill:rgb(208,74,49);fill-rule:nonzero;"/>
                </g>
                <g transform="matrix(1.72917,0,0,1.72917,13711.8,-1588.54)">
                    <path d="M589.5,136C588.2,130.1 595.3,123 602.5,123C606.4,123 611.5,125.7 612.9,128.5C613.5,129.9 614.5,132.1 615.1,133.4C615.7,134.7 615.9,136.3 615.6,136.9C614.2,139.2 612,137.9 610.2,133.6C608.8,130.5 607.5,129.1 605.5,128.6C600.3,127.3 594.6,130.9 593.5,136.1C592.6,139.9 590.3,139.8 589.5,136Z" style="fill:rgb(208,74,49);fill-rule:nonzero;"/>
                </g>
                <g transform="matrix(1.72917,0,0,1.72917,13711.8,-1588.54)">
                    <path d="M622.7,137.3C621.4,136 622,131.7 624,128.5C626.3,124.8 632.1,121.5 633.1,123.2C633.5,123.9 635.4,124.1 637.8,123.8C640.4,123.4 642.6,123.7 643.7,124.5C646.2,126.2 649.4,133.4 648.7,135.4C647.6,138.2 645.4,137.1 643.5,133.1C640.6,126.6 633.7,125.2 629,130.2C627.9,131.4 627,133.1 627,134C627,136.7 624.2,138.8 622.7,137.3Z" style="fill:rgb(208,74,49);fill-rule:nonzero;"/>
                </g>
                <g transform="matrix(1.72917,0,0,1.72917,13711.8,-1588.54)">
                    <path d="M747.5,346.8C746.4,346.2 745.2,345.2 744.8,344.6C744.4,343.9 739.9,343.7 732.5,343.9C724.5,344.1 720.5,343.8 719.5,343C718.5,342.1 718,339.8 718,335.7C718,329.8 718.1,329.5 722.3,325.6L726.7,321.5L727.4,307.9C727.7,300.4 728.7,292 729.5,289.2C731.3,283.2 735.7,279 742.6,276.5C749.4,274.2 750.5,273.5 750.8,271.6C751.1,270.3 750.7,270.2 748.5,271C744.5,272.5 735.2,272.2 731.5,270.4C727.7,268.6 720.4,261 717.8,256.2C716.6,254 715.4,253 713.7,253C710.1,253 704.8,251 702.3,248.7C700.4,247 700,245.6 700,240.3C700,231.3 701.5,230 712,230L720,230L720,227C720,224.2 720.2,224 723.8,224C728.4,224 729.6,225.2 733.8,233.5C735.4,236.8 737.9,240.5 739.2,241.8L741.7,244L752.1,227L748.1,221.8C740.7,211.7 737.9,203.5 737.8,191.4C737.8,175.8 742.3,164.5 752.9,153.9C783.3,123.6 835.2,139.7 842.2,181.8C844.7,196.6 839.8,213 829.6,224.6L825.1,229.8L828.5,238.2C830.4,242.9 834,254.1 836.6,263.1C839.1,272.1 841.8,280.5 842.6,281.7C843.3,282.9 845.2,284.1 846.8,284.5C850.7,285.3 856.6,290.4 857.4,293.6C857.9,295.3 857.5,297.1 856.5,298.7C854.9,301 855,301.2 856.9,301.7C858.1,302 859,302.9 859,303.6C859,304.7 857.1,305 850.6,305C845.9,305 841.8,305.5 841.5,306C840.5,307.7 833.8,307.1 828,304.7C823.9,303.1 822.1,301.7 820.9,299.3L819.3,296.1L816.9,298.7C813.6,302.3 807.7,304.7 796.8,307C791.7,308.1 787.2,309 786.8,309C785.9,309 785,315.3 784.1,329.3C783.2,343 783.4,342.8 771.9,345.9C763.6,348.2 750.8,348.7 747.5,346.8ZM787,211.2C792,205.1 791.6,204.8 774.6,203.4L766.8,202.7L767.5,205.1C768.9,209.6 772,213.8 775.2,215.3C779.3,217.3 783.1,216 787,211.2ZM802.6,195.5C806,193.3 809,188.1 809,184.5C809,180.5 806.2,175.1 802.8,172.7C799.6,170.3 792.7,170 789,172L786.5,173.4L789.3,174L792.1,174.5L788.7,177.8C785.6,180.8 785.3,181.5 786,184.6C786.8,188.1 786.2,188.8 784.2,186.8C782.3,184.9 781.7,186.6 783.3,189.7C784.9,192.7 788.6,196.4 791,197.3C793.4,198.3 799.9,197.3 802.6,195.5ZM770.5,192.6C780,188.6 780.4,173.4 771.1,168.5C766.7,166.3 758,166.6 758,169.1C758,169.6 758.9,170 760,170C761.3,170 761.8,170.5 761.4,171.5C761,172.3 760.3,173 759.7,173C757.7,173 755,176.3 755,178.7C755,180.3 755.6,181 757,181C758.3,181 759,181.7 759,183C759,185.5 756.4,185.6 753.8,183.3C752.8,182.4 751.7,182 751.4,182.3C750.3,183.4 754.5,189.4 758,191.7C761.8,194.4 765.6,194.6 770.5,192.6Z" style="fill:rgb(20,137,66);fill-rule:nonzero;"/>
                </g>
                <g transform="matrix(1.72917,0,0,1.72917,13711.8,-1588.54)">
                    <path d="M635.5,354C626.5,352.8 618.5,349.5 617.1,346.4C616.5,344.9 615.5,335.6 615,325.7C614.4,315.8 613.8,307.5 613.7,307.3C613.5,307.2 593.6,306.7 569.4,306.3C531.4,305.6 525.5,305.3 525.5,304C525.5,302.7 528.2,302.5 542.8,302.2L560,302L554.7,296.7C547.9,290.1 546,284.9 546,272.6C546,265.2 545.5,262.4 543.5,257.5C540.6,250.3 540.1,238.2 542.4,227.3C545.9,211 555.2,190.5 558.9,191.2C561.1,191.7 561,192.3 555.7,203.1C543.5,228.2 542.1,253.7 552.5,262.8C558.4,268.1 567.6,270.3 583,270.4C590.4,270.4 599,270.1 602.1,269.6C607.4,268.9 607.9,269.1 612.8,272.5C615.6,274.4 618.4,276 619,276C620.7,276 620.1,272.4 618,269.7C615.7,266.8 615.4,264 617.4,264C618.8,264 622.2,267.7 624.6,271.6C625.5,273.1 626.1,273.2 627,272.3C628,271.4 627.7,269.9 625.6,265.5C623.5,260.8 623.3,259.8 624.5,259.3C626.6,258.6 628.7,260.5 630,264.6C631.3,268.3 634,269.3 634,266C634,262.4 631.4,257.5 627.9,254.6C621.7,249.3 620,248.9 587.8,246C581.4,245.4 575.3,244.7 574.4,244.3C573,243.8 572.8,242.7 573.3,237.1C573.6,233.5 574.4,228.1 575,225.3C575.9,221 576.6,220 578.2,220C580.1,220 580.2,220.4 579.6,224.3C579.3,226.6 578.7,231.3 578.4,234.8C577.7,240.9 577.8,241 580.1,241C586.6,241.1 616.9,244 620,244.9C629.6,247.7 637.4,256.1 638.3,264.4C638.6,267.6 639.3,268.6 642.4,270.5C648.5,274.2 651.9,278 654,283.7C656.2,289.5 658,305.7 658,319.1L658,327.8L661,329C665.1,330.7 669.7,336.2 671,340.9L672,344.8L678.5,345.5C686.3,346.4 693.9,345.4 696.3,343.3C700.5,339.4 696.4,331.4 688.3,327.9L684,326.1L684,309.9C684,274.9 679.6,267.7 656.2,263.7L648.9,262.5L648.4,253.5C648.2,248.6 647.1,237.5 646.1,229C644.8,218.1 644.6,213.1 645.3,212.2C647.5,209.4 648.9,213.6 650.5,228C651.4,236 652.4,243.5 652.6,244.7C653.6,250 665.9,252.2 673.5,248.5C681.5,244.6 687.6,236.1 693.1,221.5C695,216.3 695.4,215.9 702.5,212.6C709.6,209.1 715,204.3 715,201.4C715,199.5 714.6,199.6 710.1,202.2C706.5,204.2 703,204.2 703,202.1C703,201.6 705,199.9 707.5,198.3C710,196.8 712,194.9 712,194.3C712,192.2 710.1,192.8 705.5,196.1C701.3,199.1 699,199.3 699,196.6C699,195.8 700.6,194.2 702.5,192.9C705.9,190.6 707.1,188 704.9,188C704.3,188 701.9,189.4 699.4,191.1C694.1,194.7 689,196.9 687.3,196.3C686.5,196 686,194.1 686,191.9C686,189.8 685.5,188 685,188C683.5,188 680.2,193.8 678.9,198.5C675.7,209.9 674.6,212.4 670.5,216.7C668.1,219.2 665.5,221 664.8,220.8C664.1,220.6 662.6,218.9 661.5,217.1C660.4,215.4 656.2,208.9 652.3,202.8C645.4,192.2 644.7,190.1 648.2,190C649.3,190 653.5,195.8 659.3,205.5C662.3,210.4 665.2,214.6 665.8,214.8C667.7,215.4 671.7,207.9 674,199.5C676.6,189.9 679,185.6 682.9,184C686.7,182.5 689.7,184 690.7,188L691.5,191L696.4,187.5C702.4,183.3 708,182.7 710.4,186.1C711.2,187.3 712.9,188.8 714.2,189.4C715.5,190 716.6,191.5 716.8,192.7C717,193.9 717.8,195.4 718.6,196C719.4,196.7 720,198.3 720,199.7C720,205.4 714,212.1 704.4,216.9C699.6,219.2 698.1,220.5 697.6,222.7C696.2,228.4 689.9,239.9 685.7,244.6C683.2,247.3 679.1,250.6 676.6,251.9C670.4,254.9 661.7,255.7 656.7,253.7L653,252.1L653,255.5C653,258.7 653.1,258.8 658.3,259.5C670.1,261.1 680,267.1 684,274.9C685.9,278.8 687.5,286.1 688.5,295.8L689.2,302L725.7,302L727,295.8C727.6,292.3 729.1,287.8 730.3,285.7C732.7,281.5 739.4,276.6 745.2,274.8C750.9,273.1 749.8,272.2 742.7,272.7C732.8,273.5 726.4,269.9 719.5,259.5C717,255.6 715.2,254 713.7,254C710,253.9 703.6,250.5 700.6,246.9C698.2,244.1 697.9,243 698.3,239.1C698.7,235.7 699.6,233.9 701.9,231.8C704.6,229.4 705.8,229 711.5,229C717.5,229 718,228.8 719.2,226.3C722.3,219.8 731.3,224.3 734.5,233.9C735.3,236.5 737.1,239.7 738.5,241.2C741.2,244.1 741.8,247 739.7,247C737.6,247 733.5,242 730.5,236C725.9,226.6 723,224.5 723,230.5L723,234L715.1,233.4C708,232.8 707.1,232.9 705.1,234.9C702.2,237.8 702.3,243 705.3,245.8C706.5,246.9 709.8,248.4 712.5,249.1C715.3,249.7 718,250.4 718.7,250.6C719.4,250.8 720.8,252.7 721.9,254.8C724.7,260.2 733.3,267.8 737.7,268.6C742.7,269.5 748.9,267.5 749.4,264.7C749.6,263.5 750.3,259.1 750.9,255C752.2,247 753.8,243.9 755.8,246.2C756.5,247.1 756.5,249.1 755.9,252.5C755.3,255.3 754.6,261.7 754.2,266.9C753.4,277.2 753.8,276.7 745.6,279.5C734.1,283.6 730.9,290.1 730.5,311.2L730.2,324L725.6,328.3C722.1,331.6 721,333.4 721,335.6C721,340 722.6,341 729.6,341C737.9,341 742,340.1 742,338.2C742,335.8 746.7,328.4 749.3,326.7C751.6,325.2 751.8,324.6 752.2,311.2C752.6,298.6 752.9,296.8 755.4,291.7C757.3,287.7 759.4,285.3 762.6,283.1C767.4,280 776.7,277.3 779.4,278.3C781.7,279.2 780.2,281.9 777.1,282.6C766.8,284.8 760.1,289.7 758,296.5C757.4,298.7 756.6,306.5 756.3,313.9L755.7,327.3L751.4,331.5C743.8,338.7 746.5,345 757.1,345C762.2,345 775.7,341.5 778.4,339.5C780,338.3 780.5,336.2 781.1,326.3C782,312.3 782.9,306 783.8,306C786.8,305.9 804,301.7 807.3,300.2C811.5,298.3 817,292.9 817,290.6C817,290 814.8,281.6 812,272.1C806.6,253.4 806.2,251 808.5,251C810.6,251 811.3,252.7 816.5,271.5C823.9,298.3 823.8,298.1 829,300.7C834.4,303.4 838.1,304 838.7,302.3C839,301.6 838,300.5 836.5,299.8C833.2,298.3 833.6,295.4 837,295.7C838.4,295.9 840.6,297.3 842,299L844.6,301.9L858,302.2C869.2,302.5 871.5,302.8 871.5,304C871.5,305.4 863.4,306.1 837,307C835.6,307 828.5,306.8 821.1,306.4C810.4,305.9 805.7,306.1 797.4,307.6L787.2,309.4L786.6,313.5C786.3,315.7 785.8,322 785.4,327.5C785.1,333 784.2,338.7 783.4,340.1C779.6,347.6 751.9,352 745.6,346.1C743.4,344 742.9,343.9 736.9,345C725.7,347.1 717.9,344.4 716.5,338C715.6,334 719.2,326.6 723.1,324.3C725.9,322.6 726,322.4 726,314.3L726,306L689,306L689,322.6L693,324.9C701,329.4 704.8,338.8 701.1,344.7C698.4,349 693.4,350.2 680.5,349.9C672.1,349.7 669.9,349.9 668.6,351.3C667.7,352.2 665.3,353.4 663.2,354C659,355.1 644.4,355.1 635.5,354ZM664.8,348.4C669.6,345.1 666.3,337.3 658.3,332.9L653.5,330.3L652.9,312.4C652.2,294 651.1,286.7 647.9,281.5C643.8,274.7 634.3,270.8 631.4,274.8C630.6,275.9 628.7,277.1 627,277.5C625.4,277.9 623.8,278.6 623.5,279.1C622.2,281.1 615.4,280 611.5,277.2L607.7,274.3L590.4,274.8C571.2,275.3 563.6,274.4 555.8,270.4C553.2,269.1 550.8,268 550.5,268C549.4,268 550.1,278.9 551.5,283.7C553.3,289.6 558.5,295.5 564.5,298.1C570.8,300.9 580.6,302 599.7,302C615.1,302 617,302.2 617.9,303.8C618.4,304.7 619.1,313.4 619.5,323C620.2,343.6 620.4,344.6 623.1,346.1C630.2,349.8 660.3,351.6 664.8,348.4ZM821,300.8C821,300.1 820.6,298.8 820,298C819.3,296.8 818.8,296.8 817.1,298.4C814.2,301 814.5,302 818,302C819.7,302 821,301.5 821,300.8Z" style="fill:rgb(10,14,16);fill-rule:nonzero;"/>
                </g>
                <g transform="matrix(1.72917,0,0,1.72917,13711.8,-1588.54)">
                    <path d="M772,218.1C770,217.1 767.6,214.5 766.3,212C764.1,207.8 763.2,200.6 764.8,199.6C765.8,199 791.7,201.7 793.1,202.6C794.9,203.7 793.4,209.8 790.4,213.7C785.8,219.8 778.4,221.6 772,218.1ZM784.7,213.4C786,212.6 787.6,210.7 788.5,209.1C790.3,205.4 790.3,205.4 777.1,204.5L767.8,203.8L768.5,206.1C770.9,214.6 778,217.8 784.7,213.4Z" style="fill:rgb(10,14,16);fill-rule:nonzero;"/>
                </g>
                <g transform="matrix(1.72917,0,0,1.72917,13711.8,-1588.54)">
                    <path d="M784.6,186.9C781.2,184.2 781,179.2 784.3,176.2C790.5,170.4 799.5,177.3 795.6,184.9C793.2,189.5 788.9,190.3 784.6,186.9Z" style="fill:rgb(10,14,16);fill-rule:nonzero;"/>
                </g>
                <g transform="matrix(1.72917,0,0,1.72917,13711.8,-1588.54)">
                    <path d="M753.6,182.9C748.4,178.8 751.8,170 758.5,170C760.9,170 762.4,170.7 763.9,172.6C766.7,176.1 766.5,179.5 763.5,182.5C760.5,185.5 757.1,185.7 753.6,182.9Z" style="fill:rgb(10,14,16);fill-rule:nonzero;"/>
                </g>
                <g transform="matrix(1.72917,0,0,1.72917,13711.8,-1588.54)">
                    <path d="M612,169.5C607.4,167.4 604.2,164.4 601.8,159.7C599.2,154.5 599.7,151.7 603.5,150.9C605.2,150.5 613.1,150.2 621.3,150.1L636,150L636,153.8C636,158.6 631.3,166.3 627.1,168.5C622.5,170.9 616,171.3 612,169.5ZM627.8,161.5C629.5,159.6 631,157.1 631,156C631,154 630.6,154 618.3,154.6C611.2,155 605.4,155.4 605.2,155.5C605,155.7 605.5,157.1 606.3,158.7C610.9,167.6 620.9,168.9 627.8,161.5Z" style="fill:rgb(10,14,16);fill-rule:nonzero;"/>
                </g>
                <g transform="matrix(1.72917,0,0,1.72917,13711.8,-1588.54)">
                    <path d="M589.4,137.5C587.6,132.9 594,124.6 600.3,123.5C607,122.2 616.6,129.7 615.8,135.5C615.3,138.7 612.8,137.8 610.6,133.5C609.4,131.2 607.4,129.2 605.9,128.6C600.6,126.8 594.5,130.3 593.3,136C592.7,139.2 590.3,140 589.4,137.5Z" style="fill:rgb(10,14,16);fill-rule:nonzero;"/>
                </g>
                <g transform="matrix(1.72917,0,0,1.72917,13711.8,-1588.54)">
                    <path d="M753.7,136C748.4,132.7 743.5,125.7 741.8,119.2C740.9,115.5 740.1,114.6 734.9,111.9C723.7,105.9 713.1,94.3 710,84.7L708.8,80.9L703.3,81.6C698.6,82.2 697.2,82.8 694.4,85.9C688.6,92.4 676.7,97.5 673,95.1C671.7,94.2 671.7,93.8 673,91.8C680,80.7 679.8,79.4 670,74.7C659.9,69.8 651.1,61.5 647.2,53.4C644.9,48.3 644.5,46.2 644.5,38.5C644.5,30.6 644.9,28.8 647.4,23.7C651.1,16.1 659.1,8.2 667.9,3.6C674.5,0.1 675.2,0 684.6,0.1L694.5,0.2L688,1.5C669.8,5.2 655.4,15.5 650.5,28.4C648.3,34.1 648.8,45.9 651.4,51.2C655.7,60.1 666.1,68.8 677.4,73.1C682.7,75 683,75.3 683,78.6C683,80.5 682.3,83.7 681.5,85.7C680.7,87.7 680.2,89.5 680.4,89.8C681.4,90.7 690.6,83.9 692.8,80.6C695.1,77.3 695.6,77.1 701.3,76.8L707.5,76.5L708.2,70.6C710.3,54.3 722,41 742,32.3C746.1,30.5 749.6,28.6 749.8,28C750.4,26.4 745.6,18.9 741.8,15.3C734.5,8.3 723.3,3.1 711.2,1C707.2,0.4 707.9,0.2 716.2,0.1C727.4,0 731,1.2 740.6,8.3C746.9,12.9 752.3,19.6 754.2,25.1C754.9,27 755.7,27.9 756.6,27.6C765.5,24.2 794.1,24.4 807.5,27.9C811.9,29 819.6,32 824.5,34.4C844.5,44.3 855.1,59.7 853.7,76.7C851.4,105.9 809.3,128 767.6,122C763.8,121.4 760.5,121.2 760.3,121.4C759.8,121.9 759.7,132 760.2,135.9C760.6,139.4 759,139.4 753.7,136ZM757,117.9C757.9,116.4 758.7,116 760.3,116.5C764.9,117.9 791.3,118.3 798.4,117C824.4,112.4 843.9,98.2 848.4,80.7C854.5,57 829.2,34.2 791.9,29.8C752.2,25.1 713,46.7 713,73.3C713,80.6 714.4,84.9 719.2,92C723.5,98.4 731.5,105.2 740.1,109.5C744.3,111.7 744.8,112.3 746.3,117.9C747.3,121.5 749.3,125.4 751.2,127.6L754.5,131.3L755.2,125.7C755.6,122.6 756.4,119.1 757,117.9Z" style="fill:rgb(10,14,16);fill-rule:nonzero;"/>
                </g>
                <g transform="matrix(1.72917,0,0,1.72917,13711.8,-1588.54)">
                    <path d="M623.3,137.3C621.4,136.6 621.7,132.9 624,129.2C630.1,119.2 643.1,120.1 647.7,130.8C648.8,133.4 648.8,134.5 647.9,135.6C646.6,137.2 644,135.8 644,133.3C644,130.7 639.3,127 636,127C631.3,127 629.1,128.7 627,133.6C625.9,136 624.9,138 624.8,137.9C624.6,137.9 623.9,137.6 623.3,137.3Z" style="fill:rgb(10,14,16);fill-rule:nonzero;"/>
                </g>
            </g>
        </g>
    </g>
</svg>
