<?xml version="1.0" encoding="UTF-8" standalone="no"?>
<!DOCTYPE svg PUBLIC "-//W3C//DTD SVG 1.1//EN" "http://www.w3.org/Graphics/SVG/1.1/DTD/svg11.dtd">
<svg width="100%" height="100%" viewBox="0 0 613 441" version="1.1" xmlns="http://www.w3.org/2000/svg" xmlns:xlink="http://www.w3.org/1999/xlink" xml:space="preserve" xmlns:serif="http://www.serif.com/" style="fill-rule:evenodd;clip-rule:evenodd;stroke-linecap:round;stroke-linejoin:round;stroke-miterlimit:1.5;">
    <g transform="matrix(1,0,0,1,-8335.73,-2949.62)">
        <g transform="matrix(1,0,0,1,6691,0)">
            <g transform="matrix(0.877709,0,0,0.877709,-11841.6,3605.52)">
                <path d="M15619,-421C15619,-421 15596.3,-419.643 15578,-415C15559.7,-410.357 15538,-394 15538,-394L15526,-352L15515,-334L15491,-271L15494,-257L15676,-269L15741,-266L15837,-266L15912,-263L15940,-263L15919,-321L15868,-415C15868,-415 15829,-419.546 15807,-420C15785,-420.454 15717,-406 15717,-406L15681,-416L15619,-421Z" style="fill:white;stroke:black;stroke-width:1.14px;"/>
                <g transform="matrix(1.72917,0,0,1.72917,13711.8,-1588.54)">
                    <path d="M1238,564.9C1238,562.8 1238.8,561.2 1240.5,559.8C1243.5,557.4 1243.6,557 1241,554.2C1239.3,552.4 1238.5,552.2 1236.8,553.1C1235.7,553.7 1234.5,555.1 1234.3,556.2C1233.8,557.7 1233,558 1230.1,557.8L1226.5,557.5L1226.2,550.6C1225.8,542.2 1227.2,538.6 1231.9,535.4C1234.9,533.4 1236.7,533 1242.8,533C1250.8,533 1254.6,534.4 1257.8,538.4L1259.7,540.9L1262.1,537.2C1265.3,532.2 1270.1,530 1277.6,530C1284.3,530 1288.5,532.1 1292.4,537.3C1295.4,541.4 1295.4,554.6 1292.4,558.6C1288.9,563.4 1285.6,565.1 1279.2,565.7L1273,566.3L1273,562.6C1273,560.3 1273.7,558.3 1275,557C1276.7,555.3 1276.8,554.6 1276,552.9C1274.2,549.6 1271.9,549.4 1269.4,552.3C1267.9,554.1 1266.1,555 1264.2,555C1261.8,555 1261.1,555.5 1260.6,557.6C1258.8,564.7 1253.5,568 1244.1,568L1238,568L1238,564.9Z" style="fill:white;fill-rule:nonzero;"/>
                </g>
                <g transform="matrix(1.72917,0,0,1.72917,13711.8,-1588.54)">
                    <path d="M1104.7,700.3C1103.1,699.9 1102.9,699 1103.2,693.9L1103.5,687.9L1090.5,688.5L1090.2,693.3C1089.9,698 1089.9,698 1086.3,698C1083.2,698 1077.8,695.1 1075,692C1074.7,691.7 1071.9,690.6 1068.8,689.6C1063.3,687.8 1063,687.5 1063,684.4C1063,680.5 1062.5,680.7 1079,678C1094.1,675.6 1105.2,675.4 1107,677.5C1107.6,678.3 1109.2,679.2 1110.3,679.6C1114.1,680.7 1116,683.1 1116,686.7C1116,688.5 1115.6,690 1115.1,690C1114.6,690 1113.9,692.5 1113.5,695.5C1112.9,700.9 1112.8,701 1109.7,700.9C1107.9,700.8 1105.7,700.6 1104.7,700.3Z" style="fill:rgb(219,232,228);fill-rule:nonzero;"/>
                </g>
                <g transform="matrix(1.72917,0,0,1.72917,13711.8,-1588.54)">
                    <path d="M1130.9,616.1L1127,612.2L1127,603.8C1127,591.4 1130.3,588 1142.5,588C1149.7,588 1154.2,589.7 1156.1,593.1L1157.2,595.2L1158.6,593.1C1161.1,589.6 1165.4,588 1172.5,588C1184.1,588 1188.5,592.1 1188.5,603C1188.4,611.9 1186.6,615.4 1181.7,615.8C1178.2,616.1 1178,616 1178,613.2C1178,610.4 1175.4,607 1173.2,607C1171.3,607 1170.6,609.2 1170.9,614.3L1171.1,619.3L1166.3,618.7C1162.9,618.3 1161,617.5 1159.3,615.6C1157.8,613.8 1156.1,613 1153.8,613C1151.2,613 1150.1,612.4 1148.8,610C1146.9,606.6 1145.8,606.3 1143.6,608.6C1141.8,610.4 1141.6,611.6 1143,612.5C1143.6,612.8 1144,614.7 1144,616.6C1144,620 1144,620 1139.4,620C1135.4,620 1134.3,619.5 1130.9,616.1Z" style="fill:white;fill-rule:nonzero;"/>
                </g>
                <g transform="matrix(1.72917,0,0,1.72917,13711.8,-1588.54)">
                    <path d="M1062.4,581.9C1059.3,581 1053,575 1053,573C1053,572.4 1051.5,572 1049.6,572C1047.1,572 1045.8,571.4 1044.6,569.4C1041.6,564.9 1034.9,568.4 1037.8,573C1038.4,574.1 1039,576.6 1039,578.6L1039,582.2L1033.5,581.8C1026.7,581.2 1023.3,579 1020.2,572.9C1018.3,569.3 1017.9,567.4 1018.3,562.8C1019.2,551.8 1024.6,547 1036,547C1043.5,547 1047.9,549.1 1050.9,554L1052.7,557.1L1054.4,554.5C1057.5,549.8 1061.8,548 1069.6,548C1075.3,548 1077.4,548.4 1080.1,550.3C1084.9,553.5 1087,558.2 1087,565.8L1087,572L1083.4,572C1080.7,572 1079.3,571.3 1077.8,569.5C1075.4,566.5 1073.9,566.4 1071.5,569C1069.7,571 1069.7,571.1 1071.8,574C1073,575.6 1074,578.3 1074,580C1074,582.9 1073.8,583 1069.8,582.9C1067.4,582.9 1064.1,582.4 1062.4,581.9Z" style="fill:white;fill-rule:nonzero;"/>
                </g>
                <g transform="matrix(1.72917,0,0,1.72917,13711.8,-1588.54)">
                    <path d="M1215,730.7C1212.2,729.3 1210.2,724.4 1210,719C1209.9,715.7 1209.9,715.6 1208.5,717.4C1207.1,719.2 1207,719.1 1207,715.1C1207,710.7 1205.2,706.3 1202.6,704.1C1200.7,702.5 1200.6,699.8 1202.2,691.4L1203.3,685L1216.7,685.3C1232.7,685.5 1233.2,686.1 1224,694.8C1217.8,700.8 1216.9,702.8 1219.6,705.1C1220.9,706.2 1221.8,706.1 1225.3,704.2C1231.6,700.9 1234.1,701.3 1236.3,705.9C1237.2,708 1239.1,710.2 1240.5,710.8C1241.9,711.4 1243,712.5 1243,713.2C1243,713.9 1243.3,715.6 1243.6,717L1244.2,719.5L1242.1,717.1L1240,714.8L1240.6,720.9C1241.1,725 1240.9,727.4 1240.1,728.4C1238.1,730.8 1233.5,731.3 1230,729.5C1227.1,728 1226.8,728 1224.3,730C1221.4,732.3 1218.6,732.5 1215,730.7Z" style="fill:rgb(237,145,182);fill-rule:nonzero;"/>
                </g>
                <g transform="matrix(1.72917,0,0,1.72917,13711.8,-1588.54)">
                    <path d="M1051.7,725.2C1050.7,724.2 1050,722.2 1050,720.8C1050,718.5 1049.6,718.2 1044.2,717.7C1036.3,716.9 1026.1,713.6 1016,708.7C1009.4,705.4 1005.6,702.7 999.1,696.3L990.7,688L976.8,688C963,688 960.7,687.4 964.5,684.6C965.4,683.9 967,678.9 968.4,672C971.9,654.9 978.5,636.2 985.1,625L990.7,615.5L986.5,611.8C984.1,609.7 981.2,605.8 979.9,602.8C977.6,597.6 977.5,596.9 977.7,573.5C978,531.5 979.5,523.2 988.7,513.8C995.6,506.8 1003.5,503.5 1013.5,503.5C1023.2,503.5 1028.8,505.9 1036.7,513.3L1042,518.3L1045.6,515.4C1053.2,509.3 1055.7,507.9 1060.9,506.4C1068.6,504.1 1076.3,504.9 1084.3,508.8C1096.4,514.8 1101.9,524 1102.7,539.8C1103.7,557.4 1099.8,600.7 1096.6,606.7C1094.8,610.2 1089.4,616.2 1086.6,617.7C1084.9,618.6 1084.9,618.9 1087.6,623.1C1091.9,630 1096.7,641 1100,652.2C1101.7,657.9 1103.4,663.1 1103.6,663.9C1104,665 1104.4,664.9 1105.5,663.4C1106.8,661.6 1106.9,661.7 1107,664.8C1107,666.6 1106.6,668.8 1106.1,669.8C1105.5,670.7 1104.9,672.7 1104.6,674.1C1104.1,676.5 1103.6,676.7 1093.3,677.9C1080.2,679.4 1063,683 1063,684.1C1063,684.6 1063.6,685 1064.3,685C1066.8,685 1081.5,692.8 1087.7,697.3C1095,702.7 1096.2,704.7 1095.8,710.3L1095.5,714.5L1090.2,714.8C1086.2,715 1084.1,714.6 1081.5,713L1078,710.8L1078,713.8C1078,717.5 1075.7,720 1072.4,720C1070.7,720 1069.9,720.7 1069.4,722.5C1068.5,726 1066.2,727 1059.2,727C1054.8,727 1052.9,726.5 1051.7,725.2ZM1069.5,578C1067.7,576 1067.8,576 1070.4,576C1074.3,576 1077.7,573.3 1079.1,569.2C1080.1,566.1 1080.4,565.8 1081.5,567.3C1083.3,569.8 1084,569.4 1084,565.8C1084,551 1064.7,545.7 1057,558.2C1051.6,567.1 1058.9,579.2 1069.9,579.9C1071,580 1070.9,579.5 1069.5,578ZM1036,578.2C1036,577.8 1035.5,576.9 1034.8,576.2C1033.9,575.3 1034.4,575 1037.3,575C1041.5,575 1046,571.3 1046,567.9C1046,565.5 1046.9,565.5 1048.6,567.8C1049.8,569.3 1049.9,569 1050,565C1050,553.9 1039.3,546.9 1029.4,551.6C1025.3,553.6 1023.3,556.1 1021.9,561.2C1020.9,565.2 1022.4,570.6 1025.8,574.4C1028.5,577.4 1036,580.2 1036,578.2Z" style="fill:rgb(237,145,182);fill-rule:nonzero;"/>
                </g>
                <g transform="matrix(1.72917,0,0,1.72917,13711.8,-1588.54)">
                    <path d="M1147.6,634.4C1145.7,632.4 1145,630.7 1145,627.9L1145,624L1171,624L1171,627.9C1171,631.1 1170.4,632.3 1167.9,634.4C1165.2,636.7 1163.9,637 1157.6,637C1151,637 1150,636.7 1147.6,634.4Z" style="fill:rgb(237,145,182);fill-rule:nonzero;"/>
                </g>
                <g transform="matrix(1.72917,0,0,1.72917,13711.8,-1588.54)">
                    <path d="M1255.4,588.1C1250.2,585.7 1248,582.6 1248,577.8C1248,575.7 1248.1,574 1248.3,573.9C1249.9,573.6 1278,570 1279.4,570C1281,570 1281.2,570.6 1280.8,575.8C1280.6,579.4 1279.7,582.6 1278.5,584.3C1274.4,589.8 1263.3,591.7 1255.4,588.1Z" style="fill:rgb(237,145,182);fill-rule:nonzero;"/>
                </g>
                <g transform="matrix(1.72917,0,0,1.72917,13711.8,-1588.54)">
                    <path d="M1113.4,732.6C1110.1,731.1 1107,725.9 1107,721.6C1107,720.2 1107.9,716.7 1109,713.9C1111,708.5 1110.9,707 1108.4,707C1107.4,707 1107,705.7 1107,701.9C1107,697.9 1107.3,696.9 1108.4,697.3C1109.5,697.8 1110,696.6 1110.6,692.4C1110.9,689.4 1111.7,687 1112.3,687C1112.8,687 1112.5,686.1 1111.5,685C1109.7,683 1109.8,683 1114.3,683L1119,683L1119,687.8C1119,696.8 1123.6,698.7 1126.8,691C1128.4,687.3 1128.7,687.1 1132.5,687.2C1136.5,687.3 1139,688.4 1139,690.1C1139,690.6 1138.4,691 1137.6,691C1136.6,691 1135.7,693 1135,696.8C1134.3,699.9 1133,704.4 1131.9,706.8C1130.5,710 1130.3,711.7 1131,713.6C1132.5,717.4 1132.2,724.7 1130.4,728.1C1127.8,733.3 1119.8,735.4 1113.4,732.6ZM1124.4,724.4C1125.3,723.6 1126,722.5 1126,722.1C1126,720.7 1123.6,719 1121.6,719C1119.5,719.1 1119.5,719.1 1121.5,720.6C1123.4,722 1123.4,722.2 1121.8,723.4C1120.8,724.1 1120.3,725 1120.7,725.3C1121.7,726.4 1122.7,726.1 1124.4,724.4ZM1117.9,722.8C1118.8,720.2 1117.7,719 1114.5,719C1112.6,719.1 1112.6,719.1 1114.4,720.2C1116.2,721.2 1116.2,721.3 1113.9,723.1L1111.5,725L1114.3,725C1116.3,725 1117.3,724.4 1117.9,722.8Z" style="fill:rgb(60,165,223);fill-rule:nonzero;"/>
                </g>
                <g transform="matrix(1.72917,0,0,1.72917,13711.8,-1588.54)">
                    <path d="M1060,727C1060,725.4 1060.7,725 1063.5,725C1067.4,725 1068.1,726.4 1065.1,728C1062,729.6 1060,729.2 1060,727Z" style="fill:rgb(60,165,223);fill-rule:nonzero;"/>
                </g>
                <g transform="matrix(1.72917,0,0,1.72917,13711.8,-1588.54)">
                    <path d="M1249.5,720.3C1244.8,719.8 1242,717.6 1242,714.3C1242,712.3 1241.5,712 1238.5,712C1234.9,712 1233,710 1233,706.1L1233,704L1229.8,706C1226.1,708.2 1218.1,708.7 1216.2,706.8C1214.3,704.9 1214.8,698.6 1217.1,695.6C1219.5,692.5 1229.6,685.2 1236,681.9L1240.5,679.6L1235.5,678.8C1232.8,678.3 1225.8,677.6 1220,677.2L1209.5,676.5L1209.3,673C1209.2,671.1 1209.4,670.3 1209.6,671.3C1210.5,674.2 1212,673.2 1212,669.8C1212,657.9 1220.2,627.4 1226.8,614.3L1228.9,610.3L1226.3,606.5C1222.2,600.5 1216.3,587.2 1213.6,577.8C1210.4,566.8 1209.5,554.8 1211,544.1C1215,515.4 1231.8,494.9 1257,488.3C1267.2,485.6 1281.8,486 1290.2,489.2C1300.3,493 1307.5,497.7 1314.7,505.4C1326.4,517.8 1331.1,531.8 1331.1,554.5C1331.1,568.7 1329.2,580.5 1324.9,592.6C1322.3,599.9 1322,601.8 1323,603.3C1333.6,620.4 1344.9,654.1 1348.5,679.3C1348.9,682.4 1349.6,684 1350.6,684C1351.4,684 1352,684.9 1352,686C1352,688 1351.5,688.1 1332.5,688L1313,687.8L1307.2,692.4C1296.7,700.8 1272.8,711 1263.8,711C1261.4,711 1261,711.4 1261,713.8C1261,716.9 1257.3,721.1 1254.9,720.8C1254.1,720.7 1251.7,720.5 1249.5,720.3ZM1269.4,586C1273.6,583.9 1275.9,581.2 1277.7,576.3C1278.8,573.2 1278.8,573 1276.5,573C1275.2,573 1270.6,573.5 1266.3,574C1262,574.6 1256.6,575.3 1254.3,575.6C1251.9,575.9 1250,576.5 1250,577C1250,578.9 1255.7,584.4 1259.5,586.1C1264.5,588.4 1264.8,588.4 1269.4,586ZM1250.9,563.2C1263.6,556.4 1257.8,536 1243.2,536C1234.9,536 1229,541.7 1229,549.9C1229,554.3 1230.5,556.2 1231.3,552.9C1232,550.2 1234,551.4 1234,554.5C1234,557.3 1238.3,561 1241.6,561C1244.4,561 1244.7,562.5 1242.3,563.9C1238.9,565.9 1247.3,565.1 1250.9,563.2ZM1284.9,560.1C1289.5,556.9 1291.5,553.2 1291.5,548C1291.5,542.5 1289.4,538.9 1284,535.3C1275.4,529.4 1263,536.7 1263,547.6C1263,551.9 1264.2,553.4 1265.4,550.5C1266.3,548.1 1268,548.8 1268,551.5C1268,555.2 1272.2,559 1276.2,559C1279.2,559.1 1279.3,559.2 1277.8,560.4C1276.8,561.1 1276,562 1276,562.4C1276,563.6 1282.3,562 1284.9,560.1Z" style="fill:rgb(60,165,223);fill-rule:nonzero;"/>
                </g>
                <g transform="matrix(1.72917,0,0,1.72917,13711.8,-1588.54)">
                    <path d="M1024.7,775.2C1022.5,772.8 1022.6,770.5 1025,765.1C1026.1,762.7 1027,759.9 1027,758.7C1027,757.6 1030.7,748.4 1035.1,738.3C1039.6,728.2 1043.1,719.8 1042.9,719.6C1042.7,719.5 1038.6,718.1 1033.8,716.7C1019.1,712.1 1007.6,705.7 999.2,697.3L991.9,690L975.1,690C961.1,690 958,689.7 957,688.5C955,686.1 957.1,684.8 962.2,684.9C996.8,686.2 995,686 995,688.1C995,689.3 995.7,690 996.8,690C999.1,690 1001,691.9 1001,694.1C1001,695.2 1001.9,696 1003.3,696.2C1004.5,696.4 1005.9,697.5 1006.5,698.8C1007,700 1008.3,701 1009.2,701C1010.2,701 1011,701.4 1011,701.9C1011,702.4 1012.1,703.1 1013.4,703.4C1014.8,703.7 1016.5,704.6 1017.2,705.3C1017.9,705.9 1020.1,707.1 1022,707.8C1032.6,711.8 1039,714.1 1042.8,715C1045.3,715.7 1047,716.7 1047,717.5C1047,718.4 1048,719 1049.6,719C1051.2,719 1052.4,719.7 1052.7,720.8C1053.4,723.5 1058.1,725.2 1062.9,724.4C1066.4,723.8 1067,723.4 1067,721.4C1067,719.4 1067.6,718.9 1070.9,718.4C1074.5,717.8 1074.8,717.5 1075.4,713.9C1076,710.1 1076.2,710 1080,710C1083.9,710 1084,710.1 1084,713.5C1084,717 1082.4,718.2 1081.4,715.5C1080.7,713.7 1079,713.5 1079,715.3C1079,716.8 1073.9,722 1072.5,722C1072,722 1070.1,723.4 1068.4,725.1C1066.1,727.3 1063.9,728.4 1060.7,728.7C1056.4,729.2 1056.3,729.4 1054.6,734.4C1053.6,737.2 1052.7,740 1052.4,740.6C1052.1,741.3 1054.7,741.2 1060.2,740.2C1066.3,739.1 1076.1,738.7 1096.5,738.7C1120.8,738.7 1125.7,738.9 1133.3,740.7C1138.1,741.7 1142.3,742.4 1142.4,742.1C1142.6,741.8 1143.1,730.6 1143.5,717.4L1144.2,693.2L1140.6,692C1138.7,691.4 1136.6,691.1 1136.1,691.4C1135.6,691.8 1134.9,691.6 1134.5,691C1133.5,689.5 1131,689.8 1131,691.5C1131,692.3 1130.5,693 1129.9,693C1129.3,693 1129,690.9 1129.2,687.8L1129.5,682.5L1134.3,682.2C1137.6,682 1139,681.5 1139,680.4C1139,678.3 1144.4,678.6 1151.7,681.1L1157.8,683.1L1164.7,681C1174.6,677.9 1184,676.1 1193.6,675.4C1200.9,674.8 1202,674.9 1202,676.3C1202,677.4 1200.9,678.1 1198.8,678.4C1184.4,680.3 1174.5,682.2 1168.5,684.2L1161.5,686.6L1161.2,721.9C1161,755.3 1161.1,757.2 1162.7,756.5C1180,749.5 1194.8,747.1 1217.3,747.8C1225.3,748 1226,748.2 1226,750C1226,752 1225.4,752.1 1215.8,752C1210.1,752 1201.9,752.4 1197.4,753C1188.9,754.2 1171.5,758.3 1178.5,757.5C1180.7,757.3 1186.9,756.8 1192.3,756.4C1201.6,755.7 1202,755.8 1202,757.7C1202,759.5 1201.1,759.8 1192.3,760.3C1186.9,760.7 1179.5,761.3 1175.8,761.6C1169.9,762.2 1169,762.1 1169,760.6C1169,759.7 1168.2,759 1167,759C1165.9,759 1165,759.5 1165,760C1165,761.3 1153.4,761.3 1150.9,760C1149.4,759.2 1149,759.3 1149,760.5C1149,762.2 1146.5,762.4 1135.8,761.3C1130.5,760.9 1129,760.3 1128.9,759.1C1128.9,758.1 1128.7,757.9 1128.3,758.8C1128,759.6 1125.5,760 1120.9,760C1114.5,760 1114,759.8 1114,757.9C1114,755.8 1114.3,755.7 1123.3,756.4C1128.3,756.8 1134.8,757.3 1137.5,757.5L1142.5,757.9L1137,756.5C1126.8,753.8 1111.5,751.9 1101.3,752C1091.8,752.1 1091,751.9 1091,750.2C1091,748.5 1092.1,748.2 1103.3,747.7C1117.6,747 1132.8,749.2 1146.8,753.9C1151.6,755.5 1155.7,756.6 1156,756.3C1157,755.4 1157.1,691.4 1156.2,688.9C1155.5,687.1 1153.8,686 1149.8,684.7C1143.1,682.6 1141.6,682.6 1140,684.5C1139.3,685.3 1137.5,686 1135.9,686C1134.3,686 1133,686.4 1133,687C1133,687.5 1133.6,687.7 1134.4,687.4C1135.9,686.8 1146.7,689.7 1147.4,690.8C1147.8,691.6 1146.1,744 1145.6,745.6C1145.3,746.3 1141.2,745.8 1132.8,744.2C1121.9,742 1117.9,741.7 1097.5,741.7C1078.5,741.6 1072.2,742 1061.1,743.8C1053.7,745 1047.5,745.8 1047.2,745.6C1047,745.4 1048.4,741.3 1050.3,736.6L1053.7,728.1L1050.9,725.4C1049.3,723.9 1047.8,722.8 1047.6,723.1C1046.6,724.3 1034.1,753.4 1034.5,753.8C1034.7,754 1040.2,753.3 1046.7,752.2C1059.3,749.9 1081.6,747 1086.2,747C1088.3,747 1089,747.5 1089,749C1089,751.4 1085.2,752.5 1070.5,754C1060.8,755 1047.8,756.9 1039.9,758.6C1037.4,759.1 1036.2,762 1038.4,762C1039,762 1045.4,761.1 1052.5,760.1C1059.7,759.1 1068.8,757.9 1072.8,757.5C1079.5,756.8 1080,756.9 1080,758.7C1080,760.4 1078.7,760.8 1068.3,761.9C1061.8,762.6 1052.9,763.8 1048.5,764.6C1044.1,765.4 1039,766 1037.3,766C1034.1,766 1034,765.8 1034,762C1034,759.1 1033.6,758 1032.5,758C1031.6,758 1031,758.9 1031,760.3C1031,761.5 1030.1,764.5 1029,766.9C1026.4,772.6 1026.5,773 1030,773C1033.6,773 1034.1,775.5 1030.8,776.4C1027.3,777.3 1026.4,777.1 1024.7,775.2Z" style="fill:rgb(146,148,146);fill-rule:nonzero;"/>
                </g>
                <g transform="matrix(1.72917,0,0,1.72917,13711.8,-1588.54)">
                    <path d="M1284.8,776.3C1282.1,775.6 1282.6,773 1285.4,773C1289,773 1289.4,771.6 1287.1,766.4C1285.9,763.8 1285,760.9 1285,759.9C1285,758.8 1284.6,758 1284,758C1283.5,758 1283,759.6 1283,761.5C1283,764.4 1282.6,765.1 1280.3,765.6C1278.8,766 1273,765.6 1267.5,764.7C1255.6,762.6 1232.2,760 1226.3,760C1222.7,760 1222,759.7 1222,758C1222,756.5 1222.7,756 1224.4,756C1229.3,756 1264.7,760 1271.8,761.4C1278.6,762.7 1279,762.7 1279,761C1279,759.8 1278,759 1276.3,758.6C1269.4,757.2 1247.6,754 1240.9,753.4C1230.9,752.6 1227,751.3 1227,748.9C1227,747.7 1227.7,747 1229,747C1233.6,747 1251.4,749.2 1265.8,751.6C1274.3,753 1281.4,754 1281.6,753.7C1281.9,753.4 1278.7,745.4 1274.4,735.9C1270.2,726.3 1266.3,717.3 1265.8,715.8C1264.5,712.2 1263.9,712.3 1261.1,716.1C1256,723 1247.5,723.2 1241.2,716.5L1237.8,713L1241,713C1243,713 1245.4,714 1247.2,715.6C1249.2,717.2 1250.9,717.9 1251.9,717.4C1252.8,717 1254.5,716.5 1255.8,716.3C1257.1,716 1258,715 1258,713.9C1258,712.8 1258.5,712 1259,712C1259.6,712 1260,711.3 1260,710.5C1260,709.4 1261.1,709 1264,709C1266.2,709 1268,708.6 1268,708.2C1268,707.8 1270.1,706.9 1272.8,706.2C1277.1,705 1292.8,698.2 1294,697C1295.5,695.4 1303.2,691 1304.5,691C1305.3,691 1306,690.4 1306,689.6C1306,688.8 1306.6,687.8 1307.3,687.3C1308.3,686.7 1323.3,685.9 1351.5,685C1358.4,684.7 1360,685.1 1360,687C1360,688 1359,689 1357.8,689.4C1356.5,689.7 1345.6,690 1333.6,690L1311.7,690L1306.6,693.9C1299,699.6 1286.9,705.9 1277.6,708.9L1269.3,711.6L1278.7,733C1283.9,744.8 1288.3,755.6 1288.5,757C1288.7,758.4 1289.8,761.9 1290.9,764.8C1293.4,771.1 1293.5,773.3 1291.4,775.4C1289.9,777 1288.2,777.2 1284.8,776.3Z" style="fill:rgb(146,148,146);fill-rule:nonzero;"/>
                </g>
                <g transform="matrix(1.72917,0,0,1.72917,13711.8,-1588.54)">
                    <path d="M1036,774C1036,772.2 1036.7,772 1042,772C1046.4,772 1048,772.4 1048,773.4C1048,775 1045,776 1039.8,776C1036.7,776 1036,775.6 1036,774Z" style="fill:rgb(146,148,146);fill-rule:nonzero;"/>
                </g>
                <g transform="matrix(1.72917,0,0,1.72917,13711.8,-1588.54)">
                    <path d="M1150.4,775.1C1148.2,774.7 1144.7,773.4 1142.6,772.2C1140.3,770.8 1137.2,770 1134.4,770C1130.7,770 1130,769.7 1130,768C1130,766.2 1130.7,766 1136,766C1140.6,766 1142.7,766.5 1145.6,768.5C1150,771.5 1154.6,772.4 1160.9,771.7C1165.6,771.1 1173.2,768.2 1173.8,766.8C1174,766.3 1176.4,766 1179.1,766C1183.3,766 1184,766.3 1184,768C1184,769.6 1183.3,770 1180.8,770C1179.1,770 1175.3,771.2 1172.4,772.6C1166.6,775.4 1157.8,776.4 1150.4,775.1Z" style="fill:rgb(146,148,146);fill-rule:nonzero;"/>
                </g>
                <g transform="matrix(1.72917,0,0,1.72917,13711.8,-1588.54)">
                    <path d="M1267.8,775.3C1266.8,775.1 1266,774.2 1266,773.4C1266,772.3 1267.5,772 1272.5,772C1278.3,772 1279,772.2 1279,774C1279,775.7 1278.4,776 1274.3,775.9C1271.6,775.8 1268.7,775.6 1267.8,775.3Z" style="fill:rgb(146,148,146);fill-rule:nonzero;"/>
                </g>
                <g transform="matrix(1.72917,0,0,1.72917,13711.8,-1588.54)">
                    <path d="M1053,773C1053,771.2 1053.7,771 1059.5,771C1064.4,771 1066,771.3 1066,772.4C1066,774.1 1062.9,775 1057.3,775C1053.7,775 1053,774.7 1053,773Z" style="fill:rgb(146,148,146);fill-rule:nonzero;"/>
                </g>
                <g transform="matrix(1.72917,0,0,1.72917,13711.8,-1588.54)">
                    <path d="M1251.8,774.3C1250.8,774.1 1250,773.2 1250,772.4C1250,771.3 1251.5,771 1256,771C1261.3,771 1262,771.2 1262,773C1262,774.7 1261.4,775 1257.8,774.9C1255.4,774.8 1252.7,774.6 1251.8,774.3Z" style="fill:rgb(146,148,146);fill-rule:nonzero;"/>
                </g>
                <g transform="matrix(1.72917,0,0,1.72917,13711.8,-1588.54)">
                    <path d="M1069,772C1069,770.2 1069.7,770 1074.5,770C1078.5,770 1080,770.4 1080,771.4C1080,773 1077,774 1072.3,774C1069.7,774 1069,773.6 1069,772Z" style="fill:rgb(146,148,146);fill-rule:nonzero;"/>
                </g>
                <g transform="matrix(1.72917,0,0,1.72917,13711.8,-1588.54)">
                    <path d="M1237.8,773.3C1236.8,773.1 1236,772.2 1236,771.4C1236,770.4 1237.4,770 1241.5,770C1246.3,770 1247,770.2 1247,772C1247,773.7 1246.4,774 1243.3,773.9C1241.2,773.8 1238.7,773.6 1237.8,773.3Z" style="fill:rgb(146,148,146);fill-rule:nonzero;"/>
                </g>
                <g transform="matrix(1.72917,0,0,1.72917,13711.8,-1588.54)">
                    <path d="M1084,771C1084,769.2 1084.7,769 1090.5,769C1095.4,769 1097,769.3 1097,770.4C1097,772.1 1093.9,773 1088.3,773C1084.7,773 1084,772.7 1084,771Z" style="fill:rgb(146,148,146);fill-rule:nonzero;"/>
                </g>
                <g transform="matrix(1.72917,0,0,1.72917,13711.8,-1588.54)">
                    <path d="M1222.8,772.3C1221.8,772.1 1221,771.2 1221,770.4C1221,769.3 1222.5,769 1227.5,769C1233.3,769 1234,769.2 1234,771C1234,772.7 1233.4,773 1229.3,772.9C1226.6,772.8 1223.7,772.6 1222.8,772.3Z" style="fill:rgb(146,148,146);fill-rule:nonzero;"/>
                </g>
                <g transform="matrix(1.72917,0,0,1.72917,13711.8,-1588.54)">
                    <path d="M1100,770C1100,768.2 1100.7,768 1106,768C1110.4,768 1112,768.4 1112,769.4C1112,771 1109,772 1103.8,772C1100.7,772 1100,771.6 1100,770Z" style="fill:rgb(146,148,146);fill-rule:nonzero;"/>
                </g>
                <g transform="matrix(1.72917,0,0,1.72917,13711.8,-1588.54)">
                    <path d="M1205.8,771.3C1204.8,771.1 1204,770.2 1204,769.4C1204,768.3 1205.5,768 1210.5,768C1216.3,768 1217,768.2 1217,770C1217,771.7 1216.4,772 1212.3,771.9C1209.6,771.8 1206.7,771.6 1205.8,771.3Z" style="fill:rgb(146,148,146);fill-rule:nonzero;"/>
                </g>
                <g transform="matrix(1.72917,0,0,1.72917,13711.8,-1588.54)">
                    <path d="M1115,769C1115,767.2 1115.7,767 1121.5,767C1126.4,767 1128,767.3 1128,768.4C1128,770.1 1124.9,771 1119.3,771C1115.7,771 1115,770.7 1115,769Z" style="fill:rgb(146,148,146);fill-rule:nonzero;"/>
                </g>
                <g transform="matrix(1.72917,0,0,1.72917,13711.8,-1588.54)">
                    <path d="M1189.8,770.3C1188.8,770.1 1188,769.2 1188,768.4C1188,767.3 1189.5,767 1194.5,767C1200.3,767 1201,767.2 1201,769C1201,770.7 1200.4,771 1196.3,770.9C1193.6,770.8 1190.7,770.6 1189.8,770.3Z" style="fill:rgb(146,148,146);fill-rule:nonzero;"/>
                </g>
                <g transform="matrix(1.72917,0,0,1.72917,13711.8,-1588.54)">
                    <path d="M1081,758.6C1081,756.9 1084.1,756 1089.8,756C1093.3,756 1094,756.3 1094,758C1094,759.8 1093.3,760 1087.5,760C1082.6,760 1081,759.7 1081,758.6Z" style="fill:rgb(146,148,146);fill-rule:nonzero;"/>
                </g>
                <g transform="matrix(1.72917,0,0,1.72917,13711.8,-1588.54)">
                    <path d="M1118.7,723.4C1117.3,722 1118.1,721 1120.6,721C1122.2,721 1123,721.5 1122.8,722.3C1122.3,723.7 1119.7,724.4 1118.7,723.4Z" style="fill:rgb(146,148,146);fill-rule:nonzero;"/>
                </g>
                <g transform="matrix(1.72917,0,0,1.72917,13711.8,-1588.54)">
                    <path d="M1112.2,721.8C1112.7,720.3 1115,720 1115.1,721.5C1115.1,722.1 1114.4,722.7 1113.4,722.8C1112.4,723.1 1111.9,722.7 1112.2,721.8Z" style="fill:rgb(146,148,146);fill-rule:nonzero;"/>
                </g>
                <g transform="matrix(1.72917,0,0,1.72917,13711.8,-1588.54)">
                    <path d="M1205.7,713.8C1204.7,704.1 1203.9,701 1202.3,701C1201,701 1200.9,700 1201.4,695C1201.9,691 1201.7,689 1201,689C1199,689 1200,686.2 1202.2,685.6C1205.8,684.7 1206.5,686.3 1205.3,693.2C1204.4,698.7 1204.5,699.7 1206,701.5C1210.1,706.2 1211.4,713.6 1208.6,717.3C1206.6,719.9 1206.2,719.5 1205.7,713.8Z" style="fill:rgb(146,148,146);fill-rule:nonzero;"/>
                </g>
                <g transform="matrix(1.72917,0,0,1.72917,13711.8,-1588.54)">
                    <path d="M1100,706.5L1100,703L1105,703C1109.3,703 1110,703.3 1110,705C1110,706.6 1109.4,707 1106.8,706.8C1104.2,706.6 1103.5,706.9 1103.6,708.3C1103.7,709.3 1103.1,710 1101.9,710C1100.4,710 1100,709.3 1100,706.5Z" style="fill:rgb(146,148,146);fill-rule:nonzero;"/>
                </g>
                <g transform="matrix(1.72917,0,0,1.72917,13711.8,-1588.54)">
                    <path d="M1185,704.7C1185,703.4 1184.5,701.9 1183.8,701.2C1182.9,700.3 1183.3,700 1185.8,700C1188.8,700 1189,700.2 1189,703.5C1189,706.3 1188.6,707 1187,707C1185.6,707 1185,706.3 1185,704.7Z" style="fill:rgb(146,148,146);fill-rule:nonzero;"/>
                </g>
                <g transform="matrix(1.72917,0,0,1.72917,13711.8,-1588.54)">
                    <path d="M1102.4,699.5C1102,698.7 1102,696.4 1102.2,694.5L1102.6,691L1098.4,691C1092,691 1088,692.7 1088,695.6C1088,699.2 1083.1,698.8 1077,694.6C1074.3,692.8 1069.8,690.4 1067,689.4C1062.1,687.6 1061.9,687.5 1062.2,684.1L1062.5,680.5L1071.5,678.8C1076.5,677.9 1086.1,676.6 1092.9,675.9L1105.2,674.6L1107.6,677.3C1108.9,678.8 1110.7,680 1111.8,680C1114.1,680 1116,681.9 1116,684.2C1116,686.4 1112.8,686.6 1111,684.5C1110.3,683.7 1109.2,683 1108.5,683C1107.8,683 1106.1,682.1 1104.7,681C1101.5,678.5 1097.8,678.5 1082,681C1064.8,683.8 1064.6,683.9 1070,686C1074,687.6 1075.3,687.6 1082,686.4C1091.3,684.8 1111.4,684.5 1110.5,686.1C1110.1,686.7 1109.5,686.9 1109.2,686.6C1108.6,685.9 1106,692.7 1106,695.1C1106,696 1106.9,697 1108,697.3C1109.1,697.6 1110,698.5 1110,699.4C1110,701.6 1103.2,701.6 1102.4,699.5ZM1086.8,692.3C1086.5,689.8 1086.1,689.5 1082,689.2L1077.5,688.9L1081.5,691.9C1086.5,695.7 1087.2,695.7 1086.8,692.3Z" style="fill:rgb(146,148,146);fill-rule:nonzero;"/>
                </g>
                <g transform="matrix(1.72917,0,0,1.72917,13711.8,-1588.54)">
                    <path d="M1221,691.6C1221.6,690.8 1225.3,687.9 1229.2,685.3L1236.2,680.5L1229.9,679.7C1218.4,678.3 1217,678 1217,676.5C1217,674.6 1221.9,674.5 1232.5,676.1L1240.1,677.3L1239.8,680.7C1239.5,683.6 1238.8,684.6 1235.5,686.4C1233.3,687.5 1231.4,688.8 1231.2,689.3C1231,689.7 1230,690 1228.9,690C1227.9,690 1227,690.7 1227,691.5C1227,692.6 1225.9,693 1223.4,693C1220.3,693 1219.9,692.8 1221,691.6Z" style="fill:rgb(146,148,146);fill-rule:nonzero;"/>
                </g>
                <g transform="matrix(1.72917,0,0,1.72917,13711.8,-1588.54)">
                    <path d="M1179,690.6C1179,689.2 1181.1,688 1183.6,688C1184.4,688 1185,688.9 1185,690C1185,691.6 1184.3,692 1182,692C1180.1,692 1179,691.5 1179,690.6Z" style="fill:rgb(146,148,146);fill-rule:nonzero;"/>
                </g>
                <g transform="matrix(1.72917,0,0,1.72917,13711.8,-1588.54)">
                    <path d="M1102,668.5C1102,667.4 1106.4,662 1107.2,662C1107.6,662 1108,663.6 1108,665.5C1108,668.7 1107.8,669 1105,669C1103.4,669 1102,668.8 1102,668.5Z" style="fill:rgb(146,148,146);fill-rule:nonzero;"/>
                </g>
                <g transform="matrix(1.72917,0,0,1.72917,13711.8,-1588.54)">
                    <path d="M1201,627.6C1201,624.4 1201.3,624 1203.5,624C1205.9,624 1206,624.1 1204.7,627.2C1202.8,631.8 1201,632 1201,627.6Z" style="fill:rgb(146,148,146);fill-rule:nonzero;"/>
                </g>
                <g transform="matrix(1.72917,0,0,1.72917,13711.8,-1588.54)">
                    <path d="M1164.3,619.3C1163.6,619.1 1163,617.8 1163,616.4C1163,614.3 1163.3,614.2 1165.4,615C1167.7,615.8 1167.7,615.7 1167.3,611.5C1166.9,608.1 1167.2,606.8 1168.9,605.1C1173.3,600.7 1181,604.1 1181,610.5C1181,613.1 1181.2,613.2 1182.4,612C1184,610.3 1186.2,603.1 1185.4,601.8C1185.1,601.4 1185.9,601 1187.1,601C1189.1,601 1189.2,601.3 1188.7,606.2C1188.3,609.1 1187.6,611.6 1187,611.8C1186.5,612 1186,613 1186,614.1C1186,615.6 1185.3,616 1182.5,616C1179.4,616 1179,615.7 1179,613.5C1179,612.1 1178.6,611 1178,611C1177.5,611 1177,610.4 1177,609.6C1177,607.6 1173.3,606.9 1171.8,608.7C1170.9,609.8 1170.9,610.6 1171.8,612.1C1172.5,613.1 1173,615.3 1173,617C1173,619.8 1172.8,620 1169.3,619.9C1167.2,619.9 1164.9,619.6 1164.3,619.3Z" style="fill:rgb(146,148,146);fill-rule:nonzero;"/>
                </g>
                <g transform="matrix(1.72917,0,0,1.72917,13711.8,-1588.54)">
                    <path d="M1136.7,618.3C1135.2,616.8 1136.2,616 1138.8,616.6C1141,617.1 1141.3,617 1140.3,615.9C1138.9,614.5 1138.6,608.2 1139.8,606.4C1141.1,604.3 1145.2,602.8 1147.6,603.4C1149,603.8 1151,605.5 1152,607.3C1153.9,610.4 1154,610.4 1154.6,608.3C1155.5,605 1157,606.5 1157,610.6C1157,613.8 1156.8,614 1153.6,614C1151.1,614 1150,613.5 1149.5,612.1C1149.2,611.1 1148,609.4 1146.9,608.4C1144.1,605.9 1143,607.9 1143.7,614.2L1144.3,619L1140.8,619C1138.9,619 1137,618.7 1136.7,618.3Z" style="fill:rgb(146,148,146);fill-rule:nonzero;"/>
                </g>
                <g transform="matrix(1.72917,0,0,1.72917,13711.8,-1588.54)">
                    <path d="M1255.8,588.9C1253.7,588.1 1253,587.2 1253,585.1L1253,582.3L1257.7,584.6C1263.1,587.4 1264.8,587.5 1269.6,585.5C1273.8,583.8 1276.7,580.6 1277.5,576.8C1277.9,575.2 1278.8,574 1279.6,574C1281.5,574 1281.5,579.9 1279.5,580.6C1278.7,581 1278,582 1278,582.9C1278,583.9 1276.8,585.7 1275.4,587.1C1273.3,589.1 1271.7,589.5 1265.7,589.7C1261.7,589.8 1257.3,589.5 1255.8,588.9Z" style="fill:rgb(146,148,146);fill-rule:nonzero;"/>
                </g>
                <g transform="matrix(1.72917,0,0,1.72917,13711.8,-1588.54)">
                    <path d="M1197,581.3L1197.1,577.5L1199.5,580.3C1202.7,583.9 1202.6,585 1199.5,585C1197.3,585 1197,584.6 1197,581.3Z" style="fill:rgb(146,148,146);fill-rule:nonzero;"/>
                </g>
                <g transform="matrix(1.72917,0,0,1.72917,13711.8,-1588.54)">
                    <path d="M1035.1,576.4C1032.3,572.8 1032.4,568.5 1035.5,565.5C1041.8,559.1 1052.9,567.2 1047.6,574.3C1045.7,576.7 1045,576.4 1045,573.2C1045,571.6 1044.1,569.5 1043,568.5C1041,566.7 1040.9,566.7 1039,568.6C1036.8,570.7 1037.3,575 1039.6,575C1040.4,575 1041,575.9 1041,577C1041,579.9 1037.6,579.5 1035.1,576.4Z" style="fill:rgb(146,148,146);fill-rule:nonzero;"/>
                </g>
                <g transform="matrix(1.72917,0,0,1.72917,13711.8,-1588.54)">
                    <path d="M1068.6,576.8C1066,573.2 1066.5,567.5 1069.6,565.1C1071.1,563.9 1073.4,563 1074.7,563C1077.8,563 1083.4,568.4 1082.6,570.6C1082.3,571.5 1082,572.6 1082,573.1C1082,573.6 1081.3,574 1080.5,574C1079.7,574 1079,573.4 1079,572.7C1079,572 1078.1,570.4 1076.9,569.1C1074.9,567 1074.7,567 1072.9,568.6C1070.5,570.8 1070.5,572.7 1073,574.2C1074.1,574.9 1075,576.3 1075,577.2C1075,579.8 1070.5,579.5 1068.6,576.8Z" style="fill:rgb(146,148,146);fill-rule:nonzero;"/>
                </g>
                <g transform="matrix(1.72917,0,0,1.72917,13711.8,-1588.54)">
                    <path d="M1185,570C1185,568.5 1184.3,568 1182.3,568C1178.5,568 1176.8,566.7 1177.2,564.1L1177.5,562L1181.5,564C1183.8,565.1 1187.1,567.3 1189,569L1192.5,571.9L1188.8,572C1185.7,572 1185,571.7 1185,570Z" style="fill:rgb(146,148,146);fill-rule:nonzero;"/>
                </g>
                <g transform="matrix(1.72917,0,0,1.72917,13711.8,-1588.54)">
                    <path d="M1239,562.1C1239,561.1 1239.7,559.7 1240.5,559C1241.3,558.3 1242,556.9 1242,555.9C1242,553.4 1238.3,552.4 1236.1,554.4C1233.7,556.6 1231,556.4 1231,554.1C1231,549.3 1240.3,547.2 1244,551.2C1246.6,554 1246.7,560.1 1244.2,562.3C1241.7,564.6 1239,564.5 1239,562.1Z" style="fill:rgb(146,148,146);fill-rule:nonzero;"/>
                </g>
                <g transform="matrix(1.72917,0,0,1.72917,13711.8,-1588.54)">
                    <path d="M1272,560.5C1272,559.7 1273.2,557.9 1274.6,556.5L1277.1,553.9L1274.9,552.1C1272.4,550.1 1269,550.4 1269,552.6C1269,553.4 1268.1,554 1267,554C1264.1,554 1264.5,550.6 1267.6,548.1C1272.1,544.5 1276.8,545.7 1279.6,551.1C1280.9,553.7 1280.9,554.7 1279.9,557.1C1278.2,561.4 1272,564.1 1272,560.5Z" style="fill:rgb(146,148,146);fill-rule:nonzero;"/>
                </g>
                <g transform="matrix(1.72917,0,0,1.72917,13711.8,-1588.54)">
                    <path d="M1025,771C1025,768.9 1025.8,765.5 1026.7,763.5C1028.1,760.5 1028.9,760 1031.7,760C1034.3,760 1035,760.4 1035,762C1035,763.1 1035.4,764 1035.8,764C1036.3,764 1044.2,762.9 1053.5,761.5C1088.9,756.3 1123.2,756.1 1149,760.8C1155.1,762 1159.8,762.3 1162,761.8C1185.4,756.7 1221.1,756.1 1254,760.3C1265.3,761.8 1276,763.2 1277.8,763.6C1280.8,764.2 1281,764.1 1281,761.6C1281,759.3 1281.4,759 1284.4,759C1287.4,759 1288,759.4 1289.4,763C1290.3,765.2 1291,768.8 1291,771L1291,775L1285.8,775C1282.9,775 1267.5,774.1 1251.5,773C1235.6,771.9 1212.7,770.3 1200.7,769.5L1179,768.1L1175.4,770.5C1171,773.5 1165.4,774.4 1154,773.8C1146.3,773.4 1144.6,773 1141.1,770.6C1137.2,767.9 1136.6,767.8 1129.7,768.4C1115.5,769.6 1034.4,775 1029.8,775L1025,775L1025,771Z" style="fill:rgb(208,74,49);fill-rule:nonzero;"/>
                </g>
                <g transform="matrix(1.72917,0,0,1.72917,13711.8,-1588.54)">
                    <path d="M1060,725.6C1060,724.8 1061.1,723.9 1062.5,723.6C1065.6,722.8 1066.9,719.8 1066.2,714.8C1065.8,711.5 1066.1,711 1067.7,711C1069.1,711 1070,712 1070.6,714.2C1071.5,717.2 1071.6,717.3 1073.4,715.5C1075.2,713.7 1075.2,712.5 1073.4,705.6C1073,704 1073.2,703 1073.9,703C1075.2,703 1086.9,711.2 1086.9,712.3C1087,712.7 1085.4,713 1083.5,713C1081.6,713 1080,712.6 1080,712C1080,711.5 1079.6,711 1079,711C1078.5,711 1078,712.4 1078,714.1C1078,717.8 1076,720 1072.6,720C1071,720 1070,720.6 1070,721.5C1070,722.3 1069.3,723 1068.5,723C1067.7,723 1067,723.9 1067,725C1067,726.6 1066.3,727 1063.5,727C1061.2,727 1060,726.5 1060,725.6Z" style="fill:rgb(208,74,49);fill-rule:nonzero;"/>
                </g>
                <g transform="matrix(1.72917,0,0,1.72917,13711.8,-1588.54)">
                    <path d="M1052.3,719.3C1050.8,719 1050,718.1 1050,716.8C1050,715 1050.4,714.8 1053.2,715.4C1057,716.1 1058.5,717.4 1057.6,718.9C1056.9,720 1056.2,720.1 1052.3,719.3Z" style="fill:rgb(208,74,49);fill-rule:nonzero;"/>
                </g>
                <g transform="matrix(1.72917,0,0,1.72917,13711.8,-1588.54)">
                    <path d="M1034,715.9C1029.9,714.8 1026.4,713.5 1026.2,713C1026,712.4 1025,712 1024,712C1021.1,712 1019,710.9 1019,709.4C1019,708.6 1018,708 1016.6,708C1012.9,708 1011,707 1011,704.9C1011,703.5 1010.3,703 1008,703C1005.5,703 1005,702.6 1005,700.5C1005,698.4 1004.5,698 1002,698C998.9,698 997,695.8 997,692.1C997,690.5 996.4,690 994.5,690C993.1,690 992,689.6 992,689C992,688.5 990.4,688 988.5,688C986.1,688 985,687.5 985,686.5C985,685.7 985.7,685 986.5,685C988.2,685 988.1,679.3 986.3,678.6C985.7,678.3 984.3,675.6 983.4,672.5C982,668.2 981.9,666.7 982.8,665.8C984.4,664.2 985.3,665.3 988.1,672C997.3,694 1014.7,707.7 1041,713.6C1045.5,714.7 1048,715.7 1048,716.6C1048,718.5 1043.1,718.3 1034,715.9Z" style="fill:rgb(208,74,49);fill-rule:nonzero;"/>
                </g>
                <g transform="matrix(1.72917,0,0,1.72917,13711.8,-1588.54)">
                    <path d="M1235,711.8C1233.9,710.5 1232.7,708.5 1232.3,707.2C1231.9,705.4 1231.5,705.2 1230.4,706.1C1229.3,707 1229,706.9 1229,705.6C1229,704.4 1229.9,704 1232.5,704C1235.6,704 1236,704.3 1236,706.5C1236,708.1 1236.6,709 1237.5,709C1238.4,709 1239,709.9 1239,711.5C1239,714.6 1237.7,714.7 1235,711.8Z" style="fill:rgb(208,74,49);fill-rule:nonzero;"/>
                </g>
                <g transform="matrix(1.72917,0,0,1.72917,13711.8,-1588.54)">
                    <path d="M1218.8,709.3C1217.8,709.1 1217,708.2 1217,707.4C1217,706.4 1218.3,706 1221.5,706C1224.7,706 1226,706.4 1226,707.4C1226,708.5 1222.7,710.2 1221,709.9C1220.7,709.8 1219.7,709.6 1218.8,709.3Z" style="fill:rgb(208,74,49);fill-rule:nonzero;"/>
                </g>
                <g transform="matrix(1.72917,0,0,1.72917,13711.8,-1588.54)">
                    <path d="M1084,699.9C1081,697.6 1075.9,694.5 1072.8,692.9C1066.4,689.7 1065.4,688 1070,688C1073.7,688 1078,689.9 1078,691.7C1078,692.4 1079.1,693 1080.5,693C1081.9,693 1083,693.5 1083,694C1083,694.6 1083.7,695 1084.5,695C1085.3,695 1086,695.7 1086,696.5C1086,697.3 1086.9,698 1088,698C1089.6,698 1090,698.7 1090,701C1090,702.7 1089.9,704 1089.8,704C1089.6,703.9 1087,702.1 1084,699.9Z" style="fill:rgb(208,74,49);fill-rule:nonzero;"/>
                </g>
                <g transform="matrix(1.72917,0,0,1.72917,13711.8,-1588.54)">
                    <path d="M1057.6,686.7C1055.9,685.5 1056.3,681.4 1058,682.5C1058.5,682.8 1059.2,682.4 1059.7,681.6C1060.5,680.3 1073.6,677 1084.3,675.5C1088.6,674.9 1089,675.1 1089,676.9C1089,678.6 1088.3,679 1085.8,679.1C1084,679.1 1078.2,680.1 1073,681.3C1064.7,683.2 1063.5,683.8 1063.2,685.8C1062.8,688.3 1060.4,688.7 1057.6,686.7Z" style="fill:rgb(208,74,49);fill-rule:nonzero;"/>
                </g>
                <g transform="matrix(1.72917,0,0,1.72917,13711.8,-1588.54)">
                    <path d="M1044.5,683.1C1037.2,680.5 1032,677.6 1026.4,673.2C1020.7,668.7 1014.8,660.2 1014.8,656.5C1014.8,655.1 1014.4,654 1014,654C1012.7,654 1010.9,647.7 1011.8,646.8C1013.6,645 1015.7,647.2 1017.5,652.7C1020,659.9 1026.6,668.7 1031.9,672C1034.2,673.4 1036,675 1036,675.7C1036,676.4 1037,676.9 1038.3,676.8C1039.5,676.7 1043.3,677.7 1046.8,679C1051.4,680.7 1053,681.8 1053,683.1C1053,685.4 1051.1,685.4 1044.5,683.1Z" style="fill:rgb(208,74,49);fill-rule:nonzero;"/>
                </g>
                <g transform="matrix(1.72917,0,0,1.72917,13711.8,-1588.54)">
                    <path d="M1090,676.6C1090,675.1 1093,674 1097.6,674C1100.8,674 1102,672.6 1102,669.1C1102,668.2 1102.9,666.7 1104,665.7C1105.9,664.1 1106,664.1 1106,666.3C1106,667.5 1105.7,670.2 1105.4,672.3C1104.8,675.7 1104.5,676 1101.4,676C1099.5,676 1098,676.5 1098,677C1098,677.6 1096.2,678 1094,678C1091.3,678 1090,677.6 1090,676.6Z" style="fill:rgb(208,74,49);fill-rule:nonzero;"/>
                </g>
                <g transform="matrix(1.72917,0,0,1.72917,13711.8,-1588.54)">
                    <path d="M1154,637C1154,636.5 1152.8,636 1151.4,636C1150,636 1148.2,635.4 1147.4,634.6C1145.8,633 1145.5,627 1147,627C1147.6,627 1148,627.4 1148,627.9C1148,628.3 1149.2,629.9 1150.6,631.4C1153.7,634.5 1160.1,635 1163.8,632.4C1165.9,630.9 1166,631 1166,633.8C1166,636.3 1165.5,636.8 1162.9,637.4C1158.2,638.3 1154,638.1 1154,637Z" style="fill:rgb(208,74,49);fill-rule:nonzero;"/>
                </g>
                <g transform="matrix(1.72917,0,0,1.72917,13711.8,-1588.54)">
                    <path d="M1150,625C1150,623.2 1150.7,623 1158,623C1165.3,623 1166,623.2 1166,625C1166,626.8 1165.3,627 1158,627C1150.7,627 1150,626.8 1150,625Z" style="fill:rgb(208,74,49);fill-rule:nonzero;"/>
                </g>
                <g transform="matrix(1.72917,0,0,1.72917,13711.8,-1588.54)">
                    <path d="M1052,602.3C1052,601 1053.1,600 1055.5,599.1C1058.7,598 1063,593.8 1063,591.9C1063,591.4 1061.1,591 1058.8,591C1052.7,591 1049.8,590 1050.2,588.1C1050.6,586.2 1053.1,585.6 1057.6,586.5C1059.7,586.8 1061,587.7 1061,588.6C1061,589.8 1061.8,589.9 1064.5,589.4C1067.4,588.9 1068,589.1 1068,590.4C1068,595.4 1061.1,602.4 1055.2,603.6C1052.5,604.2 1052,604 1052,602.3Z" style="fill:rgb(208,74,49);fill-rule:nonzero;"/>
                </g>
                <g transform="matrix(1.72917,0,0,1.72917,13711.8,-1588.54)">
                    <path d="M1040.2,600.4C1037.5,598.5 1034,591.9 1034,588.6C1034,586.9 1034.7,586 1036.5,585.6C1039.8,584.8 1044,585.9 1044,587.6C1044,588.3 1042.9,589.2 1041.5,589.6C1040.1,589.9 1039,590.6 1039,591.1C1039,593 1042.4,597.2 1045.1,598.6C1046.7,599.4 1048,600.5 1048,601C1048,602.6 1042.7,602.2 1040.2,600.4Z" style="fill:rgb(208,74,49);fill-rule:nonzero;"/>
                </g>
                <g transform="matrix(1.72917,0,0,1.72917,13711.8,-1588.54)">
                    <path d="M1249,576.5C1249,573.2 1249.2,573 1252.5,573C1256.7,573 1257.3,575.4 1253.4,576.4C1251.7,576.9 1251,577.6 1251.4,578.5C1251.7,579.4 1251.3,580 1250.5,580C1249.5,580 1249,578.9 1249,576.5Z" style="fill:rgb(208,74,49);fill-rule:nonzero;"/>
                </g>
                <g transform="matrix(1.72917,0,0,1.72917,13711.8,-1588.54)">
                    <path d="M1038,577C1038,575.7 1038.7,575 1039.9,575C1040.9,575 1042,574.3 1042.4,573.5C1042.7,572.7 1044.1,572 1045.6,572C1047.6,572 1048.1,572.4 1047.6,573.6C1047.3,574.5 1047,575.3 1047,575.6C1047,576.3 1041.1,579 1039.5,579C1038.7,579 1038,578.1 1038,577Z" style="fill:rgb(208,74,49);fill-rule:nonzero;"/>
                </g>
                <g transform="matrix(1.72917,0,0,1.72917,13711.8,-1588.54)">
                    <path d="M1073,577C1073,575.9 1073.6,575 1074.4,575C1075.2,575 1076,574.3 1076.4,573.5C1077,571.8 1082,571.4 1082,573C1082,574.7 1076.9,579 1074.9,579C1073.7,579 1073,578.3 1073,577Z" style="fill:rgb(208,74,49);fill-rule:nonzero;"/>
                </g>
                <g transform="matrix(1.72917,0,0,1.72917,13711.8,-1588.54)">
                    <path d="M1278,575.2C1278,573.5 1277.5,573.4 1272.8,574.1C1257.5,576.3 1258,576.3 1258,574.2C1258,572.6 1259.2,572.2 1267.4,571.2C1280.6,569.5 1280,569.4 1280,573.5C1280,575.4 1279.6,577 1279,577C1278.5,577 1278,576.2 1278,575.2Z" style="fill:rgb(208,74,49);fill-rule:nonzero;"/>
                </g>
                <g transform="matrix(1.72917,0,0,1.72917,13711.8,-1588.54)">
                    <path d="M1085.7,722.9C1084.2,721.8 1082.5,719.1 1081.9,716.9C1080.6,712.7 1079.4,711.9 1078.7,714.8C1078.4,715.8 1078.2,715.4 1078.1,713.8C1078,711.3 1078.3,711 1081.5,711C1083.4,711 1086.1,711.5 1087.5,712.2C1089.6,713.1 1090.4,713.1 1091.6,711.8C1093.9,709.5 1092.6,706.6 1087.4,702.3C1082.6,698.3 1081.2,693.7 1085,694.7C1086.7,695.1 1087,694.7 1087,692.2C1087,688.8 1087.4,688.6 1099.3,687.6C1107.5,686.9 1108,687.2 1106.3,692.1C1104.8,696.6 1105.2,698 1108.1,698C1109.7,698 1110,698.7 1110,702.4L1110,706.9L1106.5,706.3C1102.7,705.7 1102.3,706.4 1104.1,710.4C1105.8,714 1103,721 1099.1,723.3C1095.1,725.6 1088.9,725.5 1085.7,722.9Z" style="fill:rgb(20,137,66);fill-rule:nonzero;"/>
                </g>
                <g transform="matrix(1.72917,0,0,1.72917,13711.8,-1588.54)">
                    <path d="M1190,721.8C1184.5,718 1182.5,712 1184.9,705.6C1185.7,703.8 1185.5,702.8 1184.4,701.9C1182.4,700.3 1180.4,696.3 1179.6,692.4C1178.9,689.3 1179,689.2 1183.5,688.1C1191,686.2 1204.1,685.5 1204.9,686.9C1205.3,687.5 1205.3,690.6 1204.9,693.6C1204.2,698.5 1204.4,699.5 1206.6,702.7C1209.8,707.5 1210.5,711.9 1208.7,716.3C1205.7,723.4 1196.4,726.1 1190,721.8Z" style="fill:rgb(20,137,66);fill-rule:nonzero;"/>
                </g>
                <g transform="matrix(1.72917,0,0,1.72917,13711.8,-1588.54)">
                    <path d="M1117.5,697.8C1117.3,697.1 1116.9,693.8 1116.8,690.5C1116.5,684.8 1116.4,684.5 1113.8,684.2C1112.4,684 1110.6,683.2 1110,682.4C1109.3,681.6 1108,681 1107,681C1104.4,681 1103.2,679 1102.5,673.4C1102,669.8 1102.2,668 1103.1,666.9C1103.9,666.1 1105.1,664.3 1105.9,662.8C1106.7,661.3 1110.6,656.2 1114.5,651.3L1121.8,642.6L1118.5,638.5C1109,626.8 1105.6,610.5 1109.5,595.5C1115.8,571.4 1140.5,555.1 1165,558.9C1184.5,561.9 1200.5,575.7 1206.2,594.3C1207.9,600 1208.2,602.9 1207.7,610.9C1207.1,622.1 1204.8,629.1 1199.1,636.7L1195.3,641.6L1197.3,644.1C1200.1,647.6 1207.5,662.8 1208.9,668.2C1209.9,671.7 1210.8,673 1212.6,673.4C1213.9,673.8 1215,674.7 1215,675.5C1215,676.7 1213.2,677 1205.6,677C1194.2,677 1182.1,679 1169.6,683C1158.5,686.6 1156.9,686.6 1149.5,683.8C1144.9,682.1 1143.4,681.9 1141.9,682.8C1140.9,683.5 1138.3,684 1136.1,684C1131.9,684 1131,685.1 1131,689.8C1131,691.3 1130.1,694 1129,695.8C1127.2,698.6 1126.5,699 1122.5,699C1119.7,699 1117.8,698.5 1117.5,697.8ZM1165.2,631.3C1170.1,626.6 1169.2,626 1157.5,626L1146.9,626L1148.5,629.1C1151.7,635.3 1159.9,636.3 1165.2,631.3ZM1141,616.2C1141,615.8 1140.4,614.8 1139.8,614.1C1138.7,613 1139.2,612.9 1142.3,613.2C1145.8,613.6 1146.5,613.2 1148.8,610.2C1151.3,606.9 1151.4,606.9 1152.5,609.1C1153.7,611.2 1153.7,611.2 1154.9,608C1156.4,603.6 1156.3,602.4 1154.3,598.3C1151.2,591.7 1142.7,589 1136,592.5C1131.6,594.8 1130,597.8 1130,603.8C1130,608.8 1130.3,609.6 1133.9,613.1C1137.4,616.7 1141,618.2 1141,616.2ZM1168.3,614.3C1166.5,611.7 1166.6,611.6 1168.5,612.4C1172.8,614.2 1173.9,614.1 1175.9,612.1C1177.1,610.9 1178.4,610 1178.9,610C1179.4,610 1180.1,609.4 1180.3,608.8C1180.6,608.1 1180.9,608.7 1180.9,610.3C1181,611.8 1181.4,613 1181.9,613C1183.3,613 1185.5,606.8 1185.4,602.9C1185,589 1164.7,586.5 1160,599.8C1158.7,603.5 1158.7,604.5 1160,608.2C1161,610.9 1162.7,613.2 1164.9,614.7C1169.4,617.7 1170.4,617.6 1168.3,614.3Z" style="fill:rgb(20,137,66);fill-rule:nonzero;"/>
                </g>
                <g transform="matrix(1.72917,0,0,1.72917,13711.8,-1588.54)">
                    <path d="M1024.1,774.2C1023.2,772.6 1023.3,771.1 1024.6,767.8C1025.5,765.4 1026.9,761 1027.7,758C1028.6,755 1032.5,745.1 1036.6,736C1041.6,724.5 1043.5,719.3 1042.7,718.9C1042,718.5 1039.9,717.9 1038,717.5C1032.6,716.4 1017.4,710.2 1010.9,706.4C1007.7,704.5 1002,699.8 998.3,696L991.5,689L974.3,689C957.7,689 957,688.9 957,687C957,685.1 957.7,685 973,685C981.8,685 989,684.7 989,684.3C989,683.8 988.3,682.6 987.5,681.6C985.5,678.9 981.7,667.3 982.5,666C983.5,664.5 985,664.8 985.7,666.8C987.6,672.5 994.5,685.4 997.6,689.1C1008.7,702.5 1028,712.4 1047.9,714.9C1055.7,715.9 1058.6,717.2 1057.4,719.2C1057.1,719.6 1055.9,720 1054.8,720C1052.8,720 1052.7,720.1 1054.5,722C1055.7,723.3 1057.6,724 1060.1,724C1065.3,724 1067.5,720.8 1066.5,714.9C1065.9,711.3 1066,710.9 1067.6,711.2C1068.6,711.4 1069.7,712.6 1070,713.9C1070.7,717 1072.3,717.6 1074,715.5C1075.1,714.2 1075.1,712.7 1074.3,708.9C1073.8,706.2 1073.6,703.7 1074,703.5C1074.4,703.3 1077,704.9 1079.9,707.1C1085.5,711.2 1089,712.6 1091.5,711.6C1094.1,710.6 1093.1,707.8 1088.6,703.4C1081.8,696.9 1071.6,691.4 1059,687.4C1036.2,680.2 1026.4,675.1 1020.5,667.4C1017.1,662.9 1012,652 1012,649.2C1012,644.6 1015.1,647.4 1018.2,654.7C1022.2,664.5 1028.3,670.8 1038,675.4C1048.5,680.4 1058.5,683.1 1060.2,681.4C1061.9,679.8 1077.5,676.5 1090.5,675C1096,674.3 1100.8,673.6 1101.3,673.3C1101.7,673.1 1102,671.9 1102,670.7C1102,669.5 1102.4,667.9 1102.9,667.1C1103.6,666.1 1104.1,666.9 1105,670.1C1106.6,676.1 1107.4,677.4 1109.6,677.9C1110.6,678 1112.2,678.8 1113,679.5C1113.8,680.2 1115.6,681 1117,681.2C1119.4,681.5 1119.5,681.9 1119.8,688.8C1120,695 1120.3,696 1121.9,696C1125,696 1127.1,692.4 1128.2,685.2C1128.7,681.4 1129.6,677.7 1130,677C1131.2,675.1 1134,676.6 1134,679C1134,680.6 1134.5,681.1 1136.3,680.8C1138.3,680.5 1138.5,680.1 1138.3,674.3C1138.1,670.8 1138.4,668 1138.9,668C1140.4,668 1142.1,670.7 1142.7,674.3C1143.2,677.6 1143.6,677.9 1150.6,680.3L1158,682.8L1167,679.9C1171.9,678.3 1179.9,676.3 1184.7,675.5C1196.2,673.5 1222.4,673.5 1235.7,675.4L1245.8,677L1256.6,673.4C1269.3,669.2 1273.6,667.1 1280.5,661.9C1286.7,657.2 1289.4,653.8 1294.5,643.6C1296.7,639.3 1299,635.7 1299.5,635.6C1301.7,635.4 1301,641.3 1297.9,647.7C1293.7,656.6 1284,666.3 1274.5,671.2C1270.7,673.2 1263,676.2 1257.6,678C1244.5,682.1 1234.9,686.7 1227.3,692.3C1219.7,697.9 1217.2,701.3 1219,703.5C1221.3,706.3 1225.5,704.8 1233,698.5C1238.1,694.3 1239.7,695 1237.4,700.5C1236.2,703.4 1236.1,704.9 1236.9,706.7C1238.4,710 1240.4,709.6 1241.5,705.8C1242.1,704 1243.2,702.5 1244,702.5C1245.2,702.5 1245.4,703.6 1245.2,707.8C1244.8,714 1246.7,717 1250.9,717C1254,717 1258.3,714.3 1257.4,712.9C1257.1,712.4 1256.5,712.2 1256,712.5C1255.5,712.8 1254.8,712.5 1254.4,711.9C1253.4,710.2 1256.8,708 1260.5,708C1265.9,708 1278.3,704 1288.7,698.9C1304.9,690.8 1315.4,681 1324,665.9C1327.6,659.5 1329.3,658.4 1329.8,661.9C1330.2,664.4 1327.4,669.9 1321.6,677.8C1319.1,681.2 1317,684.2 1317,684.5C1317,684.7 1326.6,685.1 1338.3,685.2C1356.4,685.5 1359.5,685.7 1359.5,687C1359.5,688.3 1355.9,688.6 1335.5,689L1311.5,689.5L1306.1,693.6C1298.9,699.3 1285,706.4 1276.3,709C1272.3,710.2 1269,711.3 1269,711.5C1269,711.7 1273.3,721.6 1278.5,733.6C1283.7,745.5 1288,756 1288,756.8C1288,757.7 1289.2,761.3 1290.6,764.8C1292.7,770 1293,771.8 1292.1,773.7C1290.8,776.5 1290.5,776.5 1259.4,774.5C1246.8,773.6 1223.3,772.1 1207.1,771.1L1177.8,769.3L1173.2,771.8C1169.8,773.7 1166.8,774.5 1160.9,774.8C1151.3,775.4 1147.2,774.6 1142.6,771.5L1139,769.1L1094.8,772C1022.2,776.7 1025.4,776.6 1024.1,774.2ZM1075,769C1145.7,764.1 1139.3,764.2 1143.9,767.4C1150.9,772.3 1165.4,772.2 1172.7,767.3L1176.4,764.8L1201,766.4C1214.5,767.2 1239.4,768.9 1256.3,770.1C1273.3,771.2 1287.4,771.9 1287.7,771.6C1288,771.3 1287.4,768.9 1286.4,766.3L1284.5,761.5L1284.2,764.8C1283.9,767.9 1283.7,768 1280.7,767.5C1268.4,765.5 1263.6,764.9 1248,762.9C1218.8,759.3 1191.1,759.9 1166.5,764.6C1158.9,766.1 1157.9,766.1 1147,764.1C1116,758.4 1087.7,759.3 1036.3,767.6C1032.1,768.2 1032,768.2 1032,765.4L1031.9,762.5L1030,766C1027.6,770.4 1027.5,772 1029.8,772C1030.7,772 1051.1,770.6 1075,769ZM1048.5,761.1C1076,756.6 1114.9,755.1 1135.9,757.9C1141,758.5 1145.4,758.9 1145.7,758.7C1146.3,758.1 1130.7,754.4 1121.5,752.9C1105.1,750.3 1074.9,751.9 1047,756.8C1038.4,758.3 1037.5,758.7 1037.2,760.8C1036.9,762.9 1037.1,763.1 1039.7,762.6C1041.2,762.3 1045.2,761.6 1048.5,761.1ZM1279.6,760.8C1279.9,758.6 1279.6,758.5 1260.5,755.5C1236.6,751.8 1218.1,750.7 1204.1,752C1190.8,753.3 1178.9,755.5 1174.5,757.6L1171.5,759L1174.9,758.5C1185,757 1209.1,755.8 1220.5,756.4C1234.2,757 1266.1,760.5 1272,762C1276.9,763.2 1279.3,762.8 1279.6,760.8ZM1156,722.2L1156,686.4L1149.3,684.2C1142.9,682.2 1142.5,682.1 1140.7,683.8C1139.6,684.7 1137.5,685.5 1135.8,685.5C1133.1,685.5 1132.7,686 1131,691C1129,697 1126.1,700 1122.4,700C1118.4,700 1116,696.7 1116,691C1116,687.4 1115.6,686 1114.6,686C1113.9,686 1112.7,685.3 1112,684.5C1111.3,683.7 1110,683 1109.1,683C1108.1,683 1106.3,681.9 1105,680.5C1102.8,678.1 1102.1,678 1097,678.5C1089.8,679.3 1067.9,682.9 1066,683.6C1065.1,683.9 1067.1,685.2 1071,686.9C1078.4,690 1091,698.8 1093.9,702.9C1098.9,709.9 1097,716 1089.9,716C1087.7,716 1084.5,715.3 1082.9,714.4C1081.2,713.6 1079.7,713 1079.7,713.2C1077.4,717.9 1075.9,719.7 1073.5,721C1071.9,721.8 1069.7,723.5 1068.7,724.7C1066.5,727.4 1060.1,729.3 1056.5,728.4C1055.1,728.1 1052.6,726.4 1050.9,724.8C1049.3,723.1 1047.8,721.9 1047.6,722.1C1046.9,722.8 1033.1,754.5 1033.4,754.7C1033.5,754.8 1038.4,754.1 1044.2,753C1073.5,747.7 1098.1,746 1116.1,748C1128.3,749.3 1147.9,753.8 1152.6,756.4C1154.2,757.2 1155.6,757.9 1155.8,758C1155.9,758 1156,741.9 1156,722.2ZM1162.6,757.1C1164.1,755.6 1178.7,751.4 1189,749.4C1196.1,748.1 1203.4,747.6 1217.5,747.6C1236.6,747.6 1246.3,748.6 1271.4,753C1277.4,754.1 1282.5,754.8 1282.7,754.6C1283.2,754.2 1264.7,712 1264,712C1263.7,712 1262.6,713.4 1261.7,715C1257.7,721.7 1249.5,722.9 1243.1,717.8C1240.9,716 1237.9,713.7 1236.5,712.6C1235,711.6 1233.4,709.5 1232.8,708L1231.9,705.2L1228.4,707.2C1223.8,709.9 1218.1,709.8 1215.8,707C1211.1,701.2 1216.6,693.3 1232,683.9L1237.4,680.6L1233.5,679.6C1231.3,679 1220.5,678.6 1209.5,678.5C1188.3,678.5 1181.8,679.4 1167.4,684.2L1160.5,686.5L1160.2,722.3C1160.1,741.9 1160.3,758 1160.8,758C1161.2,758 1162,757.6 1162.6,757.1Z" style="fill:rgb(10,14,16);fill-rule:nonzero;"/>
                </g>
                <g transform="matrix(1.72917,0,0,1.72917,13711.8,-1588.54)">
                    <path d="M1119,722.5C1119,721.7 1119.7,721 1120.5,721C1121.3,721 1122,721.7 1122,722.5C1122,723.3 1121.3,724 1120.5,724C1119.7,724 1119,723.3 1119,722.5Z" style="fill:rgb(10,14,16);fill-rule:nonzero;"/>
                </g>
                <g transform="matrix(1.72917,0,0,1.72917,13711.8,-1588.54)">
                    <path d="M1112.2,721.8C1112.8,720 1115,719.7 1115,721.4C1115,722.3 1114.3,723 1113.4,723C1112.5,723 1112,722.5 1112.2,721.8Z" style="fill:rgb(10,14,16);fill-rule:nonzero;"/>
                </g>
                <g transform="matrix(1.72917,0,0,1.72917,13711.8,-1588.54)">
                    <path d="M1114,715.8C1114,714.7 1118.7,713.7 1120.5,714.4C1123.3,715.4 1122,716.5 1118,716.5C1115.8,716.6 1114,716.2 1114,715.8Z" style="fill:rgb(10,14,16);fill-rule:nonzero;"/>
                </g>
                <g transform="matrix(1.72917,0,0,1.72917,13711.8,-1588.54)">
                    <path d="M1150.4,636.1C1146.1,633.5 1144,630.2 1144,626.2L1144,622.9L1157.8,623.2C1171,623.5 1171.5,623.6 1171.8,625.7C1172.3,628.9 1169.4,633.8 1165.7,636C1161.5,638.6 1154.5,638.6 1150.4,636.1ZM1165.4,630.9C1167.1,629.3 1168.1,627.8 1167.7,627.4C1166.9,626.5 1149.3,626.4 1148.4,627.2C1147.1,628.5 1151,632.9 1154.3,633.9C1158.7,635.1 1162,634.3 1165.4,630.9Z" style="fill:rgb(10,14,16);fill-rule:nonzero;"/>
                </g>
                <g transform="matrix(1.72917,0,0,1.72917,13711.8,-1588.54)">
                    <path d="M1140.7,615.2C1138.6,612.9 1138.5,609.1 1140.6,606.2C1142.8,603 1148.2,603.2 1150.9,606.6C1152.1,608.1 1153,609.8 1153,610.5C1153,611.2 1152.1,612.9 1150.9,614.4C1148.4,617.6 1143.2,618 1140.7,615.2Z" style="fill:rgb(10,14,16);fill-rule:nonzero;"/>
                </g>
                <g transform="matrix(1.72917,0,0,1.72917,13711.8,-1588.54)">
                    <path d="M1168.6,614.8C1165.1,609.9 1167.9,604 1173.6,604C1177.7,604 1181,606.9 1181,610.5C1181,616.4 1171.9,619.5 1168.6,614.8Z" style="fill:rgb(10,14,16);fill-rule:nonzero;"/>
                </g>
                <g transform="matrix(1.72917,0,0,1.72917,13711.8,-1588.54)">
                    <path d="M1043.3,601.9C1038.6,599.6 1035.2,594.9 1034.3,589.5L1033.7,586L1043.1,586.1C1048.3,586.2 1055.9,586.5 1060,586.9L1067.5,587.5L1067.4,590.7C1067.1,597.4 1059,603.9 1051,604C1049.1,604 1045.6,603.1 1043.3,601.9ZM1059.5,596.9C1061.4,595.2 1063,593.2 1063,592.5C1063,591 1051.7,589.6 1043.2,590.2L1037.8,590.5L1040.2,594C1043.1,598.3 1046.3,600 1051.7,600C1055,600 1056.7,599.3 1059.5,596.9Z" style="fill:rgb(10,14,16);fill-rule:nonzero;"/>
                </g>
                <g transform="matrix(1.72917,0,0,1.72917,13711.8,-1588.54)">
                    <path d="M1257,589.4C1250.7,586.7 1246,580.8 1246,575.6C1246,573.3 1246.5,573.1 1251.8,572.5C1254.9,572.2 1262.4,571.2 1268.3,570.4C1274.3,569.5 1279.8,569.1 1280.6,569.4C1284,570.7 1280.8,582.1 1275.9,586.7C1271,591.1 1263.5,592.2 1257,589.4ZM1270.4,585.6C1273.9,584.1 1278,578.6 1278,575.2C1278,573.4 1277.5,573.2 1274.8,573.6C1273,573.9 1267,574.7 1261.6,575.3C1256.1,576 1251.5,577 1251.3,577.6C1250.7,579.3 1255.1,584.1 1258.4,585.6C1262.4,587.3 1266.3,587.3 1270.4,585.6Z" style="fill:rgb(10,14,16);fill-rule:nonzero;"/>
                </g>
                <g transform="matrix(1.72917,0,0,1.72917,13711.8,-1588.54)">
                    <path d="M1036.8,578C1034.3,576.5 1032.6,570.6 1033.9,568.1C1035.3,565.5 1038.9,563 1041.3,563C1043.6,563 1049,568.2 1049,570.4C1049,572.7 1043.9,577.8 1041,578.5C1039.6,578.7 1037.7,578.5 1036.8,578Z" style="fill:rgb(10,14,16);fill-rule:nonzero;"/>
                </g>
                <g transform="matrix(1.72917,0,0,1.72917,13711.8,-1588.54)">
                    <path d="M1069.5,576.5C1064.6,571.7 1067.9,564 1074.8,564C1081.7,564 1084.4,571.8 1078.9,576.4C1075.1,579.6 1072.6,579.7 1069.5,576.5Z" style="fill:rgb(10,14,16);fill-rule:nonzero;"/>
                </g>
                <g transform="matrix(1.72917,0,0,1.72917,13711.8,-1588.54)">
                    <path d="M1233.6,561.9C1228.3,557.8 1231.8,549 1238.7,549C1242,549 1246,553.2 1246,556.8C1246,560.3 1242.3,564 1238.8,564C1237.4,564 1235.1,563.1 1233.6,561.9Z" style="fill:rgb(10,14,16);fill-rule:nonzero;"/>
                </g>
                <g transform="matrix(1.72917,0,0,1.72917,13711.8,-1588.54)">
                    <path d="M1267.5,559.5C1262.5,554.6 1265.5,547 1272.3,547C1276.4,547 1280,550.5 1280,554.4C1280,557.8 1275.9,562 1272.5,562C1271.1,562 1268.8,560.9 1267.5,559.5Z" style="fill:rgb(10,14,16);fill-rule:nonzero;"/>
                </g>
            </g>
        </g>
    </g>
</svg>
