<?xml version="1.0" encoding="UTF-8" standalone="no"?>
<!DOCTYPE svg PUBLIC "-//W3C//DTD SVG 1.1//EN" "http://www.w3.org/Graphics/SVG/1.1/DTD/svg11.dtd">
<svg width="100%" height="100%" viewBox="0 0 440 465" version="1.1" xmlns="http://www.w3.org/2000/svg" xmlns:xlink="http://www.w3.org/1999/xlink" xml:space="preserve" xmlns:serif="http://www.serif.com/" style="fill-rule:evenodd;clip-rule:evenodd;stroke-linejoin:round;stroke-miterlimit:2;">
    <g transform="matrix(1,0,0,1,-7666.34,-311.232)">
        <g transform="matrix(1,0,0,1,6691,0)">
            <g transform="matrix(1,0,0,1,-11968,2297)">
                <g transform="matrix(2.00091,0,0,2.00091,11786.1,-2200.35)">
                    <path d="M626.25,274.45C624,272.15 622.2,270.95 619,269.45C609.3,264.95 609.25,264.95 609.1,262.8C608.95,261.05 609.15,260.65 611.35,258.55C612.7,257.3 615.1,255.5 616.7,254.55C620.5,252.3 628.15,249.4 631.2,249.1L633.65,248.85L633.3,256.8C633.15,261.15 632.85,267.6 632.65,271.15L632.35,277.5L630.8,277.5C629.55,277.5 628.65,276.85 626.25,274.45ZM733.1,268.55C730.5,267.65 729.75,267.15 726.65,264.3C725.35,263.1 725,262.4 725,260.9L725,259L746.5,259L746.5,262.5C746.5,264.45 746.2,266.8 745.8,267.75L745.05,269.5L740.4,269.5C737.25,269.45 734.9,269.2 733.1,268.55ZM780,252.25C780,250.6 780.1,250.5 781.75,250.5C782.95,250.5 783.95,250.05 785.1,249.05C786.65,247.65 786.7,247.5 786.1,245.9C785.8,244.95 785.5,243.6 785.5,242.85C785.5,241.65 785.7,241.5 787.15,241.5C789.3,241.5 790,242.9 790,247.15C790,252.05 787.95,254 782.75,254L780,254L780,252.25ZM668.5,248C668.5,246.05 668.55,246 670.25,246C671.95,246 672,246.05 672,248C672,249.95 671.95,250 670.25,250C668.55,250 668.5,249.95 668.5,248ZM656,247.75C656,246.1 656.1,246 657.75,246C659.4,246 659.5,246.1 659.5,247.75C659.5,249.4 659.4,249.5 657.75,249.5C656.1,249.5 656,249.4 656,247.75ZM716.65,228.15C716.2,228 716,226.7 716,224.2L716,220.5L717.75,220.5C719.25,220.5 719.5,220.65 719.5,221.7C719.5,222.45 719.85,223 720.5,223.15C721.35,223.35 721.5,223.85 721.5,225.95L721.5,228.5L719.4,228.45C718.2,228.45 716.95,228.3 716.65,228.15ZM716,218C716,216.05 716.05,216 717.75,216C719.45,216 719.5,216.05 719.5,218C719.5,219.95 719.45,220 717.75,220C716.05,220 716,219.95 716,218ZM726,220L726,216.5L732.5,216.5L732.5,220L726,220ZM636.4,197.25C628.35,195.05 622.75,189.15 621.05,181.1C619.7,174.75 620.7,167.95 623.55,163.4C628.15,156.25 635.8,153.05 645.15,154.4C652.65,155.5 658.1,159.4 661.1,165.85C662.5,168.8 662.7,169.85 662.9,174.55C663.2,181.7 662.95,182.5 660.75,182.5C659.25,182.5 658.9,182.25 658.35,180.9C656.8,177.25 652.7,174 649.5,173.9C647.3,173.85 643.7,176.25 642.3,178.65C640.4,182 640.35,183.1 641.8,186.2C643.35,189.55 645.95,191.4 650.1,192.15C652.9,192.7 653,192.75 653,194.35C653,195.2 652.75,196.1 652.5,196.25C651.65,196.8 643.4,198 641,197.95C639.75,197.95 637.7,197.6 636.4,197.25ZM679.45,196.8C673.45,195.05 669.05,191.3 666.3,185.5C664.95,182.65 664.75,181.6 664.6,176.95C664.45,173 664.6,170.85 665.25,168.7C666.85,163 670.95,158.35 676.6,155.75C682.1,153.25 691.6,153.7 696.8,156.75C699.95,158.6 703.6,162.5 705.25,165.8C706.5,168.3 706.75,169.4 706.9,173.6C707.05,176.3 706.95,179.5 706.8,180.75C706.45,183 706.4,183 704.45,183C702.9,183 702.5,182.8 702.5,182.1C702.5,179.45 697.75,174.55 694.4,173.75C692.3,173.2 687.85,175.45 686.3,177.85C683.7,181.75 683.8,184.45 686.7,188.25C688.45,190.55 690.5,191.55 694.1,191.9L697.05,192.15L696.9,193.9C696.75,195.45 696.5,195.75 694.75,196.4C692,197.4 682.4,197.65 679.45,196.8Z" style="fill:white;"/>
                </g>
                <g transform="matrix(2.00091,0,0,2.00091,11786.1,-2200.35)">
                    <path d="M686.4,191L684.75,189.5L686.75,189.6C688.5,189.75 688.75,189.9 688.9,191.15C689.1,192.9 688.4,192.85 686.4,191ZM642.45,190.9C641.15,189.65 639,185.5 639,184.2C639,183.8 639.45,183.5 640,183.5C640.8,183.5 641,183.85 641,185.25C641,186.45 641.25,187 641.75,187C642.15,187 642.5,187.25 642.5,187.55C642.5,187.9 642.85,188.4 643.3,188.7C643.8,189.1 644,189.85 643.9,190.7L643.75,192.1L642.45,190.9ZM683.5,187.05C682.7,185.5 682.9,184.5 684,184.5C684.8,184.5 685,184.85 685,186.25C685,188.2 684.3,188.55 683.5,187.05ZM683,180.2C683,179.15 683.9,177.5 684.5,177.5C684.8,177.5 685,178.3 685,179.25C685,180.65 684.8,181 684,181C683.45,181 683,180.65 683,180.2Z" style="fill:rgb(242,143,185);"/>
                </g>
                <g transform="matrix(2.00091,0,0,2.00091,11786.1,-2200.35)">
                    <path d="M659.2,293.9C655.15,289.7 653.5,287.35 653.5,285.8C653.5,285.1 654.75,279.85 656.3,274.15C657.85,268.4 659.35,262.8 659.6,261.7C660.1,259.4 660.95,259 665.25,259L667.4,259L668.95,265.4C669.85,268.9 671.35,274.45 672.3,277.8C674.85,286.75 674.85,286.65 669.65,292.3C664.1,298.3 663.55,298.35 659.2,293.9ZM791.5,259.55C791.5,258.45 792.45,258 794.65,258L796.25,258.05L794.85,259.25C793.15,260.75 791.5,260.9 791.5,259.55ZM657.3,253.7C656.3,251.35 655.5,248.65 655.5,247.7L655.5,246L663.45,246C672.15,246 672,245.95 672,249.15C672,250.85 669.95,255.65 668.65,257.1C668,257.85 667,258 663.45,258L659.1,258L657.3,253.7ZM796,254.25C796,252.85 796.2,252.5 797,252.5C798.05,252.5 798.2,253 797.7,254.9C797.2,256.7 796,256.25 796,254.25ZM778.2,251.75C777.35,249.7 777.3,245.3 778.05,243.05C778.7,241.25 780.1,240.5 782.8,240.5C784.4,240.5 784.5,240.6 784.5,242.15C784.5,243.35 784.2,243.9 783.4,244.25C782.8,244.55 781.95,245.35 781.5,246.15C780.8,247.4 780.85,247.65 781.65,249.05C782.1,249.9 782.5,251.25 782.5,252.05C782.5,253.4 782.35,253.5 780.7,253.5C779.15,253.5 778.85,253.3 778.2,251.75ZM796,238C796,235.35 796.1,235 797,235C797.9,235 798,235.35 798,238C798,240.65 797.9,241 797,241C796.1,241 796,240.65 796,238ZM796,209C796,207.2 796.2,206.5 796.7,206.5C797.45,206.5 798,208 798,210.15C798,211.15 797.75,211.5 797,211.5C796.15,211.5 796,211.15 796,209ZM792.5,201.8C792.5,200.85 792.7,200.65 793.45,200.85C794,201 794.8,201.55 795.3,202.05C796.15,202.95 796.1,203 794.35,203C792.75,203 792.5,202.85 792.5,201.8ZM686.15,174.75C687.95,173.15 688.5,173.2 688.5,174.75C688.5,175.85 688.3,176 686.65,176L684.75,175.95L686.15,174.75ZM694.9,174.15C693.8,173.85 693.7,172 694.75,172C696,172 699,173.4 699,173.95C699,174.5 696.55,174.6 694.9,174.15ZM646,173.3C646,172.65 647.4,172 648.9,172C649.2,172 649.5,172.45 649.5,173C649.5,173.8 649.15,174 647.75,174C646.6,174 646,173.75 646,173.3Z" style="fill:rgb(235,172,153);"/>
                </g>
                <g transform="matrix(2.00091,0,0,2.00091,11786.1,-2200.35)">
                    <path d="M779.25,252.75C778.15,251.65 778,251.15 778,247.55C778,244.1 778.15,243.4 779.15,242.2C780.15,241.05 780.85,240.8 783.35,240.6C785.15,240.5 786.8,240.65 787.45,241C790,242.35 790.9,248.7 788.9,251.25C786.65,254.15 781.4,254.95 779.25,252.75ZM781.15,242.5C780.85,242.2 779.5,244 779.5,244.65C779.5,244.9 779.95,244.6 780.45,243.95C781,243.3 781.3,242.65 781.15,242.5ZM779.35,246.4C779.25,245.75 779.15,246.15 779.15,247.25C779.1,248.35 779.2,248.85 779.35,248.4C779.45,247.9 779.45,247 779.35,246.4ZM721.65,228.65L716.5,228.45L716.5,226C716.5,224.45 716.3,223.5 715.95,223.5C715.55,223.5 715.45,222.45 715.7,219.9C716.25,214 715.5,214.5 723.95,214.5C729.3,214.5 731.5,214.7 731.85,215.1C733,216.55 733,227.15 731.85,228.3C731.4,228.75 727.8,228.9 721.65,228.65ZM719.9,225.9C719.7,224.35 717.5,223.95 717.5,225.4C717.5,226.4 718.1,226.9 719.4,226.95C719.8,227 720,226.55 719.9,225.9Z" style="fill:rgb(230,197,106);"/>
                </g>
                <g transform="matrix(2.00091,0,0,2.00091,11786.1,-2200.35)">
                    <path d="M774,252.85C774,250.85 774.55,250.5 777.55,250.5C778.85,250.5 779.85,250.85 780.5,251.5C781.05,252.05 781.85,252.5 782.25,252.5C782.65,252.5 783,252.85 783,253.25C783,253.8 782.45,254 781.15,254C780.1,254 778.05,254.15 776.65,254.3L774,254.65L774,252.85ZM769,244.85C769,243.3 770.35,241.5 771.45,241.5C771.7,241.5 772,241.25 772.1,241C772.2,240.7 773.45,240.35 774.9,240.15L777.5,239.85L777.5,241.6C777.5,243.2 777.35,243.4 775.85,243.7C774.95,243.85 773.8,244.55 773.3,245.25C772.6,246.15 771.9,246.5 770.7,246.5C769.1,246.5 769,246.4 769,244.85ZM778,241.75C778,240.1 778.1,240 779.75,240C781.2,240 781.5,240.2 781.5,241.05C781.5,242.25 780.2,243.45 778.9,243.5C778.2,243.5 778,243.1 778,241.75ZM682.5,183.05C682.5,181.1 682.95,180 683.8,180C684.3,180 684.5,180.65 684.5,182.25C684.5,184.15 684.35,184.5 683.5,184.5C682.75,184.5 682.5,184.15 682.5,183.05Z" style="fill:rgb(152,106,184);"/>
                </g>
                <g transform="matrix(2.00091,0,0,2.00091,11786.1,-2200.35)">
                    <path d="M710.75,258.15C710.2,258 709.35,257.55 708.9,257.1C708.05,256.4 708,254.5 708,231.2C708,216.95 708.2,205.55 708.45,204.85C708.75,204.15 709.6,203.4 710.45,203.1C712.5,202.4 793.95,202.9 794.9,203.65C795.85,204.4 795.8,255.95 794.8,257.25C794.15,258.1 793.25,258.25 784.55,258.4C773.75,258.65 774.5,258.95 774.35,254.25L774.25,251.3L776.95,250.9C779.35,250.55 779.75,250.6 780.35,251.5C781.65,253.35 785.95,252.4 787.7,249.9C788.65,248.6 788.75,246.05 787.95,244.35C786.95,242.2 783.95,241.4 781.15,242.6C780.4,242.9 778.8,243.2 777.6,243.25C776.05,243.35 774.9,243.8 773.5,244.95C771.4,246.65 769.5,246.9 767.5,245.75C765.7,244.75 765.25,244.8 763.25,246.55C761.65,248 761.25,248.1 759.05,247.85C756.95,247.6 756.45,247.7 755.55,248.7C754.75,249.55 753.7,249.95 751.85,250.15C748.45,250.45 746.5,252.45 746.5,255.7C746.5,257.2 746.25,258 745.7,258.2C744.8,258.55 712.2,258.5 710.75,258.15ZM729.35,227.2C729.95,227.05 730.55,226.55 730.75,226.1C731.3,224.65 731.1,217.45 730.45,216.7C730,216.15 728.45,216 723.95,216L718,216L717.7,217.35C717.3,218.8 717.25,220.6 717.4,224.15C717.5,226.1 717.7,226.6 718.65,227C719.9,227.5 727.65,227.65 729.35,227.2ZM764.65,235.65C763.2,235.55 760.75,235.55 759.15,235.65C757.55,235.75 758.75,235.8 761.75,235.8C764.8,235.8 766.1,235.75 764.65,235.65ZM725.9,235.65C724.6,235.55 722.35,235.55 720.9,235.65C719.45,235.75 720.5,235.8 723.25,235.8C726,235.8 727.2,235.75 725.9,235.65ZM783.9,235.65C782.3,235.55 779.7,235.55 778.15,235.65C776.55,235.75 777.85,235.8 781,235.8C784.15,235.8 785.45,235.75 783.9,235.65ZM737.15,248.65C733.75,248.55 728.25,248.55 724.9,248.65C721.5,248.7 724.25,248.8 731,248.8C737.75,248.8 740.5,248.7 737.15,248.65ZM778.9,252.15C778.4,252.05 777.6,252.05 777.15,252.15C776.65,252.3 777.05,252.4 778,252.4C778.95,252.4 779.35,252.3 778.9,252.15ZM745.4,235.65C744.1,235.55 741.85,235.55 740.4,235.65C738.95,235.75 740,235.8 742.75,235.8C745.5,235.8 746.7,235.75 745.4,235.65ZM682.85,184.9C682.7,184.25 682.65,183.1 682.75,182.25C682.85,181.45 682.9,180.45 682.95,180.15C683,179.8 683.35,179.5 683.75,179.5C684.35,179.5 684.5,180.2 684.5,182.75C684.5,185.2 684.35,186 683.8,186C683.4,186 683,185.5 682.85,184.9Z" style="fill:rgb(20,152,231);"/>
                </g>
                <g transform="matrix(2.00091,0,0,2.00091,11786.1,-2200.35)">
                    <path d="M660.6,295.85C659.9,295.1 659.5,294.05 659.5,293L659.5,291.3L663.8,295.5L668.2,290.7L672.65,285.9L670.6,278.6C669.45,274.55 667.95,268.85 667.2,265.9C666.4,262.6 665.65,260.5 665.25,260.5C664.9,260.5 663.95,260.65 663.1,260.8C661.75,261.05 661.5,261.4 661.05,263.45C660.75,264.7 659.3,270.25 657.8,275.7L655.1,285.65L656.85,288.05L658.6,290.5L657.05,290.5C656.15,290.5 655.5,290.25 655.5,289.85C655.5,289.5 655.05,288.95 654.5,288.6C653.05,287.7 653.2,285.15 655.2,277.65C656.1,274.15 657.5,268.8 658.25,265.75C659.05,262.75 659.7,259.95 659.8,259.65C660,258.85 665,258.75 665,259.5C665,259.8 665.6,260 666.4,260C667.75,260 667.75,260.1 670.2,269.4C671.55,274.55 673.05,280 673.55,281.5C674.85,285.3 674.8,287.5 673.5,287.5C672.8,287.5 672.5,287.85 672.5,288.65C672.5,290.25 669.1,293.5 667.35,293.5C666.15,293.5 666,293.7 666,295.25C666,297 666,297 663.85,297C662.2,297 661.4,296.7 660.6,295.85ZM791,259.5C791,258.85 791.35,258.5 792,258.5C792.55,258.5 793,258.3 793,258C793,257.75 793.4,257.5 793.9,257.5C795.75,257.5 796,254.65 796,231C796,211.65 796.1,208.5 796.75,208.5C797.15,208.5 797.6,209.15 797.75,210.15C797.9,211 798,221.65 797.9,233.75C797.75,258.2 797.85,257.4 794.35,259.5C792.25,260.8 791,260.8 791,259.5ZM659.1,257.7C658.75,257.3 657.75,255.35 656.95,253.4C655.5,249.85 655.05,247 656,247C656.3,247 656.5,246.65 656.5,246.25C656.5,245.65 657.5,245.5 662.5,245.5C668.15,245.5 668.5,245.55 668.5,246.5C668.5,247.45 668.15,247.5 662.7,247.5C657.9,247.5 656.95,247.6 657.15,248.2C657.3,248.6 658.15,250.65 659,252.7C660.55,256.4 660.65,256.5 662.3,256.5C663.65,256.5 664,256.7 664,257.5C664,258.35 663.65,258.5 661.9,258.5C660.65,258.45 659.45,258.15 659.1,257.7ZM665,257.3C665,256.95 665.45,256.5 665.95,256.35C667.15,256.05 668.7,253.65 669.9,250.4C670.9,247.55 672,247.25 672,249.75C672,250.7 671.8,251.5 671.5,251.5C671.25,251.5 671,251.95 671,252.5C671,253.65 670,256 669.5,256C669.3,256 669,256.45 668.85,257C668.65,257.75 668.15,258 666.8,258C665.6,258 665,257.75 665,257.3ZM772.85,252.25C772.4,251.25 772,249.8 772,249C772,247.65 771.85,247.5 770.5,247.5C769.15,247.5 769,247.35 769,245.95C769,244.7 769.15,244.45 769.8,244.7C770.3,244.9 771.1,244.55 771.9,243.75C773.55,242.1 776.5,241.35 779.7,241.8C781.8,242.05 782.05,242.2 781.15,242.55C780.5,242.8 780,243.15 780,243.4C780,243.65 779,243.8 777.8,243.8C776.1,243.75 775.3,244.05 774.3,244.95C772.7,246.45 772.65,247.5 774.15,247.5C774.95,247.5 775.55,247.95 775.9,248.75C776.35,249.7 776.85,250 777.95,250C778.95,250 779.65,250.35 780,251C780.5,251.9 780.4,252 778.65,252C776.45,252 775.2,252.65 775.7,253.45C775.95,253.8 775.6,254 774.85,254C774,254 773.45,253.5 772.85,252.25ZM795.3,205.7C795.15,205.25 795,204.2 795,203.35L795.05,201.75L796.25,203.15C797.75,204.85 797.9,206.5 796.55,206.5C796.05,206.5 795.45,206.15 795.3,205.7ZM791,201.5C791,200.4 792,200.2 793.55,201C795.05,201.8 794.7,202.5 792.75,202.5C791.35,202.5 791,202.3 791,201.5ZM639.2,184.75C638.2,179.25 642.2,173.45 647.9,172.25C649.9,171.85 652.5,172.35 652.5,173.25C652.5,173.65 651.25,174 648.5,174.2C645,174.5 644.5,174.7 644.5,175.55C644.5,176.05 644.05,176.75 643.5,177.1C642.95,177.45 642.5,178 642.5,178.35C642.5,178.65 642.25,179 641.95,179.1C641.65,179.2 641.25,180.9 641.1,182.9C640.85,186.85 639.8,187.85 639.2,184.75ZM682.9,184.65C682.85,183.65 682.85,182.1 682.95,181.15C682.95,180.8 683.35,180.5 683.75,180.5C684.3,180.5 684.5,181.1 684.5,183C684.5,184.9 684.3,185.5 683.75,185.5C683.35,185.5 682.95,185.1 682.9,184.65ZM683.5,178.7C684.45,176.25 686,174.6 688.6,173.3C691.65,171.8 693,171.65 693,172.9C693,173.45 692.2,174.1 690.7,174.7C688.2,175.75 686.25,177.4 685.75,179C685.55,179.65 685,180 684.25,180C683.15,180 683.05,179.9 683.5,178.7ZM696.5,174.5C696.5,174.25 695.85,174 695,174C693.8,174 693.5,173.8 693.5,172.95C693.5,172 693.7,171.9 695.05,172.2C697.05,172.6 700,174 700,174.55C700,174.8 699.2,175 698.25,175C697.3,175 696.5,174.8 696.5,174.5Z" style="fill:rgb(165,99,110);"/>
                </g>
                <g transform="matrix(2.00091,0,0,2.00091,11786.1,-2200.35)">
                    <path d="M772.05,250.5C770.8,248.7 770,246.95 770.05,246.15C770.05,245.35 770.2,245.05 770.35,245.4C770.65,246.2 771.5,246.2 771.5,245.35C771.5,243.95 773.95,242.35 776.45,242.1C780.25,241.75 780.65,242.05 779.7,244.35C778.95,246.1 778.95,248.15 779.75,250.8C780.05,251.8 779.9,251.9 777.95,251.9C776.75,251.95 775.45,251.65 775.05,251.35C774.45,250.85 774.4,250.9 774.9,251.85C775.65,253.25 775.65,253.5 774.8,253.5C774.4,253.5 773.15,252.15 772.05,250.5Z" style="fill:rgb(222,68,41);"/>
                </g>
                <g transform="matrix(2.00091,0,0,2.00091,11786.1,-2200.35)">
                    <path d="M612.2,338.75C611.65,337.4 612.5,333 613.75,330.5C615.85,326.35 619.65,323.8 625.6,322.5L628.4,321.85L628.7,315.05C628.85,311.3 629.1,306.25 629.2,303.85L629.45,299.45L626.8,301.85C621.85,306.4 615.95,308.35 609.8,307.45C603.35,306.55 600.05,303.55 599.6,298.2C599.4,295.6 599.45,295.4 601.25,293.7C602.6,292.45 603,291.8 602.55,291.55C602.2,291.35 599,289.6 595.4,287.7C582.8,281.05 578.4,274.85 578.35,263.5C578.3,257.7 579.1,255 582.55,249.15C586.35,242.7 597.65,233.1 605.8,229.45C607.7,228.6 609.35,227.8 609.45,227.7C609.55,227.6 607.8,225.1 605.6,222.15C598.75,212.95 595.15,205.15 592.7,194C591.45,188.5 591.3,186.7 591.3,179C591.3,171.3 591.45,169.55 592.65,164.4C594.95,154.15 597.65,147.6 602.55,140.15C610.2,128.55 619.5,120.5 632.25,114.45C641,110.3 648.25,108.35 658.25,107.5C690.85,104.7 722.35,125 732.25,155.2C735.35,164.65 736.15,169.7 736.15,179.25C736.15,187.35 735.65,191.65 733.75,199.15C733.45,200.2 733.55,200.5 734.2,200.5C734.65,200.5 735,200.85 735,201.25C735,201.9 733.45,202 724.15,202C714.5,202 713,202.15 711.15,202.95C707.4,204.7 707.5,203.95 707.5,230.35C707.5,251.65 707.6,253.9 708.4,255.45C709.9,258.5 711.7,259 720.3,259C726.6,259 727.95,259.15 728.2,259.75C728.4,260.25 728.15,260.5 727.5,260.5C725.95,260.5 726.3,261.25 728.9,263.55C732.2,266.5 735,267.65 739.6,267.9L743.5,268.15L744.25,266.35C745.25,263.9 745.25,260.5 744.25,260.5C743.85,260.5 743.5,260.3 743.5,260C743.5,259.75 744.3,259.5 745.3,259.5L747.15,259.5L746.9,263.05C746.7,265.35 746.8,266.4 747.1,266.1C747.95,265.25 748.3,262.4 747.95,260C747.75,258.75 747.55,256.35 747.55,254.7C747.5,251.2 747.7,251 751.3,251C753.15,251 753.6,251.2 754,252.15C754.35,253.05 754.45,252.85 754.45,250.95C754.5,248.25 754.85,248 758.55,248C760.95,248 761,248.05 762.25,250.4C763,251.7 763.4,252.3 763.2,251.75C762.45,249.7 762.35,246.4 763.05,245.95C764.35,245.15 767.3,245.45 768.75,246.55C770.45,247.9 773.4,254.3 774.15,258.25C774.45,259.9 774.8,260.85 774.9,260.4C775,259.9 775.4,259.5 775.8,259.5C776.2,259.5 776.5,259.3 776.5,259C776.5,258.75 777.3,258.5 778.25,258.5C779.65,258.5 780,258.7 780,259.5C780,260.25 779.65,260.5 778.55,260.5C777.2,260.5 777.1,260.65 776.5,263.6C774.2,275.45 767.25,284.75 756.55,290.4C741.6,298.25 726.5,296.6 711.5,285.5C708.35,283.15 699.35,274.25 697.05,271.25L695.95,269.75L696.2,275C696.65,283.35 699.15,321.75 699.25,321.9C699.3,321.95 700.7,322.25 702.4,322.5C707.9,323.4 711.35,325.6 713.75,329.7C715.05,331.9 716.25,338.45 715.55,339.15C714.95,339.75 671.15,339.35 670.55,338.75C669.85,338.05 669.05,326.25 668.65,310.85L668.35,298L667.3,298.95C664.75,301.25 662.3,301.3 660.9,299C660.55,298.45 660.1,298 659.95,298C659.8,298 659.5,303.45 659.3,310.15C658.95,323.25 658.05,338.6 657.65,339C657.55,339.15 647.3,339.3 634.95,339.4C614.65,339.55 612.45,339.5 612.2,338.75ZM672.75,214.05C675.15,212.85 677.55,211.2 678.75,209.95L680.75,207.8L678,210.15C673.8,213.8 670.9,214.7 664,214.65C660,214.65 657.6,214.4 656.1,213.85C654.9,213.4 654.1,213.25 654.25,213.5C654.5,213.95 659.75,215.75 662,216.2C664.95,216.75 668.8,216 672.75,214.05ZM646.1,195.8C651.9,194.85 652.35,194.45 648.55,193.7C646.65,193.3 644.7,192.5 643.55,191.65L641.75,190.25L643.45,190.1C644.4,190 645.3,190.15 645.45,190.4C645.6,190.7 646.7,191.15 647.9,191.5C649.8,192 650.35,191.95 652.25,191C656.75,188.8 659.25,184.3 658,180.5C657.65,179.4 657.15,178.5 656.9,178.5C656.7,178.5 656.5,177.95 656.5,177.25C656.5,176.25 656.25,176 655.25,176C654.25,176 654,175.75 654,174.75C654,174.05 654.2,173.5 654.5,173.5C655.5,173.5 658.5,176.65 659.55,178.85C660.5,180.8 660.7,181 661.15,180.25C661.4,179.75 661.5,177.45 661.4,174.95C661.2,171.45 660.8,169.9 659.6,167.3C653.95,155.25 638.15,151.85 628.65,160.65C623.2,165.65 621.05,172.4 622.55,179.6C624.25,187.65 629.85,193.55 637.9,195.75C641,196.6 641.05,196.6 646.1,195.8ZM691.75,195.2C695.55,194.25 696.35,193.5 693.75,193.5C692.65,193.5 690.95,193.25 689.95,193C687.7,192.35 684.35,189.25 683.6,187.05C683.1,185.6 683.1,185.5 684.25,185.5C685.15,185.5 685.55,185.85 685.8,186.75C685.95,187.45 686.3,188 686.55,188C686.8,188 687,188.55 687,189.2C687,190.15 687.3,190.45 688.65,190.65C691.7,191.15 693.25,191.65 693.6,192.2C693.85,192.6 694,192.55 694,192.15C694,191.8 694.45,191.5 695,191.5C696.95,191.5 701.05,186.9 701.95,183.6C702.5,181.8 701.2,178.6 699.4,177.1C698.1,176 697.4,173.5 698.4,173.5C699.9,173.5 704,178.7 704,180.6C704,182.45 704.95,181.4 705.3,179.2C706.3,172.5 704.45,166.6 699.9,162C696.65,158.65 693.8,157.1 689.45,156.2C685.05,155.3 681.85,155.6 678.05,157.3C670.1,160.9 665.6,168.3 666.1,177C666.85,189.85 679.05,198.55 691.75,195.2ZM631.7,258.35L632.05,250.4L630.9,250.75C623.05,253.15 616.75,256.4 612.85,260.1C610.8,262.05 610.45,262.6 610.95,263.2C611.3,263.6 614.2,265.1 617.45,266.5C623.3,269.05 626.65,271.3 629.35,274.55L630.75,276.2L631.05,271.2C631.25,268.5 631.55,262.7 631.7,258.35ZM756.5,257.3C755.9,255.7 755.3,254.5 755.25,254.6C755.05,254.8 756.4,260.7 756.9,262C757.1,262.5 757.25,262.35 757.35,261.45C757.45,260.75 757.05,258.9 756.5,257.3ZM765.45,259.4C765.45,258.75 765,257 764.5,255.5C763.95,254 763.6,253.3 763.75,254C763.85,254.7 764.1,256.45 764.3,257.9C764.6,260.45 765.55,261.6 765.45,259.4ZM671.05,291.5C672.9,289.7 674.6,287.8 674.9,287.25C675.45,286.15 674.6,282.25 671.1,269C668.55,259.6 668.5,257.85 670.5,254.35C671.3,252.9 672.3,250.75 672.75,249.55C673.45,247.55 673.45,247.25 672.7,246.45C671.55,245.15 668.1,244.5 662.65,244.5C658.6,244.5 657.45,244.7 656.05,245.55C654.6,246.45 654.4,246.75 654.65,248.15C654.8,249.05 655.7,251.5 656.7,253.6C659.05,258.6 659.1,261.8 657.05,268.8C654.45,277.55 652.5,284.95 652.5,285.9C652.5,286.4 654.55,288.9 657.05,291.5C659.6,294.1 662.2,296.85 662.9,297.6L664.2,298.95L665.95,296.85C666.9,295.7 669.2,293.3 671.05,291.5ZM606.1,294.95C605.05,294.65 604.15,294.65 603.6,294.95C602.95,295.35 603.35,295.45 605.25,295.45C607.65,295.4 607.7,295.4 606.1,294.95ZM717.85,228.7C717.65,228.5 717.5,227.95 717.5,227.5C717.5,226.85 717.85,226.7 719,226.9C720.4,227.1 720.5,227 720.5,225.6C720.5,224.75 720.35,223.95 720.15,223.85C719.45,223.45 717.5,224.45 717.5,225.25C717.5,226.85 716.1,225.95 715.8,224.15C715.25,220.65 715.4,219 716.4,218.95C716.9,218.95 717,218.8 716.65,218.65C715.9,218.4 715.75,215.7 716.45,215.3C716.65,215.15 718.15,214.85 719.75,214.7L722.65,214.35L722.35,216.8C722.2,218.1 721.85,219.3 721.55,219.4C720.9,219.6 720.8,221.35 721.45,221.6C721.7,221.7 721.95,223.35 722.05,225.25L722.25,228.75L720.25,228.9C719.1,229 718.05,228.9 717.85,228.7ZM720.5,221.5C720.5,220.1 720.4,220 719.15,220.3C718.35,220.5 717.55,220.8 717.3,221.05C716.6,221.7 717.95,223 719.3,223C720.3,223 720.5,222.75 720.5,221.5ZM720.6,217.75C720.75,217.1 720.75,216.4 720.6,216.25C720,215.7 718.1,216.05 717.8,216.8C717.2,218.4 717.5,219 718.95,219C720.1,219 720.45,218.75 720.6,217.75ZM726,222.8C726,219.4 725.85,216.25 725.7,215.8C725.45,215.1 725.85,215 728.45,215C732.3,215 732.5,215.35 732.5,221.95C732.5,226.45 732.4,227.05 731.4,228C730.65,228.7 729.65,229 728.15,229L726,229L726,222.8ZM730.6,226.3C731.45,225.05 731,224.1 729.5,223.9C728.65,223.75 727.9,223.8 727.75,223.9C727.4,224.3 727.45,226.8 727.85,227.15C728.3,227.6 730.15,227.05 730.6,226.3ZM731.15,220.65C731,220.3 730.6,220 730.2,220C729.8,220 729.5,219.65 729.5,219.25C729.5,218.85 729.85,218.5 730.25,218.5C731.15,218.5 731.25,217.45 730.4,216.6C729.55,215.75 727.65,215.85 727.3,216.8C726.9,217.8 727.35,218.5 728.3,218.5C728.7,218.5 729,218.85 729,219.25C729,219.65 728.65,220 728.25,220C727.85,220 727.5,220.45 727.5,220.95C727.5,221.7 727.9,222 729.15,222.1C730.85,222.25 731.55,221.75 731.15,220.65Z" style="fill:rgb(18,143,71);"/>
                </g>
                <g transform="matrix(2.00091,0,0,2.00091,11786.1,-2200.35)">
                    <path d="M770.5,247.5C770.5,246.7 770.7,246 770.95,246C771.2,246 771.9,246.7 772.5,247.5L773.55,249L772.05,249C770.65,249 770.5,248.85 770.5,247.5Z" style="fill:rgb(59,27,40);"/>
                </g>
                <g transform="matrix(2.00091,0,0,2.00091,11786.1,-2200.35)">
                    <path d="M656.75,294.2C653.45,290.75 650.7,287.5 650.6,286.95C650.4,285.9 651.9,279.85 655,269.25C656.1,265.4 657,261.5 657,260.6C657,259.7 656.25,257.3 655.3,255.3C651.95,248.1 651.8,245.75 654.65,244C656,243.15 657.15,243 662.75,243C669.5,243 672.6,243.5 674.2,244.9C675.65,246.2 675.05,249.8 672.5,254.8L670.4,259L671.2,262.35C671.65,264.25 672.9,269 674,273C676.5,282.25 677.2,286.1 676.75,287.85C676.6,288.6 674.8,290.8 672.85,292.75C670.85,294.65 668.4,297.2 667.35,298.4C664.3,301.75 663.75,301.55 656.75,294.2ZM668.5,290.75C670.85,288.15 672.7,285.75 672.65,285.4C672.6,285.05 671.3,280.25 669.8,274.75C668.3,269.25 666.8,263.8 666.5,262.65C665.95,260.5 665.95,260.5 663.7,260.5C662.35,260.5 661.4,260.75 661.3,261.15C661.2,261.45 660.55,264.25 659.75,267.25C659,270.3 657.6,275.65 656.65,279.2C655.75,282.75 655.05,285.85 655.1,286.05C655.45,287 663.2,295.5 663.7,295.45C664,295.45 666.15,293.3 668.5,290.75ZM666.85,256.25C668,255.9 671.35,247.6 670.4,247.5C666.1,247.1 658.05,247.05 657.55,247.4C656.95,247.8 657.1,248.45 658.2,251.3C660.4,256.85 660.55,257 663.6,256.7C665.05,256.55 666.5,256.35 666.85,256.25ZM599.75,298.4C599.35,296.75 600.2,294.7 601.75,293.7C602.7,293.05 603.7,292.95 605.65,293.15C611.15,293.75 614.15,295.55 612.4,297.3C611.7,298 611.3,298.05 609.95,297.55C609.1,297.25 607.15,297 605.7,297C603.6,297 602.75,297.25 601.55,298.3L600.05,299.55L599.75,298.4ZM744.8,266.15C745,264.8 745.2,263.1 745.2,262.25L745.25,260.75L727.75,260.5C711.45,260.25 710.15,260.2 708.8,259.25C706,257.4 706,257.25 706,230.25C706,202.3 705.9,203.2 709.65,201.45C711.65,200.55 713.55,200.5 751.9,200.5C796.1,200.5 794.55,200.4 796.5,203.6C797.45,205.2 797.5,206.05 797.5,230.5C797.5,254.3 797.45,255.85 796.55,257.3C794.9,260 792.95,260.55 784.8,260.45C780.8,260.45 777.3,260.55 777.05,260.75C776.75,260.9 776.5,261.5 776.5,262.05C776.5,262.9 776.2,263.05 774.9,262.9C773.3,262.75 773.25,262.65 772.65,259.75C771.85,255.75 768.9,249.4 767.25,248.05C765.7,246.9 765.55,246.85 764.6,247.4C764.1,247.75 764.3,248.8 765.5,252.35C767.3,257.85 767.55,261.75 766,262.25C763.85,262.95 763.2,262.2 762.6,258.25C761.6,251.75 759.5,248.75 756.8,249.8C755.7,250.2 755.8,250.9 757.3,254.15C758.65,257.1 759.55,261.5 759.15,263.05C758.8,264.3 756.6,264.85 755.8,263.95C755.45,263.55 754.8,261.7 754.35,259.75C752.85,253.2 751.7,251.6 749.55,252.95C748.9,253.35 748.9,254.1 749.4,258.1C750.35,265.35 749.4,268.5 746.2,268.5L744.4,268.5L744.8,266.15ZM744.25,256.65C744.75,256.5 745,255.65 745,254.2C745,251 746.9,249 750.25,248.65C751.85,248.45 753.2,247.95 754,247.25C755.7,245.75 756.65,245.45 758.55,246C759.95,246.4 760.35,246.3 761.85,245C763.7,243.35 766.55,243 768.65,244.05C771.4,245.45 775.35,251.35 775.95,255L776.25,256.75L784.45,256.75C791.9,256.7 792.65,256.65 793.3,255.75C794.3,254.45 794.35,205.9 793.4,205.15C792.5,204.4 713.9,203.9 711.9,204.6C711.1,204.9 710.2,205.65 709.95,206.35C709.7,207.05 709.5,217.85 709.5,231.2C709.5,253.1 709.55,254.9 710.4,255.6C710.85,256.05 711.7,256.5 712.25,256.6C713.7,256.95 743.4,257 744.25,256.65ZM716.9,249.95C715.7,249.3 715.75,248.15 716.95,247.5C717.55,247.2 723.25,247 731.9,247C743.95,247 745.95,247.1 746.2,247.75C746.35,248.2 746.05,248.95 745.5,249.5C744.55,250.45 743.8,250.5 731.15,250.5C722.95,250.5 717.4,250.25 716.9,249.95ZM716.85,237.15C716.65,237 716.5,236.2 716.5,235.4L716.5,233.95L723.15,234.1L729.75,234.25L729.9,235.9L730.05,237.5L723.6,237.5C720.05,237.5 717,237.35 716.85,237.15ZM736.05,236.8C735.7,236.4 735.55,235.6 735.75,235C736.05,234.05 736.45,234 742.8,234L749.55,234L749.4,235.65L749.25,237.25L742.95,237.4C737.85,237.5 736.55,237.4 736.05,236.8ZM754.7,236.8C754.55,236.4 754.5,235.65 754.6,235.15C754.75,234.35 755.45,234.25 761.6,234.1L768.45,233.95L768.8,235.2C768.95,235.9 768.95,236.7 768.75,236.95C768.55,237.3 765.9,237.5 761.7,237.5C756.3,237.5 754.9,237.35 754.7,236.8ZM773.7,236.8C773.55,236.4 773.5,235.65 773.6,235.15C773.75,234.35 774.45,234.25 780.85,234.1L787.95,233.95L788.3,235.2C788.45,235.9 788.45,236.7 788.25,236.95C788.05,237.3 785.3,237.5 780.95,237.5C775.35,237.5 773.9,237.35 773.7,236.8ZM717,228.1C715.95,227.25 715.85,226.75 715.8,221.65C715.75,217.65 715.95,215.95 716.45,215.35C717,214.65 718.2,214.5 724.05,214.5C732.65,214.5 732.5,214.35 732.5,221.85C732.5,228.95 732.45,229 724.3,229C719.05,229 717.95,228.85 717,228.1ZM720.5,218.65C720.5,218.4 720.65,217.75 720.8,217.1C721.1,216 721,215.95 719.45,216.1C718,216.2 717.75,216.45 717.6,217.65C717.45,218.85 717.6,219 718.95,219C719.8,219 720.5,218.85 720.5,218.65ZM731.5,218.05C731.5,217.05 729.8,215.95 728.55,216.1C727.65,216.2 727.2,216.6 727.1,217.4C726.95,218.4 727.15,218.5 729.2,218.5C730.45,218.5 731.5,218.3 731.5,218.05ZM720.6,223.75C720.5,221.8 720.35,220.15 720.25,220.1C720.15,220 719.35,220.05 718.5,220.25C717.25,220.5 716.95,220.8 717.1,221.65C717.2,222.35 717.65,222.8 718.4,222.9C719.75,223.1 719.85,224 718.5,224C717.2,224 717.1,226.2 718.4,226.95C720.3,228.1 720.75,227.45 720.6,223.75ZM731.25,221.25C731.25,220.4 730.9,220.25 729.25,220.25C726.95,220.25 726.45,221.45 728.5,222.05C730.4,222.6 731.25,222.35 731.25,221.25ZM730.1,226.9C732.05,225.3 731.2,223.5 728.55,223.5C727.65,223.5 727.5,223.8 727.5,225.5C727.5,227.1 727.7,227.5 728.4,227.5C728.9,227.5 729.65,227.2 730.1,226.9ZM726,227L726,216L724.3,216C722.2,216 722,216.6 722,222.65L722,227L726,227ZM659.75,217.5C656.2,216.75 653.6,215.6 650.6,213.55C645.85,210.35 643.35,206.9 644.2,204.75C644.7,203.35 646.15,204 649.3,207C655.65,213.1 663.45,214.85 671.4,211.9C673.25,211.2 675.1,209.9 677.6,207.45C681.3,203.9 682.4,203.4 683.55,204.8C684.1,205.45 684,205.95 683.05,207.8C681.4,210.9 678.05,213.8 673.7,215.85C670.6,217.35 669.35,217.65 665.9,217.8C663.6,217.9 660.85,217.75 659.75,217.5ZM646.35,193C642.9,191.95 640.05,188.5 639.3,184.4C638.45,179.75 641.95,174.15 646.55,172.8C653.2,170.8 660,175.75 660,182.45C659.95,189.95 653.3,195.1 646.35,193ZM690.7,193C683,191.2 680.3,180.55 686.1,175.15C687.6,173.75 691.4,172 693,172C698.9,171.95 704.65,178.1 703.8,183.55C703.4,186.15 702.4,188.05 700.15,190.5C697.75,193.2 694.75,194 690.7,193Z" style="fill:rgb(31,33,33);"/>
                </g>
            </g>
        </g>
    </g>
</svg>
