<?xml version="1.0" encoding="UTF-8" standalone="no"?>
<!DOCTYPE svg PUBLIC "-//W3C//DTD SVG 1.1//EN" "http://www.w3.org/Graphics/SVG/1.1/DTD/svg11.dtd">
<svg width="100%" height="100%" viewBox="0 0 584 467" version="1.1" xmlns="http://www.w3.org/2000/svg" xmlns:xlink="http://www.w3.org/1999/xlink" xml:space="preserve" xmlns:serif="http://www.serif.com/" style="fill-rule:evenodd;clip-rule:evenodd;stroke-linecap:round;stroke-linejoin:round;stroke-miterlimit:1.5;">
    <g transform="matrix(1,0,0,1,-6920.09,-980.402)">
        <g transform="matrix(1,0,0,1,6691,0)">
            <g transform="matrix(1,0,0,1,-12649,2485)">
                <path d="M13259,-1257L13232,-1238L13201,-1213L13184,-1182L13180,-1151L13186,-1120L13215,-1091L13230,-1071L13236,-1047L13255,-1043L13274,-1046L13281,-1057L13301,-1058L13333,-1059L13342,-1043L13373,-1044L13381,-1057L13388,-1077L13408,-1094L13426,-1120L13450,-1130L13458,-1153L13456,-1177L13441,-1183L13431,-1189L13416,-1213L13405,-1223L13411,-1259L13399,-1262L13368,-1245L13345,-1254L13307,-1241L13282,-1246L13259,-1257Z" style="fill:rgb(243,238,225);stroke:black;stroke-width:1px;"/>
                <g transform="matrix(2.00091,0,0,2.00091,12645.5,-2436.35)">
                    <path d="M253.8,629.2C253.65,628.75 253.5,627 253.5,625.3C253.5,621.2 254.35,620 257.2,620C258.35,620 259.55,620.25 259.9,620.6C261.2,621.9 260.4,626.9 258.6,629.15C257.6,630.25 254.25,630.35 253.8,629.2ZM204,683.65C203.35,683.2 201.45,682.3 199.75,681.7L196.75,680.6L196.95,646.2C197.1,621.8 197.3,611.65 197.7,611.4C198,611.2 199.55,611 201.1,611C203.7,611 204,611.1 204.2,612.15C204.3,612.75 204.7,618 205,623.75C205.3,629.55 205.75,636.95 206,640.25C208.05,666.2 209.15,682.95 208.8,683.75C208.45,684.8 205.5,684.7 204,683.65ZM162.95,621C159.55,617.5 158.5,616.75 153.2,614.25C149.95,612.7 146.9,611.25 146.5,611.05C146.1,610.8 145.7,609.9 145.6,609C145.45,607.65 145.8,607 147.35,605.4C148.4,604.3 150.55,602.65 152.15,601.65C155.95,599.35 157.25,599.5 164.85,603.25L170.65,606.05L170.35,612.4C170.15,615.9 170,620.15 170,621.9L170,625L168.4,624.95C167.05,624.9 166.1,624.2 162.95,621ZM331.5,592.8C331.5,591.5 331.75,590.9 332.4,590.7C334.25,590.1 338.75,587.7 339.15,587.15C339.35,586.8 340.35,586.5 341.25,586.5C342.9,586.5 343,586.6 343,588.3C343,589.65 342.75,590.15 342,590.35C341.45,590.5 341,590.8 341,591C341,591.8 336.2,594.1 333.9,594.35L331.5,594.65L331.5,592.8ZM346.5,579.5C346.5,578.65 346.95,576.35 347.5,574.4C348.05,572.4 348.5,570.25 348.5,569.65C348.5,568.65 348.75,568.5 350.25,568.5L352,568.5L352,570.85C352,572.15 351.55,574.95 350.95,577.1C349.9,581 349.9,581 348.2,581C346.65,581 346.5,580.85 346.5,579.5ZM347.5,561.75C347.5,560.1 347.6,560 349.25,560C350.9,560 351,560.1 351,561.75C351,563.4 350.9,563.5 349.25,563.5C347.6,563.5 347.5,563.4 347.5,561.75ZM169.65,557.25C164.2,555.75 159.35,552.15 156.75,547.75C153.1,541.45 153.1,530.9 156.85,524.55C160.95,517.5 167.7,514.15 176.75,514.6C183.2,514.95 186.4,516.3 190.55,520.45C193.4,523.35 193.95,524.2 194.95,527.45C195.6,529.5 196.25,532.6 196.4,534.35L196.65,537.5L194.95,537.5C193.55,537.5 193,537.15 191.85,535.55C190.4,533.45 187,531.5 184.8,531.5C181.15,531.5 176.5,536.5 176.5,540.4C176.5,542.55 179.35,546.5 181.95,547.95C183.95,549.05 184.35,549.1 186.6,548.55C187.95,548.25 189.6,548 190.3,548C191.35,548 191.5,548.2 191.5,550C191.5,551.8 191.25,552.15 189.15,553.75C187.8,554.7 185.5,555.95 184,556.55C180.4,557.95 173.3,558.3 169.65,557.25ZM304,553.75C304,552.1 304.1,552 305.75,552C307.4,552 307.5,552.1 307.5,553.75C307.5,555.4 307.4,555.5 305.75,555.5C304.1,555.5 304,555.4 304,553.75ZM212.75,549.85C206.45,548.2 201.4,544.3 198.85,539.05C197.3,535.85 197.25,535.6 197.25,529C197.25,522.6 197.35,522.1 198.7,519.15C200.45,515.3 204.8,511 208.85,509.1C211.55,507.85 212.2,507.75 218.75,507.75C225.05,507.75 226,507.85 228.1,508.9C231.25,510.45 235.6,514.75 237.2,517.9C238.7,520.8 240,525.8 240,528.65C240,530.4 239.95,530.5 238.35,530.5C236.95,530.5 236.4,530.15 235.1,528.3C234,526.8 232.55,525.6 230.75,524.75C228.3,523.55 227.85,523.45 226.25,524C223.65,524.85 220.25,528.3 219.5,530.85C218.6,533.85 219.8,536.85 222.85,539.35C225.3,541.35 226.3,541.55 231.9,540.75L234.5,540.35L234.5,542.25C234.5,544.55 232.7,546.35 228.3,548.6C225.6,550 224.65,550.2 220.25,550.3C217.25,550.4 214.25,550.2 212.75,549.85Z" style="fill:white;"/>
                </g>
                <g transform="matrix(2.00091,0,0,2.00091,12645.5,-2436.35)">
                    <path d="M180.25,549.35C178.15,548.15 175,544.05 175,542.45C175,541.85 175.35,541.5 176,541.5C176.65,541.5 177,541.85 177,542.5C177,543.05 177.25,543.5 177.5,543.5C177.8,543.5 178,544.05 178,544.75C178,545.55 178.3,546 178.8,546C179.7,546 181,547.15 181,547.95C181,548.25 181.8,548.5 182.75,548.5C184.15,548.5 184.5,548.7 184.5,549.5C184.5,550.85 182.8,550.8 180.25,549.35ZM223.75,542.5C221.9,541.75 219,538.8 218.25,536.9C217.5,535.05 217.5,535 218.6,535C219.4,535 220.15,535.65 221,537C221.65,538.1 222.4,539 222.6,539C222.8,539 223,539.3 223,539.7C223,540.1 223.75,540.55 224.75,540.7C226.05,540.95 226.5,541.3 226.5,542C226.5,543.05 225.5,543.25 223.75,542.5ZM182.5,530.8C182.5,529.95 184.6,529.4 186.25,529.8C188.55,530.35 187.75,531.5 185,531.5C183.2,531.5 182.5,531.3 182.5,530.8ZM218.5,528.05C218.5,527.75 219.05,526.9 219.75,526.15L220.95,524.75L221,526.65C221,528.3 220.85,528.5 219.75,528.5C219.05,528.5 218.5,528.3 218.5,528.05ZM224,523.3C224,522.65 225.4,522 226.9,522C227.2,522 227.5,522.45 227.5,523C227.5,523.8 227.15,524 225.75,524C224.6,524 224,523.75 224,523.3Z" style="fill:rgb(242,143,185);"/>
                </g>
                <g transform="matrix(2.00091,0,0,2.00091,12645.5,-2436.35)">
                    <path d="M311,698C311,697.2 311.35,697 312.75,697C314.75,697 315.2,698.2 313.4,698.7C311.5,699.2 311,699.05 311,698ZM362,698C362,697.2 362.35,697 363.75,697C365.75,697 366.2,698.2 364.4,698.7C362.5,699.2 362,699.05 362,698ZM345.2,697.65C344.25,696.7 343,693.9 343,692.75C343,692.35 343.45,692 344,692C344.75,692 345.05,692.45 345.3,694C345.5,695.2 345.9,696 346.3,696C346.7,696 347,696.5 347,697.25C347,698.7 346.4,698.85 345.2,697.65ZM366,696.5C366,695.25 366.2,695 367.25,695C368.7,695 368.8,695.35 367.7,696.9C366.65,698.4 366,698.3 366,696.5ZM291.35,689.5C290.3,685.7 290.3,685.5 291.5,685.5C292.3,685.5 292.5,685.85 292.5,687.25C292.5,688.2 292.75,689 293,689C293.3,689 293.5,689.8 293.5,690.75C293.5,693.6 292.25,692.9 291.35,689.5ZM317.5,690.75L317.5,689L320,689C322.2,689 322.5,689.1 322.5,690.05C322.5,690.95 322.3,691.1 321,690.85C319.85,690.6 319.4,690.75 319,691.5C318.2,693.05 317.5,692.7 317.5,690.75ZM345.5,691C345.5,690.2 345.3,689.5 345,689.5C344.75,689.5 344.5,689.15 344.5,688.75C344.5,688.35 344.3,688 344,688C343.75,688 343.5,687.55 343.5,687C343.5,686.35 343.85,686 344.45,686C345.45,686 346.8,688.3 347.3,690.95C347.6,692.3 347.5,692.5 346.55,692.5C345.7,692.5 345.5,692.2 345.5,691ZM325.4,691.15C323.75,690.75 324.4,689.5 326.25,689.5C327.65,689.5 328,689.7 328,690.5C328,691.5 327.3,691.65 325.4,691.15ZM337,690.5C337,689.7 337.35,689.5 338.75,689.5C340.75,689.5 341.2,690.7 339.4,691.2C337.5,691.7 337,691.55 337,690.5ZM365,690.9C365,689.4 365.65,688 366.3,688C366.75,688 367,688.6 367,689.75C367,691.15 366.8,691.5 366,691.5C365.45,691.5 365,691.2 365,690.9ZM294.5,689.25C294.5,688.3 294.3,687.5 294,687.5C293.75,687.5 293.5,686.7 293.5,685.75C293.5,684.8 293.3,684 293,684C292.75,684 292.5,683.2 292.5,682.25C292.5,678.9 293.75,680.3 295.15,685.25C296.75,690.95 296.75,691 295.5,691C294.7,691 294.5,690.65 294.5,689.25ZM326,687.5C326,686.45 326.8,686.25 328.9,686.8C330.85,687.35 330.25,688.5 328,688.5C326.35,688.5 326,688.35 326,687.5ZM335.5,687.8C335.5,687.15 336.9,686.5 338.4,686.5C338.7,686.5 339,686.95 339,687.5C339,688.3 338.65,688.5 337.25,688.5C336.1,688.5 335.5,688.25 335.5,687.8ZM315,687.55C315,686.95 316.45,685.5 317.05,685.5C317.3,685.5 317.5,686.05 317.5,686.75C317.5,687.75 317.25,688 316.25,688C315.55,688 315,687.8 315,687.55ZM321,687C321,685.95 321.5,685.8 323.4,686.3C325.2,686.8 324.75,688 322.75,688C321.35,688 321,687.8 321,687ZM339.5,687.3C339.5,686.65 340.9,686 342.4,686C342.7,686 343,686.45 343,687C343,687.8 342.65,688 341.25,688C340.1,688 339.5,687.75 339.5,687.3ZM366,686.95C366,685.35 367.2,682 367.8,682C368.55,682 368.7,683.4 368.2,685.95C367.95,687 367.6,687.5 366.95,687.5C366.4,687.5 366,687.25 366,686.95ZM371.5,680.3C371.5,679.35 371.8,678.45 372.15,678.35C372.45,678.2 372.25,678.05 371.7,678.05C370.9,678 370.55,678.4 370.35,679.5C370.1,680.7 369.75,681 368.8,681C367.65,681 367.6,680.9 368.05,679.55C368.6,677.95 369.55,677.05 373.4,674.3L376,672.4L376,673.95C376,675.4 375.85,675.5 374.25,675.5C372.85,675.5 372.5,675.7 372.5,676.5C372.5,677.3 372.85,677.5 374.25,677.5C376.3,677.5 376.5,678.05 374.8,678.95C374.15,679.3 373.3,680.15 372.95,680.8C372.05,682.5 371.5,682.3 371.5,680.3ZM282.5,675.5L280.75,674.05L282.65,674C284.4,674 284.5,674.1 284.5,675.5C284.5,676.35 284.45,677 284.35,677C284.3,677 283.45,676.35 282.5,675.5ZM378,675.05C378,673.6 378.15,673.5 379.8,673.5C381.75,673.5 381.7,673.95 379.5,675.5L378,676.55L378,675.05ZM286.5,674.5C286.5,673.1 286.35,673 284.75,673C283.15,673 283,672.9 283,671.45L283,669.95L284.4,670.95C285.15,671.5 286.75,672.9 288,673.95L290.25,675.95L288.4,676C286.6,676 286.5,675.9 286.5,674.5ZM383.5,669.9C383.5,668.2 383.65,668 384.75,668C385.8,668 386,667.75 386,666.5C386,665.15 386.15,665 387.55,665L389.05,665L388.05,666.4C387.5,667.15 386.25,668.65 385.3,669.75L383.55,671.75L383.5,669.9ZM277.5,665.7C277.5,663.75 277.95,663.8 279.5,666L280.55,667.5L279.05,667.5C277.6,667.5 277.5,667.35 277.5,665.7ZM382,666C383.55,663.8 384,663.75 384,665.7C384,667.35 383.9,667.5 382.45,667.5L380.95,667.5L382,666ZM272.95,665C271.45,662.95 269.5,659.75 269.5,659.3C269.5,659.15 270.05,659 270.75,659C271.75,659 272,659.25 272,660.25C272,661.05 272.3,661.5 272.75,661.5C273.25,661.5 273.5,661 273.5,660C273.5,659.2 273.65,658.5 273.9,658.5C274.1,658.5 275,659.65 275.9,661L277.5,663.5L276.05,663.5C274.75,663.5 274.55,663.7 274.4,665.15L274.25,666.75L272.95,665ZM378.65,657.25C376.5,656.35 376.55,655.5 378.75,655.5C380.3,655.5 380.5,655.65 380.5,656.75C380.5,657.45 380.45,658 380.4,658C380.3,657.95 379.5,657.65 378.65,657.25ZM397.5,657C397.5,656.2 397.85,656 399.25,656C401.2,656 401.55,656.7 400.05,657.5C398.5,658.3 397.5,658.1 397.5,657ZM268.3,657.05C268.15,656.85 267.8,656.05 267.55,655.3C267.05,654.1 267.15,654 268.25,654C269.35,654 269.5,654.2 269.5,655.75C269.5,657.4 268.9,658.05 268.3,657.05ZM270.5,654.2C270.5,652 271.4,652.1 272.35,654.4C273,655.95 272.95,656 271.75,656C270.65,656 270.5,655.8 270.5,654.2ZM373.45,654.4L371.25,652.75L373.25,652.45C374.35,652.3 374.85,652.1 374.4,652.05C373.9,652.05 373.5,651.7 373.5,651.3C373.5,650.95 373.05,650.5 372.5,650.35C371.75,650.15 371.5,649.65 371.5,648.55C371.5,647.35 371.3,647 370.5,647C369.95,647 369.5,647.25 369.5,647.5C369.5,647.8 369.75,648 370,648C370.3,648 370.5,648.8 370.5,649.8C370.5,651.45 370.4,651.55 369.65,650.95C369.2,650.55 368.55,649.5 368.15,648.55C367.5,647.05 367.55,646.8 368.3,645.95C368.75,645.45 369.4,645 369.75,645C370.05,645 371.55,646.35 373.1,647.95C374.8,649.75 377,651.4 378.7,652.2C381.9,653.7 382.25,654.5 379.75,654.5C378.55,654.5 378,654.25 378,653.75C378,653.25 377.5,653 376.4,653.05C375.5,653.1 375.15,653.2 375.65,653.35C376.5,653.55 376.9,656 376.1,656C375.85,656 374.65,655.25 373.45,654.4ZM383.5,655C383.5,653.95 384,653.8 385.9,654.3C387.7,654.8 387.25,656 385.25,656C383.85,656 383.5,655.8 383.5,655ZM404,653.4C404,651.7 404.15,651.5 405.25,651.5C406.8,651.5 406.85,652.05 405.25,653.85L404.05,655.25L404,653.4ZM397.5,653.85C397.5,653.5 398.3,652.9 399.25,652.55C400.2,652.2 401.35,651.3 401.85,650.45C403,648.55 403.5,648.6 403.5,650.75C403.5,651.95 403.25,652.5 402.75,652.5C402.35,652.5 402,652.8 402,653.2C402,654.05 400.9,654.5 398.95,654.5C398.1,654.5 397.5,654.25 397.5,653.85ZM265.55,649.15C265.3,647.8 264.9,645.8 264.75,644.65C264.45,642.75 264.5,642.5 265.4,642.5C266.15,642.5 266.45,642.95 266.7,644.75C266.85,646 267.15,648 267.3,649.25C267.55,651.05 267.5,651.5 266.85,651.5C266.35,651.5 265.9,650.7 265.55,649.15ZM268.05,645.75C267.35,640.8 267.35,640 268.25,640C268.7,640 269.05,640.7 269.25,641.9C269.45,642.9 269.8,644.85 270.05,646.15C270.65,649.35 270.65,649.5 269.55,649.5C268.75,649.5 268.55,648.9 268.05,645.75ZM260.4,637.95C258.95,637.15 259.35,636.5 261.25,636.5C262.65,636.5 263,636.7 263,637.5C263,638.6 261.8,638.8 260.4,637.95ZM267.5,636.65C267.5,636.15 267.65,634.55 267.8,633.15C268.1,630.95 268.3,630.5 269.1,630.5C270.1,630.5 270.15,631.15 269.2,636.15C268.9,637.65 267.5,638.05 267.5,636.65ZM403.3,636.4C403.15,635.75 403,634.6 403,633.85C403,632.3 400.6,629.5 399.3,629.5C398.85,629.5 398.5,629.15 398.5,628.75C398.5,628.25 399.05,628 400.25,628C401.2,628 402,628.25 402,628.5C402,628.8 402.35,629 402.75,629C403.8,629 404.35,630.35 404.75,634.15C405.05,636.95 405,637.5 404.35,637.5C403.95,637.5 403.5,637 403.3,636.4ZM245.65,635.95C244.45,635.65 243.5,635.15 243.5,634.8C243.5,634.35 244.9,634.2 249,634.2C252.05,634.2 254.5,634.35 254.5,634.55C254.5,635.85 248.95,636.75 245.65,635.95ZM260,634.25C260,632.8 260.1,632.75 262,633.75C264,634.8 263.9,635.5 261.75,635.5C260.2,635.5 260,635.35 260,634.25ZM406,633.25C406,631.25 407.2,630.8 407.7,632.65C408.2,634.5 408.05,635 407,635C406.2,635 406,634.65 406,633.25ZM265,631.45C265,630.35 267,624.1 268.25,621.3C269.65,618.1 270.5,617.7 270.5,620.25C270.5,621.45 270.25,622 269.75,622C269.25,622 269,622.55 269,623.75C269,624.7 268.8,625.5 268.5,625.5C268.25,625.5 268,626.2 268,627C268,627.85 267.8,628.5 267.5,628.5C267.25,628.5 267,629.3 267,630.25C267,631.65 266.8,632 266,632C265.45,632 265,631.75 265,631.45ZM260,629.25C260,627.7 259.85,627.5 258.75,627.5C257.55,627.5 257.5,627.45 258.15,625.9C259.1,623.6 260,623.5 260,625.7C260,627.3 260.15,627.5 261.25,627.5C262.75,627.5 262.75,627.65 261.65,629.55C260.5,631.45 260,631.4 260,629.25ZM364.8,630.05C364,629.2 364.05,629.1 365.55,628.8C368.6,628.2 369.3,628.65 367.7,630.2C366.7,631.25 365.85,631.2 364.8,630.05ZM378.7,629.65C377.9,628.8 377.9,628.75 379.05,628.5C379.95,628.3 380.3,627.85 380.4,626.6C380.5,625.4 380.35,625 379.8,625C379.35,625 379,624.65 379,624.25C379,623.85 378.65,623.5 378.25,623.5C377.8,623.5 377.5,623.05 377.5,622.25C377.5,620.8 377.85,620.7 379.4,621.8C382.05,623.65 383.45,628.95 381.55,630C380.2,630.7 379.7,630.65 378.7,629.65ZM251,629.05C250.2,627.5 250.4,626.5 251.5,626.5C252.3,626.5 252.5,626.85 252.5,628.25C252.5,630.2 251.8,630.55 251,629.05ZM393.25,628.3C391.55,627.55 389.95,625.35 387.25,619.95C386.2,617.9 384.95,615.65 384.4,614.9L383.45,613.5L384.7,613.5C385.65,613.5 386,613.25 386,612.5C386,611.95 385.65,611.5 385.25,611.5C384.7,611.5 384.5,610.95 384.5,609.7C384.5,607.55 384.95,607.8 387.45,611.25L389.05,613.5L387.8,613.5C386.75,613.5 386.5,613.75 386.5,614.75C386.5,615.45 386.8,616 387.15,616C387.95,616 391,622.1 391,623.75C391,624.55 391.3,625 391.8,625C392.25,625 393.15,625.45 393.85,626C394.55,626.55 395.45,627 395.8,627C396.2,627 396.5,627.45 396.5,628C396.5,629.15 395.45,629.25 393.25,628.3ZM364,627.75C364,626.7 365.75,623.35 366.7,622.55C367.4,621.95 367.5,622.1 367.5,623.7C367.5,624.95 367.3,625.5 366.75,625.5C366.25,625.5 366,626 366,627C366,628.15 365.8,628.5 365,628.5C364.45,628.5 364,628.15 364,627.75ZM401,626.2C401,625.5 401.15,625 401.4,625.1C405.05,626.85 405.4,627.5 402.75,627.5C401.2,627.5 401,627.35 401,626.2ZM376.85,626.15C376.65,625.8 375.55,625.25 374.5,624.95C371.6,624.05 371.8,622.8 374.75,623.15C377.5,623.45 377.6,623.5 377.4,625.35C377.3,626.25 377.1,626.55 376.85,626.15ZM395.5,625C395.5,623.95 396,623.8 397.9,624.3C399.7,624.8 399.25,626 397.25,626C395.85,626 395.5,625.8 395.5,625ZM270.5,623.8C270.5,622.2 270.65,622 271.75,622C272.95,622 273,622.05 272.35,623.6C271.4,625.9 270.5,626 270.5,623.8ZM392,622.25C392,620.05 392.45,620.05 393.9,622.25L395,624L393.5,624C392.1,624 392,623.85 392,622.25ZM252.05,619.55C252.4,619.05 253.05,618.4 253.55,618.05C254.4,617.55 254.5,617.65 254.5,619C254.5,620.35 254.35,620.5 253,620.5C251.65,620.5 251.55,620.4 252.05,619.55ZM273,618.75C273,617.55 273.25,617 273.75,617C274.2,617 274.5,616.55 274.5,615.75C274.5,614.7 274.75,614.5 276,614.5L277.45,614.5L275.6,617.5C274.6,619.15 273.6,620.5 273.4,620.5C273.15,620.5 273,619.7 273,618.75ZM258.5,618.3C258.5,617.35 258.7,617.15 259.45,617.35C260,617.5 260.8,618.05 261.3,618.55C262.15,619.45 262.1,619.5 260.35,619.5C258.75,619.5 258.5,619.35 258.5,618.3ZM271,616.2C271,615.6 272.7,613 273.1,613C273.3,613 273.5,613.8 273.5,614.75C273.5,616.3 273.35,616.5 272.25,616.5C271.55,616.5 271,616.35 271,616.2ZM283.5,606.05C283.5,604.65 283.65,604.5 285,604.5C286.25,604.5 286.5,604.3 286.5,603.25C286.5,602.15 286.7,602 288.4,602L290.25,602.05L288.25,603.8C287.15,604.75 285.65,606 284.9,606.55L283.5,607.55L283.5,606.05ZM380.8,606.7C380.65,606.25 380.5,605.25 380.5,604.45C380.5,603.35 380.75,603 381.5,603C382.2,603 382.5,603.35 382.5,604.15C382.5,604.75 382.85,605.8 383.3,606.4C384.05,607.45 384,607.5 382.6,607.5C381.7,607.5 381,607.2 380.8,606.7ZM377.5,605.9C377.5,604.4 378.15,603 378.8,603C379.25,603 379.5,603.6 379.5,604.75C379.5,606.15 379.3,606.5 378.5,606.5C377.95,606.5 377.5,606.2 377.5,605.9ZM309.1,603.65C308.75,603.55 308.25,603 308,602.45C307.1,600.85 308.25,599.65 311.4,598.7C312.95,598.2 314.4,597.7 314.65,597.5C314.85,597.35 313.2,596.3 311.05,595.2C306.8,593.15 306.1,592.15 308.5,591.9L309.95,591.75L308,590.1L306,588.45L306,589.95C306,591.15 305.8,591.5 305,591.5C304.45,591.5 304,591.75 304,592C304,592.3 303.45,592.5 302.75,592.5C302.05,592.5 301.5,592.75 301.5,593C301.5,593.3 300.7,593.5 299.75,593.5C298.8,593.5 298,593.25 298,592.95C298,592.4 300.9,591.05 303.15,590.55L304.55,590.25L302.8,588.2C300.55,585.55 298.4,581.9 297.1,578.35C295.75,574.75 295.75,574 297,574C297.8,574 298,574.35 298,575.5C298,576.35 298.25,577 298.5,577C298.8,577 299,577.55 299,578.25C299,578.95 299.25,579.5 299.5,579.5C299.8,579.5 300,580.3 300,581.25C300,582.65 300.2,583 301,583C301.55,583 302,583.35 302,583.75C302,584.15 302.2,584.5 302.45,584.5C302.7,584.5 302.1,582.95 301.15,581.05C297.55,573.75 297.8,563.25 301.75,555.3C303.55,551.7 303.75,551.5 305.35,551.5C306.25,551.5 307,551.7 307,551.95C307,552.2 308.15,552.85 309.55,553.45C311.7,554.4 312.3,554.45 313.75,554C315.55,553.4 317.1,551.35 317.7,548.9C317.95,547.75 318.3,547.5 319.55,547.5C320.35,547.5 321.7,547.85 322.5,548.25C323.85,548.95 324.15,548.95 325.5,548.25C326.3,547.85 328.25,547.5 329.9,547.5C332.4,547.5 333,547.3 334,546.25C338,542 347.5,549.65 350.95,559.85C351.75,562.25 352,564.2 352,568.55C352,577.75 350.1,583 344.8,588.3C341.85,591.2 338.4,593.5 336.8,593.5C336.4,593.5 336,593.75 335.9,594C335.8,594.3 334.05,594.85 332,595.3C327.6,596.25 319.95,596 316.5,594.8C315.25,594.4 314.2,594.15 314.05,594.25C313.95,594.4 314.1,594.5 314.4,594.5C314.75,594.5 315,594.85 315,595.25C315,595.65 315.35,596 315.75,596C316.25,596 316.5,596.55 316.5,597.75C316.5,599.45 316.45,599.45 314,599.8C312.65,600 311.5,600.3 311.5,600.5C311.5,600.7 311,601.1 310.4,601.45C309.25,602 309.25,602 310.5,601.75C311.2,601.55 312.7,601.3 313.9,601.15C317.1,600.75 316.7,602.1 313.35,603.15C310.55,604.05 310.15,604.1 309.1,603.65ZM336.25,591.65C336.8,591.3 336.95,591 336.65,591C336.3,591 335.9,591.25 335.75,591.5C335.6,591.8 335,592 334.5,592C334,592 333.45,592.2 333.3,592.45C332.9,593.05 335,592.5 336.25,591.65ZM304.2,586.25C303.75,585.55 303.3,585 303.2,585C303.1,585 303,585.55 303,586.25C303,587.15 303.25,587.5 304,587.5C305,587.5 305,587.45 304.2,586.25ZM313,593.5C312.05,592.85 311.5,592.85 311.5,593.5C311.5,593.8 312,594 312.65,594C313.55,594 313.6,593.9 313,593.5ZM347.15,602.9C344.9,602.15 345,601 347.25,601C348.8,601 349,601.15 349,602.25C349,602.95 348.95,603.5 348.9,603.45C348.8,603.4 348,603.15 347.15,602.9ZM350.35,601.65C349.85,601.2 349.9,599 350.4,599C351.4,599 352.65,600.4 352.35,601.2C352.05,602 350.95,602.3 350.35,601.65ZM284.25,601C284.4,600.75 285.2,600.05 286,599.5L287.5,598.45L287.5,599.95C287.5,601.4 287.35,601.5 285.7,601.5C284.7,601.5 284.05,601.3 284.25,601ZM291,600.25C291,599.25 291.25,599 292.25,599C292.95,599 293.5,598.7 293.5,598.35C293.5,598 294.3,597.3 295.25,596.85C297.15,595.95 300,595.7 300,596.45C300,596.85 291.85,601.5 291.2,601.5C291.1,601.5 291,600.95 291,600.25ZM318.5,600.5C318.5,599.7 318.85,599.5 320.25,599.5C322.25,599.5 322.7,600.7 320.9,601.2C319,601.7 318.5,601.55 318.5,600.5ZM340.5,601.25C340.1,601.15 338.9,600.95 337.9,600.75C336.7,600.55 336,600.2 336,599.75C336,598.9 336.55,598.85 340.4,599.3C342.5,599.6 343,599.8 343,600.55C343,601.45 342.4,601.6 340.5,601.25ZM327.5,599.4C327.5,598.6 327.95,598.5 331.25,598.5C334.55,598.5 335,598.6 335,599.4C335,600.2 334.55,600.35 331.25,600.35C327.95,600.35 327.5,600.2 327.5,599.4ZM378.5,599.4C378.55,599.05 378.95,596.8 379.45,594.4C379.95,592 380.25,589.95 380.15,589.8C380,589.7 379.2,589.8 378.35,590.05C376.05,590.7 375.5,590.6 375.5,589.55C375.5,588.55 377.2,588 380.3,588C381.85,588 382,588.1 382,589.6C382,590.45 381.6,593.15 381.15,595.6C380.45,599.2 380.15,600 379.4,600C378.9,600 378.5,599.7 378.5,599.4ZM343.65,599.15C342.7,598.95 342.5,598.6 342.5,597.2C342.5,596 342.75,595.5 343.25,595.5C343.65,595.5 344,595.15 344,594.75C344,594.3 344.45,594 345.25,594C346.05,594 346.5,593.7 346.5,593.25C346.5,592.75 347.05,592.5 348.25,592.5C349.2,592.5 350,592.65 350,592.9C350,593.4 346,595.75 344.25,596.25C342.75,596.65 342.8,596.65 345.4,597.4C349.7,598.65 348.3,600.05 343.65,599.15ZM356.5,595.45C353.9,594.1 351.7,592.75 351.6,592.5C351.5,592.2 352.2,592 353.2,592C354.45,592 355,592.2 355,592.75C355,593.25 355.5,593.5 356.45,593.5C358.55,593.5 359.5,594 359.5,595.05C359.5,595.9 359.75,596 362.25,595.7C365.45,595.3 365.9,595.95 363.3,597.2C362.35,597.65 361.5,597.95 361.4,597.95C361.35,597.9 359.1,596.75 356.5,595.45ZM368,592.75C368,591.85 368.25,591.5 369,591.5C369.55,591.5 370,591.3 370,591C370,590.75 370.8,590.5 371.75,590.5C372.7,590.5 373.5,590.7 373.5,590.95C373.5,591.35 368.9,594 368.2,594C368.1,594 368,593.45 368,592.75ZM354,589.75C354,588.45 354.2,588 354.8,588C355.45,588 355.5,588.15 355.05,588.7C354.55,589.3 354.75,589.45 356,589.75C358.15,590.2 357.95,591.5 355.75,591.5C354.1,591.5 354,591.4 354,589.75ZM347.5,587.75C347.5,586.6 348.05,585.25 349.1,583.75C350.65,581.55 350.8,581.45 353,581.6C355.2,581.75 355.25,581.8 355.4,583.6C355.55,585.5 355.55,585.55 351.95,588.8C351.5,589.2 350.35,589.5 349.35,589.5C347.55,589.5 347.5,589.45 347.5,587.75ZM376.5,586.3C376.5,585.65 377.9,585 379.4,585C379.7,585 380,585.45 380,586C380,586.8 379.65,587 378.25,587C377.1,587 376.5,586.75 376.5,586.3ZM358.5,581.75C358.5,580.2 358.65,580 359.8,580C360.5,580 361,580.15 360.9,580.4C359.15,584.05 358.5,584.4 358.5,581.75ZM352.35,580.65C351.75,580.1 351.95,577.85 352.9,574.5L353.85,571.25L356.55,571.25C359.15,571.25 359.25,571.3 359.4,572.65C359.6,574.4 358.2,579.2 357.2,580.2C356.45,581 353,581.3 352.35,580.65ZM360.5,575.75C360.5,574.35 360.7,574 361.5,574C362.55,574 362.7,574.5 362.2,576.4C361.7,578.2 360.5,577.75 360.5,575.75ZM353.75,569.4C353.6,569.05 353.45,566.95 353.35,564.75L353.25,560.75L355.55,560.6C358.95,560.4 359.5,561.15 359.5,566.05L359.5,570L356.75,570C355,570 353.9,569.75 353.75,569.4ZM360.8,564.15C360.35,561.15 360.45,560 361.2,560C361.65,560 362.1,560.95 362.45,562.5C363.15,565.85 363.15,566 362.05,566C361.35,566 361.05,565.5 360.8,564.15ZM351.75,558.75C351.35,558.05 350.65,556.95 350.25,556.25C349.85,555.6 349.5,554.25 349.5,553.25L349.5,551.5L351.9,551.5C353.2,551.5 354.55,551.75 354.9,552.1C355.35,552.55 355.5,552.45 355.5,551.6C355.5,550.85 355.2,550.5 354.5,550.5C353.85,550.5 353.5,550.15 353.5,549.5C353.5,548.8 353.15,548.5 352.45,548.5C351.85,548.5 351.3,548.1 351.15,547.5C351,546.95 350.45,546.5 349.95,546.5C349.35,546.5 349,546.15 349,545.5C349,544.7 348.65,544.5 347.5,544.5C346.25,544.5 346,544.3 346,543.25C346,542.55 346.2,542 346.45,542C346.7,542 348.55,543.2 350.55,544.65C353.8,547 359,552.75 359,554.05C359,554.3 358.5,554.5 357.9,554.5C356.8,554.5 356.75,554.7 356.9,557.25L357.1,560L354.8,560C352.9,560 352.4,559.8 351.75,558.75ZM359,557.7C359,555.5 359.9,555.6 360.85,557.9C361.5,559.45 361.45,559.5 360.25,559.5C359.15,559.5 359,559.3 359,557.7ZM344.8,548.7C344.65,548.25 344.5,547.25 344.5,546.45C344.5,545.15 344.65,545 346.2,545C348.05,545 348.5,545.6 348.5,548.05C348.5,549.35 348.35,549.5 346.8,549.5C345.7,549.5 345,549.2 344.8,548.7Z" style="fill:rgb(235,172,153);"/>
                </g>
                <g transform="matrix(2.00091,0,0,2.00091,12645.5,-2436.35)">
                    <path d="M178.7,548.15C176.95,546.65 175,543.3 175,541.9C175,541.35 175.4,541 175.95,541C176.9,541 177.5,542.25 177.5,544.4C177.5,545.05 177.8,545.5 178.3,545.5C179.5,545.5 180.6,546.9 180.4,548.25L180.25,549.5L178.7,548.15ZM222.15,541.4C221.3,540.75 220.35,539.85 220.05,539.4C219.55,538.6 219.7,538.5 221,538.5C222,538.5 222.5,538.75 222.5,539.25C222.5,539.65 222.95,540 223.5,540C224.25,540 224.5,540.35 224.5,541.25C224.5,542.8 224.15,542.8 222.15,541.4ZM222.5,524C222.5,523.4 224.15,522.5 225.2,522.5C225.65,522.5 226,522.95 226,523.5C226,524.3 225.65,524.5 224.25,524.5C223.3,524.5 222.5,524.3 222.5,524Z" style="fill:rgb(152,106,184);"/>
                </g>
                <g transform="matrix(2.00091,0,0,2.00091,12645.5,-2436.35)">
                    <path d="M301.85,698.65C301.65,698.5 301.5,698.05 301.5,697.65C301.5,697.15 302.5,697 305.5,697C309.15,697 309.5,697.1 309.5,698C309.5,698.9 309.15,699 305.85,699C303.8,699 302,698.85 301.85,698.65ZM310,698.05C310,697.3 310.3,697 311.2,697C313.8,697 315.5,696.4 315.5,695.45C315.5,694.9 315.75,694.5 316,694.5C316.3,694.5 316.5,693.95 316.5,693.25C316.5,692.35 316.75,692 317.5,692C318.65,692 318.75,692.9 317.8,695.15C316.85,697.5 315.6,698.35 312.65,698.75C310.2,699.05 310,699 310,698.05ZM346.75,698.55C345.6,698.05 344.3,696.65 343.85,695.4C343.6,694.7 343.8,694.5 344.75,694.5C345.75,694.5 346,694.75 346,695.75C346,696.85 346.2,697 347.75,697C349.15,697 349.5,697.2 349.5,698C349.5,699.05 348.5,699.25 346.75,698.55ZM356,698C356,697.1 356.35,697 359.6,697C363.85,697 366.5,696.2 366.5,694.9C366.5,694.4 366.75,694 367,694C367.3,694 367.5,693.6 367.5,693.15C367.5,692.65 367.9,690.75 368.35,688.9C369.05,686.2 369.4,685.5 370.15,685.5C371,685.5 371.1,685.75 370.8,687.15C370.15,690.5 368.4,695.85 367.55,696.9C366.5,698.3 363.85,698.95 359.4,699C356.35,699 356,698.9 356,698ZM294.2,696.9C293.65,696.15 292.3,692.55 291.3,688.9C290.25,685.25 289.3,681.85 289.2,681.4C289.05,680.95 287,679 284.6,677.15C280.3,673.8 280.25,673.75 281.85,673.6C283.2,673.45 283.45,673.2 283.6,671.95L283.75,670.4L285.75,672.2L287.75,673.95L285.9,674C284.55,674 284,674.2 284,674.75C284,675.2 284.45,675.5 285.25,675.5C286.05,675.5 286.5,675.8 286.5,676.25C286.5,676.65 286.95,677 287.45,677C288.15,677 288.5,676.6 288.6,675.7L288.75,674.45L290.8,676.2C291.95,677.2 293.15,678.65 293.4,679.5C293.9,680.9 293.85,681 292.75,681C292.1,681 291.45,680.7 291.3,680.4C291.1,680.05 291.1,680.3 291.25,681C291.4,681.7 291.65,683.3 291.85,684.65C292,685.95 292.35,687 292.55,687C292.8,687 293,687.8 293,688.75C293,689.7 293.2,690.5 293.4,690.5C294,690.5 295.6,695.65 295.4,697L295.25,698.25L294.2,696.9ZM291,678.5C291,677.75 290.65,677.5 289.75,677.5C288.85,677.5 288.5,677.75 288.5,678.5C288.5,679.25 288.85,679.5 289.75,679.5C290.65,679.5 291,679.25 291,678.5ZM359,695C359,694.15 359.35,694 361.2,694C363.55,694 364.25,693.5 364.75,691.35C365.25,689.35 366.5,689.6 366.5,691.75C366.5,692.7 366.3,693.5 366,693.5C365.75,693.5 365.5,693.9 365.5,694.45C365.5,695.55 364.2,696 361.15,696C359.35,696 359,695.85 359,695ZM295.3,693.4C295.15,692.75 295,691.65 295,690.9C295,690.1 294.8,689.5 294.5,689.5C294.25,689.5 294,688.7 294,687.75C294,686.8 293.8,686 293.5,686C293.25,686 293,685.2 293,684.25C293,683.15 293.25,682.5 293.65,682.5C294.1,682.5 294.85,684.4 295.75,687.6C296.55,690.4 297.6,693.1 298.1,693.6C298.95,694.45 298.95,694.5 297.3,694.5C296,694.5 295.55,694.25 295.3,693.4ZM346,692.75C346,691.8 345.8,691 345.5,691C345.25,691 345,690.2 345,689.2C345,686.6 346.05,687.25 347.15,690.55C347.6,692.05 348.4,693.55 348.85,693.9C349.6,694.4 349.45,694.5 347.85,694.5C346.05,694.5 346,694.45 346,692.75ZM314.15,690.65C315.55,685.9 316.15,685.3 319.25,685.75C323.1,686.25 324,686.55 324,687.35C324,688 323.45,688.05 320.55,687.75L317.15,687.4L316.25,690.7C315.5,693.5 315.2,694 314.25,694L313.1,694L314.15,690.65ZM342.75,691.95C342.55,691.05 342.15,690.5 341.8,690.65C341.45,690.8 339.9,691.05 338.35,691.25C335.7,691.6 335.5,691.55 335.5,690.6C335.5,689.75 335.95,689.6 339.1,689.25C341.55,689.05 342.8,689.1 342.9,689.45C343,689.75 343.4,690 343.8,690C344.25,690 344.5,690.55 344.5,691.75C344.5,694 343.2,694.15 342.75,691.95ZM325.9,691.15C324.1,690.7 324.9,689.5 327,689.5C328.65,689.5 329,689.65 329,690.5C329,691.5 328,691.7 325.9,691.15ZM320.4,690.65C318.6,690.2 319.4,689 321.5,689C323.15,689 323.5,689.15 323.5,690C323.5,691 322.5,691.2 320.4,690.65ZM324.5,687.5C324.5,686.45 325.65,686.2 327.9,686.8C329.95,687.35 329.2,688.5 326.75,688.5C324.85,688.5 324.5,688.35 324.5,687.5ZM336,687.8C336,687.15 337.4,686.5 338.9,686.5C339.2,686.5 339.5,686.95 339.5,687.5C339.5,688.3 339.15,688.5 337.75,688.5C336.6,688.5 336,688.25 336,687.8ZM366.5,685.45C366.5,683.85 367.7,680.5 368.3,680.5C369.05,680.5 369.2,681.9 368.7,684.45C368.45,685.5 368.1,686 367.45,686C366.9,686 366.5,685.75 366.5,685.45ZM370,683.25C370,681.75 370.15,681.5 371.2,681.5C372.35,681.5 372.4,681.6 371.85,683.25C371.55,684.2 371.05,685 370.65,685C370.25,685 370,684.35 370,683.25ZM368.5,679.2C368.5,678.35 369.65,677.05 371.7,675.6L374,673.95L374,675.2C374,676 374.3,676.5 374.75,676.5C375.15,676.5 375.5,676.3 375.5,676C375.5,675.75 376.2,675.5 377,675.5C378.25,675.5 378.5,675.3 378.5,674.35C378.5,672.8 379.4,672 381.1,672C382.35,672 382.5,671.8 382.5,670.5C382.5,668.85 383.25,668.3 385.1,668.6C386.15,668.75 385.9,669.1 382.75,672.3C379.35,675.75 375.3,679 374.4,679C374.2,679 374,678.55 374,678C374,677.35 373.65,677 373,677C372.45,677 372,677.25 372,677.55C372,678.4 370.65,679.5 369.55,679.5C368.95,679.5 368.5,679.35 368.5,679.2ZM275.05,667.9L273.05,665.25L274.25,665.1C275.65,664.9 276.05,663 274.75,663C274.25,663 274,662.45 274,661.25C274,660.3 274.15,659.5 274.4,659.5C274.6,659.55 275.6,660.75 276.65,662.25L278.55,665L277.25,665C276.35,665 276,665.25 276,666C276,666.55 276.35,667 276.75,667C277.25,667 277.5,667.55 277.5,668.75C277.5,669.7 277.4,670.5 277.25,670.5C277.15,670.5 276.15,669.3 275.05,667.9ZM382.4,665.6C383,664.8 383.8,663.85 384.25,663.5C385,662.9 385.05,663 384.9,664.8C384.75,666.6 384.65,666.75 383.05,666.9L381.4,667.05L382.4,665.6ZM385.95,661.05C387.3,659.2 387.25,659.1 385.65,658.9C384.8,658.8 384.2,658.4 384.1,657.9C383.95,657.15 384.3,657 386.45,657L389,657L389,659C389,660.1 388.8,661 388.5,661C388.25,661 388,661.35 388,661.75C388,662.25 387.5,662.5 386.45,662.5L384.95,662.5L385.95,661.05ZM390,660.75C390,659.1 390.1,659 391.75,659C393.15,659 393.5,658.8 393.5,658.05C393.5,657.1 395.2,656.5 397.8,656.5C399.45,656.5 399.3,657.8 397.65,658.2C393.1,659.3 392.5,659.6 391.65,661C390.5,662.95 390,662.9 390,660.75ZM269.6,659.55C268.3,657.25 266,651.3 266,650.25C266,649.85 266.45,649.5 267,649.5C267.8,649.5 268,649.85 268,651C268,651.85 268.25,652.5 268.5,652.5C268.8,652.5 269,653.05 269,653.75C269,654.45 269.2,655 269.4,655C270.05,655 271.5,658.4 271.5,660C271.5,662.05 270.9,661.9 269.6,659.55ZM378.9,657.3C376.1,656.1 371.85,653.45 371.25,652.5C371.05,652.2 371.7,652 372.7,652C374.15,652 374.5,652.2 374.5,653C374.5,653.75 374.85,654 375.75,654C377.1,654 379.5,654.95 379.5,655.5C379.5,655.7 380.4,656 381.5,656.2C383.05,656.45 383.5,656.75 383.5,657.5C383.5,658.8 382.45,658.75 378.9,657.3ZM400,656.3C400,654.95 400.85,654.5 403.1,654.5C404.6,654.5 404.65,654.55 403.8,655.45C403.3,656 402.25,656.65 401.45,656.95C400.1,657.4 400,657.35 400,656.3ZM382.15,655.65C381.4,655.5 381,655.05 381,654.45C381,653.35 381.3,653.3 384.3,654.05C388.4,655.1 386.5,656.5 382.15,655.65ZM391.5,655.3C391.5,654.85 392.75,654.35 395.05,653.8C399.5,652.8 399.5,652.8 399.5,653.95C399.5,654.65 398.9,655 396.65,655.45C392.9,656.2 391.5,656.15 391.5,655.3ZM269.35,652.15C267.5,645.35 267.05,640.5 268.25,640.5C268.65,640.5 269,640.6 269,640.7C269,642 270.7,649.95 271.45,652.15L272.45,655L271.3,655C270.3,655 270,654.55 269.35,652.15ZM404.5,652.25C404.5,651.3 404.7,650.5 404.95,650.5C405.2,650.5 405.55,649.15 405.75,647.5C406.05,645 406.25,644.5 407.05,644.5C408.15,644.5 408.15,644.55 407.5,647.95C406.95,650.85 405.6,654 404.95,654C404.7,654 404.5,653.2 404.5,652.25ZM368.6,649.5C367.05,647 368.7,644.25 370.9,645.8C371.45,646.2 372.4,647.2 373,648L374.05,649.5L372.55,649.5C371.25,649.5 371,649.3 371,648.25C371,647.55 370.8,647 370.5,647C370.25,647 370,647.8 370,648.75C370,650.7 369.55,650.95 368.6,649.5ZM402.5,649.15C402.75,648.35 403.05,646.9 403.25,645.9C403.45,644.7 403.8,644 404.25,644C405.05,644 405.2,645.5 404.7,648.65C404.4,650.15 404.15,650.5 403.2,650.5C402.15,650.5 402.1,650.35 402.5,649.15ZM264.8,644.4C264.2,642.15 264.45,641 265.5,641C266.35,641 266.5,641.35 266.5,643.25C266.5,645.7 265.35,646.45 264.8,644.4ZM264.5,639.85C264.5,639.45 263.55,638.85 262.4,638.5C259.65,637.7 256.85,636.3 256.05,635.3C255.45,634.6 255.6,634.5 257.2,634.5L259,634.5L259,629.5L256.25,629.5C253.65,629.5 253.5,629.55 253.5,630.75C253.5,631.45 253.3,632 253,632C252.75,632 252.5,632.35 252.5,632.8C252.5,633.55 252,633.6 248.7,633.35C244.2,633 244.2,633.9 248.7,634.35C250.45,634.55 251.5,634.85 251.5,635.25C251.5,636.25 249.5,636.5 246.25,635.85C243.75,635.35 243.2,635.05 243.1,634.15C243,633.55 243.15,632.6 243.45,632.05C243.95,631.2 244.35,631.1 248,631.35C250.2,631.5 252,631.55 252,631.4C252,631.25 251.65,630.3 251.25,629.3C250.5,627.5 250.5,627.5 251.7,627.5C252.35,627.5 253.05,627.8 253.15,628.15C253.3,628.45 253.45,628.15 253.45,627.4C253.5,625.65 254.8,625.55 255.2,627.25C255.6,628.85 256.15,628.85 257.45,627.25C258.85,625.4 259.3,623.05 258.35,622.15C257.3,621.1 256.05,621.7 255.35,623.5C254.55,625.6 253.5,625.45 253.5,623.25C253.5,621.65 253.6,621.5 255,621.5C256.05,621.5 256.5,621.25 256.5,620.7C256.5,620.05 256.9,619.95 258.5,620.1C259.9,620.2 260.5,620.1 260.5,619.65C260.5,619.2 259.5,619 257,619C253.5,619 252.65,618.5 254.45,617.5C257.25,616.05 261.5,617.75 262.85,620.9C263.9,623.3 263.15,627.15 261.05,630.25L259.6,632.45L260.75,633.2C261.35,633.6 262.45,634.1 263.15,634.25C264.25,634.55 264.4,634.4 264.7,632.8C265.2,630.25 266.5,630.4 266.5,633C266.5,634.65 266.35,635 265.5,635C264.95,635 264.5,635.25 264.5,635.5C264.5,635.8 263.95,636 263.25,636C262.55,636 262,636.25 262,636.5C262,636.8 262.7,637 263.5,637C264.9,637 265,637.15 265,638.75C265,639.7 264.9,640.5 264.75,640.5C264.6,640.5 264.5,640.2 264.5,639.85ZM261,635.5C261,635.25 260.55,635 260,635C259.45,635 259,635.25 259,635.5C259,635.8 259.45,636 260,636C260.55,636 261,635.8 261,635.5ZM260.5,627.75C260.5,627.05 260.75,626.5 261,626.5C261.3,626.5 261.5,625.4 261.5,624C261.5,622.65 261.3,621.5 261,621.5C260.75,621.5 260.5,622.65 260.5,624C260.5,625.9 260.3,626.5 259.75,626.5C259.3,626.5 259,626.95 259,627.75C259,628.55 259.3,629 259.75,629C260.2,629 260.5,628.55 260.5,627.75ZM267.5,635.65C267.5,633.35 268.6,628 269.05,628C269.3,628 269.5,627.4 269.5,626.65C269.5,624.5 270.05,623 270.8,623C271.25,623 271.5,622.45 271.5,621.4C271.5,620.3 271.35,619.95 271.05,620.4C270.85,620.8 270.15,621 269.55,620.9L268.5,620.75L269.55,618.65C270.8,616.1 271.5,615.9 271.55,618.15C271.55,619 271.7,619.45 271.85,619.15C271.95,618.8 272.4,618.5 272.8,618.5C273.2,618.5 273.5,618 273.5,617.25C273.5,616.35 273.75,616 274.5,616C275.25,616 275.5,615.65 275.5,614.75C275.5,614.05 275.3,613.5 275,613.5C274.75,613.5 274.5,613.85 274.5,614.25C274.5,614.7 274.05,615 273.25,615C272.55,615 272,614.8 272,614.55C272,614 276.2,608.25 276.95,607.8C277.3,607.55 277.5,608 277.5,608.95C277.5,610.25 277.7,610.45 279,610.6L280.45,610.75L277.95,613.95C273.65,619.5 270.45,627.2 269.25,635.15C268.9,637.35 267.5,637.8 267.5,635.65ZM277,612.25C277,611.85 276.65,611.5 276.25,611.5C275.85,611.5 275.5,611.85 275.5,612.25C275.5,612.65 275.85,613 276.25,613C276.65,613 277,612.65 277,612.25ZM403.3,635.9C402.75,633.8 402.95,633 404,633C404.85,633 405,633.35 405,635C405,637.25 403.85,637.85 403.3,635.9ZM405.6,633.15C405.25,631.8 404.8,629.85 404.65,628.75C404.4,626.9 404.45,626.8 405.25,627.5C406.35,628.45 407.3,630.6 407.75,633.4C408.05,635.25 407.95,635.5 407.15,635.5C406.45,635.5 406.05,634.9 405.6,633.15ZM401.6,630.75C400.95,630.1 399.5,629.45 398.35,629.25C394.15,628.65 393.5,628.4 393.5,627.65C393.5,627 394,626.95 396.9,627.25C398.75,627.45 400.35,627.8 400.4,628.05C400.5,628.3 401.15,628.5 401.8,628.5C402.85,628.5 403,628.75 403,630.25C403,631.2 402.95,632 402.9,631.95C402.8,631.9 402.25,631.35 401.6,630.75ZM365.35,630.45C364.2,629.8 364.25,629 365.45,629C366.3,629 367.3,627.15 366.75,626.55C366.6,626.45 366.5,626.6 366.5,626.9C366.5,627.25 365.95,627.5 365.25,627.5C364.15,627.5 364.05,627.4 364.5,626.2C365.45,623.8 367.15,621.9 369.2,620.95C371.9,619.75 373,619.75 373,621C373,621.7 372.55,622.05 371.25,622.3C368.35,622.85 369.3,623.25 373,623.1C376.45,622.9 376.5,622.95 376.5,624.15C376.5,625.35 376.4,625.4 374.8,624.9C372.2,624.1 370.1,625.15 368.9,627.85C367.85,630.3 366.65,631.15 365.35,630.45ZM368.3,625C368.7,625 369,624.65 369,624.25C369,623.85 368.55,623.5 368,623.5C367.25,623.5 367,623.8 367.05,624.9C367.05,625.65 367.2,625.95 367.35,625.65C367.45,625.3 367.9,625 368.3,625ZM265.55,629.65C265.6,628 267.25,623.8 267.9,623.6C268.3,623.5 268.5,624 268.5,625.2C268.5,626.2 268.3,627 268,627C267.75,627 267.5,627.8 267.5,628.75C267.5,630.15 267.3,630.5 266.5,630.5C265.85,630.5 265.5,630.2 265.55,629.65ZM378.3,629.2C377.9,628.15 377.85,628.2 380.4,627.75C382.3,627.45 382.5,627.5 382.5,628.4C382.5,630.05 378.9,630.7 378.3,629.2ZM390.55,625.7C389.2,623.95 389.25,623.5 390.75,623.5C391.85,623.5 392,623.7 392,625.25C392,626.2 391.9,627 391.8,627C391.65,627 391.1,626.4 390.55,625.7ZM396.65,626.15C395.4,626 395,625.7 395,624.9C395,624 395.2,623.95 396.9,624.2C400.95,624.9 401.5,625.1 401.5,625.8C401.5,626.5 400.3,626.6 396.65,626.15ZM378.2,623.8C378.05,623.4 376.95,622.8 375.7,622.45C374.15,622 373.5,621.5 373.5,620.9C373.5,620.3 373.9,620 374.6,620C376.25,620 379.8,621.9 380.7,623.25C381.5,624.5 381.5,624.5 380,624.5C379.15,624.5 378.35,624.2 378.2,623.8ZM250.55,622.05C250.85,621.25 251.5,620.2 252.05,619.7C252.95,618.85 253,618.9 253,620.4C253,622.65 252.55,623.5 251.2,623.5C250.15,623.5 250.1,623.4 250.55,622.05ZM385,615.7C384.05,614.15 381.95,611.7 380.4,610.2C377.55,607.55 377.2,606.85 377.8,604.65C378.3,602.8 379.5,603.25 379.5,605.25C379.5,606.2 379.75,607 380,607C380.3,607 380.5,607.4 380.5,607.95C380.5,608.6 380.95,608.95 382,609.1C383.3,609.3 383.5,609.15 383.5,608.15C383.5,607.2 383.25,607 382,607C380.65,607 380.5,606.85 380.5,605.4C380.5,604.55 380.75,602.4 381.05,600.65C381.5,598 381.75,597.5 382.6,597.5C383.5,597.5 383.55,597.7 383.25,599.4C382,605.55 381.9,604.8 384.6,607.9C387.2,610.9 391,616.3 391,617.05C391,617.3 390.45,617.5 389.8,617.5C388.95,617.5 388.45,617.1 388.1,616.15C387.6,614.75 387.6,614.8 387.55,616.65C387.5,617.65 387.35,618.5 387.15,618.5C386.9,618.5 385.95,617.25 385,615.7ZM387,614C387,613.45 386.65,613 386.25,613C385.85,613 385.5,613.45 385.5,614C385.5,614.55 385.85,615 386.25,615C386.65,615 387,614.55 387,614ZM385.5,611.55C385.5,611.3 385.05,611 384.5,610.85C383.85,610.7 383.5,610.85 383.5,611.3C383.5,611.7 383.95,612 384.5,612C385.05,612 385.5,611.8 385.5,611.55ZM284.1,605.35C284.3,603.65 284.2,603.55 282.75,603.4C281.3,603.25 281.45,603.1 285.75,599.9C290.4,596.4 300,591.25 302.9,590.7C304.3,590.4 304.5,590.5 304.5,591.4C304.5,592.2 304.1,592.55 302.65,592.8C301.6,593 300.65,593.3 300.5,593.5C300.05,594.2 295.05,596.5 294,596.5C293.45,596.5 293,596.85 293,597.25C293,597.75 293.5,598 294.5,598C295.35,598 296,598.15 296,598.4C296,598.6 294.3,599.8 292.25,601.1L288.5,603.45L288.5,602C288.5,601 288.25,600.5 287.75,600.5C287.35,600.5 287,600.85 287,601.25C287,601.65 286.55,602 286,602C285.45,602 285,602.35 285,602.75C285,603.25 285.5,603.5 286.55,603.5C287.9,603.5 288.05,603.6 287.5,604.25C287.15,604.7 286.15,605.5 285.35,606.1L283.85,607.15L284.1,605.35ZM308.65,603.4C307.85,602.4 307.55,601.2 307.9,600.65C308.45,599.85 311.1,598.6 313.15,598.25C314.15,598.05 315,597.75 315,597.55C315,596.75 308.35,593.4 307.2,593.65C306.2,593.8 306,593.65 306,592.7C306,591.7 306.25,591.5 307.5,591.5C308.5,591.5 309,591.25 309,590.75C309,590.35 308.6,590 308.1,590C306.85,590 305.5,588.45 305.5,587.1C305.5,586.35 305.2,586 304.5,586C303.75,586 303.5,586.35 303.5,587.4L303.45,588.75L300.45,585.25L302,585.1C303.35,584.95 303.45,584.85 302.75,584.2C302.35,583.75 302,582.9 302,582.2C302,581.55 301.7,581 301.35,581C300.4,581 299,576.7 298.65,572.9C298.4,570 298.45,569.5 299.15,569.5C299.7,569.5 300.05,570.1 300.25,571.4C300.45,572.4 300.7,573.95 300.85,574.75C300.95,575.6 301.9,577.95 302.9,580C306.2,586.9 313.35,592.7 319.75,593.75C324.1,594.45 324.5,594.6 324.5,595.35C324.5,596 324,596.1 321.4,595.85C319.65,595.65 317.75,595.35 317.15,595.2C316.1,594.9 316,595.05 316,596.7C316,598.35 315.9,598.5 314.5,598.5C313.35,598.5 313,598.7 313,599.5C313,600.3 312.65,600.5 311.5,600.5C310.5,600.5 310,600.75 310,601.25C310,601.65 310.25,602 310.5,602C310.8,602 311,602.45 311,603C311,604.15 309.4,604.4 308.65,603.4ZM315,594.5C314.05,593.85 313.5,593.85 313.5,594.5C313.5,594.8 314,595 314.65,595C315.55,595 315.6,594.9 315,594.5ZM312,592.5C312,592.25 311.45,592 310.75,592C310.05,592 309.5,592.25 309.5,592.5C309.5,592.8 310.05,593 310.75,593C311.45,593 312,592.8 312,592.5ZM350.5,601.95C350.5,600.8 350.2,600.65 346.25,599.75L342,598.85L342,596.65C342,594.5 342,594.5 343.75,594.5C345.9,594.5 346.15,595.75 344.15,596.25C342.35,596.7 343.2,597.2 347.15,598C348.8,598.3 350.65,599.1 351.4,599.75L352.75,600.95L351.65,602.1L350.5,603.2L350.5,601.95ZM378,602.5C378,600.65 379.2,597 379.8,597C380.55,597 380.65,598.15 380.2,601.15C379.95,602.5 379.65,603 378.95,603C378.4,603 378,602.8 378,602.5ZM314,601.55C314,600.6 315.7,600 318.3,600C320.35,600 319.65,601.35 317.3,601.95C314.3,602.7 314,602.65 314,601.55ZM343,601.75C341.5,601.35 339.4,600.9 338.4,600.75C337.1,600.55 336.5,600.2 336.5,599.65C336.5,599 336.95,598.9 339.4,599.2C344.9,599.8 347.5,600.6 347.5,601.6C347.5,602.65 346.85,602.65 343,601.75ZM321.5,600C321.5,599.15 321.85,599 323.5,599C325.75,599 326.35,600.15 324.4,600.7C322.3,601.25 321.5,601.05 321.5,600ZM326.5,599.5C326.5,598.65 326.85,598.5 328.5,598.5C330.75,598.5 331.35,599.65 329.4,600.2C327.3,600.75 326.5,600.55 326.5,599.5ZM332.9,600.15C331.1,599.7 331.9,598.5 334,598.5C335.65,598.5 336,598.65 336,599.5C336,600.5 335,600.7 332.9,600.15ZM297.5,596.8C297.5,595.5 299.2,594.5 301.5,594.5C304.2,594.5 302.85,595.95 298.75,597.5C297.65,597.9 297.5,597.85 297.5,596.8ZM359.95,596.95C359,596.45 357.3,595.55 356.15,595C353.55,593.85 353.4,593 355.75,593C356.95,593 357.5,593.25 357.5,593.75C357.5,594.25 358,594.5 358.95,594.5C359.75,594.5 360.5,594.7 360.6,594.95C360.7,595.15 361.25,595.55 361.9,595.7C362.7,596 363,595.85 363,595.3C363,594.85 363.35,594.5 363.75,594.5C364.15,594.5 364.5,594.3 364.5,594C364.5,593.75 365.05,593.5 365.75,593.5C366.55,593.5 367,593.2 367,592.75C367,592.25 367.55,592 368.75,592C369.7,592 370.5,592.15 370.5,592.4C370.5,592.65 363.6,597.05 361.95,597.8C361.8,597.9 360.9,597.5 359.95,596.95ZM382.5,595.55C382.5,595.05 382.65,593.6 382.8,592.3C383.05,590.45 383.35,590 384.1,590C385.15,590 385.15,590.25 384.2,595.15C383.9,596.65 382.5,597 382.5,595.55ZM326.5,595.25C326.5,594.85 326.65,594.5 326.9,594.5C327.1,594.5 328.75,594.15 330.55,593.8C334.05,593.05 338.15,591.2 340.9,589.1L342.5,587.9L342.5,589.45C342.5,590.65 342.3,591 341.5,591C340.95,591 340.5,591.3 340.5,591.65C340.5,592.4 337.45,594 336,594C335.45,594 335,594.2 335,594.45C335,594.9 330.1,596 327.9,596C327,596 326.5,595.75 326.5,595.25ZM379.5,595C379.5,593.15 380.7,589.5 381.3,589.5C382.05,589.5 382.15,590.65 381.7,593.65C381.45,595 381.15,595.5 380.45,595.5C379.9,595.5 379.5,595.3 379.5,595ZM358.3,592.75C357.9,592.35 357.1,592 356.55,592C355.95,592 355.5,591.8 355.5,591.5C355.5,591.25 354.85,591 354,591C352.75,591 352.5,590.8 352.5,589.75C352.5,588.85 352.25,588.5 351.5,588.5C350.95,588.5 350.5,588.85 350.5,589.25C350.5,589.75 349.95,590 348.75,590C347.05,590 347,589.95 347,588C347,586.2 346.9,586 345.7,586L344.4,586L345.6,584.4C349.2,579.65 350.7,574.3 350.4,567.15C350.2,562.5 350.25,562 351.05,562C351.75,562 352,562.6 352.25,565.3C352.8,570.15 351.6,579.5 350.5,579.5C350.3,579.5 350,580.2 349.9,581C349.75,582 349.9,582.5 350.35,582.5C350.7,582.5 351,582.15 351,581.75C351,581.35 351.25,581 351.5,581C351.8,581 352,580.2 352,579.2C352,578.2 352.4,575.95 352.85,574.2L353.7,571L359.5,571L359.5,573.15C359.5,576.2 359.05,577.5 357.95,577.5C357.2,577.5 357,577.85 357,579.25C357,580.8 356.85,581 355.65,581.05C354.85,581.05 354.55,581.2 354.9,581.35C355.2,581.45 355.5,582.35 355.5,583.3C355.5,584.25 355.75,585 356,585C356.3,585 356.5,584.55 356.5,584C356.5,583.45 356.75,583 357,583C357.3,583 357.5,582.65 357.5,582.25C357.5,581.8 357.95,581.5 358.75,581.5C359.45,581.5 360,581.7 360,581.9C360,582.45 357.25,586.35 355.65,588.1L354.4,589.4L355.6,589.75C359,590.75 362.5,592.3 362.5,592.85C362.5,593.75 359.25,593.65 358.3,592.75ZM355.45,579.05C356.35,578.5 358.05,573.35 357.5,572.85C356.45,571.75 355.3,572.85 354.45,575.85C353.45,579.35 353.7,580.15 355.45,579.05ZM351.9,586C353.95,584.15 354.3,583 352.8,583C352.3,583 349,587.1 349,587.75C349,588.4 349.95,587.85 351.9,586ZM348.5,585C348.5,584.45 348.75,584 349,584C349.3,584 349.5,583.8 349.5,583.5C349.5,582.25 348.1,583.15 347.9,584.5C347.75,585.35 347.85,586 348.1,586C348.3,586 348.5,585.55 348.5,585ZM371,591.2C371,590.25 371.25,590 372.25,590C372.95,590 373.5,589.8 373.5,589.5C373.5,589.25 374.3,589 375.25,589C377.95,589 377.35,590.1 374,591.35L371,592.45L371,591.2ZM364.5,591.1C364.5,590.7 367.1,589 367.7,589C367.85,589 368,589.55 368,590.25C368,591.35 367.8,591.5 366.25,591.5C365.3,591.5 364.5,591.3 364.5,591.1ZM369.6,588.4C369.8,587.75 375.55,585.55 377.15,585.5C377.65,585.5 378,585.85 378,586.4C378,587 377.2,587.5 375,588.15C371.5,589.15 369.35,589.25 369.6,588.4ZM383,588C383,587.25 382.65,587 381.75,587C380.85,587 380.5,586.75 380.5,586C380.5,584.7 382,584.7 383.7,586.05C385.25,587.3 385.45,589 384,589C383.35,589 383,588.65 383,588ZM359.5,579.65C359.5,577.25 360.05,576 361.05,576C362.2,576 362.25,576.95 361.3,579.25C360.4,581.35 359.5,581.55 359.5,579.65ZM297,578.05C296.2,576.5 296.4,575.5 297.5,575.5C298.3,575.5 298.5,575.85 298.5,577.25C298.5,579.2 297.8,579.55 297,578.05ZM295.8,573.9C295.3,572 295.45,571.5 296.5,571.5C297.3,571.5 297.5,571.85 297.5,573.25C297.5,575.25 296.3,575.7 295.8,573.9ZM361,572.75C361,571.35 361.2,571 362,571C363.05,571 363.2,571.5 362.7,573.4C362.2,575.2 361,574.75 361,572.75ZM353.8,570.05C353.6,569.8 353.35,567.55 353.15,565.05L352.85,560.5L355.45,560.5C358.5,560.5 359.5,561.25 359.5,563.45C359.5,565.35 358.25,565.55 357.8,563.8C357.5,562.5 355.7,561.6 355,562.35C354.75,562.55 354.7,564 354.9,565.5C355.2,568.05 355.35,568.25 356.65,568.4C357.6,568.5 358,568.35 358,567.8C358,567.35 358.35,567 358.75,567C359.25,567 359.5,567.55 359.5,568.75L359.5,570.5L356.8,570.5C355.3,570.5 353.95,570.3 353.8,570.05ZM298.65,565.65C299.05,561.2 300.3,557 301.25,557C301.7,557 302,556.5 302,555.7C302,554.3 302.8,552.45 303.7,551.9C304.85,551.15 307.45,551.5 308.15,552.5C308.6,553.15 309.65,553.6 311.1,553.8C314.2,554.25 316.15,553.05 317.05,550.3C317.4,549.15 317.95,548.1 318.25,547.9C318.95,547.35 321.9,547.4 322.1,547.95C322.2,548.2 323.1,548.55 324.15,548.75C325.65,549.05 326,548.95 326,548.3C326,547.65 326.6,547.5 329.15,547.5C332,547.5 332.45,547.35 333.75,546C334.7,545 335.65,544.5 336.65,544.5C338.5,544.5 342.5,546.75 342.5,547.75C342.5,548.15 342.75,548.5 343,548.5C343.3,548.5 343.5,547.6 343.5,546.5L343.5,544.5L345.65,544.45C347.1,544.35 347.35,544.3 346.4,544.15C345.3,544 345,543.65 345,542.7C345,542.05 345.15,541.5 345.4,541.5C345.9,541.5 350.7,544.65 352.85,546.45C356.8,549.75 361.25,557.3 362.45,562.9C363.15,566.35 363.15,566.5 362.1,566.5C361.4,566.5 361.05,565.85 360.6,563.6C360.25,562 360,560.2 360,559.6C360,559 359.7,558.5 359.35,558.5C358.95,558.5 358.4,558 358.1,557.4C357.6,556.35 357.55,556.4 357.55,558.15C357.5,559.95 357.45,560 355.75,560C354.55,560 354,559.75 354,559.25C354,558.85 354.35,558.5 354.75,558.5C355.85,558.5 355.65,556.9 354.35,554.9L353.15,553.2L354.7,553.4C355.55,553.55 356.4,553.9 356.6,554.2C356.85,554.5 357,554.3 357,553.65C357,552.85 356.7,552.5 356,552.5C355.25,552.5 355,552.15 355,551.25C355,550.4 354.75,550 354.1,550C352.95,550 352,549.05 352,547.9C352,547.35 351.65,547 351,547C350.2,547 350,547.35 350,548.8C350,550.6 350,550.6 348,550.4C346.35,550.25 346,550.4 346,551.1C346,551.6 346.35,552 346.75,552C347.15,552 347.5,552.25 347.5,552.55C347.5,552.85 347.85,553.4 348.25,553.8C348.65,554.25 349,555.25 349,556.05C349,557 349.25,557.5 349.75,557.5C350.25,557.5 350.5,558.05 350.5,559.25C350.5,560.2 350.3,561 350.05,561C349.75,561 348.85,559.5 347.95,557.7C346,553.7 342.9,550.2 339.5,548L336.95,546.35L335.45,547.8C334.2,549 333.65,549.2 331.35,549.1C329.65,549.05 327.95,549.4 326.45,550.05L324.15,551.1L321.8,550.1L319.5,549.05L319.2,550.4C318.3,554.1 315.9,556 312.15,556C310.3,556 307.25,554.9 306,553.75C305.25,553.1 305,553.35 303.35,556.65C301.7,559.95 301.1,561.95 300.25,567.15C300.05,568.4 299.7,569 299.15,569C298.45,569 298.4,568.5 298.65,565.65ZM347.25,547.5C346.75,546.95 346.1,546.5 345.8,546.5C345.5,546.55 345.8,547 346.45,547.5C347.95,548.8 348.4,548.8 347.25,547.5ZM350.3,556.7C349.85,555.55 349.95,553 350.4,553C350.8,553 353,556.55 353,557.2C353,557.9 350.6,557.45 350.3,556.7ZM179.65,548.75L178.25,547.55L179.85,547.5C182.05,547.5 183,547.95 183,549.05C183,550.4 181.35,550.25 179.65,548.75ZM179.1,531.9C179.25,531.55 180.05,531 180.9,530.65C182.45,530 182.5,530.05 182.5,531.25C182.5,532.35 182.3,532.5 180.7,532.5C179.55,532.5 179,532.3 179.1,531.9ZM218,529.2C218.75,527.25 220.35,525.2 222,524L223.5,522.95L223.5,524.45C223.5,525.65 223.3,526 222.5,526C221.85,526 221.5,526.35 221.5,527C221.5,527.55 221.3,528 221.05,528C220.8,528 220.45,528.55 220.3,529.25C220.05,530.15 219.65,530.5 218.75,530.5C217.65,530.5 217.55,530.4 218,529.2ZM224.5,523.3C224.5,522.65 225.9,522 227.4,522C227.7,522 228,522.45 228,523C228,523.8 227.65,524 226.25,524C225.1,524 224.5,523.75 224.5,523.3Z" style="fill:rgb(165,99,110);"/>
                </g>
                <g transform="matrix(2.00091,0,0,2.00091,12645.5,-2436.35)">
                    <path d="M301.4,698.6C300.9,698.5 300.5,698.1 300.5,697.7C300.5,697.15 301.4,697 304.75,697C308.6,697 309,697.1 309,697.95C309,698.8 308.65,698.9 305.65,698.85C303.75,698.8 301.85,698.7 301.4,698.6ZM309.5,698.05C309.5,697.15 309.8,697 311.75,697C313.4,697 314,697.2 314,697.75C314,698.15 313.85,698.5 313.65,698.5C313.4,698.55 312.4,698.65 311.4,698.8C309.7,699.05 309.5,698.95 309.5,698.05ZM365.5,696.75C365.5,695.75 365.75,695.5 366.75,695.5C368.2,695.5 368.35,696.1 367.2,697.2C366.1,698.35 365.5,698.2 365.5,696.75ZM167.45,696.4C167,695.55 166.95,688.95 167.2,669.1L167.55,642.85L164.75,645.9C160.2,650.85 153.35,653.5 147.3,652.75C143.55,652.3 138.9,649.9 137.3,647.6C135.2,644.55 135.5,642.95 138.7,639.7C141.2,637.25 141.35,636.95 140.5,636.5C140,636.25 139.3,636 138.95,636C137.75,636 128.8,631.45 125.8,629.3C122.1,626.65 119.95,624.05 117.85,619.6C116.35,616.5 116.25,615.85 116.25,611C116.25,606.95 116.5,604.95 117.35,602.25C119.4,595.8 124.7,589 131.85,583.7C133.85,582.2 135.5,580.9 135.5,580.8C135.5,580.7 134.5,578.85 133.25,576.7C125.85,563.7 122.55,550.65 123.15,536.5C123.75,522.35 128.45,507.9 135.9,497.25C141.55,489.25 152.1,479.55 159.75,475.4C173.75,467.8 188.45,464.55 202.75,466C226.75,468.35 246.75,481.15 259.35,502.15C265.4,512.2 269.45,526.05 269.55,537.15C269.6,540.1 269.8,541.5 270.2,541.5C270.5,541.5 272.3,540.5 274.15,539.25C286.7,530.8 299.7,524.4 307.6,522.75C311.7,521.85 322.3,521.75 326.1,522.55C330.25,523.4 335.7,526.25 338.4,528.95C341.25,531.8 342.6,534.35 342.9,537.65C343.05,539.3 343.45,540.25 344.05,540.65C345.45,541.55 345.2,542 343.3,542C342.4,542 341.35,542.35 341,542.75C340.55,543.3 339.7,543.5 338.35,543.4L336.4,543.25L335,539.35C334.25,537.2 333.35,535.15 333,534.85C332.3,534.2 332.25,534 334.1,538.7C334.7,540.2 335,542.05 334.9,543.45L334.75,545.75L328.8,545.75L328,542.75C327.15,539.65 325.85,536.8 325.05,536.3C324.8,536.15 325.25,537.5 326.05,539.35C327.55,542.95 327.9,545.9 326.9,546.9C326.55,547.25 325.25,547.5 324,547.5C321.6,547.5 319.95,546.65 318.25,544.5C314.45,539.7 313.1,539.25 315.2,543.45C316.85,546.65 316.95,550.3 315.45,552.2C314.6,553.3 314.05,553.5 312,553.5C309.8,553.5 309.35,553.3 306.85,551C305.35,549.65 303.95,548.5 303.8,548.5C303.65,548.5 303.5,549.25 303.5,550.15C303.5,551.85 302.35,554.7 301.45,555.3C301.2,555.45 300.6,556.45 300.15,557.55C299.75,558.6 299.2,559.5 298.95,559.5C298.7,559.5 298.5,560.2 298.5,561C298.5,562.15 298.3,562.5 297.5,562.5C296.25,562.5 296.25,561.7 297.45,558.5C298.6,555.45 298.25,555.4 294.25,558C292.6,559.05 289.1,561.2 286.5,562.8C280.4,566.5 265.2,576.75 258.75,581.5C256,583.5 251.15,587.65 248,590.7C244.2,594.4 240.45,597.45 236.9,599.7C231.65,603.05 231.5,603.2 231.5,604.95C231.5,606.75 232.8,622.6 235.25,650.25C235.95,658.25 236.75,667.85 237,671.65C237.25,675.4 237.55,678.7 237.7,678.95C237.85,679.2 238.85,679.5 239.9,679.65C242.3,679.95 244.55,681 247.6,683.25C250.8,685.6 253.65,691.2 253.4,694.8L253.25,697.25L210.65,697.4L168.05,697.5L167.45,696.4ZM226.85,547.1C229.75,545.6 233.35,542.7 232.9,542.2C232.75,542.1 232.05,542.2 231.3,542.5C229.2,543.25 228,543.15 228,542.1C228,541.55 228.65,540.95 229.75,540.55C233.1,539.35 236.5,535.35 236.5,532.55C236.5,530.4 233.35,525.5 232,525.5C231.7,525.5 231.5,525.3 231.5,525.05C231.5,524.8 230.7,524.45 229.75,524.3C228.45,524.05 228,523.7 228,523C228,521.65 229.25,521.75 232.4,523.3C234.05,524.1 235.6,525.4 236.6,526.8C237.45,528 238.25,528.9 238.35,528.8C238.8,528.4 236.95,521.8 235.7,519.4C234.1,516.25 229.75,511.95 226.6,510.4C224.6,509.4 223.5,509.25 218.75,509.25C213.8,509.25 212.95,509.4 210.35,510.6C206.3,512.5 201.95,516.8 200.2,520.65C198.9,523.45 198.75,524.25 198.75,529C198.75,533.9 198.85,534.45 200.35,537.55C205,547.05 217.8,551.65 226.85,547.1ZM217.5,531.2C217.5,530.15 218.4,528.5 219,528.5C219.3,528.5 219.5,529.3 219.5,530.25C219.5,531.65 219.3,532 218.5,532C217.95,532 217.5,531.65 217.5,531.2ZM218,536.05C217.15,534.4 217.4,533 218.5,533C219.35,533 219.5,533.35 219.5,535C219.5,537.15 218.85,537.6 218,536.05ZM222.2,524.05C222.7,523.55 223.5,523 224.05,522.85C224.8,522.65 225,522.85 225,523.8C225,524.85 224.75,525 223.15,525C221.4,525 221.35,524.95 222.2,524.05ZM141,642.3C143.5,639.95 143.45,639.6 140.7,639.9C139.2,640.1 139,640.3 139,641.55C139,642.35 138.8,643 138.5,643C138.25,643 138,643.35 138,643.75C138,644.9 138.45,644.7 141,642.3ZM168.7,615.4L169,607.5L164.4,605.2C156.45,601.25 156.6,601.3 153.2,603.5C151.55,604.5 149.5,606.15 148.6,607.1C146.8,609.05 146.9,609.3 150,610.5C155.8,612.7 160.85,615.85 164.5,619.5C166.55,621.6 168.3,623.3 168.3,623.25C168.35,623.25 168.5,619.7 168.7,615.4ZM207,675.5C206.15,663.4 204.95,647.35 204.5,641.5C204.25,638.35 203.8,631.05 203.5,625.25C202.8,612.2 202.85,612.5 201.1,612.5C200.35,612.5 199.5,612.7 199.2,612.9C198.8,613.15 198.6,622.8 198.45,646.2L198.25,679.1L201.25,680.2C202.95,680.8 204.85,681.7 205.5,682.15C206.15,682.6 206.9,682.8 207.1,682.6C207.3,682.4 207.25,679.2 207,675.5ZM182.55,555C185.35,553.95 190,550.85 190,550.05C190,549.75 189.35,549.75 188.4,550.05C186.05,550.7 185.5,550.6 185.5,549.6C185.5,548.95 186.1,548.45 187.4,548.05C188.4,547.75 189.6,547.2 190.05,546.85C191.7,545.6 193.5,542.35 193.5,540.7C193.5,537.65 190.9,533.5 188.5,532.75C187.85,532.55 187.5,532 187.5,531.25C187.5,530.15 187.6,530.05 188.8,530.5C190.8,531.25 192.1,532.3 193.7,534.4L195.1,536.25L194.8,534.25C194.6,533.15 193.95,530.7 193.4,528.75C192.45,525.7 191.85,524.8 189.05,521.95C185.3,518.2 181.85,516.55 176.75,516.15C166.75,515.3 157.65,522.7 155.85,533.15C154.8,539.45 157,546 161.75,550.45C167.7,556.1 175.35,557.75 182.55,555ZM175,538.25C175,536.15 178.45,531.6 180.65,530.85C181.3,530.6 181.5,530.8 181.5,531.75C181.5,532.8 181.25,533 180,533C178.65,533 178.5,533.15 178.5,534.5C178.5,535.5 178.25,536 177.75,536C177.25,536 177,536.5 177,537.5C177,538.65 176.8,539 176,539C175.45,539 175,538.65 175,538.25ZM206.25,570.8C210.1,569.8 213.55,567.8 216,565.2L218.25,562.8L215.35,565.35C211.2,569.1 208.05,570.2 201.5,570.15C195.35,570.15 192.75,569.4 188.25,566.4C186.05,564.9 185.55,564.7 186.4,565.6C189.05,568.5 196.45,571.4 201.25,571.45C202.65,571.45 204.9,571.2 206.25,570.8ZM316,695.25C316,693.85 316.2,693.5 317,693.5C318.15,693.5 318.3,694.8 317.3,696.15C316.3,697.4 316,697.2 316,695.25ZM385.5,667.3C385.5,665.65 385.6,665.5 387.05,665.5L388.55,665.5L387.5,667C385.95,669.2 385.5,669.25 385.5,667.3ZM384.35,663.4C384.6,663.05 385.3,662.1 385.9,661.3L387,659.85L387,661.95C387,663.9 386.95,664 385.45,664C384.25,664 384,663.85 384.35,663.4ZM383.9,658.65C382.1,658.2 382.9,657 385,657C386.45,657 387,657.2 387,657.75C387,658.15 386.8,658.5 386.55,658.5C386.3,658.5 385.8,658.6 385.4,658.7C385.05,658.8 384.35,658.8 383.9,658.65ZM243.35,632.65C244.05,630.75 245.5,630.5 245.5,632.25C245.5,633.25 245.25,633.5 244.25,633.5C243.3,633.5 243.1,633.3 243.35,632.65ZM250.2,625.7C249.85,623.85 250.6,621.5 251.5,621.5C251.8,621.5 252,622.8 252,624.5C252,626.8 251.85,627.5 251.25,627.5C250.85,627.5 250.4,626.8 250.2,625.7ZM295.5,565.9C295.5,564.4 296.15,563 296.8,563C297.25,563 297.5,563.6 297.5,564.75C297.5,566.15 297.3,566.5 296.5,566.5C295.95,566.5 295.5,566.2 295.5,565.9Z" style="fill:rgb(18,143,71);"/>
                </g>
                <g transform="matrix(2.00091,0,0,2.00091,12645.5,-2436.35)">
                    <path d="M302,698.55C298.55,698.4 295.45,698.05 295.05,697.8C294,697.1 292.65,693.65 290.8,686.9L289.15,680.75L286.45,678.6C277.2,671.15 272.9,666 269,657.75C266.25,652 265.2,648.3 264.75,642.9L264.4,639.1L261.85,638.25C260.4,637.8 258.4,636.85 257.3,636.15C255.5,635 255.25,634.95 253.2,635.5C250.3,636.3 244.7,635.9 243.6,634.8C242.85,634.05 242.85,633.85 243.55,632.6C244,631.8 244.7,631.3 245.3,631.35C245.8,631.4 247.25,631.55 248.5,631.75C251.75,632.15 252.4,631.55 251.35,629.15C250.05,626 249.85,624.25 250.75,622.2C252.5,618.05 255.6,616.3 259.2,617.5C263.7,618.95 264.5,624.5 261.05,630.05L259.5,632.55L261.15,633.5C263.4,634.9 264.45,634.8 264.75,633.15C268.25,615.75 278.2,603.05 295.1,594.25C297.95,592.8 301.2,591.3 302.4,590.95C303.55,590.6 304.5,590.25 304.5,590.15C304.5,590.05 303.45,588.7 302.15,587.1C296.35,579.95 294.15,570.6 296.45,562.2C297.45,558.5 299.25,554.2 300,553.75C301,553.15 302,550.25 301.7,548.85C301.35,547.3 302.15,546 303.5,546C303.95,546 305.9,547.35 307.75,549C309.6,550.65 311.55,552 312.05,552C313.1,552 315,549.75 315,548.5C315,548 314.35,546.15 313.5,544.4C311.75,540.75 311.7,540.35 312.8,539.3C314.3,537.75 315.8,538.35 318.35,541.4C319.65,542.95 321.1,544.55 321.5,544.85C322.8,545.95 324.55,546.2 325.35,545.35C326.05,544.7 325.9,544.15 324.3,540.4C322.15,535.45 322.1,534.65 323.75,533.9C324.8,533.45 325.15,533.5 326.05,534.3C327.5,535.6 328.55,537.7 329.5,541.25C330.25,544.05 330.35,544.25 331.75,544.25C333.85,544.25 333.85,543.35 331.75,538C329.8,533.05 329.9,532 332.25,532C333.85,532 335.25,533.9 336.55,537.9C337.85,541.95 338.2,542.4 339.3,541.45C340,540.9 340.1,540.05 339.9,536.4C339.75,533.95 339.8,532 340,532C341.2,532 343,536.1 343,539C343,540.05 343.65,540.6 346.65,542.25C351.9,545.2 356.9,550.3 359.45,555.4C362.95,562.35 363.75,568.15 362.25,575.25C361.25,579.85 359.45,583.4 356.4,586.75C355.05,588.25 354.15,589.5 354.5,589.5C354.8,589.5 356.55,590.1 358.4,590.8L361.7,592.15L366.7,589.55C376,584.85 382.7,583.9 384.45,587.1C385.15,588.3 385.15,588.95 384.35,593.35C383.85,596.05 383.15,599.75 382.75,601.65L382,605L384.8,608.3C388,612.1 390.2,615.4 392.4,619.8C394.3,623.6 394.7,623.9 398.35,624.55C402.75,625.3 405,626.8 406.5,629.75C408.75,634.3 408.45,647.7 406,652.55C404.4,655.65 402.4,656.8 395.4,658.75C392.7,659.45 392.4,659.7 390.35,662.9C386.35,668.95 380.75,674.75 375.45,678.35C372.8,680.2 372.1,681.65 370.2,689C367.7,698.75 368,698.6 355.7,698.7L346.4,698.75L345.2,697.35C344.55,696.6 343.65,694.75 343.25,693.25L342.45,690.55L339.85,690.9C336.4,691.35 328.25,691.35 323.15,690.85C320.5,690.6 319,690.65 319,690.95C319,692.4 316.75,697.1 315.85,697.7C314.4,698.6 309.65,698.9 302,698.55ZM347.25,547.25C345.65,545.95 345,545.7 345,546.45C345,547 348.15,549.05 348.45,548.7C348.6,548.55 348.05,547.9 347.25,547.25ZM330.6,593.95C336.9,592.6 344.1,587.55 347.2,582.35C354.1,570.5 350.45,554.65 339.15,547.5L336.8,546L335.25,547.5C333.9,548.8 333.35,549 330.75,549C328.9,549.05 327.35,549.3 326.8,549.75C325.55,550.7 323.15,550.7 321.3,549.75C319.6,548.85 319.2,549.05 318.85,550.9C318.4,553.05 316.65,554.9 314.5,555.5C312.1,556.15 307.95,555.35 306.7,553.95C306.25,553.45 305.65,553 305.45,553C304.65,553 301.5,559.95 300.7,563.4C299.7,567.5 300,573.75 301.3,577C306.5,589.95 318,596.6 330.6,593.95ZM358,566.1C358,562.95 357.45,562 355.6,562C354.45,562 354.4,562.05 354.75,565.15C355.2,568.9 355.25,569 356.8,569C357.95,569 358,568.85 358,566.1ZM356,557.95C356,556.3 353.25,553 351.9,553C350.7,553 350.75,553.4 352.5,556.15C353.45,557.7 354.35,558.5 355,558.5C355.55,558.5 356,558.25 356,557.95ZM352.65,585.6C354.15,584.15 354.35,583.25 353.25,582.8C352.75,582.65 351.85,583.45 350.5,585.25C349.4,586.75 348.5,588.1 348.5,588.3C348.5,588.75 350.95,587.15 352.65,585.6ZM356.75,576.9C358.4,573.35 358.35,572.5 356.6,572.5C355.3,572.5 355.15,572.75 354.35,575.7C353.3,579.65 353.3,579.5 354.5,579.5C355.25,579.5 355.9,578.8 356.75,576.9ZM362.85,694.2C364.15,693.85 364.2,693.75 366.25,686.2C367.15,682.85 368.25,679.45 368.7,678.7C369.2,677.9 370.8,676.35 372.3,675.25C376.8,672 387.5,660.45 387.5,658.85C387.5,658.7 386.1,658.55 384.35,658.4C376.85,657.95 366.65,650.25 368.2,646.25C368.75,644.75 370.85,645.4 372.55,647.6C374.7,650.3 377.9,652.3 382.2,653.6C385,654.45 386.45,654.6 390.45,654.35C402,653.75 403.95,651.3 403.4,638C403.1,630.5 402.4,629.65 395.9,628.75C392.55,628.3 391,626.8 388.05,621.05C385.2,615.5 382.6,611.8 380,609.7C379.05,608.9 378.1,608.05 377.9,607.75C377.45,607.1 377.8,604.1 379.3,596.3C380,592.8 380.45,589.8 380.35,589.65C380,589.3 375.45,590.55 372.5,591.85C371,592.5 368.15,594.05 366.2,595.3C364.2,596.5 362.25,597.5 361.8,597.5C361.35,597.5 359.8,596.85 358.35,596.05C356.95,595.25 354.65,594.2 353.3,593.7L350.85,592.8L347.8,594.4C346.15,595.25 344.3,596.1 343.8,596.25C342.35,596.7 343.35,597.25 347.25,598.2C349.15,598.65 351.15,599.45 351.65,599.95C352.55,600.85 352.55,600.9 351.35,602.25L350.15,603.7L346.75,602.55C336.85,599.3 323.75,599.5 313.15,603.05C309.6,604.2 308,603.8 308,601.75C308,600.25 309.4,599.25 312.55,598.45C313.9,598.1 315,597.65 315,597.4C315,597.2 313.4,596.15 311.45,595.05L307.9,593.1L301.05,596.3C292.75,600.25 288.5,603.05 283.1,608.25C269,621.7 265.25,639.9 273.25,656.4C276.65,663.45 281.65,669.3 289.3,675.1C292.75,677.75 293.25,678.7 295.55,687C296.4,690.15 297.35,693.05 297.65,693.4C298,693.85 300.05,694 305.7,693.9L313.25,693.75L314.5,690.1C315.2,688.05 316.1,686.2 316.55,685.95C317.1,685.7 319.3,685.8 322.3,686.25C328.25,687.15 334.8,687.2 340.35,686.45C345.3,685.75 345.6,685.9 346.85,689.95C347.3,691.5 347.9,693 348.15,693.35C348.45,693.75 350.65,694 354.65,694.15C358,694.2 361,694.35 361.25,694.4C361.55,694.45 362.25,694.35 362.85,694.2ZM364.6,629.9C363.65,628.95 363.9,627.45 365.4,624.8C368.35,619.4 375.6,618.5 380.05,622.95C383.2,626.1 383.2,630.25 380.05,629.9C379.1,629.8 378.5,629.25 377.9,627.9C376.85,625.65 375.25,624.5 373.25,624.5C371.15,624.5 369.6,625.75 368.5,628.3C367.75,630 367.25,630.5 366.35,630.5C365.75,630.5 364.95,630.25 364.6,629.9ZM256.8,628.1C257.8,627.45 259.05,624.45 258.9,623.1C258.7,621.45 257.3,621.05 255.95,622.3C255.25,622.9 255,623.8 255,625.5C255,628.35 255.45,629 256.8,628.1ZM137.05,646.7C136.45,645.95 136,644.9 136,644.3C136,642.85 138.25,639.65 140.1,638.55C141.45,637.7 141.8,637.65 144.4,638.35C147.95,639.25 150.05,640.5 149.9,641.5C149.7,642.45 147.4,642.75 146.05,642C145.15,641.55 144.6,641.85 142.15,644.05C140.55,645.45 139,646.95 138.7,647.35C138.2,647.95 137.95,647.85 137.05,646.7ZM194.25,572.05C189.1,570.55 185.05,568.05 183.75,565.55C183.1,564.25 183.1,564.05 183.95,563.3C185.25,562.15 186.35,562.3 188.5,564C194.95,569.1 202.9,570.1 209.85,566.7C212.25,565.55 219,559.05 219,557.9C219,557.2 220.9,557.45 221.7,558.3C222.4,559 222.35,559.3 221.2,561.6C218.55,566.85 213.65,570.75 207.75,572.3C204.3,573.25 197.9,573.1 194.25,572.05ZM181.25,549.55C171.35,545.05 174.15,530.05 184.9,530C190.35,530 194.35,533.7 195.25,539.6C195.9,543.85 193,548.2 188.65,549.7C185.65,550.75 183.7,550.7 181.25,549.55ZM223.65,542.2C220.1,540.45 217.5,536.25 217.5,532.2C217.5,529.6 219.9,525.55 222.35,524C226.45,521.4 230.6,521.6 234.25,524.6C239,528.55 239.35,535.75 234.9,539.85C231.9,542.65 226.8,543.75 223.65,542.2Z" style="fill:rgb(31,33,33);"/>
                </g>
            </g>
        </g>
    </g>
</svg>
