<?xml version="1.0" encoding="UTF-8" standalone="no"?>
<!DOCTYPE svg PUBLIC "-//W3C//DTD SVG 1.1//EN" "http://www.w3.org/Graphics/SVG/1.1/DTD/svg11.dtd">
<svg width="100%" height="100%" viewBox="0 0 594 500" version="1.1" xmlns="http://www.w3.org/2000/svg" xmlns:xlink="http://www.w3.org/1999/xlink" xml:space="preserve" xmlns:serif="http://www.serif.com/" style="fill-rule:evenodd;clip-rule:evenodd;stroke-linejoin:round;stroke-miterlimit:2;">
    <g transform="matrix(1,0,0,1,-6910.65,-270.6)">
        <g transform="matrix(1,0,0,1,6691,0)">
            <g transform="matrix(1,0,0,1,-10509,1879)">
                <g transform="matrix(2.00091,0,0,2.00091,10499.4,-1789.35)">
                    <path d="M245.5,280.35C240.4,278.9 236.15,274.7 234.7,269.6C233.55,265.65 233.95,260 235.65,256.7C238.3,251.55 242.35,249.15 249.25,248.65L253.5,248.35L253.5,249.9C253.5,251.1 252.95,252 251.25,253.7C247.65,257.35 247.65,259.75 251.2,263.35C254.05,266.2 256.1,266.3 259,263.7C260.05,262.75 261.1,261.5 261.25,260.95C261.5,260.2 262.05,260 263.6,260L265.6,260L265.4,265.65C265.25,269.6 264.95,271.7 264.4,272.8C263.15,275.1 259.5,278.65 257.3,279.7C254.85,280.85 248.5,281.2 245.5,280.35ZM277,280.25C273.35,279.2 270.9,277.55 268.95,274.7C266.9,271.7 266,268.65 266,264.5C266,259.7 267.1,256.55 269.8,253.5C273.05,249.9 275.05,249.05 280.75,248.65L285.5,248.35L285.5,250.15C285.5,251.6 285.25,252.05 283.8,252.9C281.65,254.2 279.8,257.6 280.25,259.45C281,262.4 284.5,265.5 287.1,265.5C288.95,265.5 291.4,263.7 292.5,261.5C293.4,259.75 293.75,259.5 295.25,259.5L297,259.5L297,265C297,268.6 296.75,271.1 296.3,272.15C295.2,274.7 292.35,277.65 289.45,279.2C286.2,281 281.2,281.4 277,280.25ZM207.5,272.75C207.5,270.5 207.5,270.5 209.25,270.5C211,270.5 211,270.5 211,272.75C211,275 211,275 209.25,275C207.5,275 207.5,275 207.5,272.75ZM208,266.25C208,264.6 208.1,264.5 209.75,264.5C211.4,264.5 211.5,264.6 211.5,266.25C211.5,267.9 211.4,268 209.75,268C208.1,268 208,267.9 208,266.25ZM300.15,171.65C299.2,171.45 299,171.1 299,169.75C299,168.2 299.15,168 300.7,167.75C303.45,167.2 305.5,165.65 306.55,163.25C307.45,161.2 307.5,160.9 306.75,159.15C305.1,155.25 301.45,152.95 298.6,154.05C296.8,154.75 294.7,156.8 294,158.55C293.45,159.8 293.1,160 291.4,160L289.35,160L289.6,154.4C289.8,149.8 290.05,148.35 290.95,146.6C292.45,143.65 295.7,140.5 298.75,139C300.9,137.95 301.95,137.8 306.5,137.75C311.15,137.75 312.05,137.9 314.6,139.1C317.9,140.65 321,143.65 322.55,146.9C324.15,150.15 324.45,156.4 323.25,160.9C322.45,163.8 321.95,164.65 319.3,167.3C315.35,171.25 313.1,172 306.3,171.95C303.5,171.9 300.75,171.75 300.15,171.65ZM335.65,171.65C334.75,171.5 334.5,171.1 334.5,169.8C334.5,168.3 334.7,168.1 336.5,167.55C340.95,166.25 343.2,162.65 341.75,159.15C340.1,155.2 336.55,152.95 333.7,154C331.8,154.75 329.75,156.75 329,158.55C328.45,159.8 328.1,160 326.35,160L324.35,160L324.6,154.9C324.85,148.85 325.85,146.25 329,142.8C330.15,141.55 332.4,139.9 333.95,139.15C336.45,137.9 337.3,137.75 341.75,137.75C346.1,137.75 347.1,137.9 349.55,139.05C356.3,142.25 359.55,148.65 358.8,157.45C358.45,161.9 356.85,165.6 354.25,168.25C351.1,171.35 349.1,172 342.5,171.9C339.35,171.9 336.25,171.75 335.65,171.65Z" style="fill:white;"/>
                </g>
                <g transform="matrix(2.00091,0,0,2.00091,10499.4,-1789.35)">
                    <path d="M115.55,339.3C114.45,337.95 114.2,317.45 115.2,309.5C116.5,299.1 119.85,283.55 122.55,275.25C124.65,268.8 124.9,267.65 124.25,267.2C122.2,265.65 124.8,265.6 129.1,267.05C132,268 132.3,268 134.25,267.25C137.1,266.2 138.4,264.65 138.95,261.75C139.2,260.4 139.7,259.2 140.1,259.05C141.7,258.5 143.5,255.9 143.5,254.05C143.5,252.65 143.85,251.9 145,250.9C145.85,250.2 146.5,249.25 146.5,248.85C146.5,248.45 145.3,247.55 143.8,246.85C142.35,246.15 140.7,245 140.1,244.3C139.55,243.6 138.9,243 138.65,243C138.4,243 137.7,242.45 137.1,241.75C136.5,241.1 135.45,240.4 134.8,240.2C134.1,240.05 132.25,238.35 130.55,236.25C127.85,233 127.65,232.6 128.45,232.2C129.35,231.8 129.3,231.5 127.65,227.85C121.95,214.95 123.7,151.05 124.8,146.65C126.6,139.3 132.15,131 138.3,126.45C141.65,124 146.85,121.4 150.75,120.15C154.9,118.9 165,118.95 169.25,120.2C176.7,122.45 182.75,126.3 187.5,131.8C188.75,133.25 190,134.45 190.25,134.45C190.55,134.5 191.75,133.25 193,131.7C197.5,126.05 204.7,121.3 211.8,119.2C215.9,118 225.1,118 229.5,119.2C233.8,120.35 241.2,124 244,126.3C249.25,130.7 253.45,136.75 255.8,143.5C257.55,148.45 259.7,212 257.45,217.85C257.1,218.8 257.2,219.1 258,219.4C259.6,220 258.5,220.85 255,221.75C232.85,227.4 218.2,241.55 212.2,263.25C210.95,267.65 210.8,269.05 210.85,275C210.85,281.55 211.05,282.85 213.45,291.75C213.65,292.6 214.35,294.25 214.9,295.45C216.15,298.05 216.4,302.5 215.3,302.5C214.95,302.5 211.75,302.25 208.25,302C193.65,300.8 180.95,297.25 172.4,292C171.05,291.15 170.05,290.7 170.25,290.95C170.9,292.05 177.65,295.65 182.1,297.3C191.55,300.85 200.7,302.65 214.05,303.75C219.3,304.2 224.05,304.75 224.55,305.05C225.9,305.75 226.5,307.15 226.5,309.75C226.5,311.75 226.35,312.1 225.15,312.55C224.35,312.85 221.8,313.25 219.35,313.35C216.95,313.5 214.85,313.85 214.65,314.15C214.45,314.5 216.1,314.55 219.6,314.3C226.4,313.9 227.5,314.25 227.5,317C227.5,319.55 226.4,321.8 224.9,322.2C224.25,322.35 221.95,322.5 219.75,322.55C215.5,322.55 213.35,323.05 214.45,323.7C214.75,323.9 216.9,323.95 219.2,323.75C223.05,323.4 223.5,323.5 224.45,324.45C225.8,325.8 225.9,329 224.6,330.15C221.5,332.95 201.85,333.1 186.1,330.45C174.45,328.5 162.95,325 154.25,320.7C151.25,319.25 149.2,318.4 149.75,318.8C151.3,320 158.85,323.7 162.75,325.15C168.95,327.45 182.05,330.95 188.45,332C191.8,332.55 198.05,333.25 202.3,333.55C209.6,334.15 210,334.2 210,335.2C210,335.8 210.15,337.1 210.3,338.1L210.65,340L163.4,340C122.7,340 116.05,339.9 115.55,339.3ZM205.75,181.75C207.3,176.3 211.4,173.6 217,174.15C218.65,174.35 220.65,174.8 221.45,175.25C223.5,176.3 225.4,178.7 226.05,181.15C227.05,184.85 227,184.7 227.6,184.1C228.5,183.2 226.2,178.8 223.45,176.25C218.7,171.8 214.7,171.4 209.4,174.9C206,177.15 202.25,184.5 204.55,184.5C204.75,184.5 205.3,183.25 205.75,181.75ZM142.5,313.35C142.5,313.25 141.55,312.3 140.4,311.25L138.25,309.25L140.25,311.4C142.05,313.35 142.5,313.75 142.5,313.35ZM162.55,281.4C162,280.2 161.2,277.5 160.7,275.4C160.2,273.25 159.65,271.5 159.4,271.5C158.35,271.5 159.75,277.1 161.8,281.15C163.3,284.1 163.75,284.25 162.55,281.4ZM172.6,181.7C173.7,178.65 174.85,177.1 177.05,175.6C178.6,174.55 179.2,174.45 183.6,174.6C188.35,174.75 188.5,174.8 190.2,176.45C191.3,177.5 192.3,179.2 192.8,180.7C193.2,182.1 193.7,183.55 193.8,183.95C193.95,184.5 194.2,184.5 194.6,184.1C195.55,183.15 193.6,179.05 191,176.45C188.25,173.7 184.55,172.25 181.55,172.75C179.05,173.15 175.5,175.4 173.8,177.65C172.1,179.85 170.2,184.7 171.1,184.4C171.45,184.25 172.15,183.05 172.6,181.7ZM203.65,207.75C205.25,207.35 207.45,206.55 208.6,205.95C211.15,204.65 214.95,201.15 216.2,198.9C217.3,197 216.95,197.3 214.4,200.55C213.25,201.95 211.4,203.45 209.4,204.5C206.65,205.95 205.65,206.25 201.85,206.4C193.75,206.8 188.4,204.95 184.1,200.25C182.85,198.9 182.2,198.35 182.65,199.15C185.55,203.7 193.65,208.1 199.75,208.45C200.35,208.5 202.1,208.15 203.65,207.75ZM259.75,296.3C258.9,295.95 257.25,294.55 256.1,293.25C254.35,291.25 254,290.5 254,288.75L254,286.65L265.5,286.3C271.8,286.1 277.2,286.1 277.5,286.25C277.75,286.4 278,287.55 278,288.75C278,291.35 275.7,294.75 273,296.1C270.8,297.2 262.1,297.35 259.75,296.3ZM256.5,266.25C256.5,265.15 256.7,265 258.3,265C260.5,265 260.4,265.9 258.1,266.85C256.55,267.5 256.5,267.45 256.5,266.25ZM250.25,265.45C247.35,262.9 246,259.5 247.9,259.5C248.95,259.5 250,261.4 250,263.25C250,264.25 250.25,264.5 251.2,264.5C253.05,264.5 254,265 254,266.05C254,267.5 252.3,267.2 250.25,265.45ZM283.4,266.45C281.95,265.65 282.35,265 284.25,265C285.65,265 286,265.2 286,266C286,267.1 284.8,267.3 283.4,266.45ZM304,167.25C304,166.45 304.3,166 304.75,166C305.15,166 305.5,165.65 305.5,165.25C305.5,164.85 305.7,164.5 305.95,164.5C306.2,164.5 306.55,163.7 306.7,162.75C306.95,161.45 307.3,161 308,161C309.25,161 309.25,162.1 308.05,164.8C307.2,166.65 305.4,168.5 304.4,168.5C304.15,168.5 304,167.95 304,167.25ZM341,166.2C341,163.95 342.1,161.5 343.1,161.5C343.6,161.5 344,161.85 344,162.25C344,163.45 342.75,166.2 341.85,166.95C341.1,167.55 341,167.45 341,166.2ZM295.15,153.75C296.95,152.15 297.5,152.2 297.5,153.75C297.5,154.85 297.3,155 295.65,155L293.75,154.95L295.15,153.75Z" style="fill:rgb(242,143,185);"/>
                </g>
                <g transform="matrix(2.00091,0,0,2.00091,10499.4,-1789.35)">
                    <path d="M213,301.25C213,300.8 213.3,300.65 213.75,300.8C214.3,301.05 214.5,300.75 214.5,299.85C214.5,299.15 214.3,298.45 214.05,298.3C213.8,298.15 213.5,297.55 213.35,297C213.15,296.2 213.35,296 214.3,296C215.25,296 215.5,296.25 215.5,297.25C215.5,297.95 215.75,298.5 216,298.5C216.3,298.5 216.5,299.3 216.5,300.25C216.5,301.9 216.4,302 214.75,302C213.55,302 213,301.75 213,301.25ZM275.3,291C276.65,289 276.65,287.5 275.25,287.5C274.85,287.5 274.5,287.15 274.5,286.75C274.5,286.25 275.05,286 276.25,286C277.9,286 278,286.1 278,287.75C278,288.7 277.8,289.5 277.5,289.5C277.25,289.5 277,290.3 277,291.25C277,292.85 276.9,293 275.5,293L274,293L275.3,291ZM209.8,284.9C209.3,283 209.45,282.5 210.5,282.5C211.3,282.5 211.5,282.85 211.5,284.25C211.5,286.25 210.3,286.7 209.8,284.9ZM209.25,279.6C208.95,278.05 209,271.6 209.35,269.4C209.5,268.6 209.9,268 210.3,268C210.85,268 211,269.2 211,274.5C211,279.8 210.85,281 210.3,281C209.9,281 209.45,280.35 209.25,279.6ZM209.7,266.4C209.85,265.75 209.95,264.95 209.95,264.65C210,264.3 210.35,264 210.75,264C211.25,264 211.5,264.55 211.5,265.75C211.5,267.15 211.3,267.5 210.5,267.5C209.75,267.5 209.55,267.25 209.7,266.4ZM215.1,249.65C216.85,245.95 217.5,245.6 217.5,248.25C217.5,249.8 217.35,250 216.2,250C215.5,250 215,249.85 215.1,249.65ZM255.5,220.3C255.5,219.5 256.75,219.1 258.15,219.4C259.75,219.8 259.1,221 257.25,221C256.05,221 255.5,220.75 255.5,220.3Z" style="fill:rgb(235,172,153);"/>
                </g>
                <g transform="matrix(2.00091,0,0,2.00091,10499.4,-1789.35)">
                    <path d="M213,300.95C213,300.7 213.25,300.6 213.5,300.75C214.45,301.35 215,300.5 214.5,299.25C214.05,298.15 214.15,298 215.25,298C216.35,298 216.5,298.2 216.5,299.75C216.5,301.4 216.4,301.5 214.75,301.5C213.8,301.5 213,301.25 213,300.95ZM212.75,295.5C211.75,293.6 211.8,293.5 213.25,293.5C214.35,293.5 214.5,293.7 214.5,295.25C214.5,297.4 213.8,297.5 212.75,295.5ZM211.6,291.65C211.1,290.7 210,285.95 210,284.75C210,284.35 210.4,284 210.9,284C211.65,284 211.95,284.65 212.4,287.2C213.15,291.05 213.15,292.5 212.5,292.5C212.25,292.5 211.85,292.1 211.6,291.65ZM123.4,266.7C120.65,265.3 120.35,264.5 122.5,264.5C124.8,264.5 126.5,265.5 126.5,266.85C126.5,268.25 126.35,268.25 123.4,266.7ZM251.9,266.45C250.45,265.65 250.85,265 252.75,265C254.15,265 254.5,265.2 254.5,266C254.5,267.1 253.3,267.3 251.9,266.45ZM283.25,266.3C282.4,265.95 281.45,265.3 281.05,264.85C280.45,264.1 280.55,264 281.8,264C284.05,264 286.5,265.1 286.5,266.1C286.5,267.15 285.4,267.25 283.25,266.3ZM210.55,262.4C210.8,261.5 211,260.7 211,260.65C211,260.55 211.35,260.5 211.75,260.5C212.25,260.5 212.5,261.05 212.5,262.25C212.5,263.75 212.35,264 211.3,264C210.15,264 210.1,263.9 210.55,262.4ZM142.95,247.05C137.9,245.1 132.3,240.35 129.15,235.35C127.9,233.35 127.9,232 129.15,232C129.55,232 130.95,233.35 132.3,235.05C133.7,236.8 135.45,238.4 136.45,238.8C137.4,239.2 138.5,239.95 138.85,240.5C139.25,241.05 139.8,241.5 140.1,241.5C140.35,241.5 141.05,242.1 141.6,242.8C142.2,243.5 143.8,244.65 145.3,245.35C148.5,246.85 149.2,248 146.85,248C145.95,247.95 144.2,247.55 142.95,247.05ZM219.6,242.4C221.35,240.15 222,240.1 222,242.2C222,243.95 221.95,244 220.2,244L218.35,244L219.6,242.4ZM304.5,167C304.5,166 304.75,165.5 305.25,165.5C305.65,165.5 306,165.05 306,164.5C306,163.75 306.35,163.5 307.3,163.5C308,163.5 308.5,163.65 308.4,163.9C307.25,166.25 306.65,167.1 305.65,167.75C304.55,168.5 304.5,168.5 304.5,167ZM339.5,167C339.5,166.05 339.85,165.3 340.5,164.9C341.05,164.55 341.5,163.85 341.5,163.4C341.5,162.75 341.9,162.5 342.75,162.5C344,162.5 344,162.5 343.25,164.35C342.35,166.5 341.65,167.35 340.4,168.05C339.6,168.45 339.5,168.35 339.5,167ZM327,158.25C327,156.65 330,153.35 332.15,152.55C333.35,152.1 333.5,152.15 333.5,153.1C333.5,154.25 332.2,155.45 330.95,155.5C330.45,155.5 330,156.1 329.85,157C329.6,158.2 329.25,158.5 328.25,158.5C327.55,158.5 327,158.4 327,158.25ZM293,156.05C293,155.8 293.85,154.85 294.9,154L296.75,152.45L296.9,153.75C297,154.5 296.8,155.4 296.45,155.8C295.8,156.55 293,156.8 293,156.05Z" style="fill:rgb(152,106,184);"/>
                </g>
                <g transform="matrix(2.00091,0,0,2.00091,10499.4,-1789.35)">
                    <path d="M320.15,338.65C319.8,337.9 319.5,336.6 319.5,335.75L319.5,334.15L324.05,333.85C330.75,333.35 338.3,332.15 347,330.2C354.5,328.55 363.3,326.1 362.95,325.8C362.85,325.7 358.45,326.7 353.25,328.05C340.2,331.3 335.05,332.05 322.6,332.35C311.15,332.65 307.7,332.25 304.2,330.3C302.35,329.3 302.25,329.05 302.1,326.6L301.95,324L306.6,323.95C309.15,323.9 311.8,323.75 312.5,323.55C313.55,323.25 313.4,323.15 311.3,322.85C309.95,322.65 307.8,322.5 306.45,322.5C302,322.5 300.3,320.9 300.6,316.95L300.75,314.75L306.9,314.85C310.25,314.9 313,314.75 313,314.55C313,314.3 311.15,313.95 308.9,313.75C306.6,313.55 304,313.1 303.15,312.7C301.55,312.05 301.5,311.95 301.5,309.05C301.5,304.8 301.7,304.7 313.25,303.75C324.05,302.9 329.65,302 336.5,300.2C341.6,298.9 345.65,297.5 345.35,297.15C345.2,297.05 344.5,297.2 343.7,297.5C339.75,299.05 326.8,301.5 318.85,302.3L315.4,302.65L315.6,299.95C315.75,298.45 316.35,296 316.95,294.5C319.5,288.35 320.5,283.25 320.85,275.5C321.1,269.25 321,268.4 319.85,264.35C316.5,252.9 313,246.4 305.55,237.9C300.5,232.2 290.5,225.9 281.95,223.05C281,222.75 279.95,222.05 279.65,221.5C279.1,220.7 279.2,220.35 280.3,219.25C281,218.55 260.504,182.738 269.05,149.75C269.806,146.831 269.9,142.85 270.3,141.15C271.3,136.8 274.8,127.2 276.5,124.2C280.7,116.75 288.4,107.95 295.2,102.85C299.4,99.75 308.2,95.25 313.25,93.55C324.35,89.9 338.55,89.4 349.5,92.35C367.4,97.1 382.15,108.95 390.35,125.2C393.3,131.1 395.85,138.85 396.75,144.85C403.235,188.085 384.9,218.05 385.95,218.7C386.85,219.25 392.05,229 394.65,235.05C399.95,247.1 403.05,256.8 406.2,271C409.65,286.55 411,299 410.95,314.75C410.9,325.55 410.15,338.55 409.5,339.15C409.35,339.3 389.35,339.5 365,339.7L320.75,340L320.15,338.65ZM331.7,188.75C334.8,187.95 340.15,185.95 339.9,185.75C339.8,185.65 338.4,186.05 336.75,186.6C332.3,188.15 320.6,188.45 315.9,187.1C314,186.55 312.5,186.25 312.5,186.35C312.5,186.85 317.35,188.65 320.4,189.25C323.95,190 327.55,189.85 331.7,188.75ZM348.8,169.55C353.75,167.3 357.15,161.75 357.2,155.8C357.2,151.5 356.5,148.95 354.5,145.85C351.65,141.6 345.35,138.6 340.45,139.15C335.1,139.8 329.6,143.9 327.4,148.85C326.35,151.3 325.55,158.5 326.35,158.5C326.6,158.5 327.15,157.95 327.5,157.25C328.55,155.3 329.15,155.75 328.85,158.35C328.7,159.65 328.8,161.25 329.1,161.95C330.2,164.85 334.05,167.5 337.25,167.5C339.5,167.5 339.6,168.8 337.4,169.3C335.8,169.65 335.75,169.7 337,170.05C339.65,170.8 346.65,170.5 348.8,169.55ZM342,162.75C342,161.35 342.2,161 343,161C344.1,161 344.3,162 343.5,163.55C342.7,165.05 342,164.7 342,162.75ZM367.5,276.2C368.6,272.65 368.75,271.3 368.05,271.7C367.85,271.85 367.35,273.35 367.05,275.05C366.7,276.7 366.3,278.4 366.15,278.8C366,279.2 366,279.5 366.2,279.5C366.35,279.5 366.9,278 367.5,276.2ZM312.3,169.65C314,169.1 315.65,167.9 317.8,165.8C320.45,163.15 320.95,162.3 321.75,159.4C323.9,151.45 320.45,144 313.1,140.6C310.8,139.55 309.5,139.3 306.5,139.3C302,139.3 298.85,140.65 295.65,143.8C292.5,146.95 291.4,149.5 291.1,154.35C290.85,158.65 291.35,159.75 292.45,157.15C293.2,155.3 296.55,152.55 298.5,152.2C299.75,151.9 300,152.05 300,152.9C300,153.9 298.8,154.5 296.65,154.5C295.8,154.5 295.5,154.8 295.5,155.65C295.5,156.25 295.15,157.2 294.75,157.7C293.35,159.55 294.1,162.6 296.6,164.8C297.85,165.95 301.6,168.05 303.25,168.55C304,168.75 303.75,168.9 302.25,169.25C300.4,169.6 300.35,169.65 301.5,170C303.8,170.7 309.75,170.55 312.3,169.65ZM390.5,308C392,305.85 391.4,306.15 389.7,308.35C388.95,309.35 388.55,310 388.9,309.8C389.2,309.65 389.95,308.8 390.5,308ZM212.6,295C211.7,293.55 211.85,292.5 213,292.5C213.8,292.5 214,292.85 214,294.25C214,296.2 213.55,296.45 212.6,295ZM121.7,265.75C118.1,264.25 115.5,259.3 115.5,254.05C115.5,248.8 118.35,241.7 122.35,237.05C124.05,235.05 128.1,232 129.1,232C129.3,232 130,232.85 130.65,233.9C133.85,238.85 139.5,243.65 144.45,245.55C145.7,246 146.8,246.7 146.9,247.1C146.95,247.45 146.35,248.45 145.5,249.25C144.1,250.6 143.6,250.75 140.7,250.75C138.95,250.75 137.5,250.8 137.5,250.85C137.5,250.9 138.65,251.3 140,251.75C142.5,252.55 142.5,252.6 142.5,254.7C142.5,256.3 142.2,257.1 141.25,258C140.15,259 139.7,259.1 136.65,258.85C134.8,258.75 132.8,258.45 132.25,258.25L131.25,257.9L132.25,258.75C132.8,259.2 134.2,259.8 135.4,260.1C137.4,260.6 137.5,260.7 137.5,262.55C137.5,264.05 137.2,264.65 136.05,265.45C133.95,266.95 130.05,266.85 126.6,265.25C125.1,264.55 123.85,264 123.75,264C123.65,264 123.5,264.55 123.4,265.2C123.25,266.35 123.2,266.4 121.7,265.75ZM279.5,262.65C279.1,261.85 278.7,261.1 278.6,260.9C278.5,260.65 279,260.5 279.7,260.5C280.85,260.5 281,260.7 281,262.25C281,264.35 280.4,264.5 279.5,262.65Z" style="fill:rgb(20,152,231);"/>
                </g>
                <g transform="matrix(2.00091,0,0,2.00091,10499.4,-1789.35)">
                    <path d="M208.5,336.25C208.5,335.7 207.9,335.5 206.15,335.5C203.05,335.5 201.5,335.05 201.5,334.2C201.5,333.65 202.45,333.5 205.75,333.5L210,333.5L210,335.25C210,336.45 209.75,337 209.25,337C208.85,337 208.5,336.65 208.5,336.25ZM195.25,334.65C184.05,333.3 170.6,330.1 161.25,326.65C148.5,321.95 136.9,313.05 132.7,304.85C131.5,302.5 131.5,302.35 132.3,301.45C133.75,299.85 134.75,300.35 137.3,304.05C140.1,308.15 144.85,312.75 149.25,315.6C160.1,322.75 181.1,329.05 197.75,330.25C204.2,330.65 205.5,330.95 205.5,331.75C205.5,332.3 204.9,332.5 203.3,332.5C199.75,332.5 191.2,331.55 185.05,330.45C181.95,329.9 179.25,329.55 179.15,329.7C178.65,330.2 190.75,332.35 196.9,332.85C200.45,333.1 201,333.25 201,334.05C201,334.85 200.65,335 198.9,334.95C197.7,334.9 196.1,334.75 195.25,334.65ZM170.25,327C169.7,326.75 168.9,326.55 168.5,326.55C168.05,326.55 168.1,326.75 168.75,327C169.3,327.25 170.1,327.45 170.5,327.45C170.95,327.45 170.9,327.25 170.25,327ZM138.5,308.75C138.5,308.35 138.3,308 138,308C137.75,308 137.5,308.35 137.5,308.75C137.5,309.15 137.75,309.5 138,309.5C138.3,309.5 138.5,309.15 138.5,308.75ZM211,331.8C211,330.95 212.55,330.5 215.35,330.5C220.9,330.5 224.65,328.65 223.5,326.55C222.85,325.3 223,325.35 217.45,325.5C212.75,325.6 211.65,325.05 212.2,322.8C212.55,321.35 213.7,321 218.5,321C220.55,321 222.75,320.85 223.4,320.7C224.45,320.4 226,318.25 226,317C226,315.95 223.65,315.6 218.8,316.05C213.3,316.55 212.5,316.3 212.5,314C212.5,312.55 213.25,312 215.3,312C216.9,312 217,313.85 215.4,314.15C214.75,314.25 216.65,314.25 219.55,314.1C222.45,313.95 225.45,314 226.2,314.2C227.4,314.5 227.5,314.75 227.5,317C227.5,320.05 226.7,321.95 225.15,322.3C224.5,322.5 221.8,322.8 219.1,323L214.25,323.35L219.35,323.45C223.85,323.5 224.55,323.6 225,324.45C225.75,325.9 225.6,329.75 224.8,330.45C222.85,332.1 211,333.25 211,331.8ZM219,312.8C219,312.4 220.1,311.85 221.9,311.45C224.2,310.9 224.8,310.55 224.9,309.65C225.1,308.1 222.95,306 221.15,306C219,306 217.5,305.45 217.5,304.7C217.5,303.8 221.6,303.75 224,304.55C226.35,305.4 227.9,309.8 226.6,311.9C225.65,313.35 219,314.15 219,312.8ZM211.9,305.15C211.4,305.05 211,304.6 211,304.2C211,303.7 211.7,303.5 213.75,303.5C216.15,303.5 216.5,303.6 216.5,304.5C216.5,305.35 216.2,305.5 214.65,305.45C213.6,305.4 212.35,305.3 211.9,305.15ZM201.8,304.2C195.3,303.2 185.95,300.8 180.6,298.8C167.35,293.85 159.3,285.3 157.6,274.3C157,270.65 157.55,269.4 159.6,269.6C161.15,269.75 161.2,269.8 162.5,274.75C164.55,282.65 166.5,285.6 172,289.25C181.05,295.25 194.35,299.3 209,300.45C214.6,300.85 215.2,300.8 214.8,299.7C214.65,299.25 214.9,299 215.5,299C216.3,299 216.5,299.35 216.5,300.75L216.5,302.5L213.25,302.5C208.8,302.5 201.25,301.65 195.55,300.45C192.95,299.9 190.75,299.6 190.65,299.7C190.15,300.15 205.1,303 208.15,303C209.65,303 210,303.2 210,304C210,305.2 208.5,305.25 201.8,304.2ZM168,287.5C168,286.8 167.65,286.5 166.9,286.5C165.9,286.5 165.85,286.55 166.75,287.5C167.25,288.05 167.75,288.5 167.85,288.5C167.9,288.5 168,288.05 168,287.5ZM160.6,275.65C160.15,273.65 159.6,272 159.45,272C159.1,272 159.7,275.2 160.55,277.9C161.45,280.65 161.45,279.5 160.6,275.65ZM259.7,296.55C256,294.9 253,290.25 253.6,287.15C253.75,286.35 254.45,286.25 262.15,286.1C269.05,286 270.5,286.1 270.5,286.7C270.5,287.75 268.85,288 261.9,288C256.85,288 255.5,288.15 255.5,288.7C255.5,289.8 259.6,294.1 261.35,294.8C263.3,295.65 268.85,295.7 270.85,294.95C274.3,293.65 278.35,287.5 275.75,287.5C275.35,287.5 275,287.3 275,287C275,286.75 275.8,286.5 276.75,286.5C278.35,286.5 278.5,286.65 278.5,287.95C278.5,289.7 277.55,292.5 276.95,292.5C276.7,292.5 276.5,292.8 276.5,293.2C276.5,294.25 273.75,296.4 271.6,297C268.5,297.85 262.05,297.6 259.7,296.55ZM210.45,287.4C210.45,287.05 210.35,286.25 210.2,285.65C210.05,284.75 210.25,284.5 211,284.5C211.8,284.5 212,284.85 212,286.25C212,287.45 211.75,288 211.25,288C210.85,288 210.5,287.7 210.45,287.4ZM128.25,268.8C126,268.1 124,266.95 124,266.4C124,265.75 126.4,265.95 129.05,266.8C131.55,267.65 136,267.4 136,266.45C136,266.2 136.3,266 136.65,266C137.35,266 139,262.5 139,260.95C139,259.95 140,258.8 142.2,257.25C142.85,256.75 143.2,255.75 143.4,254.05C143.55,252.1 143.9,251.35 144.8,250.75C145.75,250.15 146,249.55 146,248.05C146,246.35 146.15,246.15 147,246.35C149.15,246.9 148.65,251.15 146.2,252.75C145.25,253.35 145.05,253.8 145.3,254.8C145.65,256.25 143.6,259.75 142.05,260.25C141,260.55 140.8,261.05 140.3,264.05C139.55,268.3 133.85,270.55 128.25,268.8ZM250.15,265.25L248.75,264.05L250.65,264C252.3,264 252.5,264.15 252.5,265.25C252.5,266.8 251.95,266.85 250.15,265.25ZM210.15,264.65C211.3,258.5 214.4,250 215.45,250C216.4,250 216.05,252.65 214.55,256.5C213.75,258.55 212.8,261.55 212.45,263.15C211.9,265.4 211.55,266 210.85,266C210.05,266 209.95,265.75 210.15,264.65ZM280.9,264.65C279.85,263.4 278.5,260.7 278.5,259.75C278.5,259.35 278.95,259 279.5,259C280.3,259 280.5,259.35 280.5,260.5C280.5,261.5 280.75,262 281.25,262C281.75,262 282,262.55 282,263.75C282,265.75 281.95,265.8 280.9,264.65ZM247.5,261.55C246.7,260 246.9,259 248,259C248.8,259 249,259.35 249,260.75C249,262.7 248.3,263.05 247.5,261.55ZM215.5,249.05C215.5,248.3 220.25,241.4 223,238.1C229.5,230.35 241.5,223.3 253.3,220.3C257.3,219.25 258,219.3 258,220.45C258,221.25 257.45,221.55 255.15,222C251.7,222.7 243.55,225.9 240.15,227.8C238.85,228.55 236.9,229.65 235.85,230.2C234.8,230.8 233,232.05 231.85,233C229.3,235.1 222.2,242.2 221.95,242.85C221.85,243.1 220.85,244.7 219.75,246.4C218.3,248.65 217.45,249.5 216.65,249.5C216,249.5 215.5,249.3 215.5,249.05ZM195,209.45C193.75,209.2 191.2,208.25 189.25,207.25C182.1,203.65 177.75,197.5 181.3,195.9C182.5,195.35 182.7,195.5 185.2,198.3C188.35,201.8 191.55,203.7 195.9,204.5C203.05,205.9 209.25,203.7 213.45,198.35C215.25,196.05 215.95,195.5 216.9,195.6C219.05,195.85 219.4,197.2 218.05,199.75C214.1,207.2 204.4,211.3 195,209.45ZM213.5,201.75L214.65,200.5L213.35,200.5C212.25,200.5 212,200.75 212,201.75C212,202.45 212.05,203 212.15,203C212.25,203 212.85,202.45 213.5,201.75ZM206.5,206.55C207.75,206 208.3,205.6 207.75,205.8C204.3,206.8 200.25,207.1 196.6,206.6C194.45,206.3 192.3,205.9 191.75,205.75C190.75,205.45 190.75,205.45 191.7,206.05C195.1,208.15 202.6,208.45 206.5,206.55ZM186.5,202.65C186.1,202.5 185.35,202.05 184.9,201.6C184.1,200.9 184,200.95 184,201.9C184,202.8 184.3,203 185.65,202.95C186.5,202.95 186.9,202.8 186.5,202.65ZM169.35,186.15C168.15,185 170.05,178.85 172.55,175.85C177.25,170.1 186.15,169.4 191.9,174.25C194.4,176.45 196.5,180.5 196.5,183.25C196.5,185.55 195.85,186.5 194.2,186.5C192.8,186.5 192.4,185.9 191.35,182.5C190.8,180.7 189.9,179.1 188.75,178C187.15,176.45 186.65,176.25 183.6,176.1C180.7,175.95 180,176.1 178.5,177.1C176.55,178.4 174.6,181.05 174.2,182.95C173.65,185.3 172.55,186.5 171.05,186.5C170.3,186.5 169.5,186.35 169.35,186.15ZM183.35,174C185.75,174 186.55,173.85 186,173.5C185.6,173.25 184.35,173 183.25,173C181.15,173 176.5,174.4 176.5,175.05C176.5,175.3 177.3,175.1 178.25,174.7C179.2,174.35 181.5,174 183.35,174ZM172,183.5C172,182.95 172.35,181.7 172.7,180.75C173.75,178.25 173.15,178.6 172,181.15C170.9,183.5 170.75,184.5 171.5,184.5C171.8,184.5 172,184.05 172,183.5ZM193.65,180.25C192.3,176.95 192,177.55 193.15,181.15C193.75,182.9 194.3,183.85 194.4,183.35C194.5,182.85 194.15,181.45 193.65,180.25ZM203.05,185.95C202,185.55 201.9,185.25 202.1,183.3C202.8,177.15 207.75,171.9 213.55,171.15C215.3,170.9 215.5,171 215.5,171.95C215.5,172.7 215.2,173 214.4,173C213.75,173.05 212.75,173.3 212.15,173.65C211.25,174.15 211.8,174.25 215.75,174.25C219.7,174.25 220.25,174.15 219.35,173.65C218.75,173.3 217.75,173.05 217.15,173C216.35,173 216,172.7 216,172C216,171.25 216.35,171 217.45,171C222.15,171 228.3,176.8 229.7,182.7C230.2,184.7 228.9,186.5 227,186.5C225.8,186.5 225.45,186.25 225.2,185.15C224.25,180.65 222.65,178.1 220.05,176.8C214.7,174.1 209.1,176.9 207.25,183.25C206.8,184.75 206.25,186 206,186C205.75,186 205.3,186.1 204.9,186.2C204.55,186.35 203.7,186.2 203.05,185.95ZM205.2,183.15C205.3,182.65 205.6,181.5 205.75,180.55C205.95,179.55 206.95,178 208.25,176.7C209.45,175.55 210.05,174.7 209.65,174.85C208.65,175.25 206.5,177.4 206.5,178C206.5,178.3 206.3,178.5 206.1,178.5C205.75,178.5 204,182.75 204,183.65C204,184.35 204.95,184 205.2,183.15ZM227,181.65C226.45,180.8 226.45,180.8 226.7,181.65C226.85,182.15 227.05,182.95 227.05,183.4C227.1,184.15 227.15,184.15 227.35,183.4C227.45,182.9 227.3,182.15 227,181.65ZM299.65,154.15C296.55,153.9 295.95,152.75 298.7,152.2C301.3,151.75 305.5,152.85 305.5,154C305.5,154.5 304.9,154.5 299.65,154.15ZM334.4,154.15C331.4,153.95 330.8,153.4 332.45,152.5C333.85,151.8 336.75,151.9 338.75,152.7C340.95,153.65 341,154.55 338.9,154.4C338,154.35 335.95,154.25 334.4,154.15Z" style="fill:rgb(165,99,110);"/>
                </g>
                <g transform="matrix(2.00091,0,0,2.00091,10499.4,-1789.35)">
                    <path d="M209.15,339.45C208.8,339.1 208.5,337.95 208.5,336.9C208.5,335.55 208.3,335 207.75,335C207.35,335 207,334.8 207,334.55C207,334.05 208.95,333.7 214.75,333.3C219.45,332.95 222.7,331.75 224.8,329.7C226.45,328.05 226.45,327.9 226.2,325.05C225.9,322.55 226,321.85 226.95,320.6C228.2,318.85 228.3,316.9 227.25,316C226.35,315.25 226.3,312.95 227.1,310.7C227.55,309.35 227.5,308.85 226.7,307.5C225.25,305 221.4,303.1 217.1,302.7C214.55,302.45 213.5,302.15 213.5,301.7C213.5,301.3 213.85,301 214.25,301C215.3,301 215.2,300.6 213.55,296.95C212.75,295.2 211.75,292.05 211.25,290C210.8,287.95 210.15,285.45 209.85,284.5C209.6,283.55 209.35,279.35 209.4,275.25C209.45,266.8 210.55,261.05 213.7,253.25C215.1,249.75 218.9,243.35 220,242.5C220.2,242.35 220.45,242 220.55,241.65C220.95,240.4 225.85,235.3 229.25,232.55C234.2,228.55 238.8,225.85 245.3,223.25C253.25,220.05 257.35,219.25 265.5,219.3C269.5,219.3 274.05,219.6 275.65,219.9C277.75,220.3 278.9,220.35 279.6,219.95C280.4,219.5 280.8,219.6 281.55,220.45C282.1,221.05 282.75,221.5 283.05,221.5C284.05,221.5 291.75,225.05 295.25,227.15C301.35,230.8 303.7,232.65 307.05,236.4C314.45,244.9 318,251.45 321.3,262.7C322.3,266.2 322.55,268.1 322.55,273.1C322.6,282.9 321.3,289.45 317.7,297.9C316.8,300.05 316.8,301.05 317.75,300.7C318.25,300.5 318.5,300.7 318.5,301.4C318.5,302.3 318.05,302.45 314.15,302.75C308,303.2 304.8,303.9 303.25,305.1C301.5,306.45 299.9,309.7 300.6,310.4C301.2,311 300.9,314.95 300.1,317.4C299.65,318.8 299.7,319.2 300.8,320.45C302.15,322.05 302.3,323.4 301.45,325.75C300.95,327.05 301,327.55 301.7,328.6C303.7,331.65 310.8,334 318.05,334C321.45,334 322.45,334.15 322.7,334.75C322.9,335.25 322.65,335.5 322,335.5C320.8,335.5 320.8,335.45 321.8,337.45C322.25,338.35 322.45,339.2 322.25,339.4C322.05,339.6 296.7,339.8 265.85,339.9C221.4,340 209.6,339.9 209.15,339.45ZM272.2,296.8C275.5,295.15 277.65,292.6 278.75,288.85C279.3,287 279.35,286.15 278.95,285.65C278.5,285.15 275.75,285 266.05,285C250.8,285 251.1,284.9 253.4,289.65C257.3,297.6 264.8,300.45 272.2,296.8ZM256,278.1C258.05,277.15 261.7,273.5 262.85,271.3C263.85,269.4 264.4,261.5 263.55,261.5C263.25,261.5 263,261.7 263,262C263,262.95 259.8,266.05 258.05,266.8C255.95,267.7 253,267.35 253,266.25C253,265.7 253.6,265.5 255.25,265.5C256.5,265.5 257.5,265.3 257.5,265C257.5,264.75 258.05,264.5 258.75,264.5C259.65,264.5 260,264.25 260,263.55C260,263 260.4,261.95 260.85,261.15C261.65,259.75 261.6,259.55 260.55,257.3C259.2,254.6 256.5,252.5 254.25,252.5C252.55,252.5 249.85,254.65 249.3,256.4C248.85,257.7 247,257.9 247,256.7C247,255.45 248.85,252.7 250.65,251.2L252.25,249.9L249.25,250.25C243.6,250.9 239.55,253.5 237.25,258.05C234.65,263.1 235.3,268.75 238.95,273.4C243.3,278.85 250.3,280.8 256,278.1ZM288.1,277.65C290.9,276.15 293.75,273.15 294.85,270.6C295.3,269.5 295.5,267.55 295.4,264.85L295.25,260.75L294.1,262.9C292.35,266.15 288,268.4 288,266C288,265.4 288.35,265 288.8,265C289.8,265 291.3,263.3 292.3,261.05C293,259.5 293,259.25 291.9,257.05C290.7,254.6 287.8,252.5 285.6,252.5C284.25,252.5 280.5,255.9 280.5,257.15C280.5,257.65 280.1,258 279.5,258C278.95,258 278.5,257.65 278.5,257.25C278.5,255.65 280.6,252.4 282.3,251.4C283.2,250.85 284,250.3 284,250.15C284,249.55 277.1,250.65 275.45,251.55C274.45,252.05 272.6,253.6 271.3,255C266.6,260.25 266.3,267.1 270.45,273.2C272.4,276.05 274.85,277.7 278.5,278.7C282,279.7 284.95,279.35 288.1,277.65Z" style="fill:rgb(18,143,71);"/>
                </g>
                <g transform="matrix(2.00091,0,0,2.00091,10499.4,-1789.35)">
                    <path d="M198.9,334.65C198.4,334.55 198,334.1 198,333.7C198,333.2 198.7,333 200.75,333C203.15,333 203.5,333.1 203.5,334C203.5,334.85 203.2,335 201.65,334.95C200.6,334.9 199.35,334.8 198.9,334.65ZM193,334.15C192.3,334.05 189.5,333.6 186.75,333.2C180.55,332.25 166.9,328.55 160.85,326.2C148.2,321.35 137.3,313.05 133.2,305.3C131.65,302.35 131.8,301 133.7,301C134.65,301 135.35,301.6 136.55,303.4C139.55,307.75 141.2,309.55 145.15,312.8C155.45,321.2 171.4,326.8 194.9,330.3C195.8,330.45 196.5,330.85 196.5,331.25C196.5,331.65 195.85,332 194.9,332.15C193.45,332.3 193.55,332.35 195.4,332.4C197.15,332.5 197.5,332.65 197.5,333.5C197.5,334.5 196.35,334.7 193,334.15ZM197.5,331.5C197.5,330.45 198.65,330.2 200.9,330.8C202.95,331.35 202.2,332.5 199.75,332.5C197.85,332.5 197.5,332.35 197.5,331.5ZM215,331.8C215,331.1 215.55,330.9 219.65,330.2C221.25,329.95 221.5,330 221.5,330.9C221.5,331.65 221.05,331.95 219.2,332.2C215.75,332.65 215,332.6 215,331.8ZM224,327.25C224,326.85 223.55,326.05 223,325.5L222,324.5L223.75,324.5C225.4,324.5 225.5,324.6 225.5,326.25C225.5,327.45 225.25,328 224.75,328C224.35,328 224,327.65 224,327.25ZM219,322.3C219,321.95 219.5,321.5 220.15,321.3C222.2,320.75 223,320.95 223,322C223,322.85 222.65,323 221,323C219.65,323 219,322.8 219,322.3ZM226,316.75C226,316.35 225.45,315.9 224.75,315.7C222.8,315.2 223.2,314 225.25,314C226.9,314 227,314.1 227,315.75C227,316.7 226.8,317.5 226.5,317.5C226.25,317.5 226,317.15 226,316.75ZM212.75,315.15C212.6,314.65 212.7,314.2 212.95,314.1C213.25,314 213.5,313.6 213.5,313.25C213.5,312.9 214,312.5 214.65,312.3C216.7,311.75 217.5,311.95 217.5,313C217.5,313.8 217.85,314 219,314C220.8,314 221.05,315.25 219.4,315.7C217.3,316.25 216.5,316.05 216.5,315C216.5,314.45 216.15,314 215.75,314C215.35,314 215,314.45 215,315C215,316.25 213.25,316.35 212.75,315.15ZM220.5,312.8C220.5,312.15 221.9,311.5 223.4,311.5C223.7,311.5 224,311.95 224,312.5C224,313.3 223.65,313.5 222.25,313.5C221.1,313.5 220.5,313.25 220.5,312.8ZM214.4,305.15C212.6,304.7 213.4,303.5 215.5,303.5C217.15,303.5 217.5,303.65 217.5,304.5C217.5,305.5 216.5,305.7 214.4,305.15ZM205.3,304.45C196.1,303.4 181.5,299.5 175.75,296.6C165.95,291.7 159.4,283.6 157.9,274.65C157.25,270.8 157.65,269.5 159.55,269.5C160.75,269.5 161.05,270.05 162.35,275.15C164.4,283.25 167.75,287.4 175.9,291.85C182.7,295.55 191.75,298.25 204.15,300.25C206.35,300.6 206.65,301.85 204.65,302.15C203.35,302.35 203.35,302.35 204.9,302.45C206.2,302.5 206.5,302.3 206.5,301.5C206.5,300.8 206.85,300.5 207.65,300.5C211.25,300.55 212.35,302.3 208.9,302.65C206.85,302.8 206.85,302.85 209.4,302.9C211.65,303 212,303.15 212,304C212,305.1 211.35,305.15 205.3,304.45ZM267.5,296.8C267.5,296.15 268.9,295.5 270.4,295.5C270.7,295.5 271,295.95 271,296.5C271,297.3 270.65,297.5 269.25,297.5C268.1,297.5 267.5,297.25 267.5,296.8ZM253.5,288.75C253.5,287.05 253.55,287 255.4,287.05C257,287.05 257.1,287.1 256.15,287.5C255.15,287.9 255.1,288.15 255.5,289.25C255.95,290.4 255.85,290.5 254.75,290.5C253.65,290.5 253.5,290.3 253.5,288.75ZM127.95,268.55C124.7,267.55 123.35,266 125.75,266C128.1,266 131,267.2 131,268.1C131,269.05 130.1,269.2 127.95,268.55ZM133,268.15C133.05,267.6 133.95,266.85 135.45,266.15C137.45,265.2 137.95,264.65 138.4,263.05C138.75,262 139,260.65 139,260.05C139,259.2 139.3,259 140.75,259C142.35,259 142.5,258.9 142.5,257.5C142.5,256.25 142.7,256 143.75,256C145.55,256 145.3,256.9 142.75,259.3C141.3,260.65 140.5,261.8 140.5,262.55C140.5,264.45 138.8,267.1 136.95,268.1C134.75,269.25 133,269.3 133,268.15ZM145.5,251.05C145.5,250.2 145.75,249.5 146,249.5C146.3,249.5 146.5,248.85 146.5,248C146.5,246.3 147.2,246.05 148,247.5C148.4,248.25 148.3,248.9 147.65,250.35C146.5,252.75 145.5,253.05 145.5,251.05ZM193.5,208.8C188.3,207.3 182.25,203.05 181.05,200.05C180.1,197.8 180.5,196.3 182.05,196.1C183.1,196 183.6,196.3 184.45,197.7C186.75,201.35 191.45,204.05 197.05,204.95C203.55,206 208.4,204.15 213.25,198.85C215.8,196.05 216.6,195.45 217.45,195.75C221,196.85 215.2,204.85 208.55,207.9C206.2,209 204.9,209.25 200.75,209.35C197.75,209.4 194.85,209.2 193.5,208.8ZM169.8,185.75C167.45,183.35 172.45,174.6 177.5,172.35C180.25,171.1 185.4,171.05 188.15,172.2C192.35,174.05 195.7,178.35 196.3,182.7C196.6,184.7 196.5,185 195.3,185.75C193.55,186.9 192.75,186.2 191.7,182.7C189.85,176.35 184.55,173.8 179,176.6C176.5,177.85 174.8,180.1 173.9,183.2C173.25,185.6 173.1,185.8 171.7,186.2C171,186.4 170.3,186.25 169.8,185.75ZM226.15,186.15C225.8,186.05 225.5,185.45 225.5,184.85C225.5,183.4 223.4,178.95 222.2,177.9C220.7,176.6 217.75,175.5 215.7,175.5C211.95,175.5 207.85,178.85 207.2,182.5C206.7,185.25 206.1,186 204.5,186C202.6,186 202.05,184.9 202.55,182.2C203.35,177.9 205.8,174.65 209.7,172.65C213.1,170.85 218.2,170.75 221.35,172.4C224.3,173.9 226.9,176.65 228.3,179.7C229.8,182.95 229.85,184.7 228.4,185.7C227.2,186.55 227.1,186.55 226.15,186.15Z" style="fill:rgb(59,27,40);"/>
                </g>
                <g transform="matrix(2.00091,0,0,2.00091,10499.4,-1789.35)">
                    <path d="M201.5,334.75C197.5,334.4 191.65,333.75 188.5,333.3C182.55,332.45 168.4,328.85 162.25,326.65C157.45,324.9 149.9,321.05 146,318.3C138.7,313.2 130.95,303.65 132.5,301.75C133.65,300.4 134.75,301 136.75,304.05C137.85,305.75 140.65,308.9 143,311.1C149.95,317.65 157.45,321.45 171.5,325.7C182.9,329.1 191.9,330.5 204.75,330.85C218.25,331.2 223.55,330.3 223.9,327.6C224.25,325.4 223.3,325 217.65,325L212.45,325L212.6,323.4L212.75,321.75L217.75,321.45C223.9,321.1 224.75,320.85 225.5,319C226.75,315.95 226.4,315.75 219.55,315.75C214.4,315.75 213.3,315.6 212.85,314.95C211.6,313 214,312 219.75,312C222.2,312 224.8,311.2 225.15,310.3C225.3,309.95 225.1,309 224.75,308.15C223.9,306.15 222.4,305.7 213.5,305C178.9,302.15 161.3,292.35 157.95,274.1C157.3,270.75 157.6,270 159.4,270C160.85,270 160.9,270.15 161.95,274.4C163.5,280.5 165.05,283.65 168,286.5C176.4,294.65 192.85,299.95 213.1,300.95C221.45,301.35 222.05,301.45 224.55,302.8C226,303.6 227.6,304.9 228.1,305.75C229.1,307.4 229.3,311 228.45,312.55C228.05,313.35 228.1,313.8 228.75,314.5C230.05,315.95 229.9,320.05 228.5,322C227.55,323.35 227.45,323.75 227.95,324.85C228.8,326.75 228.1,329.35 226.2,331.25C223.7,333.75 220.8,334.55 211.4,335.2C209.95,335.3 205.5,335.1 201.5,334.75ZM186,299.25C186,298.85 183.4,297.95 183.1,298.25C182.95,298.35 183.4,298.7 184.05,298.95C185.45,299.5 186,299.6 186,299.25ZM163.9,283.7C164,282.3 163.15,280.35 162.6,280.7C162.4,280.85 162.2,280.35 162.15,279.6C162.05,277.55 160.85,273.3 160.3,272.9C160,272.7 159.95,272.5 160.15,272.5C160.4,272.5 160.4,272.25 160.25,272C160,271.6 159.7,271.65 159.25,272C158.45,272.7 158.7,276.15 159.7,277.75C160.05,278.3 160.6,279.75 160.95,281C161.45,282.8 162.25,283.95 163.75,285C163.75,285 163.85,284.4 163.9,283.7ZM199.4,300.7C198.8,300.15 195.9,299.9 196.25,300.45C196.4,300.75 197.25,301 198.1,301C198.95,301 199.55,300.85 199.4,300.7ZM178,295.15C178,294.4 178.1,294.35 178.5,295C178.85,295.55 179,295.6 179,295.1C179,294.7 178.55,294.3 178,294.15C177.45,294 177,293.7 177,293.45C177,293.2 176.1,293 175,293C173.45,293 173.1,293.15 173.3,293.75C173.5,294.15 173.8,294.5 174.1,294.5C174.35,294.5 174.4,294.2 174.25,293.9C174.05,293.55 174.25,293.65 174.7,294.2C175.1,294.7 175.7,294.95 175.95,294.75C176.25,294.6 176.65,294.8 176.8,295.2C177.2,296.25 178,296.2 178,295.15ZM145.25,315C145.55,314.5 144.9,313.8 140.65,310C139.6,309.05 138.15,307.55 137.5,306.7C136.8,305.8 135.7,305 135,304.8C134.3,304.65 134.05,304.65 134.4,304.8C134.7,304.95 135,305.4 135,305.75C135,306.15 135.45,306.7 136.05,307C136.6,307.35 136.95,307.7 136.8,307.85C136.7,308 137.05,308.6 137.65,309.25C143.95,315.85 144.5,316.25 145.25,315ZM169,288.9C169,288.65 168.6,288.3 168.15,288.15C166.9,287.7 166.15,286.85 166.35,286.25C166.45,285.95 166.1,285.7 165.6,285.7C164.8,285.7 164.7,285.95 165,287C165.2,287.7 165.6,288.2 165.95,288.15C166.25,288.05 166.5,288.35 166.5,288.75C166.5,289.2 166.8,289.35 167.25,289.2C167.85,288.95 167.95,289.1 167.65,289.8C167.35,290.65 167.4,290.65 168.15,290.05C168.6,289.7 169,289.15 169,288.9ZM192.7,300.15C192.85,299.45 192.6,299.2 191.6,299.1C190.9,299.05 190.1,298.7 189.85,298.35C189.5,297.9 189.35,297.9 189.15,298.4C189.05,298.7 188.5,299 187.95,299C187.45,299 187,299.25 187,299.5C187,299.8 187.4,300 187.9,300C188.4,300 189,300.2 189.3,300.45C189.7,300.85 192,301.4 192.4,301.2C192.45,301.15 192.6,300.7 192.7,300.15ZM151.6,318.4C151.3,318.1 151.2,318.35 151.25,319.1C151.4,320.7 151.6,320.9 151.85,319.8C152,319.3 151.9,318.7 151.6,318.4ZM148.7,317.6C148.8,317.4 148.5,317.15 147.95,317.15C147.45,317.1 147,317.25 147,317.55C147,318.1 148.35,318.15 148.7,317.6ZM160.9,323.3C160.8,323.25 160.3,322.9 159.8,322.5C159.15,322 158.95,322 159.2,322.4C159.4,322.75 159.3,323 158.9,323C158.4,323 158.4,323.1 158.95,323.45C159.35,323.7 159.95,323.8 160.35,323.65C160.75,323.5 161,323.35 160.9,323.3ZM157,322C156.3,321.8 156.1,321.55 156.5,321.55C157.15,321.5 157.15,321.4 156.5,321.05C156.1,320.75 155.6,320.7 155.4,320.8C155.2,320.95 155,320.8 155,320.55C155,320.25 154.55,320 154.05,320C153.5,320 152.95,319.7 152.85,319.4C152.65,318.95 152.55,319 152.55,319.5C152.5,320.6 153.5,321.9 153.8,321.15C154,320.65 154.2,320.65 154.75,321.15C155.1,321.5 155.3,321.9 155.15,322.15C155.05,322.35 155.7,322.5 156.6,322.45C158.15,322.4 158.2,322.4 157,322ZM308.5,334.6C301.1,332.65 297.5,328.55 299.7,324.5C300.35,323.4 300.3,323.15 299.2,321.85C297.8,320.2 297.7,318.45 298.8,315.15C299.4,313.35 299.5,312.6 299.05,311.9C298.25,310.6 298.4,308.7 299.5,306.55C301.45,302.65 303.15,302.05 314.75,301C323.4,300.25 327.05,299.7 334.5,298C353.05,293.8 362.55,286.6 365.3,274.65C366.4,269.7 366.45,269.65 367.6,269.3C372.1,268.15 369.95,279.15 364.15,287.15C359.95,292.9 349.7,298.65 338.25,301.65C331.15,303.5 325.6,304.35 314.75,305.25C304.25,306.15 303,306.55 303,309.05C303,310.95 304.7,311.75 310,312.2C315,312.65 315.5,312.85 315.5,314.2C315.5,316.4 314.5,316.65 308.25,316.3C303.15,315.95 302.45,316 302.2,316.75C301.75,317.85 302.85,319.75 304.35,320.45C305,320.75 306.85,321 308.4,321.05C309.95,321.05 312.15,321.2 313.25,321.4C315.05,321.7 315.25,321.95 315.4,323.3C315.55,324.75 315.4,324.9 313.65,325.15C312.6,325.35 309.9,325.5 307.6,325.5C303.6,325.5 303.45,325.55 303.6,326.6C303.8,328.05 306.75,329.7 310.55,330.5C314.35,331.3 329.75,330.9 336.9,329.75C343.3,328.75 358.5,325 363.5,323.25C374.8,319.2 383.7,313 389.3,305.4C392.75,300.7 394.05,300 395.05,302.2C395.8,303.85 393.75,307.65 389.85,311.85C380.45,321.9 364.65,328.9 341.55,333.2C328.9,335.6 314.6,336.2 308.5,334.6ZM260.15,299.2C259,298.75 257.05,297.55 255.8,296.45C251.6,292.75 249,285.35 251.45,284C252.05,283.7 257.65,283.5 266.15,283.5C281.9,283.5 281.35,283.35 280.85,287.6C279.9,295.4 274.25,300.05 265.85,299.95C263.9,299.95 261.3,299.6 260.15,299.2ZM271.5,294.9C273.75,293.75 276.3,290.65 276.6,288.75C276.75,287.8 276.45,287.75 266.3,287.6C260.15,287.55 255.6,287.7 255.35,287.95C254.3,289 258.4,293.85 261.5,295.2C264.2,296.35 268.85,296.2 271.5,294.9ZM127.1,268C124,266.9 121.4,265.45 121.15,264.75C121.1,264.45 121.5,263.6 122.15,262.85L123.25,261.45L127,263.2C131.3,265.25 132.55,265.4 134.55,263.95C136.4,262.65 136.4,262.15 134.4,261.75C130.85,261 126,257.35 126,255.4C126,253.9 127.2,253.85 129.85,255.2C131.2,255.85 133.7,256.7 135.4,257.05C138.4,257.65 138.5,257.65 139.75,256.5C141.45,254.9 141.3,254.2 139.15,253.45C135.9,252.45 131.55,250.05 131,249.05C130.35,247.8 130.35,246.15 131.05,245.75C131.3,245.55 133.3,246.25 135.4,247.3C140.2,249.7 141.95,249.75 144.2,247.55C145.65,246.15 146.05,246 146.95,246.45C147.6,246.8 148,247.55 148,248.3C148,249.9 146.75,252.3 145.75,252.65C145.25,252.85 145,253.6 145,254.8C145,256.85 143.15,259.7 141.55,260.25C140.9,260.45 140.55,261.15 140.35,262.55C140,265.3 138.8,266.9 136.35,268.05C133.7,269.25 130.5,269.25 127.1,268ZM252.5,266.65C249.35,265.45 247.05,261.9 247,258.25C247,255.65 249.1,252.3 251.4,251.2C256.4,248.85 263,253.75 263,259.8C263,262.15 261.15,265.15 259,266.25C257.6,267 254,267.2 252.5,266.65ZM283,265.9C276.85,262.7 277.3,253.25 283.75,251.1C288.6,249.5 294.45,253.95 294.5,259.4C294.55,265.45 288.6,268.8 283,265.9ZM183.05,202.2C181.1,200 180.1,197.55 180.75,196.5C181.4,195.4 182.85,196.1 184.95,198.55C186.3,200.1 186.75,200.9 186.1,200.55C185.55,200.25 184.6,199.35 184,198.5C182.7,196.65 182.1,196.6 181.7,198.25C181.45,199.3 181.8,200.05 183.45,202C186.1,205.15 185.8,205.3 183.05,202.2ZM319,190.75C313.8,189.7 310,187.8 310,186.25C310,185.95 310.3,185.3 310.65,184.8C311.25,183.95 311.55,184 316.25,185.25C320.65,186.45 321.85,186.6 326.75,186.35C335,186 340.2,183.95 346.2,178.65C348.85,176.3 350.65,175.9 351.5,177.5C352.25,178.85 351.6,179.9 348.4,182.65C343.5,186.75 337.85,189.35 330.6,190.8C326.2,191.65 323.4,191.65 319,190.75ZM170.15,185.65C169.45,185.4 169.25,182.7 169.9,182.3C170.1,182.15 170.25,182.7 170.2,183.55C170.1,185.1 171.25,185.55 172.4,184.4C172.85,183.95 173,184 173,184.6C173,185.7 171.55,186.25 170.15,185.65ZM202.85,185.2C202.65,185 202.5,184.25 202.55,183.55L202.6,182.25L203.1,183.65C203.7,185.3 205.8,185.55 206.15,184C206.35,183.15 206.35,183.2 206.3,184.1C206.25,185 205.9,185.3 204.75,185.4C203.9,185.5 203.05,185.4 202.85,185.2ZM203.25,180.75C203.6,179.2 203.85,178.7 204.2,179.05C204.3,179.15 204.05,179.95 203.65,180.75L202.95,182.25L203.25,180.75ZM174.5,179.6C174.5,179.35 175.1,178.65 175.85,177.95L177.15,176.75L176,178.4C174.75,180.05 174.5,180.3 174.5,179.6ZM207.95,179.1C208.2,178.6 208.85,177.85 209.3,177.45C209.85,177 209.75,177.35 209,178.4C207.7,180.15 207.2,180.5 207.95,179.1ZM204.9,177.2C205.4,176.2 207,174.6 207,175.1C207,175.25 206.4,176 205.7,176.8C204.85,177.75 204.6,177.9 204.9,177.2ZM173.1,176C174.05,174.45 177.2,172.45 176.7,173.7C176.55,174.15 176.15,174.5 175.85,174.5C175.55,174.5 174.65,175.1 173.8,175.9C172.35,177.25 172.3,177.25 173.1,176ZM192.25,176C191.75,175.45 191.6,175 191.9,175C192.2,175 192.7,175.45 193,176C193.3,176.55 193.45,177 193.35,177C193.25,177 192.75,176.55 192.25,176ZM208,174.1C208,173.65 210.5,172.35 210.8,172.65C210.9,172.75 210.3,173.2 209.5,173.7C208.65,174.15 208,174.35 208,174.1ZM211.8,171.9C211.95,171.7 213.7,171.55 215.65,171.55C219.7,171.6 219.3,171.85 214.65,172.15C212.95,172.25 211.65,172.15 211.8,171.9ZM181.4,171.65C182.3,171.55 183.65,171.55 184.4,171.65C185.15,171.75 184.4,171.85 182.75,171.85C181.1,171.85 180.5,171.75 181.4,171.65ZM297.45,168C293.85,166.1 291.55,161.8 292.25,158.4C292.45,157.55 293.4,156 294.35,154.95C299.5,149.25 308.7,152.95 308.7,160.75C308.7,167.1 302.85,170.85 297.45,168ZM332.25,168.2C325.45,164.5 325.15,156.4 331.65,153.05C333.95,151.9 334.3,151.85 336.9,152.4C340.3,153.1 342.2,154.8 343.3,158.1C344.4,161.4 343.6,164.7 341.2,167.05C339.75,168.45 339.1,168.7 336.65,168.85C334.65,168.95 333.3,168.75 332.25,168.2Z" style="fill:rgb(31,33,33);"/>
                </g>
            </g>
        </g>
    </g>
</svg>
