<?xml version="1.0" encoding="UTF-8" standalone="no"?>
<!DOCTYPE svg PUBLIC "-//W3C//DTD SVG 1.1//EN" "http://www.w3.org/Graphics/SVG/1.1/DTD/svg11.dtd">
<svg width="100%" height="100%" viewBox="0 0 485 528" version="1.1" xmlns="http://www.w3.org/2000/svg" xmlns:xlink="http://www.w3.org/1999/xlink" xml:space="preserve" xmlns:serif="http://www.serif.com/" style="fill-rule:evenodd;clip-rule:evenodd;stroke-linejoin:round;stroke-miterlimit:2;">
    <g transform="matrix(1,0,0,1,-7697.97,-1629.78)">
        <g transform="matrix(1,0,0,1,6691,0)">
            <g transform="matrix(0.369368,0,0,0.369368,-2683,2295.83)">
                <g transform="matrix(4.16667,0,0,4.16667,9714.97,-3641.17)">
                    <path d="M113.2,613.8C111.5,612.1 111.7,602.7 113.6,598C115.1,594.3 115.5,594 119,594C122.6,594 122.9,594.2 124.4,598.7C126.3,604.2 126.5,612.1 124.8,613.8C124.1,614.5 121.5,615 119,615C116.5,615 113.9,614.5 113.2,613.8Z" style="fill:rgb(229,242,246);fill-rule:nonzero;"/>
                </g>
                <g transform="matrix(4.16667,0,0,4.16667,9714.97,-3641.17)">
                    <path d="M319.7,612.6C315,610.9 312.5,608.7 311,604.9C309.6,601.7 308.3,601.2 307.4,603.5C307.1,604.3 305.3,605.9 303.5,607C298.6,610 284.6,609.9 279.9,606.7C275.3,603.6 273,598.7 273,591.8L273,586L276.4,586C279,586 280,586.5 280.5,588.1C281.5,591 285.5,592.7 287.5,591C288.4,590.3 289.5,588.9 290,587.9C291.3,585.6 287.9,581.4 284,580.5C281.4,579.9 281,579.4 281,576.5C281,572.4 282,572 291.8,572C297.7,572 300.3,572.5 302.8,574C306.9,576.5 309.8,581.2 310.6,586.7C311.1,590.1 311.6,591 313.2,591C314.3,591 316.1,592.1 317.2,593.5C319.7,596.7 322.3,596.7 324.9,593.4C326.5,591.4 326.7,590.3 326,588.9C324.6,586.4 321.8,585 318.1,585C315.2,585 315,584.7 315,581.5C315,577 317.3,576 327.7,576C337.3,576 342,578.4 345.1,584.8C346.9,588.4 347.2,590.4 346.8,596C346.2,603.9 343.9,608.6 339.3,611.2C335.1,613.7 324.6,614.4 319.7,612.6Z" style="fill:white;fill-rule:nonzero;"/>
                </g>
                <g transform="matrix(4.16667,0,0,4.16667,9714.97,-3641.17)">
                    <path d="M112.2,579.3C110,578.5 108,573.3 108,568.7C108,566.2 109.4,559.9 111,554.5C112.8,548.8 114,542.5 114,539.4L114,534L126,534L126,537.3C126,539 125.6,542.2 125.1,544.3C124.4,547.2 124.6,549.9 126.1,555.1C127.1,558.9 128,565.1 128,569C128,578.1 126.3,580 118.8,579.9C115.9,579.9 112.9,579.6 112.2,579.3Z" style="fill:rgb(229,242,246);fill-rule:nonzero;"/>
                </g>
                <g transform="matrix(4.16667,0,0,4.16667,9714.97,-3641.17)">
                    <path d="M170.2,578C168.3,576.2 168,574.8 168,568.9C168,565 168.7,559 169.6,555.7C170.7,551.2 171,547.5 170.5,541.9L169.8,534.3L173.7,533.7C181.8,532.3 181.7,532.2 182.3,540.3C182.6,544.2 184,551.1 185.4,555.4C189.3,567.2 188.4,577.5 183.5,579.4C179.8,580.8 172.4,580 170.2,578Z" style="fill:rgb(229,242,246);fill-rule:nonzero;"/>
                </g>
                <g transform="matrix(4.16667,0,0,4.16667,9714.97,-3641.17)">
                    <path d="M309.3,629.8C305.2,628.8 305,628.5 305,625C305,620.1 306.8,618.7 313.9,618.2C319.5,617.8 319.8,617.9 321.9,620.9C323.4,622.9 324,625.1 323.8,627.2C323.5,630.4 323.4,630.5 318.5,630.7C315.8,630.7 311.6,630.3 309.3,629.8Z" style="fill:rgb(239,143,177);fill-rule:nonzero;"/>
                </g>
                <g transform="matrix(4.16667,0,0,4.16667,9714.97,-3641.17)">
                    <path d="M318.3,599.3C315.5,598.2 317,596 320.5,596C323.3,596 324,596.4 324,598C324,600 321.4,600.6 318.3,599.3Z" style="fill:rgb(239,143,177);fill-rule:nonzero;"/>
                </g>
                <g transform="matrix(4.16667,0,0,4.16667,9714.97,-3641.17)">
                    <path d="M104,455.1C104,454.6 105.6,453.3 107.5,452.1L111,450.1L111,453C111,455.8 110.7,456 107.5,456C105.6,456 104,455.6 104,455.1Z" style="fill:rgb(239,143,177);fill-rule:nonzero;"/>
                </g>
                <g transform="matrix(4.16667,0,0,4.16667,9714.97,-3641.17)">
                    <path d="M88.6,781.8C87.2,780.5 86,778.8 85.9,778C85.5,773.8 86.2,770.8 88.5,768.3L90.9,765.5L91,769C91,770.9 90.6,773.1 90.1,773.9C89,775.6 89.9,779 91.5,779C92.7,779 94,781.1 94,783.1C94,784.7 91.2,784 88.6,781.8Z" style="fill:rgb(190,162,119);fill-rule:nonzero;"/>
                </g>
                <g transform="matrix(4.16667,0,0,4.16667,9714.97,-3641.17)">
                    <path d="M124,782.6C124,781.6 124.9,781 126.5,781C127.9,781 129,780.6 129,780C129,779.5 131.2,778.8 133.9,778.4C138.3,777.8 138.9,777.5 139.4,774.8C139.7,773.1 140,769.8 140,767.4C140,763.6 140.3,763 142.1,763C144.2,763 144.2,763.3 143.5,770.2C143.2,774.2 142.6,777.9 142.3,778.3C141.3,779.9 133.7,782.8 128.8,783.5C124.8,784.1 124,784 124,782.6Z" style="fill:rgb(190,162,119);fill-rule:nonzero;"/>
                </g>
                <g transform="matrix(4.16667,0,0,4.16667,9714.97,-3641.17)">
                    <path d="M161.3,781.9C157.5,780.7 154.6,779.1 154,778C153.1,776.3 153.3,776 155.1,776C157.7,776 167.4,779.2 167.8,780.3C168,780.7 169,781 170.1,781C171.1,781 172,781.7 172,782.5C172,784.5 168.9,784.3 161.3,781.9Z" style="fill:rgb(190,162,119);fill-rule:nonzero;"/>
                </g>
                <g transform="matrix(4.16667,0,0,4.16667,9714.97,-3641.17)">
                    <path d="M202,782.5C202,781.7 202.5,781 203,781C203.6,781 204,780.3 204,779.5C204,778.7 204.5,778 205,778C205.6,778 206,776.7 206,775C206,773.4 205.6,772 205,772C204.5,772 204,770.4 204,768.5C204,765.2 203.8,765 200.6,765C198.7,765 196.5,764.3 195.6,763.5C194.8,762.7 193.4,762 192.6,762C191.6,762 191,761.1 191,759.5C191,758.1 190.6,757 190,757C189.5,757 189,754.8 189,752C189,747.6 189.2,747 191.1,747C193.1,747 193.2,747.4 192.7,752.3L192,757.6L195.6,758.9C199.9,760.5 206.5,766.2 208.6,770.1C211,774.9 210.4,779.6 207.1,781.9C203.7,784.4 202,784.6 202,782.5Z" style="fill:rgb(190,162,119);fill-rule:nonzero;"/>
                </g>
                <g transform="matrix(4.16667,0,0,4.16667,9714.97,-3641.17)">
                    <path d="M290,780.2C290,778.7 290.9,778.1 294.6,777.6C301.5,776.7 303,776.8 303,778.4C303,779.8 301.9,780.2 293.8,781.6C290.5,782.1 290,782 290,780.2Z" style="fill:rgb(190,162,119);fill-rule:nonzero;"/>
                </g>
                <g transform="matrix(4.16667,0,0,4.16667,9714.97,-3641.17)">
                    <path d="M332.5,780.9C324,779.5 323.2,779.1 322.1,775.9C320.5,771.3 320.7,770 323,770C324.5,770 325,770.7 325,772.9C325,775.5 325.4,775.8 330.7,776.9C333.8,777.5 337.4,778 338.7,778C340.3,778 341,778.6 341,780C341,782.2 340.4,782.3 332.5,780.9Z" style="fill:rgb(190,162,119);fill-rule:nonzero;"/>
                </g>
                <g transform="matrix(4.16667,0,0,4.16667,9714.97,-3641.17)">
                    <path d="M356,780C356,778.4 356.7,778 359.5,778C363.5,778 364.4,780.4 360.8,781.4C357,782.4 356,782.1 356,780Z" style="fill:rgb(190,162,119);fill-rule:nonzero;"/>
                </g>
                <g transform="matrix(4.16667,0,0,4.16667,9714.97,-3641.17)">
                    <path d="M264,779.5C263.2,778.6 263,776.8 263.4,774.9C264,771.5 267.6,766 269.1,766C270.2,766 270.3,771.7 269.1,772.2C267.8,772.7 266.7,777 267.9,777C268.5,777 269,777.9 269,779C269,781.4 265.8,781.7 264,779.5Z" style="fill:rgb(190,162,119);fill-rule:nonzero;"/>
                </g>
                <g transform="matrix(4.16667,0,0,4.16667,9714.97,-3641.17)">
                    <path d="M152.6,772.8C152.3,771.5 152,768.6 152,766.3C152,762.7 152.3,762 154,762C155.8,762 156,762.7 156,768.5C156,773.4 155.7,775 154.6,775C153.9,775 153,774 152.6,772.8Z" style="fill:rgb(190,162,119);fill-rule:nonzero;"/>
                </g>
                <g transform="matrix(4.16667,0,0,4.16667,9714.97,-3641.17)">
                    <path d="M306,765.5C306,762.7 306.4,762 308,762C310.1,762 310.4,763 309.4,766.8C308.4,770.4 306,769.5 306,765.5Z" style="fill:rgb(190,162,119);fill-rule:nonzero;"/>
                </g>
                <g transform="matrix(4.16667,0,0,4.16667,9714.97,-3641.17)">
                    <path d="M355,765.5C355,762.4 356.1,762.3 359.7,765.5L362.5,767.9L358.8,768C355.4,768 355,767.7 355,765.5Z" style="fill:rgb(190,162,119);fill-rule:nonzero;"/>
                </g>
                <g transform="matrix(4.16667,0,0,4.16667,9714.97,-3641.17)">
                    <path d="M320.6,764.8C319.6,761 319.9,760 322,760C323.6,760 324,760.7 324,763.5C324,767.5 321.6,768.4 320.6,764.8Z" style="fill:rgb(190,162,119);fill-rule:nonzero;"/>
                </g>
                <g transform="matrix(4.16667,0,0,4.16667,9714.97,-3641.17)">
                    <path d="M93.5,763C94.4,762 97.2,760.3 99.5,759.5C103.7,757.8 103.7,757.8 103.2,753.4C102.8,749.4 102.9,749 104.9,749C106.7,749 107,749.6 107,753.3C107,755.6 106.7,758.4 106.4,759.5C105.8,761.8 98.9,765 94.6,765C91.8,765 91.7,764.9 93.5,763Z" style="fill:rgb(190,162,119);fill-rule:nonzero;"/>
                </g>
                <g transform="matrix(4.16667,0,0,4.16667,9714.97,-3641.17)">
                    <path d="M141,746.5C141,738.7 141.2,738 143,738C144.8,738 145,738.7 145,744.3C145,751.9 144.2,755 142.4,755C141.3,755 141,753.1 141,746.5Z" style="fill:rgb(190,162,119);fill-rule:nonzero;"/>
                </g>
                <g transform="matrix(4.16667,0,0,4.16667,9714.97,-3641.17)">
                    <path d="M307,751.5C307,748.7 307.4,748 309,748C311.1,748 311.4,749 310.4,752.8C309.4,756.4 307,755.5 307,751.5Z" style="fill:rgb(190,162,119);fill-rule:nonzero;"/>
                </g>
                <g transform="matrix(4.16667,0,0,4.16667,9714.97,-3641.17)">
                    <path d="M319.6,752.8C318.5,748.6 318.9,747 321,747C322.7,747 323,747.7 323,751C323,755.5 320.7,756.7 319.6,752.8Z" style="fill:rgb(190,162,119);fill-rule:nonzero;"/>
                </g>
                <g transform="matrix(4.16667,0,0,4.16667,9714.97,-3641.17)">
                    <path d="M151.6,749.8C151.3,748.5 151,745.1 151,742.3C151,737.7 151.3,737 153,737C154.8,737 155,737.7 155,744.5C155,750.2 154.7,752 153.6,752C152.9,752 152,751 151.6,749.8Z" style="fill:rgb(190,162,119);fill-rule:nonzero;"/>
                </g>
                <g transform="matrix(4.16667,0,0,4.16667,9714.97,-3641.17)">
                    <path d="M346,746.5C346,742.5 348.4,741.6 349.4,745.3C350.4,749 350.1,750 348,750C346.4,750 346,749.3 346,746.5Z" style="fill:rgb(190,162,119);fill-rule:nonzero;"/>
                </g>
                <g transform="matrix(4.16667,0,0,4.16667,9714.97,-3641.17)">
                    <path d="M280,745.8C280,742.8 281.3,740 282.6,740C283.5,740 284,741.2 284,743.5C284,746.3 283.6,747 282,747C280.9,747 280,746.4 280,745.8Z" style="fill:rgb(190,162,119);fill-rule:nonzero;"/>
                </g>
                <g transform="matrix(4.16667,0,0,4.16667,9714.97,-3641.17)">
                    <path d="M102.6,743.8C101.4,739 101.9,736 104,736C105.7,736 106,736.7 106,741C106,744.6 105.6,746 104.6,746C103.9,746 103,745 102.6,743.8Z" style="fill:rgb(190,162,119);fill-rule:nonzero;"/>
                </g>
                <g transform="matrix(4.16667,0,0,4.16667,9714.97,-3641.17)">
                    <path d="M190,739.5C190,735.7 190.3,735 192,735C194.1,735 194.6,737.3 193.4,741.8C192.3,745.9 190,744.4 190,739.5Z" style="fill:rgb(190,162,119);fill-rule:nonzero;"/>
                </g>
                <g transform="matrix(4.16667,0,0,4.16667,9714.97,-3641.17)">
                    <path d="M318.6,737.8C317.5,733.6 317.9,732 320,732C321.7,732 322,732.7 322,736C322,740.5 319.7,741.7 318.6,737.8Z" style="fill:rgb(190,162,119);fill-rule:nonzero;"/>
                </g>
                <g transform="matrix(4.16667,0,0,4.16667,9714.97,-3641.17)">
                    <path d="M308,732.5C308,730 308.5,728 309,728C309.6,728 310,726.4 310,724.5L310,721L320,721L320,724.5C320,726.4 319.6,728 319,728C318.5,728 318,727.4 318,726.6C318,725.8 316.7,725 315,724.8C312.1,724.4 312,724.5 312,728.4C312,734 311,737 309.4,737C308.4,737 308,735.7 308,732.5Z" style="fill:rgb(190,162,119);fill-rule:nonzero;"/>
                </g>
                <g transform="matrix(4.16667,0,0,4.16667,9714.97,-3641.17)">
                    <path d="M359.8,735.6C358.8,734.9 358,734 358,733.7C358,733.4 360.7,732.8 363.9,732.4C367.6,732 370.1,731.2 370.4,730.4C370.7,729.6 371.6,729 372.4,729C373.4,729 374,727.2 374.5,723C375.1,717.9 375.5,717 377.2,717C378.9,717 379.1,717.5 378.4,721.8C377.1,730.5 374.2,734.5 368,735.6C367.2,735.8 365.4,736.2 364,736.5C362.6,736.8 360.7,736.4 359.8,735.6Z" style="fill:rgb(190,162,119);fill-rule:nonzero;"/>
                </g>
                <g transform="matrix(4.16667,0,0,4.16667,9714.97,-3641.17)">
                    <path d="M101.6,732.8C100.4,728 100.9,725 103,725C104.7,725 105,725.7 105,730C105,733.6 104.6,735 103.6,735C102.9,735 102,734 101.6,732.8Z" style="fill:rgb(190,162,119);fill-rule:nonzero;"/>
                </g>
                <g transform="matrix(4.16667,0,0,4.16667,9714.97,-3641.17)">
                    <path d="M346.3,734.3C344.5,733.6 344.6,726 346.4,726C347.8,726 349,728.9 349,732.8C349,735 348.6,735.3 346.3,734.3Z" style="fill:rgb(190,162,119);fill-rule:nonzero;"/>
                </g>
                <g transform="matrix(4.16667,0,0,4.16667,9714.97,-3641.17)">
                    <path d="M351.7,733.2C350.1,731.5 349.3,726 350.6,726C351.6,726 354,728.8 354,729.9C354,730.5 354.7,731 355.5,731C356.3,731 357,731.9 357,733C357,735.6 353.9,735.7 351.7,733.2Z" style="fill:rgb(190,162,119);fill-rule:nonzero;"/>
                </g>
                <g transform="matrix(4.16667,0,0,4.16667,9714.97,-3641.17)">
                    <path d="M191,727C191,724.3 191.5,722 192,722C192.6,722 193,720.9 193,719.5C193,717.3 193.4,717 196.6,717C199.4,717 200.1,717.3 199.8,718.8C199.6,719.8 198.6,720.5 197.2,720.4C195.3,720.4 195,720.9 195,723.9C195,729 194,732 192.4,732C191.4,732 191,730.6 191,727Z" style="fill:rgb(190,162,119);fill-rule:nonzero;"/>
                </g>
                <g transform="matrix(4.16667,0,0,4.16667,9714.97,-3641.17)">
                    <path d="M281,727.8C281,724.8 282.3,722 283.6,722C284.5,722 285,723.2 285,725.5C285,728.3 284.6,729 283,729C281.9,729 281,728.4 281,727.8Z" style="fill:rgb(190,162,119);fill-rule:nonzero;"/>
                </g>
                <g transform="matrix(4.16667,0,0,4.16667,9714.97,-3641.17)">
                    <path d="M142,721C142,714.7 142.2,714 144,714C145.7,714 146,714.7 146,718.8C146,724.9 145.1,728 143.4,728C142.3,728 142,726.3 142,721Z" style="fill:rgb(190,162,119);fill-rule:nonzero;"/>
                </g>
                <g transform="matrix(4.16667,0,0,4.16667,9714.97,-3641.17)">
                    <path d="M150.6,723.8C150.3,722.5 150,719.6 150,717.3C150,713.7 150.3,713 152,713C153.8,713 154,713.7 154,719.5C154,724.4 153.7,726 152.6,726C151.9,726 151,725 150.6,723.8Z" style="fill:rgb(190,162,119);fill-rule:nonzero;"/>
                </g>
                <g transform="matrix(4.16667,0,0,4.16667,9714.97,-3641.17)">
                    <path d="M101,722.2C101,720.1 97.9,720 93.8,722C91.6,723 90.4,723.1 88.4,722.1C87,721.5 85.4,721.2 84.9,721.6C83.3,722.6 79.2,721.1 76.9,718.7C73.4,715.1 70.2,707 68.5,697.6C66.6,686.4 66.6,686 68.9,686C70.4,686 70.8,687 71.4,691.8C72.2,699.2 75,709.1 76.7,710.8C77.4,711.5 78,713 78,714.1C78,715.1 78.6,716 79.4,716C80.2,716 81,716.4 81.2,717C81.6,718.1 89.6,718.4 97.3,717.5L103,716.8L103,720.4C103,722.4 102.6,724 102,724C101.5,724 101,723.2 101,722.2Z" style="fill:rgb(190,162,119);fill-rule:nonzero;"/>
                </g>
                <g transform="matrix(4.16667,0,0,4.16667,9714.97,-3641.17)">
                    <path d="M202.8,721.9C199.8,720.2 200.8,719.2 206.3,718.5C215.1,717.5 217,716.9 217,715.4C217,714.6 218,714 219.5,714C222.6,714 222.7,715.1 219.6,718.7C217.8,720.8 216.2,721.5 213.3,721.6C211.2,721.7 208.4,722 207,722.4C205.6,722.7 203.7,722.5 202.8,721.9Z" style="fill:rgb(190,162,119);fill-rule:nonzero;"/>
                </g>
                <g transform="matrix(4.16667,0,0,4.16667,9714.97,-3641.17)">
                    <path d="M222,707.8C222,706.5 222.9,701.2 224,696C225.1,690.8 226,684.6 226,682.3C226,678.7 226.3,678 228,678C229.4,678 230,678.7 230,680.3C230,684 227.1,701.9 225.9,706.1C224.6,710.3 222,711.4 222,707.8Z" style="fill:rgb(190,162,119);fill-rule:nonzero;"/>
                </g>
                <g transform="matrix(4.16667,0,0,4.16667,9714.97,-3641.17)">
                    <path d="M143,701.5C143,698 143,698 147.5,698C152,698 152,698 152,701.5C152,703.4 151.6,705 151,705C150.5,705 150,704.3 150,703.5C150,702.7 149.1,702 148,702C146.9,702 146,702.7 146,703.5C146,704.3 145.3,705 144.5,705C143.5,705 143,703.9 143,701.5Z" style="fill:rgb(190,162,119);fill-rule:nonzero;"/>
                </g>
                <g transform="matrix(4.16667,0,0,4.16667,9714.97,-3641.17)">
                    <path d="M277.6,702.8C276.6,699 276.9,698 279,698C280.6,698 281,698.7 281,701.5C281,705.5 278.6,706.4 277.6,702.8Z" style="fill:rgb(190,162,119);fill-rule:nonzero;"/>
                </g>
                <g transform="matrix(4.16667,0,0,4.16667,9714.97,-3641.17)">
                    <path d="M375,696.5C375,692.5 377.4,691.6 378.4,695.3C379.4,699 379.1,700 377,700C375.4,700 375,699.3 375,696.5Z" style="fill:rgb(190,162,119);fill-rule:nonzero;"/>
                </g>
                <g transform="matrix(4.16667,0,0,4.16667,9714.97,-3641.17)">
                    <path d="M66.6,681.8C66.3,680.5 66,678 66,676.3C66,673.7 66.4,673 68,673C69.8,673 70,673.7 70,678.5C70,682.5 69.6,684 68.6,684C67.9,684 67,683 66.6,681.8Z" style="fill:rgb(190,162,119);fill-rule:nonzero;"/>
                </g>
                <g transform="matrix(4.16667,0,0,4.16667,9714.97,-3641.17)">
                    <path d="M277.3,680.6C277.8,677.4 277.7,677.2 274.4,676.6C269.7,675.7 269.8,673 274.5,673C276.9,673 278,673.5 278,674.5C278,675.3 278.7,676 279.5,676C280.6,676 281,677.1 281,680C281,683.4 280.7,684 278.9,684C277,684 276.8,683.6 277.3,680.6Z" style="fill:rgb(190,162,119);fill-rule:nonzero;"/>
                </g>
                <g transform="matrix(4.16667,0,0,4.16667,9714.97,-3641.17)">
                    <path d="M259.6,672.2C251.6,669.1 250,667 255.4,667C257.4,667 259,667.5 259,668C259,668.6 259.7,669 260.6,669C264.7,669 270,671.4 270,673.2C270,675.6 267.9,675.5 259.6,672.2Z" style="fill:rgb(190,162,119);fill-rule:nonzero;"/>
                </g>
                <g transform="matrix(4.16667,0,0,4.16667,9714.97,-3641.17)">
                    <path d="M66,663.8C66,659 67,656 68.6,656C69.6,656 70,657.5 70,661.5C70,666.3 69.8,667 68,667C66.4,667 66,666.3 66,663.8Z" style="fill:rgb(190,162,119);fill-rule:nonzero;"/>
                </g>
                <g transform="matrix(4.16667,0,0,4.16667,9714.97,-3641.17)">
                    <path d="M226,659L226,654L229.5,654C232.3,654 233,654.4 233,656C233,657.3 232.5,657.8 231.5,657.4C230.3,656.9 230,657.6 230,660.4C230,663.3 229.6,664 228,664C226.3,664 226,663.3 226,659Z" style="fill:rgb(190,162,119);fill-rule:nonzero;"/>
                </g>
                <g transform="matrix(4.16667,0,0,4.16667,9714.97,-3641.17)">
                    <path d="M67,651.1C67,647.5 70.9,626.4 73.1,618.3C74.6,612.6 75.8,610 76.8,610C78,610 78.2,611 77.7,615.2C77.3,618.1 76.6,620.6 76,620.8C75.5,621 75,622.4 75,623.8C75,625.3 74.1,630.8 73,636C71.9,641.2 71,647.2 71,649.3C71,652.3 70.6,653 69,653C67.7,653 67,652.3 67,651.1Z" style="fill:rgb(190,162,119);fill-rule:nonzero;"/>
                </g>
                <g transform="matrix(4.16667,0,0,4.16667,9714.97,-3641.17)">
                    <path d="M263.8,644.3C262.7,644 262,642.9 262,641.5L262,639.2L267,640.8C272.7,642.6 273.8,645.1 268.8,644.9C267,644.8 264.7,644.6 263.8,644.3Z" style="fill:rgb(190,162,119);fill-rule:nonzero;"/>
                </g>
                <g transform="matrix(4.16667,0,0,4.16667,9714.97,-3641.17)">
                    <path d="M252,637.5C252,634.6 252.2,634.5 256,636.5C260,638.6 259.8,640 255.5,640C252.4,640 252,639.7 252,637.5Z" style="fill:rgb(190,162,119);fill-rule:nonzero;"/>
                </g>
                <g transform="matrix(4.16667,0,0,4.16667,9714.97,-3641.17)">
                    <path d="M268.8,635.3C266.7,632.8 263.3,627 262.1,623.7C261.1,621.2 261.2,621 263.5,621C265.3,621 266,621.5 266,623C266,624.1 266.5,625 267,625C267.6,625 268,626.1 268,627.5C268,629.1 268.6,630 269.5,630C270.5,630 271,631.1 271,633.5C271,637.5 270.9,637.6 268.8,635.3Z" style="fill:rgb(190,162,119);fill-rule:nonzero;"/>
                </g>
                <g transform="matrix(4.16667,0,0,4.16667,9714.97,-3641.17)">
                    <path d="M368,631.8C368,628.4 368.3,628 370.5,628C373.6,628 373.7,629.1 370.5,632.7L368.1,635.5L368,631.8Z" style="fill:rgb(190,162,119);fill-rule:nonzero;"/>
                </g>
                <g transform="matrix(4.16667,0,0,4.16667,9714.97,-3641.17)">
                    <path d="M240,631C240,629.5 239.3,629 237.5,629C235.4,629 235,628.5 235,625.9L235,622.8L237.8,625C239.3,626.1 242,628.1 243.7,629.3C247.9,632.1 247.8,633 243.5,633C240.7,633 240,632.6 240,631Z" style="fill:rgb(190,162,119);fill-rule:nonzero;"/>
                </g>
                <g transform="matrix(4.16667,0,0,4.16667,9714.97,-3641.17)">
                    <path d="M375,616.5C375,613.7 375.4,613 377,613C379.2,613 379.6,615 378,618.1C376.4,621.1 375,620.4 375,616.5Z" style="fill:rgb(190,162,119);fill-rule:nonzero;"/>
                </g>
                <g transform="matrix(4.16667,0,0,4.16667,9714.97,-3641.17)">
                    <path d="M258.6,612.3C256.7,602.2 256.7,601 258.9,601C260.2,601 261,601.6 261,602.8C261,603.7 261.3,606.9 261.6,609.8C262.2,614.1 262,615 260.7,615C259.8,615 258.9,613.8 258.6,612.3Z" style="fill:rgb(190,162,119);fill-rule:nonzero;"/>
                </g>
                <g transform="matrix(4.16667,0,0,4.16667,9714.97,-3641.17)">
                    <path d="M322,612.1C322,610.6 322.8,610.3 327.3,610.3C336.2,610.3 341.9,605.7 343.5,597.4C344.3,592.8 347,592.8 347,597.4C347,603.1 345.1,607 342.4,607C340.5,607 340,607.5 340,609.5C340,611.6 339.5,612 337,612C335.4,612 334,612.5 334,613C334,613.6 331.3,614 328,614C322.8,614 322,613.7 322,612.1Z" style="fill:rgb(190,162,119);fill-rule:nonzero;"/>
                </g>
                <g transform="matrix(4.16667,0,0,4.16667,9714.97,-3641.17)">
                    <path d="M215.7,607.7C214.8,604.7 214,601.6 214,600.7C214,599.7 213.6,599 213,599C212.5,599 212,597.4 212,595.5C212,593.2 211.5,592 210.7,592C209.9,592 208.8,590.9 208.2,589.5C206.7,586.3 206.6,581 208.1,581C209.3,581 214.8,592.8 218.9,604.5L221.9,613L219.7,613C217.8,613 217.1,612.1 215.7,607.7Z" style="fill:rgb(190,162,119);fill-rule:nonzero;"/>
                </g>
                <g transform="matrix(4.16667,0,0,4.16667,9714.97,-3641.17)">
                    <path d="M377,607.5C377,604.7 377.4,604 379,604C381.1,604 381.4,605 380.4,608.8C379.4,612.4 377,611.5 377,607.5Z" style="fill:rgb(190,162,119);fill-rule:nonzero;"/>
                </g>
                <g transform="matrix(4.16667,0,0,4.16667,9714.97,-3641.17)">
                    <path d="M288,608C288,606.3 288.7,606 292.5,606C296.3,606 297,606.3 297,608C297,609.7 296.3,610 292.5,610C288.7,610 288,609.7 288,608Z" style="fill:rgb(190,162,119);fill-rule:nonzero;"/>
                </g>
                <g transform="matrix(4.16667,0,0,4.16667,9714.97,-3641.17)">
                    <path d="M78,602.8C80.3,596.2 82.4,591 85.7,584C87.1,581 88.3,577.7 88.2,576.8C88.2,575.7 88.8,575 90.1,575C91.5,575 92,575.7 92,578C92,581 89.2,588 87.9,588C87.5,588 86.9,589.6 86.6,591.5C86.2,593.4 85.5,595 85,595C84.4,595 84,595.7 84,596.6C84,597.5 83.2,600.4 82.3,603.1C80.9,607 80.1,608 78.3,608L76.1,608L78,602.8Z" style="fill:rgb(190,162,119);fill-rule:nonzero;"/>
                </g>
                <g transform="matrix(4.16667,0,0,4.16667,9714.97,-3641.17)">
                    <path d="M121.8,603L120.2,598L122.5,598C124.9,598 126,600.2 126,605.3C126,609.8 123.5,608.4 121.8,603Z" style="fill:rgb(190,162,119);fill-rule:nonzero;"/>
                </g>
                <g transform="matrix(4.16667,0,0,4.16667,9714.97,-3641.17)">
                    <path d="M298,606.2C298,605.7 299.2,604.7 300.6,604C302,603.2 303.9,601.3 304.8,599.8C307,596.1 308,596.3 308,600.5C308,602.9 307.5,604 306.5,604C305.7,604 305,604.7 305,605.5C305,606.5 303.9,607 301.5,607C299.6,607 298,606.6 298,606.2Z" style="fill:rgb(190,162,119);fill-rule:nonzero;"/>
                </g>
                <g transform="matrix(4.16667,0,0,4.16667,9714.97,-3641.17)">
                    <path d="M310.6,605.4C310.3,604.5 310,602.3 310,600.4C310,598.3 309.4,596.7 308.6,596.4C307.6,596 307.2,594.4 307.2,591C307.3,587.8 306.7,585.1 305.2,582.6L303.1,579L306,579C308.5,579 309,579.5 309.9,582.8C310.5,584.8 311,587.3 311,588.3C311,589.4 311.8,590 313.5,590C315.3,590 316.1,590.7 316.6,592.4C317.6,596.7 324.4,596.7 325.4,592.4C326.4,588.7 323.3,585.1 319.3,585C316.2,585 316,584.8 316,581.5C316,578.1 316.1,578 320,578C322.9,578 324,577.6 324,576.5C324,575.5 325,575 327.3,575C331.9,575.1 338.4,576.7 338.8,577.9C339,578.5 339.8,579 340.6,579C341.5,579 342,580.2 342,582.7L342,586.4L340,584.2C336.2,580.2 332.1,578.7 325.8,579.2C322.6,579.4 319.5,580.1 318.8,580.8C318,581.6 318.2,581.8 319.7,581.4C322.2,580.7 327.6,583.4 329,585.9C330.9,589.6 330.2,594 327,597.1C324.4,599.7 323.5,600 320.3,599.6C318,599.2 315.6,598 314.3,596.4L312,593.9L312,596.2C312,597.5 313.1,600.4 314.5,602.8L316.9,607L314,607C312.4,607 311,606.3 310.6,605.4Z" style="fill:rgb(190,162,119);fill-rule:nonzero;"/>
                </g>
                <g transform="matrix(4.16667,0,0,4.16667,9714.97,-3641.17)">
                    <path d="M273,595.5C273,593.6 273.4,592 273.9,592C274.4,592 275.1,591.2 275.3,590.3C275.6,589.1 275.8,589.5 275.9,591.2C275.9,592.7 276.4,595 277,596.4C277.9,598.8 277.7,599 275.5,599C273.3,599 273,598.6 273,595.5Z" style="fill:rgb(190,162,119);fill-rule:nonzero;"/>
                </g>
                <g transform="matrix(4.16667,0,0,4.16667,9714.97,-3641.17)">
                    <path d="M281.5,594.9C279.3,593.6 277,591.1 277,589.8C277,588.3 281.9,589 282.8,590.6C284,592.8 288.6,591.4 289.4,588.7C290.5,584.4 289,582 284.9,581.4C281.3,580.8 281,580.5 281,577.4C281,574 281,574 285.8,574.1L290.5,574.2L287,575.2L283.5,576.3L286.9,577.4C291.3,579 294,582.4 294,586.6C294,592.8 286.6,597.8 281.5,594.9Z" style="fill:rgb(190,162,119);fill-rule:nonzero;"/>
                </g>
                <g transform="matrix(4.16667,0,0,4.16667,9714.97,-3641.17)">
                    <path d="M257.5,590.8C258.7,582.2 259.2,581 260.7,581C262,581 262.2,581.9 261.6,586.3C261.3,589.1 261,592.3 261,593.3C261,594.4 260.2,595 258.9,595C257,595 256.9,594.6 257.5,590.8Z" style="fill:rgb(190,162,119);fill-rule:nonzero;"/>
                </g>
                <g transform="matrix(4.16667,0,0,4.16667,9714.97,-3641.17)">
                    <path d="M112,580L112,573L114,575C118.5,579.5 125,576 125,569C125,566.8 124.1,561.6 122.9,557.3C120.9,550 120.8,543.3 122.6,538.5C123.1,537.4 122.5,537 120.4,537C117.6,537 117.5,537.2 117.2,542.3C116.9,549.1 111,569 109.3,569C107.2,569 107.8,564 111,553.5C112.8,547.8 114,541.5 114,538.4L114,533L117.5,533C119.9,533 121,533.5 121,534.5C121,535.5 122,536 123.6,536L126.2,536L125.6,543.3C125.1,549 125.4,551.9 127,557.5C129.8,567.4 129.5,577 126.4,577C125.6,577 125,577.7 125,578.5C125,579.7 123.6,580 118.5,580L112,580Z" style="fill:rgb(190,162,119);fill-rule:nonzero;"/>
                </g>
                <g transform="matrix(4.16667,0,0,4.16667,9714.97,-3641.17)">
                    <path d="M169.1,577.3C166.7,574.6 166.6,567.1 168.9,557.5C170.6,550.7 170.9,547 170.4,542.3C169.8,536.3 169.9,536 171.9,536C173.1,536 174,535.4 174,534.5C174,533.5 175.1,533 177.5,533C180.8,533 181,533.2 181,536.5C181,538.4 180.6,540 180,540C179.5,540 179,539.2 179,538.2C179,536.7 178.4,536.4 176,536.8C173.7,537.1 173.1,537.7 173.4,538.9C175.1,544.5 175,548.3 173.1,556.4C170.4,567.9 170.4,572.3 173.2,575C174.4,576.1 175.7,577 176.2,577C176.6,577 177,577.5 177,578C177,579.6 170.6,579.1 169.1,577.3Z" style="fill:rgb(190,162,119);fill-rule:nonzero;"/>
                </g>
                <g transform="matrix(4.16667,0,0,4.16667,9714.97,-3641.17)">
                    <path d="M182,575C184.8,572.2 185.4,568.6 184,563.7C181.6,555.1 181.6,555 183.9,555C185.6,555 186,555.6 186,558C186,559.7 186.5,561 187,561C188.1,561 188.4,572.8 187.4,575.4C187,576.4 185.6,577 183.4,577C180,577 180,577 182,575Z" style="fill:rgb(190,162,119);fill-rule:nonzero;"/>
                </g>
                <g transform="matrix(4.16667,0,0,4.16667,9714.97,-3641.17)">
                    <path d="M262.1,572.3C263.7,568 267.3,562 268.2,562C268.6,562 269,563.6 269,565.5C269,567.9 268.5,569 267.5,569C266.5,569 266,570 266,572C266,574.5 265.6,575 263.5,575C261.2,575 261.1,574.8 262.1,572.3Z" style="fill:rgb(190,162,119);fill-rule:nonzero;"/>
                </g>
                <g transform="matrix(4.16667,0,0,4.16667,9714.97,-3641.17)">
                    <path d="M210,568.5C210,565.4 210.3,565 212.6,565C214,565 215,565.3 214.8,565.8C211.3,573.1 210,573.8 210,568.5Z" style="fill:rgb(190,162,119);fill-rule:nonzero;"/>
                </g>
                <g transform="matrix(4.16667,0,0,4.16667,9714.97,-3641.17)">
                    <path d="M80.9,563.9C79.4,561 76,551 76,549.3C76,548.6 76.9,548 78,548C79.6,548 80,548.7 80,551C80,552.7 80.4,554 80.8,554C81.2,554 82.1,555.5 82.8,557.3C85.1,563.8 83.7,569 80.9,563.9Z" style="fill:rgb(190,162,119);fill-rule:nonzero;"/>
                </g>
                <g transform="matrix(4.16667,0,0,4.16667,9714.97,-3641.17)">
                    <path d="M214.3,559.3C214.5,557.2 215.8,551.3 217.1,546.3C219,539 219.9,537 221.3,537C222.2,537 223,537.6 223,538.3C223,540.6 219.1,555.9 217.6,559.5C215.6,564.2 213.6,564.1 214.3,559.3Z" style="fill:rgb(190,162,119);fill-rule:nonzero;"/>
                </g>
                <g transform="matrix(4.16667,0,0,4.16667,9714.97,-3641.17)">
                    <path d="M272.5,555.7C273.8,553.7 276.8,551 283.8,545.7C284.7,545 285,545.5 285,547.9C285,550.5 284.6,551 282.5,551C280.7,551 280,551.5 280,552.8C280,555.4 276.8,558 273.6,558C271.1,558 271,557.9 272.5,555.7Z" style="fill:rgb(190,162,119);fill-rule:nonzero;"/>
                </g>
                <g transform="matrix(4.16667,0,0,4.16667,9714.97,-3641.17)">
                    <path d="M179.6,548.8C178.6,545 178.9,544 181,544C182.6,544 183,544.7 183,547.5C183,551.5 180.6,552.4 179.6,548.8Z" style="fill:rgb(190,162,119);fill-rule:nonzero;"/>
                </g>
                <g transform="matrix(4.16667,0,0,4.16667,9714.97,-3641.17)">
                    <path d="M73.6,539.3C73.3,537.7 72.8,533.9 72.4,530.8C71.8,525.4 71.9,525 73.9,525C75.4,525 76,525.6 76,527.4C76,528.6 76.3,532.5 76.6,535.9C77.2,541 77,542 75.7,542C74.8,542 73.9,540.8 73.6,539.3Z" style="fill:rgb(190,162,119);fill-rule:nonzero;"/>
                </g>
                <g transform="matrix(4.16667,0,0,4.16667,9714.97,-3641.17)">
                    <path d="M332,538C332,535.9 333,535.6 336.8,536.6C340.4,537.6 339.5,540 335.5,540C332.7,540 332,539.6 332,538Z" style="fill:rgb(190,162,119);fill-rule:nonzero;"/>
                </g>
                <g transform="matrix(4.16667,0,0,4.16667,9714.97,-3641.17)">
                    <path d="M307,537.6C307,536.3 309.8,535 312.8,535C313.4,535 314,535.9 314,537C314,538.6 313.3,539 310.5,539C308.2,539 307,538.5 307,537.6Z" style="fill:rgb(190,162,119);fill-rule:nonzero;"/>
                </g>
                <g transform="matrix(4.16667,0,0,4.16667,9714.97,-3641.17)">
                    <path d="M220,532.5C220,529.7 220.4,529 222,529C224.1,529 224.4,530 223.4,533.8C222.4,537.4 220,536.5 220,532.5Z" style="fill:rgb(190,162,119);fill-rule:nonzero;"/>
                </g>
                <g transform="matrix(4.16667,0,0,4.16667,9714.97,-3641.17)">
                    <path d="M72.5,512.8C73.6,502.2 76,493 77.6,493C79.4,493 79.4,495.7 77.5,504.5C76.7,508.4 76,513.2 76,515.3C76,518.4 75.7,519 73.9,519C71.9,519 71.8,518.6 72.5,512.8Z" style="fill:rgb(190,162,119);fill-rule:nonzero;"/>
                </g>
                <g transform="matrix(4.16667,0,0,4.16667,9714.97,-3641.17)">
                    <path d="M219,504.5C218.3,499.3 217.3,495 216.8,495C216.4,495 215.7,493.2 215.4,491C215,488.8 214.4,487 214,487C213.5,487 212.4,485 211.3,482.5C210.3,480 209.2,478 208.8,478C208.3,478 208,477.3 208,476.5C208,475.7 207.6,475 207,475C206.5,475 206,474.4 206,473.6C206,472.8 205.5,472 204.9,471.8C204.3,471.6 204,469.9 204.2,468L204.5,464.5L208.3,469.5C215.7,479.4 221.5,494.5 223.5,509.3C224.1,513.5 223.9,514 222.2,514C220.6,514 220.2,512.7 219,504.5Z" style="fill:rgb(190,162,119);fill-rule:nonzero;"/>
                </g>
                <g transform="matrix(4.16667,0,0,4.16667,9714.97,-3641.17)">
                    <path d="M78.3,487.8C80.2,483.2 82,483 82,487.4C82,490.6 81.7,491 79.5,491C77.1,491 77,490.9 78.3,487.8Z" style="fill:rgb(190,162,119);fill-rule:nonzero;"/>
                </g>
                <g transform="matrix(4.16667,0,0,4.16667,9714.97,-3641.17)">
                    <path d="M83,478.3C83,477.3 89,468.3 90.6,467C91.8,465.9 92,466.3 92,469.4C92,471.4 91.6,473 91,473C90.5,473 90,473.7 90,474.5C90,475.3 89.6,476 89,476C88.5,476 88,476.7 88,477.5C88,478.4 87.1,479 85.5,479C84.1,479 83,478.7 83,478.3Z" style="fill:rgb(190,162,119);fill-rule:nonzero;"/>
                </g>
                <g transform="matrix(4.16667,0,0,4.16667,9714.97,-3641.17)">
                    <path d="M193.7,461.3C193.3,461 193,459.6 193,458.3C193,456.3 192.5,456 189.5,456C186.4,456 186,455.7 186,453.5C186,452.1 186.4,451 186.8,451C187.8,451 199.6,459.6 200.5,460.9C201.2,462.1 194.8,462.5 193.7,461.3Z" style="fill:rgb(190,162,119);fill-rule:nonzero;"/>
                </g>
                <g transform="matrix(4.16667,0,0,4.16667,9714.97,-3641.17)">
                    <path d="M101.5,456.5C103.7,454.6 106,453 106.6,453C107.2,453 108.3,452.4 108.9,451.6C109.5,450.8 111,450 112,449.7C113.6,449.3 114,449.7 114,451.6C114,453.5 113.5,454 111.5,454C109.9,454 109,454.6 109,455.5C109,456.3 108.1,457 107,457C105.9,457 105,457.7 105,458.5C105,459.6 103.9,460 101.3,460L97.5,459.9L101.5,456.5Z" style="fill:rgb(190,162,119);fill-rule:nonzero;"/>
                </g>
                <g transform="matrix(4.16667,0,0,4.16667,9714.97,-3641.17)">
                    <path d="M170,448.3C166.4,447 160.7,445.6 157.3,445.3C151.9,444.8 151,444.4 151,442.8C151,441 151.5,440.9 157.3,441.5C168.6,442.8 183,447.6 183,449.9C183,451.7 176.9,450.9 170,448.3Z" style="fill:rgb(190,162,119);fill-rule:nonzero;"/>
                </g>
                <g transform="matrix(4.16667,0,0,4.16667,9714.97,-3641.17)">
                    <path d="M116.2,448.8C116.8,447 131.3,442.3 138.8,441.5C144.7,440.8 145,440.9 145,442.9C145,444.6 144.4,445 141.7,445C139.9,445 135.8,445.7 132.7,446.5C129.5,447.3 126,448 125,448C123.9,448 123,448.5 123,449C123,449.6 121.4,450 119.4,450C117,450 116,449.6 116.2,448.8Z" style="fill:rgb(190,162,119);fill-rule:nonzero;"/>
                </g>
                <g transform="matrix(4.16667,0,0,4.16667,9714.97,-3641.17)">
                    <path d="M140,765.5C140,762.7 140.4,762 142,762C144.1,762 144.4,763 143.4,766.8C142.4,770.4 140,769.5 140,765.5Z" style="fill:rgb(156,108,180);fill-rule:nonzero;"/>
                </g>
                <g transform="matrix(4.16667,0,0,4.16667,9714.97,-3641.17)">
                    <path d="M193,760.4C193,759 193.3,758 193.8,758.2C201.1,761.7 201.8,763 196.5,763C193.4,763 193,762.7 193,760.4Z" style="fill:rgb(156,108,180);fill-rule:nonzero;"/>
                </g>
                <g transform="matrix(4.16667,0,0,4.16667,9714.97,-3641.17)">
                    <path d="M103.6,752.8C102.6,749 102.9,748 105,748C106.6,748 107,748.7 107,751.5C107,755.5 104.6,756.4 103.6,752.8Z" style="fill:rgb(156,108,180);fill-rule:nonzero;"/>
                </g>
                <g transform="matrix(4.16667,0,0,4.16667,9714.97,-3641.17)">
                    <path d="M189,749.5C189,746.7 189.4,746 191,746C193.1,746 193.4,747 192.4,750.8C191.4,754.4 189,753.5 189,749.5Z" style="fill:rgb(156,108,180);fill-rule:nonzero;"/>
                </g>
                <g transform="matrix(4.16667,0,0,4.16667,9714.97,-3641.17)">
                    <path d="M196.3,720.3C193.5,719.3 195,717 198.5,717C201.2,717 202,717.4 202,718.8C202,720.5 199,721.3 196.3,720.3Z" style="fill:rgb(156,108,180);fill-rule:nonzero;"/>
                </g>
                <g transform="matrix(4.16667,0,0,4.16667,9714.97,-3641.17)">
                    <path d="M142,716C142,712.7 142.3,712 144,712C146.1,712 146.5,713.6 145.4,717.8C144.3,721.7 142,720.5 142,716Z" style="fill:rgb(156,108,180);fill-rule:nonzero;"/>
                </g>
                <g transform="matrix(4.16667,0,0,4.16667,9714.97,-3641.17)">
                    <path d="M150.6,716.8C149.5,712.6 149.9,711 152,711C153.7,711 154,711.7 154,715C154,719.5 151.7,720.7 150.6,716.8Z" style="fill:rgb(156,108,180);fill-rule:nonzero;"/>
                </g>
                <g transform="matrix(4.16667,0,0,4.16667,9714.97,-3641.17)">
                    <path d="M221,709.5C221,706.7 221.4,706 223,706C225.2,706 225.6,708 224,711.1C222.4,714.1 221,713.4 221,709.5Z" style="fill:rgb(156,108,180);fill-rule:nonzero;"/>
                </g>
                <g transform="matrix(4.16667,0,0,4.16667,9714.97,-3641.17)">
                    <path d="M69.6,702.8C68.6,699 68.9,698 71,698C72.6,698 73,698.7 73,701.5C73,705.5 70.6,706.4 69.6,702.8Z" style="fill:rgb(156,108,180);fill-rule:nonzero;"/>
                </g>
                <g transform="matrix(4.16667,0,0,4.16667,9714.97,-3641.17)">
                    <path d="M67.6,689.8C66.6,686 66.9,685 69,685C70.6,685 71,685.7 71,688.5C71,692.5 68.6,693.4 67.6,689.8Z" style="fill:rgb(156,108,180);fill-rule:nonzero;"/>
                </g>
                <g transform="matrix(4.16667,0,0,4.16667,9714.97,-3641.17)">
                    <path d="M66.6,676.8C66.3,675.5 66,672.5 66,670C66,664.1 66.9,661 68.6,661C69.7,661 70,663 70,670C70,677 69.7,679 68.6,679C67.9,679 67,678 66.6,676.8Z" style="fill:rgb(156,108,180);fill-rule:nonzero;"/>
                </g>
                <g transform="matrix(4.16667,0,0,4.16667,9714.97,-3641.17)">
                    <path d="M226,659.5C226,656.2 226.2,656 229.5,656C231.4,656 233,656.4 233,656.9C233,657.4 232.1,657.6 231,657.3C229.2,656.8 229,657.1 229.5,659.9C229.9,662.5 229.7,663 228,663C226.4,663 226,662.3 226,659.5Z" style="fill:rgb(156,108,180);fill-rule:nonzero;"/>
                </g>
                <g transform="matrix(4.16667,0,0,4.16667,9714.97,-3641.17)">
                    <path d="M68.4,641.3C69.8,633.1 70.2,632 71.6,632C73.2,632 73.3,633.5 72.4,640.4C71.9,644.1 71.3,645 69.8,645C68,645 67.9,644.5 68.4,641.3Z" style="fill:rgb(156,108,180);fill-rule:nonzero;"/>
                </g>
                <g transform="matrix(4.16667,0,0,4.16667,9714.97,-3641.17)">
                    <path d="M72,623.8C72,620.8 73.3,618 74.6,618C75.5,618 76,619.2 76,621.5C76,624.3 75.6,625 74,625C72.9,625 72,624.4 72,623.8Z" style="fill:rgb(156,108,180);fill-rule:nonzero;"/>
                </g>
                <g transform="matrix(4.16667,0,0,4.16667,9714.97,-3641.17)">
                    <path d="M75,612.8C75,609.8 76.3,607 77.6,607C78.5,607 79,608.2 79,610.5C79,613.3 78.6,614 77,614C75.9,614 75,613.4 75,612.8Z" style="fill:rgb(156,108,180);fill-rule:nonzero;"/>
                </g>
                <g transform="matrix(4.16667,0,0,4.16667,9714.97,-3641.17)">
                    <path d="M112,607C112,600.2 112.1,600 114.5,600C116.7,600 116.9,600.2 116,602.6C114.4,606.6 114.8,609.9 117,611.2C119.9,613.1 119.4,614 115.5,614L112,614L112,607Z" style="fill:rgb(156,108,180);fill-rule:nonzero;"/>
                </g>
                <g transform="matrix(4.16667,0,0,4.16667,9714.97,-3641.17)">
                    <path d="M213,599.5C213,598.1 212.6,597 212,597C211.5,597 211,595.4 211,593.5C211,591.6 211.4,590 211.9,590C213.1,590 213.4,590.5 215.9,596.8L218,602L215.5,602C213.5,602 213,601.5 213,599.5Z" style="fill:rgb(156,108,180);fill-rule:nonzero;"/>
                </g>
                <g transform="matrix(4.16667,0,0,4.16667,9714.97,-3641.17)">
                    <path d="M206,584C206,582.9 205.6,582 205,582C203.4,582 203.8,575.3 205.5,573.6C206.3,572.8 207,571.7 207,571.1C207,570.5 208.1,570 209.5,570C212.5,570 212.6,570.3 209.9,574.7C207.9,577.9 207.9,578.2 209.4,582L211,586L208.5,586C206.7,586 206,585.5 206,584Z" style="fill:rgb(156,108,180);fill-rule:nonzero;"/>
                </g>
                <g transform="matrix(4.16667,0,0,4.16667,9714.97,-3641.17)">
                    <path d="M177,578.8C177.1,578.1 178.6,576.8 180.5,575.9L184,574.3L184,577.1C184,579.7 183.7,580 180.5,580C178.3,580 177,579.5 177,578.8Z" style="fill:rgb(156,108,180);fill-rule:nonzero;"/>
                </g>
                <g transform="matrix(4.16667,0,0,4.16667,9714.97,-3641.17)">
                    <path d="M108.6,575.4C107.5,572.6 107.9,568 109.3,568C109.9,568.1 111.4,570.1 112.6,572.5L114.7,577L112,577C110.4,577 109,576.3 108.6,575.4Z" style="fill:rgb(156,108,180);fill-rule:nonzero;"/>
                </g>
                <g transform="matrix(4.16667,0,0,4.16667,9714.97,-3641.17)">
                    <path d="M125.3,571.5C125.9,569.6 126.9,568 127.7,568C128.5,568 129,569.3 129,571.5C129,574.5 128.7,575 126.6,575C124.3,575 124.2,574.8 125.3,571.5Z" style="fill:rgb(156,108,180);fill-rule:nonzero;"/>
                </g>
                <g transform="matrix(4.16667,0,0,4.16667,9714.97,-3641.17)">
                    <path d="M84.2,570.2C83.1,568.1 81.6,565.2 81.1,563.7C80.1,561.2 80.2,561 82.5,561C84.1,561 85,561.6 85,562.6C85,563.4 85.7,564.8 86.5,565.6C88.1,567.2 88.6,574 87.2,574C86.7,574 85.4,572.3 84.2,570.2Z" style="fill:rgb(156,108,180);fill-rule:nonzero;"/>
                </g>
                <g transform="matrix(4.16667,0,0,4.16667,9714.97,-3641.17)">
                    <path d="M167,566.5C167,563.7 167.4,563 169,563C171.1,563 171.4,564 170.4,567.8C169.4,571.4 167,570.5 167,566.5Z" style="fill:rgb(156,108,180);fill-rule:nonzero;"/>
                </g>
                <g transform="matrix(4.16667,0,0,4.16667,9714.97,-3641.17)">
                    <path d="M183.8,562L182.2,557L184.5,557C186.9,557 188,559.2 188,564.3C188,568.8 185.5,567.4 183.8,562Z" style="fill:rgb(156,108,180);fill-rule:nonzero;"/>
                </g>
                <g transform="matrix(4.16667,0,0,4.16667,9714.97,-3641.17)">
                    <path d="M213,561.6C213,558.4 213.3,558 215.5,558C217.9,558 218,558.1 216.7,561.2C214.8,565.8 213,566 213,561.6Z" style="fill:rgb(156,108,180);fill-rule:nonzero;"/>
                </g>
                <g transform="matrix(4.16667,0,0,4.16667,9714.97,-3641.17)">
                    <path d="M78.5,557C77.6,555.6 74,542.9 74,541.3C74,540.6 74.8,540 75.9,540C77.8,540 79,543.4 79,548.6C79,549.9 79.5,551 80,551C80.6,551 81,552.6 81,554.5C81,557.9 79.8,559.1 78.5,557Z" style="fill:rgb(156,108,180);fill-rule:nonzero;"/>
                </g>
                <g transform="matrix(4.16667,0,0,4.16667,9714.97,-3641.17)">
                    <path d="M180.1,550C178.7,543.3 178.7,543 180.9,543C182.7,543 184,546.9 184,552.8C184,557.2 181.2,555.1 180.1,550Z" style="fill:rgb(156,108,180);fill-rule:nonzero;"/>
                </g>
                <g transform="matrix(4.16667,0,0,4.16667,9714.97,-3641.17)">
                    <path d="M121.7,549.8C120.9,546.7 121.9,543 123.6,543C124.6,543 125,544.3 125,547.5C125,552.4 122.7,553.9 121.7,549.8Z" style="fill:rgb(156,108,180);fill-rule:nonzero;"/>
                </g>
                <g transform="matrix(4.16667,0,0,4.16667,9714.97,-3641.17)">
                    <path d="M113,547.5C113,544.7 113.4,544 115,544C117.1,544 117.4,545 116.4,548.8C115.4,552.4 113,551.5 113,547.5Z" style="fill:rgb(156,108,180);fill-rule:nonzero;"/>
                </g>
                <g transform="matrix(4.16667,0,0,4.16667,9714.97,-3641.17)">
                    <path d="M219,539.5C219,536.7 219.4,536 221,536C223.1,536 223.4,537 222.4,540.8C221.4,544.4 219,543.5 219,539.5Z" style="fill:rgb(156,108,180);fill-rule:nonzero;"/>
                </g>
                <g transform="matrix(4.16667,0,0,4.16667,9714.97,-3641.17)">
                    <path d="M220,531C220,527.7 220.3,527 222,527C224.1,527 224.5,528.6 223.4,532.8C222.3,536.7 220,535.5 220,531Z" style="fill:rgb(156,108,180);fill-rule:nonzero;"/>
                </g>
                <g transform="matrix(4.16667,0,0,4.16667,9714.97,-3641.17)">
                    <path d="M72.6,528.8C71.6,525 71.9,524 74,524C75.6,524 76,524.7 76,527.5C76,531.5 73.6,532.4 72.6,528.8Z" style="fill:rgb(156,108,180);fill-rule:nonzero;"/>
                </g>
                <g transform="matrix(4.16667,0,0,4.16667,9714.97,-3641.17)">
                    <path d="M72,518.8C72,515.8 73.3,513 74.6,513C75.5,513 76,514.2 76,516.5C76,519.3 75.6,520 74,520C72.9,520 72,519.4 72,518.8Z" style="fill:rgb(156,108,180);fill-rule:nonzero;"/>
                </g>
                <g transform="matrix(4.16667,0,0,4.16667,9714.97,-3641.17)">
                    <path d="M220,511.5C220,507.5 222.4,506.6 223.4,510.3C224.4,514 224.1,515 222,515C220.4,515 220,514.3 220,511.5Z" style="fill:rgb(156,108,180);fill-rule:nonzero;"/>
                </g>
                <g transform="matrix(4.16667,0,0,4.16667,9714.97,-3641.17)">
                    <path d="M76,495.5C76,493 78.8,487 79.9,487C81.1,487 81.3,491.2 80.4,494.8C79.7,497.3 76,497.9 76,495.5Z" style="fill:rgb(156,108,180);fill-rule:nonzero;"/>
                </g>
                <g transform="matrix(4.16667,0,0,4.16667,9714.97,-3641.17)">
                    <path d="M89,469C92.1,464.6 93,464.5 93,468.4C93,471.7 92.8,472 89.9,472L86.9,472L89,469Z" style="fill:rgb(156,108,180);fill-rule:nonzero;"/>
                </g>
                <g transform="matrix(4.16667,0,0,4.16667,9714.97,-3641.17)">
                    <path d="M203,467.4C203,463.5 203.9,463.6 207,468L209.1,471L206.1,471C203.2,471 203,470.7 203,467.4Z" style="fill:rgb(156,108,180);fill-rule:nonzero;"/>
                </g>
                <g transform="matrix(4.16667,0,0,4.16667,9714.97,-3641.17)">
                    <path d="M195,461C195,459.5 194.3,459 192.5,459C191.1,459 190,458.6 190,458C190,457.5 189.3,457 188.5,457C187.7,457 187,456.6 187,456C187,455.5 186.3,455 185.5,455C184.7,455 184,454.3 184,453.5C184,452.5 183,452 181,452C178.5,452 178,451.6 178,449.5L178,447L181.7,448.5C186.5,450.5 193.4,455 198.5,459.4L202.5,462.9L198.8,463C195.7,463 195,462.7 195,461Z" style="fill:rgb(156,108,180);fill-rule:nonzero;"/>
                </g>
                <g transform="matrix(4.16667,0,0,4.16667,9714.97,-3641.17)">
                    <path d="M97,460.5C97,459.8 106.2,453 107.1,453C107.6,453 108,454.1 108,455.5C108,457.3 107.5,458 106,458C104.9,458 104,458.7 104,459.5C104,460.5 102.9,461 100.5,461C98.6,461 97,460.8 97,460.5Z" style="fill:rgb(156,108,180);fill-rule:nonzero;"/>
                </g>
                <g transform="matrix(4.16667,0,0,4.16667,9714.97,-3641.17)">
                    <path d="M119.2,447.8C119.6,446.5 128,443.2 131.3,443.1C132.4,443 133,443.7 133,445C133,446.6 132.3,447 129.5,447C127.6,447 126,447.5 126,448C126,448.6 124.4,449 122.4,449C120,449 119,448.6 119.2,447.8Z" style="fill:rgb(156,108,180);fill-rule:nonzero;"/>
                </g>
                <g transform="matrix(4.16667,0,0,4.16667,9714.97,-3641.17)">
                    <path d="M164,445C164,442.9 165,442.6 168.8,443.6C172.4,444.6 171.5,447 167.5,447C164.7,447 164,446.6 164,445Z" style="fill:rgb(156,108,180);fill-rule:nonzero;"/>
                </g>
                <g transform="matrix(4.16667,0,0,4.16667,9714.97,-3641.17)">
                    <path d="M92,782.7L87.5,781.5L87.2,775.8C86.9,770.5 87.1,769.8 90.5,766.2C92.6,763.8 96.3,761.3 99.6,760C104.9,757.8 105.1,757.6 104.6,754.6C104.3,752.9 103.5,744.2 102.9,735.3L101.6,719L98.3,719C96.5,719 95,719.5 95,720.1C95,721.8 79,720.2 76.8,718.3C74.2,715.9 71.2,707.9 69.6,698.9C63.6,663.9 69.8,618.8 85,586.2L89,577.8L85.7,572.1C75.5,554.5 71.3,531.9 73.9,508.5C78.9,464.4 113.2,437.7 158.3,442.8C176.5,444.8 191,451.7 203,464C216.4,477.8 222.9,496.3 223,521C223,541.2 218.4,560.6 210.6,573L207.3,578.2L210.8,585.4C215.2,594.6 223,617.6 223,621.7C223,624.3 222.4,625.3 220,626.5C218.4,627.4 217,628.5 217,629.1C217,629.7 219.2,632.5 221.9,635.3C226.8,640.5 226.8,640.5 228,650.4C230.7,671.9 227.4,705.5 221.6,715.5L219,719.8L210.3,720.5C204.1,721.1 201.5,720.9 201.2,720.1C201,719.5 199.3,719 197.4,719C194.4,719 194,719.3 194,721.8C194,725 192.3,746.4 191.5,753.1L191,757.8L196.5,760C200.1,761.4 203.3,763.7 205.5,766.3C208.5,769.8 209,771.1 209,775.4C209,782.4 207.5,783.2 193.3,783.8C178.4,784.4 159.8,782.1 155.2,779.2C154.3,778.6 153.6,768.8 152.4,740.4C151.6,719.6 150.7,701.9 150.5,701.2C150.2,700.5 149,700 147.8,700.2C145.2,700.5 145.3,699.6 143,753C142.5,767 141.5,778.9 141,779.4C137.7,782.7 101,785.2 92,782.7ZM121.9,610.6L124.1,608.3L121.7,601.9L119.2,595.5L116.6,601C113.5,607.7 113.4,608.4 116.2,611C118.9,613.5 119.2,613.5 121.9,610.6ZM121.9,576.4C123.2,575.5 124.8,573.3 125.6,571.5C126.8,568.6 126.7,567.5 124.9,562.2C123.3,557.3 122.9,554.2 123.2,546.1L123.5,536L117.2,536L116.5,543.3C116.1,547.2 114.6,554.1 113.3,558.5C111.9,562.9 110.8,567.5 110.8,568.7C110.7,571.7 113.6,575.9 116.3,577C119.3,578.2 119.3,578.2 121.9,576.4ZM183,574.2C186.2,570.2 186.3,568 183.5,560C181.8,555.2 180.6,549.4 180.3,543.7C179.8,536.6 179.4,535 178.3,535.4C177.5,535.8 175.9,536 174.7,536C172.6,536 172.5,536.3 172.8,544.7C173.1,550.6 172.6,556 171.5,561.1C169.4,570.2 170,573.4 174.1,575.9C177.8,578.1 180.4,577.6 183,574.2Z" style="fill:rgb(27,147,218);fill-rule:nonzero;"/>
                </g>
                <g transform="matrix(4.16667,0,0,4.16667,9714.97,-3641.17)">
                    <path d="M311.7,630.3C311.3,630 306.8,629.4 301.8,629.1L292.5,628.5L292.2,623.9C291.9,619.8 292.2,619 295,616.6C297.8,614.3 299,614 305.6,614C313.7,614 319.6,615.8 320.7,618.7C321.1,619.7 321.8,620.8 322.3,621.1C322.8,621.5 323.5,623.8 323.7,626.4L324.3,631L318.3,631C315,631 312,630.7 311.7,630.3ZM320.3,627.4C320.7,627 320,625.4 318.8,623.8C317.1,621.3 316.3,620.9 313.7,621.4C310.6,622 308,623.7 308,625C308,626.4 319.1,628.5 320.3,627.4Z" style="fill:rgb(206,66,44);fill-rule:nonzero;"/>
                </g>
                <g transform="matrix(4.16667,0,0,4.16667,9714.97,-3641.17)">
                    <path d="M267.3,780.9C264.4,780 264,779.5 264,776.3C264,771 267.2,766.7 273.8,763.2L279.7,760.1L282.1,715.5L279.8,710.5C277.8,706 277.5,703.9 277.5,691.2L277.5,677L274,676.4C264.5,674.6 246.9,667.2 236.2,660.4C230.4,656.6 229,656.3 229,658.5C229,659.3 228.4,660 227.6,660C226.6,660 226,657.8 225.5,651.9L224.8,643.8L219.4,638.6C214.5,633.9 214,633 214,629.1C214,625.3 214.3,624.7 217.1,623.7C219.5,622.8 220,622.1 219.5,620.5C218.1,616.1 217.7,609 218.9,609C219.5,609 220.3,609.7 220.7,610.5C221,611.4 222.4,612.7 223.9,613.4C225.3,614.2 230.1,618 234.5,621.9C245.5,631.8 260.5,640 271.8,642.5L275,643.2L270.2,636.8C261,624.7 257.6,614.1 257.6,598C257.6,578.9 262.7,566.2 275.5,553.4C288.4,540.5 302,535 321,535.1C338,535.1 352,540.8 363.5,552.4C375.4,564.4 381,578.5 381,596.5C381,613.9 375.4,628.4 364.4,639.8L358.2,646.2L363.6,654.7C374.4,672 378.4,686.1 378.5,708C378.5,724.6 377.6,729.1 373.7,732.8C371.1,735.2 360.7,736.9 359.6,735.1C359.2,734.5 357.3,734 355.5,734C351.7,734 350,732 350,727.6C350,726.2 349.5,725 348.9,725C348.1,725 348,726.7 348.4,730.3C348.7,733.1 349.2,741 349.6,747.7L350.3,760L355.5,762.9C363,767.2 366.2,771.3 365.8,776.4C365.5,780.4 365.4,780.5 361,781.3C355.3,782.3 335.1,781.6 328.3,780C323.4,778.9 323,778.6 322.1,775.2C321.5,773.2 320.4,761.4 319.5,749C318.6,736.6 317.7,725.9 317.5,725.3C317.3,724.6 316,724 314.6,724C311.8,724 312.1,722.1 310,756.4C309.3,766.2 308.4,775.3 308,776.6C307,779 306.4,779.3 296.6,781C289.3,782.2 271.7,782.2 267.3,780.9ZM319.9,628.1C321.1,627.3 320.9,626.5 318.7,623.1C314,616 303.3,614.5 297.3,620.2C292.6,624.6 295.6,626.9 306.3,627.1C309.7,627.2 313.6,627.6 315,628C318.4,629.1 318.3,629.1 319.9,628.1ZM333.1,609.9C339.7,607.7 344,601.7 344,594.8C344,590 340.3,583.4 336.4,580.9C332.4,578.5 325.2,578.1 320.5,580.1L317.5,581.4L321.5,582C323.7,582.4 324.8,582.8 323.9,582.9C323.1,582.9 321,584.5 319.3,586.3C316.9,588.7 316,590.6 315.8,594L315.5,598.5L311.9,592.5L312.4,596.9C313,602.5 315.5,605.9 321,608.8C326,611.3 328.2,611.5 333.1,609.9ZM300.5,604.1C304.9,601.6 307.4,596.5 307.4,590.3C307.4,584.4 305.5,581 300,577.3C296.7,575 289.3,574.2 285.6,575.6C283.1,576.6 283.7,578 286.6,578C288.9,578 289,578.2 287.6,579.5C286.8,580.3 285.8,581 285.4,581C283.2,581 280,585.6 280,588.7C280,592.3 278.7,593 277.1,590.3C276.2,588.8 276.1,589.1 276,592C275.9,603.2 289.9,610.1 300.5,604.1Z" style="fill:rgb(19,138,66);fill-rule:nonzero;"/>
                </g>
                <g transform="matrix(4.16667,0,0,4.16667,9714.97,-3641.17)">
                    <path d="M90.5,782.8C81.7,778 86.4,765.7 99.3,760C101.9,758.9 104,757.4 104,756.7C104,756 103.3,748.3 102.5,739.5C101.7,730.7 101,722.7 101,721.6C101,720 100.5,719.9 97.8,720.5C96,720.9 91.1,721.2 87.1,721.1C81.1,721 79.2,720.6 77.5,719C68,710 64,675.8 68.6,642.5C71.3,622.9 78.6,598.5 86.5,583.1L89.1,577.9L85.7,572.2C69,543.7 68.2,503.8 83.7,477C88.6,468.7 100.7,456.6 109,451.7C135.8,436.1 170.4,438.3 195.4,457.2C207.4,466.3 216.7,480.7 221.1,497.5C224,508.3 224.3,531.5 221.6,544C219.4,554.5 215.1,565.9 210.7,572.9L207.3,578.2L210.5,584.9C214.8,593.7 220.5,609.1 222.2,616.4C223.1,620.8 224.2,622.8 226.3,624.3C227.8,625.5 229,627.2 229,628.2C229,630.5 228.7,630.5 224,627.8C220.3,625.7 220,625.6 218.4,627.2C216.9,628.7 216.9,629 218.6,632C220.2,634.7 226.6,639.8 230.3,641.4C231.1,641.7 230.9,642.3 229.8,643.3C228.2,644.6 228.1,645.7 229.1,656.1C231.7,682.8 225.8,715.8 217.7,720.2C215,721.6 203.1,722.3 201.6,721.1C200.4,720.1 195,719.9 195,720.9C195,721.2 194.3,728.7 193.5,737.5C191.5,759.3 191.2,757.3 197.1,760.1C203.1,762.9 208.7,769 209.6,773.6C211,781.3 207.1,784 194.1,784C187.1,784 185,783.7 185,782.6C185,781.6 187.2,781.1 193.3,780.8C203.1,780.2 206,778.9 206,775.5C206,771.7 199.8,765.6 193.5,763C189.3,761.3 188,760.3 188,758.7C188,757.5 188.7,748.2 189.5,738C191.8,708.9 191.8,708 189.8,708C188.8,708 187.3,706.9 186.4,705.5C184.6,702.8 185,699.4 188,692.6C189,690.4 190.2,685.2 190.6,681.3C191.2,674.9 191.5,674 193.3,674C195.2,674 195.2,674.4 194.6,681.8C194.2,686.6 193,691.5 191.4,694.9C187.4,703.6 190.7,707.7 195.5,700C196.9,697.8 198.4,696 199,696C201,696 201,698.3 198.9,702.3C196.4,707.2 194.9,712.6 195.7,714.6C197.2,718.5 202.4,713.4 204.3,706.3C205.1,703.3 205.9,702 207.2,702C209.7,702 209.5,705.4 206.5,711.8C203.5,718.3 203.5,718 206,718C208.1,718 210.6,714.1 212.5,707.5C213.9,702.9 217,701.4 217,705.3C217,706.6 216.3,709.7 215.5,712C213,719 215.6,718.8 219.1,711.7C224.4,701.4 227.4,672.1 225.1,653.4C223.9,643.7 223.8,643.4 219.4,639C212.7,632 211.8,626.2 217,623.5L219.9,622L218.4,616.8C215.5,607.1 210.8,594.6 206.9,586.2L203,577.8L207,571.1C223.6,543.2 224.2,501.9 208.4,477.2C193.9,454.6 166.6,442.4 138.9,445.9C108.2,449.8 86,470.3 78.4,501.7C75.7,512.7 76.1,534 79.3,546C81.8,555.6 85.5,564.6 90.7,573.2L93.5,577.9L89.8,585.2C72.4,620.4 65.7,670 74,702.7C76.1,710.8 79.3,717 81.5,717C82.5,717 82.4,715.9 80.9,712C78.5,705.6 78.4,702.7 80.7,703.2C81.8,703.4 83,705.4 84,708.7C85.7,714.6 88.1,718 90.6,718C91.8,718 92,717.5 91.5,716.3C88.2,708.6 87,704.5 87.4,703.4C88.4,700.7 89.9,702.1 93.1,709C95.4,714 96.8,716 98.1,716C100.7,716 100.6,709.9 98,704.1C96.9,701.7 96,699.2 96,698.4C96,695.4 98.1,696.2 100.5,700C105.3,707.6 107.8,702 103.8,692.8C101.7,687.9 101.5,686.2 101.5,669.5C101.6,652.4 102.7,639.7 105.2,626.8C106.1,622 106.6,621 108.3,621C110,621 110.2,621.4 109.6,624.8C107,639.3 105.7,654.7 105.6,670C105.6,686.4 105.7,687.8 108,692.9C111.7,701.2 110.8,708 106.1,708C104.1,708 104.2,712.1 106.5,739.3C108.6,762.6 108.9,760.4 102.5,763C95.7,765.8 89.7,771.9 90.2,775.8C90.5,778.2 91.2,778.7 96.3,779.9C103.6,781.6 104.2,784 97.3,784C94.6,784 91.6,783.4 90.5,782.8Z" style="fill:rgb(71,69,69);fill-rule:nonzero;"/>
                </g>
                <g transform="matrix(4.16667,0,0,4.16667,9714.97,-3641.17)">
                    <path d="M114,782.7C114,781.7 115.1,780.9 117.3,780.6C119,780.3 123.8,779.6 127.9,779C131.9,778.4 136,777.5 137,777C139.1,775.9 139.5,771.1 141,728C141.6,712.3 142.3,698.9 142.5,698.3C142.8,697.5 144.8,697 148,697C151.2,697 153.2,697.5 153.5,698.3C153.7,698.9 154.1,705.5 154.5,712.8C155.1,725.5 155.1,726 153.2,726C151.4,726 151.2,725 150.5,713.9C150,704.9 149.4,701.7 148.3,701.3C147.6,701 146.7,700.9 146.5,701.1C146.3,701.4 145.4,718.3 144.6,738.8C143.7,759.4 142.5,777 142,778C140.6,780.6 132.3,783 122.3,783.7C115.1,784.2 114,784.1 114,782.7Z" style="fill:rgb(71,69,69);fill-rule:nonzero;"/>
                </g>
                <g transform="matrix(4.16667,0,0,4.16667,9714.97,-3641.17)">
                    <path d="M166.5,782.9C159.6,781.3 154.1,778.9 153.6,777.2C153.1,775.8 151,736.6 151,729.3C151,727.7 151.6,727 153,727C154.4,727 155,727.7 155,729.3C155.1,740.7 157.2,775.6 157.8,776.2C158.6,777 169.3,779.3 178.3,780.6C180.6,780.9 182,781.6 182,782.5C182,784.2 173.3,784.4 166.5,782.9Z" style="fill:rgb(71,69,69);fill-rule:nonzero;"/>
                </g>
                <g transform="matrix(4.16667,0,0,4.16667,9714.97,-3641.17)">
                    <path d="M356.6,735.1C352.2,734.2 350,731.8 350,728C350,726.1 349.3,725.2 347,724.3C343.6,723 342.4,719.7 343.9,715.7C344.6,713.9 345.7,713 347.1,713C348.7,713 349,713.4 348.5,714.8C348.1,715.7 347.5,717.5 347.3,718.8C346.8,720.8 347.1,721 350.9,721L355,721L354.7,725.7C354.5,729.5 354.8,730.5 356.3,730.8C357.3,731 358,730.5 358,729.6C358,728.7 358.8,728 360,728C361.5,728 362.2,727.1 362.7,725C363,723.4 363.6,722 364,722C364.5,722 364.1,724.2 363.2,727C362.3,729.7 361.9,732.2 362.2,732.6C363.5,733.8 364.8,731.9 366,727C366.9,723.1 367.6,722 369.2,722C371,722 371.1,722.4 370.6,725.6C370.2,727.5 369.6,729.9 369.3,730.8C369.1,731.7 370.2,731 371.9,729.3C373.6,727.5 375.4,726 376,726C377.9,726 377,729 374.3,731.9C372,734.3 370.5,735 366,735.4C363,735.6 358.7,735.5 356.6,735.1Z" style="fill:rgb(71,69,69);fill-rule:nonzero;"/>
                </g>
                <g transform="matrix(4.16667,0,0,4.16667,9714.97,-3641.17)">
                    <path d="M349,708.1C349,706.5 348.7,703.8 348.4,702.1C347.8,699.4 348,699 349.8,699C351.4,699 352.1,699.8 352.6,702.5C353.4,706.9 352.4,711 350.5,711C349.5,711 349,710 349,708.1Z" style="fill:rgb(71,69,69);fill-rule:nonzero;"/>
                </g>
                <g transform="matrix(4.16667,0,0,4.16667,9714.97,-3641.17)">
                    <path d="M346.5,691.6C346.1,689.1 344.7,685 343.3,682.3C341.1,677.9 341.1,677.5 342.6,677.1C345,676.7 346.7,679.3 349,686.8C351.5,694.8 351.5,696 349.1,696C347.5,696 347,695.1 346.5,691.6Z" style="fill:rgb(71,69,69);fill-rule:nonzero;"/>
                </g>
                <g transform="matrix(4.16667,0,0,4.16667,9714.97,-3641.17)">
                    <path d="M339.3,673.5C339,672.6 339,671.7 339.3,671.3C340.3,670.3 343,671.9 343,673.5C343,675.5 340.1,675.5 339.3,673.5Z" style="fill:rgb(71,69,69);fill-rule:nonzero;"/>
                </g>
                <g transform="matrix(4.16667,0,0,4.16667,9714.97,-3641.17)">
                    <path d="M190.5,658.3C190.1,653.4 189,643.5 188,636.1C186.9,628.7 186.3,622.3 186.6,621.9C187.8,619.9 189.9,621.2 190.5,624.3C192.1,634 194,648.7 194.6,657.3C195.2,666.6 195.2,667 193.2,667C191.4,667 191.1,666.2 190.5,658.3Z" style="fill:rgb(71,69,69);fill-rule:nonzero;"/>
                </g>
                <g transform="matrix(4.16667,0,0,4.16667,9714.97,-3641.17)">
                    <path d="M309.8,630.7C306.2,629.9 305,629.2 305,627.8C305,625.7 306.3,625.6 314.2,627.2C317.3,627.9 320.2,628.1 320.6,627.7C321.8,626.5 316.6,619.7 313.4,618.4C311.6,617.6 308,617 305.5,617C301.6,617 300.9,616.7 301.2,615.3C301.4,614.1 302.6,613.4 304.7,613.2C313.5,612.3 324,619.4 324,626.2C324,628.1 323.5,630.1 322.8,630.8C321.4,632.2 316.5,632.2 309.8,630.7Z" style="fill:rgb(71,69,69);fill-rule:nonzero;"/>
                </g>
                <g transform="matrix(4.16667,0,0,4.16667,9714.97,-3641.17)">
                    <path d="M294,628.7C290.5,626.9 290.2,622.7 293.4,618.6C296.2,614.8 300,613.2 300,615.8C300,616.7 298.8,618.6 297.4,620.1C294.3,623.4 294.8,626 298.5,626C300.3,626 301,626.5 301,628C301,630.4 297.9,630.7 294,628.7Z" style="fill:rgb(71,69,69);fill-rule:nonzero;"/>
                </g>
                <g transform="matrix(4.16667,0,0,4.16667,9714.97,-3641.17)">
                    <path d="M113.2,613.7C110.1,610.4 110.4,604.9 114,597.2C118.6,587.4 120.2,587.7 124.7,599C127.6,606.4 127.6,611 124.7,613.8C121.5,616.8 116,616.7 113.2,613.7ZM121.8,610.8C122.5,610.1 123,608.6 123,607.3C123,604.6 120.1,597 119.1,597C117.8,597 115,604.1 115,607.5C115,609.3 115.6,611.1 116.3,611.3C118.5,612.2 120.6,612 121.8,610.8Z" style="fill:rgb(71,69,69);fill-rule:nonzero;"/>
                </g>
                <g transform="matrix(4.16667,0,0,4.16667,9714.97,-3641.17)">
                    <path d="M318.2,598.8C314.5,597.8 311.7,592.9 312.7,589.2C313.3,586.6 316,586.3 316,588.8C316,591.4 318.9,595 321,595C323.6,595 325.8,591.5 325.2,588.5C324.8,586.2 324.3,586 319.2,586C313.8,586 313.7,586 315.5,584C318.1,581.2 324,581.3 326.8,584.3C333.4,591.4 327.6,601.3 318.2,598.8Z" style="fill:rgb(71,69,69);fill-rule:nonzero;"/>
                </g>
                <g transform="matrix(4.16667,0,0,4.16667,9714.97,-3641.17)">
                    <path d="M279.1,592.6C272.2,585.3 281,574.2 289.9,579C292.4,580.3 294.4,585.4 293.6,588.5C291.9,595 283.6,597.4 279.1,592.6ZM288.3,589.6C292.2,586.6 289.1,582.1 283.3,582C279.8,582 279.6,582.5 280.6,587.9C281.1,590.4 281.7,591 283.9,591C285.3,591 287.3,590.3 288.3,589.6Z" style="fill:rgb(71,69,69);fill-rule:nonzero;"/>
                </g>
                <g transform="matrix(4.16667,0,0,4.16667,9714.97,-3641.17)">
                    <path d="M113.4,579.8C110.7,578.6 107,572.1 107,568.7C107,567.4 108.4,561.8 110,556.4C111.7,551 113.1,544 113.2,540.9C113.3,535.6 113.1,534.8 109.7,531.1C107.7,528.8 106,526.3 106,525.6C106,522.5 108.1,523.1 112.2,527.4C119.5,535 128.5,535 135.6,527.4C140.1,522.6 142,521.9 142,525C142,528 136.4,533.7 131.5,535.5C128.8,536.6 127,538 126.6,539.4C125.4,543.9 126.1,553.9 128,559.5C129.1,562.7 130,566.6 130,568.3C130,572 127.3,577.7 124.6,579.5C122.3,581.2 116.5,581.4 113.4,579.8ZM123.9,574.4C126.5,571.1 126.5,569.5 123.9,560.1C122.2,554.2 121.9,550.8 122.3,544.8L122.8,537.2L120,536.8C117.3,536.4 117.3,536.4 116.7,543.4C116.3,547.3 114.9,554 113.5,558.3C110.5,567.7 110.4,570.9 113.1,574.4C114.6,576.3 116.1,577 118.5,577C120.9,577 122.4,576.3 123.9,574.4Z" style="fill:rgb(71,69,69);fill-rule:nonzero;"/>
                </g>
                <g transform="matrix(4.16667,0,0,4.16667,9714.97,-3641.17)">
                    <path d="M172.2,579.7C166.5,576.5 165.2,570.9 167.9,560.2C170,552.3 170.6,543.7 169.4,539.3C169,537.8 166.9,536.2 163.4,534.6C156.3,531.3 151.6,524 156.1,523.3C156.9,523.1 158.7,524.8 160.2,527C162.2,529.9 164,531.2 167.1,532C174.4,534 182.8,531.3 185.5,526C187.1,523 189.3,522.1 190.5,524C191.4,525.4 187.3,531.7 184.8,533.1C182.9,534.1 182.8,534.9 183.3,541.9C183.6,546.1 185,552.8 186.4,556.9C189.4,565.4 189.7,570.8 187.5,575C184.8,580.2 177.4,582.5 172.2,579.7ZM182.9,574.4C185.7,570.9 185.6,566.3 182.4,557.2C181,553.1 179.6,546.7 179.3,542.8C178.8,537.4 178.4,536 177.3,536.5C176.5,536.8 175.3,537 174.6,537C173.6,537 173.4,538.8 173.8,544.3C174.1,549.6 173.6,553.7 172,559.9C170.8,564.8 170.2,569.4 170.5,571.1C171.8,577.1 179.3,579 182.9,574.4Z" style="fill:rgb(71,69,69);fill-rule:nonzero;"/>
                </g>
                <g transform="matrix(4.16667,0,0,4.16667,9714.97,-3641.17)">
                    <path d="M340.4,577.4C338.2,576 335.8,573.9 335.2,572.9C334.1,571.3 334.3,571 336.2,571C337.4,571 339.1,571.7 340.1,572.6C341,573.4 343.9,574.9 346.5,575.8C352.2,577.8 352.8,579.4 348,579.8C345.5,580 343.3,579.3 340.4,577.4Z" style="fill:rgb(71,69,69);fill-rule:nonzero;"/>
                </g>
                <g transform="matrix(4.16667,0,0,4.16667,9714.97,-3641.17)">
                    <path d="M278.3,571.4C277.6,571.1 277,570.2 277,569.4C277,568.4 278.2,568 280.9,568C285.9,568 289.8,566.5 293,563.5C294.7,561.8 296,561.4 296.9,562C298.1,562.7 298.1,563.2 296.7,565.4C295.7,566.8 293.7,568.6 292.1,569.4C289,571 280.2,572.3 278.3,571.4Z" style="fill:rgb(71,69,69);fill-rule:nonzero;"/>
                </g>
                <g transform="matrix(4.16667,0,0,4.16667,9714.97,-3641.17)">
                    <path d="M332.6,568.4C331.7,566.1 331.8,566 334,566C335.3,566 336,566.7 336,568C336,570.4 333.5,570.7 332.6,568.4Z" style="fill:rgb(71,69,69);fill-rule:nonzero;"/>
                </g>
                <g transform="matrix(4.16667,0,0,4.16667,9714.97,-3641.17)">
                    <path d="M132.3,559.3C131.3,556.8 137,552.4 142.9,551.1C146.6,550.3 149.4,550.3 153,551.1C158.2,552.2 164,556.1 164,558.5C164,560.9 162.3,561 159.9,558.9C156.5,555.9 153.6,555 147.9,555C142.8,555 138.4,556.7 136.1,559.4C134.4,561.5 133.1,561.4 132.3,559.3Z" style="fill:rgb(71,69,69);fill-rule:nonzero;"/>
                </g>
                <g transform="matrix(4.16667,0,0,4.16667,9714.97,-3641.17)">
                    <path d="M92.6,783C88.9,781.9 86,779.2 86,776.8C86,770.9 92.4,763.2 99.8,760.3L104.2,758.5L103.5,747.5C103,741.5 102.4,732.9 102.1,728.5L101.5,720.5L97.5,720.8C89.8,721.3 83.4,721.2 80.4,720.5C76.6,719.7 72.1,711 69.9,700.8C67.3,688.6 66.4,664.8 67.9,650.5C70.3,628.5 76.5,605.3 84.9,587.4C87.2,582.6 89,578.4 89,577.9C89,577.5 87.2,574.1 85.1,570.3C76.5,555.5 72.4,536.8 73.3,517.1C75,480.6 93.7,454.9 126,444.8C132.5,442.8 135.5,442.5 148.5,442.5C160.2,442.5 164.8,442.9 169.4,444.4C201.5,454.4 220.3,478.5 222.9,512.8C223.8,525 222.7,538.2 220,549.1C217.8,557.8 212.6,569.9 209.1,574.9L207,577.8L211.6,588.1C216.3,598.6 223,617.8 223,620.5C223,621.3 224.4,623.2 226,624.7C230.5,628.7 230,630.5 225,628C221.9,626.4 220.5,626.2 219,627C217.9,627.6 217,628.5 217,629.1C217,631.3 221.2,635.9 226.1,639.1C230.2,641.7 230.9,642.6 229.9,643.4C228.8,644.3 228.5,649.3 228.5,668C228.5,686.6 228.1,693.1 226.8,699.3C223.5,714.1 218.7,721.8 213.5,720.7C212,720.5 209.5,720.7 208,721.3C205.9,722.1 204.5,722.1 202.8,721.2C201.5,720.6 199.2,720 197.5,719.8L194.5,719.5L193,738.3C192,751 191.8,757.4 192.5,757.9C193,758.4 195.2,759.5 197.4,760.5C206.1,764.6 211.9,774.5 208.6,779.5C207.7,780.8 205.3,782.4 203.3,782.9C197.8,784.5 176.4,784.2 167.6,782.5C157.9,780.7 154.8,779.2 153.9,775.8C153.5,774.3 152.7,758.4 152,740.3C150.7,702.1 150.6,701 148.1,701C145.5,701 145,702.9 145,712.8C145,723.9 143.1,768.1 142.4,773.8C141.7,779.4 139.5,780.8 128.3,782.6C118.8,784.1 97.3,784.4 92.6,783ZM202.8,779.9C207.3,778.4 207.5,774.7 203.4,769.2C200.9,766 194.4,762 191.7,762C188.3,762 188.2,759.7 190.1,737C192.5,707.1 192.5,708.2 189.5,707.4C185.1,706.3 185,701.6 189,690.5C191.1,684.8 191.2,683.4 190.6,665C190.3,654.1 189.2,640.5 188.2,634.2C186.5,623.5 186.7,619.3 188.9,621.5C190.3,623 192.8,640.4 194,657C195.3,674.7 194.2,688.7 191,695C188.5,700 188.7,703.4 191.6,703.8C193.1,704 194.2,703.1 195.5,700.5C197.5,697 200,695.8 200,698.4C200,699.2 198.9,702 197.5,704.6C194.7,709.9 194.3,714.2 196.5,716C198.5,717.7 202.6,713.1 204.4,707.1C205.1,704.5 206.3,702.5 207.1,702.5C209.1,702.5 208.4,707.3 205.5,713.1C203.4,717.1 203.3,717.9 204.6,718.4C207,719.3 210.6,714.9 212.6,708.6C213.6,705.5 214.7,703 215.2,703C217.2,703 217.1,706.4 215.1,711.7C213.9,714.8 213.2,717.6 213.6,717.9C214.8,719.1 220,711.9 221.5,706.8C225.7,692.5 227.3,667.2 225,649.6C224.3,643.4 223.8,642.5 220.6,639.8C216.6,636.5 214,632.2 214,628.9C214,626.3 216.7,623 218.7,623C219.4,623 220,622.5 220,622C220,619.6 212.6,598.4 208.5,589C206,583.3 204,578.3 204,577.8C204,577.3 205.8,573.9 208,570.2C212.3,563.1 217.1,549.6 219,539.3C220.8,529 220.4,510.2 218,500.4C212.2,475.8 196.5,457.4 174.6,449.5C154.2,442.1 129.2,444.2 111,454.7C103.1,459.4 91.7,470.6 87.1,478.3C83,485.2 78.5,498.2 77.1,507C73.7,528.2 78.5,554 89.1,570.8L93.1,577.3L88.7,586.9C75.7,614.6 69,647.4 70.4,677C71.3,697 74.9,711.9 80.1,716.6C83,719.3 83.3,717.8 81,711.1C79,705.2 79,703 81,703C81.5,703 82.6,705.7 83.6,708.9C85.3,715.3 88.9,719.6 91.4,718.7C92.8,718.1 92.7,717.6 90.9,714C88.4,709.2 87.2,702 88.9,702C89.5,702 90.3,702.8 90.6,703.8C91.8,707.6 95.4,715.1 96.6,716C98.5,717.7 101,716 101,713.1C101,711.7 99.9,708.1 98.5,705.2C97.1,702.2 96,699.2 96,698.4C96,695.7 98.6,697 100.3,700.5C101.4,702.8 102.7,704 104,704C107.3,704 107.5,701.3 104.6,694.3C102,688.1 101.9,687 101.9,670.1C101.9,646.6 105.1,621.5 108,621.5C109.7,621.5 109.7,621.2 107.3,637C106.2,644.8 105.6,655 105.6,668.5C105.5,687.2 105.6,688.8 107.8,693.3C109,696 110,700 110,702.2C110,705.7 109.6,706.3 107,707.3C104.6,708.2 104,709 104,711.5C104,715.1 106.7,747.3 107.6,754.8L108.2,760L103.4,762.1C96.6,765.1 92.6,768.3 90.6,772.4C88.5,776.8 89.3,778.7 93.8,780C98.6,781.3 119,781.3 126.6,779.9C137.2,778.1 138.9,777.2 139.4,773.7C139.7,771.9 140.4,756.1 141,738.5C141.6,720.9 142.3,704.6 142.6,702.3L143.1,698L148,698C152.5,698 152.9,698.2 153.4,700.8C153.7,702.3 154.4,719 155.1,738C155.7,757 156.6,773.5 157.1,774.7C158.2,777.7 166.6,780.1 178.9,780.9C190.4,781.6 198.3,781.3 202.8,779.9Z" style="fill-rule:nonzero;"/>
                </g>
                <g transform="matrix(4.16667,0,0,4.16667,9714.97,-3641.17)">
                    <path d="M113.3,613.4C111.1,611.2 110.8,610.3 111.4,606.4C112,601.9 116.4,592.1 118.4,590.8C120.2,589.7 121.9,592.1 124.5,599.6C127.6,608.3 127.6,610.5 124.5,613.5C121.2,616.8 116.7,616.8 113.3,613.4ZM122,611C123.1,609.9 124,608.6 124,608C124,606.1 119.8,596 119.1,596C118.1,596 114,605.2 114,607.4C114,609.2 117.4,613 119,613C119.6,613 120.9,612.1 122,611Z" style="fill-rule:nonzero;"/>
                </g>
                <g transform="matrix(4.16667,0,0,4.16667,9714.97,-3641.17)">
                    <path d="M114.3,580C110.8,578.6 108,573.2 108,567.9C108,565.4 109.1,560 110.5,555.9C111.9,551.8 113.4,545.7 113.7,542.2C114.3,536.2 114.2,535.8 111.3,532.7C108.5,529.7 106,525.9 106,524.6C106,522.7 109.8,524.5 111.2,526.9C113.7,531.4 118.2,533.3 125.3,532.8C131.1,532.4 131.6,532.1 135.7,527.5C138.9,524.1 140.4,523 141.2,523.8C143.7,526.3 133.8,536 128.7,536C127.8,536 126.8,537.7 126.1,540.4C124.6,546.6 124.7,549.8 126.9,557.1C130.4,568.5 130.1,573.1 125.6,577.6C122.1,581.1 118.8,581.8 114.3,580ZM121.9,576.5C126.7,574.1 127.1,570.2 123.9,558.3C121.9,551.2 121.7,545 123.2,537.8C123.4,537 122.3,536.4 120.4,536.2L117.3,535.9L116.7,542.7C116.3,546.5 114.9,552.9 113.5,557C110.1,567 110.2,571.3 113.9,575.1C117.3,578.4 118,578.6 121.9,576.5Z" style="fill-rule:nonzero;"/>
                </g>
                <g transform="matrix(4.16667,0,0,4.16667,9714.97,-3641.17)">
                    <path d="M173.4,580.1C166.9,577.3 165.5,569.8 169,557.5C170.6,552.2 170.9,549 170.5,544.5C169.8,537.1 169.4,536.6 164.8,535.1C160.6,533.7 155,527.9 155,525C155,522.1 155.7,522.5 160.4,527.6C164.1,531.7 165.1,532.3 169.7,532.7C176.4,533.4 181.4,531.6 184.8,527.4C186.3,525.5 188.1,524 188.8,524C191.1,524 190,527 186.1,531.3C182.3,535.4 182.2,535.7 182.6,541.3C182.9,544.5 184.3,550.8 185.7,555.3C187.1,559.8 188.4,565.9 188.4,568.7C188.5,573.3 188.1,574.4 185.5,577C182.2,580.3 177,581.6 173.4,580.1ZM181,576.5C186,573.9 186.6,569.1 183.1,557.7C181.4,552.4 179.8,545.4 179.4,542L178.7,535.9L175.6,536.2C173.5,536.4 172.6,537 172.8,538C174.3,544.3 174.1,550.3 172.1,557.8C169.1,569.3 169.3,572.2 173.1,575.4C176.7,578.4 177.1,578.5 181,576.5Z" style="fill-rule:nonzero;"/>
                </g>
                <g transform="matrix(4.16667,0,0,4.16667,9714.97,-3641.17)">
                    <path d="M133,558.6C133,556.6 135.8,554 139.7,552.4C146.9,549.3 160.3,551.9 162.9,556.9C164.6,560 162.6,560.3 158.5,557.5C151.7,553 143.6,553 138.1,557.5C134.8,560.3 133,560.7 133,558.6Z" style="fill-rule:nonzero;"/>
                </g>
                <g transform="matrix(4.16667,0,0,4.16667,9714.97,-3641.17)">
                    <path d="M360.1,735.1C359.3,734.6 358.1,734.4 357.3,734.7C354.7,735.7 351.1,732.2 350.8,728.3C350.5,725 350.1,724.5 347.7,724.2C342.5,723.6 342.1,717.5 346.7,711.2C348.9,708.2 349.1,707.2 348.5,702.4C347.6,694.7 344.4,683.7 341.4,677.9C339,673.1 338.9,671 341.1,671C342.7,671 348.6,684.7 350.3,692.5C353.2,704.8 353.1,708.5 349.9,712.8C346.5,717.2 346.1,721 349,721C350,721 351.4,720.1 352,719C352.6,717.9 353.8,717 354.6,717C355.9,717 356,717.6 355.4,720.3C352.9,730.5 356,734.3 359.5,725.3C360.9,721.7 362.1,720 363.3,720C365.5,720 365.4,720.8 363.1,727C361.8,730.3 361.5,732.2 362.2,732.7C363.8,733.6 365.8,730.3 366.6,725.4C367.3,720.7 368.5,719.1 370.2,720.8C371,721.6 370.9,723.3 370.1,726.6C369.4,729.1 369.2,731.5 369.5,731.8C369.8,732.1 371.4,730.8 373,728.9C375.7,725.7 375.9,725.7 376,727.8C376,730.9 371.5,735.4 368.9,734.7C367.9,734.4 366.7,734.6 366.4,735.1C365.7,736.2 361.9,736.2 360.1,735.1Z" style="fill-rule:nonzero;"/>
                </g>
                <g transform="matrix(4.16667,0,0,4.16667,9714.97,-3641.17)">
                    <path d="M314.8,631.5C314.5,631.2 309.7,630.5 304,630C298.4,629.5 293.1,628.5 292.4,627.9C290.5,626.3 290.6,622 292.6,619.1C294.6,616.2 301.4,613.1 305.6,613C312.8,613 321.2,618 323.6,623.7C325.8,628.8 323.4,632 317.6,632C316.3,632 315.1,631.8 314.8,631.5ZM321,626.5C321,625.7 319.6,623.5 318,621.6C313.6,616.7 306.4,615.1 300.6,618C296.4,620 293.5,623.4 294.5,625C294.9,625.6 297.9,626.1 301.3,626.1C304.7,626.2 308.9,626.6 310.5,627C315.9,628.4 321,628.1 321,626.5Z" style="fill-rule:nonzero;"/>
                </g>
                <g transform="matrix(4.16667,0,0,4.16667,9714.97,-3641.17)">
                    <path d="M315.5,596.5C311.9,593 312,586.9 315.6,584.1C319.2,581.3 323.5,581.4 326.5,584.5C331.7,589.6 328.1,599 321,599C319.1,599 317,598.1 315.5,596.5Z" style="fill-rule:nonzero;"/>
                </g>
                <g transform="matrix(4.16667,0,0,4.16667,9714.97,-3641.17)">
                    <path d="M279.5,592.5C275.9,589 276,582.9 279.6,580.1C285.4,575.5 293.2,579.2 293.2,586.5C293.2,594 284.7,597.8 279.5,592.5Z" style="fill-rule:nonzero;"/>
                </g>
                <g transform="matrix(4.16667,0,0,4.16667,9714.97,-3641.17)">
                    <path d="M343,578.9C339.8,577.6 335.2,573.3 333.4,569.7C332.1,567.2 332.1,566.9 333.7,566.3C334.7,565.9 335.6,566.2 335.8,566.9C337,570.4 342.3,574.8 346.5,575.9C349.3,576.6 351,577.6 351,578.5C351,580.2 346.9,580.4 343,578.9Z" style="fill-rule:nonzero;"/>
                </g>
                <g transform="matrix(4.16667,0,0,4.16667,9714.97,-3641.17)">
                    <path d="M278.2,570.7C276.6,568.8 277.7,568 282.1,568C286.8,568 290.3,566.7 293,564C294.2,562.8 295.8,562.1 296.6,562.4C297.9,562.9 297.8,563.3 296.4,565.5C294.2,568.9 290.7,570.6 284.4,571.5C280.6,572 279.1,571.8 278.2,570.7Z" style="fill-rule:nonzero;"/>
                </g>
            </g>
        </g>
    </g>
</svg>
