<?xml version="1.0" encoding="UTF-8" standalone="no"?>
<!DOCTYPE svg PUBLIC "-//W3C//DTD SVG 1.1//EN" "http://www.w3.org/Graphics/SVG/1.1/DTD/svg11.dtd">
<svg width="100%" height="100%" viewBox="0 0 552 475" version="1.1" xmlns="http://www.w3.org/2000/svg" xmlns:xlink="http://www.w3.org/1999/xlink" xml:space="preserve" xmlns:serif="http://www.serif.com/" style="fill-rule:evenodd;clip-rule:evenodd;stroke-linejoin:round;stroke-miterlimit:2;">
    <g transform="matrix(1,0,0,1,-8294.98,-324.651)">
        <g transform="matrix(1,0,0,1,6691,0)">
            <g transform="matrix(1,0,0,1,-12098,1978)">
                <g transform="matrix(2.00091,0,0,2.00091,12624.5,-2577.67)">
                    <path d="M655.5,636.85C655.5,634.6 658.15,632 660.4,632C661.85,632 662,632.15 662,633.5C662,634.35 661.5,635.8 660.9,636.75C659.9,638.3 659.5,638.5 657.65,638.5C655.55,638.5 655.5,638.45 655.5,636.85ZM638.45,550.6C631.85,546.25 629.5,541.55 629.5,532.6C629.5,526.4 630.25,523.35 632.55,519.85C634.05,517.6 634.2,517.5 636.45,517.5C637.75,517.5 640.6,517.95 642.8,518.55C648.4,520 655.5,520.3 659,519.25C660.5,518.75 662.8,518.3 664.1,518.15L666.45,517.9L668,520.35C670.5,524.25 671.15,527.25 670.9,534.2C670.7,541.35 669.9,543.55 666.2,547.5C664.15,549.7 663.6,550 661.9,550L659.9,550L660.25,546.35C660.5,543.5 660.4,542.25 659.75,540.75C658.65,538.05 656.75,536.2 654.2,535.2C652.15,534.4 652,534.45 649.3,535.65C646.15,537.1 644.05,539.75 643.65,542.95C643.45,544.5 643.7,545.6 644.7,547.65C645.4,549.15 646,550.95 646,551.65C646,552.9 645.85,553 644.05,553C642.6,553 641.25,552.4 638.45,550.6ZM698.5,550.55C698.5,549.45 698.7,548.45 698.95,548.25C699.2,548.1 699.7,547.2 700,546.2C701.3,542.35 697.9,536.7 693.35,535.1C691.55,534.45 691.25,534.5 688.65,535.75C686.65,536.75 685.5,537.75 684.4,539.45C683,541.65 682.95,541.9 683.3,545.9L683.6,550L681.6,550C679.85,550 679.35,549.7 677.55,547.7C673.95,543.6 672.5,539.2 672.5,532.55C672.55,523.5 676.2,517.5 683.95,513.8C687.1,512.3 687.55,512.25 693.5,512.25C699.55,512.25 699.85,512.3 703.05,513.85C712.65,518.55 717.05,530.9 712.95,541.75C710.95,547.1 704.75,552.5 700.55,552.5L698.5,552.5L698.5,550.55Z" style="fill:white;"/>
                </g>
                <g transform="matrix(2.00091,0,0,2.00091,12624.5,-2577.67)">
                    <path d="M540.9,698.65C539.25,698.25 539.9,697 541.75,697C543.15,697 543.5,697.2 543.5,698C543.5,699 542.8,699.15 540.9,698.65ZM544.5,679.75C544.5,678.8 544.75,678 545,678C545.3,678 545.5,677.45 545.5,676.75C545.5,675.95 545.8,675.5 546.25,675.5C547.4,675.5 547.15,673.6 546,673.4C545,673.25 545.05,673.15 546.45,671.5L547.95,669.75L548.05,671.75C548.1,672.95 548.2,673.3 548.35,672.65C548.5,671.75 548.9,671.5 550.1,671.5C551.25,671.5 551.5,671.65 551.15,672.15C547.4,677 546,678.95 546,679.2C546,679.35 547.7,679.5 549.75,679.5C553.15,679.5 553.5,679.6 553.5,680.5C553.5,681.45 553.15,681.5 549,681.5L544.5,681.5L544.5,679.75ZM609.15,681.15C607.95,680.7 608.55,676 609.8,676C610.25,676 610.5,675.4 610.5,674.25C610.5,672.7 610.65,672.5 611.75,672.5C613.1,672.5 613.1,672.4 611.3,676.6C610.1,679.35 610.25,679.85 612,679.6C613.25,679.4 613.5,679.55 613.5,680.45C613.5,681.35 613.2,681.5 611.65,681.45C610.6,681.45 609.45,681.3 609.15,681.15ZM614,680.5C614,679.7 614.35,679.5 615.75,679.5C617.15,679.5 617.5,679.7 617.5,680.5C617.5,681.3 617.15,681.5 615.75,681.5C614.35,681.5 614,681.3 614,680.5ZM640.5,680.5C640.5,679.75 640.85,679.5 641.75,679.5C642.55,679.5 643,679.2 643,678.75C643,678.35 643.25,678 643.5,678C643.8,678 644,678.8 644,679.75C644,681.4 643.9,681.5 642.25,681.5C640.85,681.5 640.5,681.3 640.5,680.5ZM743,681C743,680.75 742.55,680.5 742,680.5C741.2,680.5 741,680.15 741,678.75C741,676.65 741.7,676.5 742.65,678.35L743.35,679.7L748.95,679.55C754.3,679.45 754.5,679.45 754.5,680.45C754.5,681.45 754.25,681.5 748.75,681.5C745.25,681.5 743,681.3 743,681ZM773.35,680.5C773.15,679.7 773.35,679.5 774.3,679.5L775.5,679.5L774,677.05C772.2,674.1 772.15,674 773.75,674C774.75,674 775,674.25 775,675.25C775,676 775.3,676.5 775.7,676.5C776.45,676.5 777,678 777,680.15C777,681.35 776.8,681.5 775.3,681.5C774.05,681.5 773.55,681.25 773.35,680.5ZM674.5,675.05L674.5,670.6L676.05,670.25C676.9,670.05 677.7,670.05 677.85,670.2C678.05,670.35 677.7,670.5 677.15,670.5C676.25,670.5 676.2,670.75 676.4,673.25C676.7,676.75 676.15,679.5 675.25,679.5C674.65,679.5 674.5,678.6 674.5,675.05ZM679,677C679,676.35 679.35,676 680,676C680.65,676 681,676.35 681,677C681,677.65 680.65,678 680,678C679.35,678 679,677.65 679,677ZM701.5,677C701.5,676.45 701.75,676 702,676C702.3,676 702.5,675.2 702.5,674.25C702.5,673 702.3,672.5 701.7,672.5C701.05,672.5 700.95,672.15 701.25,670.5C701.55,668.75 701.45,668.4 700.15,667.3L698.75,666.05L700.65,666C702.4,666 702.5,666.1 702.5,667.5C702.5,668.85 702.65,669 704.05,669C705.4,669 705.55,668.85 705.35,667.9C705.2,667.25 704.9,665.9 704.75,664.9L704.4,663L701.75,663C700.1,663 699,662.75 698.85,662.4C698.7,662.05 698.55,662.25 698.55,662.9C698.5,664.25 697.7,664.35 697.05,663.1C696.6,662.25 694.5,652.75 694.5,651.55C694.5,651.25 694.95,651 695.5,651C696.25,651 696.5,651.35 696.5,652.25C696.5,652.95 696.8,653.5 697.15,653.5C697.55,653.5 698.25,655.05 698.9,657.25C699.85,660.55 700.15,661 701.2,661C701.85,661 703.1,661.15 704,661.35L705.65,661.65L705.3,659.2C705.1,657.85 704.8,656 704.65,655.15C704.45,653.7 704.55,653.5 705.45,653.5C706.25,653.5 706.5,653.8 706.5,654.9C706.5,655.65 706.8,657.55 707.2,659.15C707.85,661.85 707.8,662 706.9,662C706.2,662 706,662.25 706.2,662.9C706.9,665.25 707.6,670.05 707.3,670.35C707.1,670.55 706.35,670.7 705.6,670.75C704.3,670.75 704.25,670.9 704.2,673.25C704.15,674.65 704,676.25 703.8,676.9C703.35,678.3 701.5,678.4 701.5,677ZM808,675.7C808,673.75 808.45,673.8 810,676L811.05,677.5L809.55,677.5C808.1,677.5 808,677.35 808,675.7ZM708.6,673.55C707.8,670.95 707.85,670.5 708.95,670.5C709.95,670.5 710.5,671.75 710.5,674.15C710.5,676.2 709.25,675.8 708.6,673.55ZM580,674.7C580,674.5 580.45,673.6 581.05,672.7C581.6,671.75 582,671 581.9,670.95C581.8,670.95 580.5,670.85 579,670.8C575.05,670.6 575,670.6 575,669.75C575,669.2 575.65,669 577.65,669C581.45,669 582.5,668.6 582.5,667.2C582.5,666.55 582.75,666 583,666C583.3,666 583.5,665.65 583.5,665.25C583.5,664.8 583.95,664.5 584.75,664.5C586.35,664.5 586.3,664.9 584.5,667.4C582.85,669.75 582.65,670.5 583.75,670.5C584.85,670.5 584.65,671.9 583.5,672.25C582.85,672.45 582.5,673 582.5,673.8C582.5,674.75 582.25,675 581.25,675C580.55,675 580,674.85 580,674.7ZM738.5,673.5C738.5,672.5 738.25,672 737.75,672C737.35,672 737,671.65 737,671.25C737,670.85 737.35,670.5 737.8,670.5C738.9,670.5 738.5,668.65 736.65,664.55C735.6,662.3 735,661.5 734.25,661.5C732.4,661.5 731.9,662.2 732.25,664.2C732.6,665.85 732.5,666 731.5,666C730.4,666 730.4,665.85 730.7,663.15C730.9,661.6 731.1,660.25 731.15,660.2C731.2,660.15 732.05,660 733.05,659.8C734.6,659.55 734.9,659.65 735.15,660.5C735.3,661.1 735.8,661.5 736.45,661.5C737.25,661.5 737.5,661.8 737.5,662.75C737.5,663.55 737.8,664 738.25,664C738.7,664 739,664.45 739,665.25C739,665.95 739.2,666.5 739.5,666.5C740.25,666.5 740.75,670.05 740,670.5C739.5,670.8 739.5,671.3 740.15,672.95L741,675L739.75,675C738.7,675 738.5,674.75 738.5,673.5ZM644.7,672.25C645,670.8 644.9,670.5 644.2,670.5C643.6,670.5 643.45,670.2 643.65,669.4C643.8,668.75 644.1,667.05 644.3,665.65C644.45,664.2 644.8,663 645.05,663C645.3,663 645.5,662.7 645.5,662.3C645.5,661.95 645.95,661.5 646.5,661.35C647.15,661.2 647.5,660.65 647.5,659.9C647.5,657.95 648.1,656.5 648.8,656.5C650.2,656.5 649.5,661.25 648.05,661.65C647.15,661.85 646.3,664.3 645.75,668.15C645.45,670.1 645.5,670.5 646.2,670.5C647.05,670.5 647.15,671.05 646.7,672.9C646.5,673.55 646,674 645.4,674C644.5,674 644.45,673.75 644.7,672.25ZM770.6,671.5C770.25,670.95 769.55,670.5 769,670.5C768.2,670.5 768,670.15 768,669C768,667.15 768.6,667.05 769.5,668.75C769.9,669.5 770.65,670.05 771.35,670.05C772,670.1 772.95,670.2 773.5,670.25C774.05,670.3 774.85,670.4 775.25,670.45C775.65,670.45 776,670.85 776,671.25C776,671.75 775.5,672 774.3,672C773.35,672 772.3,672.1 771.9,672.25C771.55,672.4 770.95,672.05 770.6,671.5ZM798.5,671.25C798.5,670.85 798.85,670.5 799.25,670.5C800.4,670.5 800.15,669.85 798.1,667.45C794.6,663.35 794.7,663.5 796.45,663.5C797.9,663.5 798,663.6 798,665.25C798,666.8 798.15,667 799.25,667C800.3,667 800.5,666.75 800.5,665.65L800.55,664.25L802.05,666C802.9,666.95 804,668.35 804.55,669.15L805.55,670.5L804.05,670.5C802.75,670.5 802.5,670.3 802.5,669.25C802.5,668.4 802.25,668 801.65,668.05C801.1,668.05 801,668.2 801.4,668.35C801.7,668.45 802,669.35 802,670.3C802,671.9 801.9,672 800.25,672C799.05,672 798.5,671.75 798.5,671.25ZM614.4,669.8C614.25,669.15 614.7,667.3 615.35,665.75C616.75,662.45 616.6,661.65 614.65,661.6C611.9,661.6 611.5,661.5 611.5,660.75C611.5,660.15 612.15,660 614.25,660C616.95,660 617,660 617,658.55C617,656.45 617.5,655.5 618.55,655.5C619.05,655.5 619.5,655.15 619.5,654.75C619.5,654.35 619.95,653.55 620.5,653C621.65,651.85 623,651.7 623,652.7C623,653.1 622.45,653.55 621.75,653.7C621.05,653.9 620.35,654.4 620.15,654.9C620,655.35 619.3,656.95 618.6,658.4C617.55,660.55 617.45,661.15 617.95,661.5C618.85,662.05 618.25,665.5 617.25,665.5C616.75,665.5 616.5,666.05 616.5,667.25C616.5,668.9 616.6,669 618.25,669C619.4,669 620,669.25 620,669.7C620,670.45 618.5,671 616.2,671C614.9,671 614.55,670.75 614.4,669.8ZM622.35,670.6C621.9,670.5 621.5,670.1 621.5,669.7C621.5,669.15 622.6,669 627.25,669C632.05,669 633,669.15 633,669.75C633,670.15 632.7,670.5 632.4,670.55C630.65,670.7 623.05,670.75 622.35,670.6ZM680,667.95C680,666.45 680.95,665 681.95,665C682.25,665 682.5,664.8 682.5,664.5C682.5,664.25 682.85,664 683.25,664C683.65,664 684,663.65 684,663.25C684,662.65 683.4,662.55 680.25,662.85C677,663.1 676.5,663.05 676.5,662.35C676.5,661.55 677.8,661.15 681.5,660.9C683.05,660.75 683.25,660.55 683.65,658.9C684.25,656.45 685.5,656.35 685.5,658.7C685.5,659.65 685.75,660.5 686.05,660.6C686.5,660.75 686.5,661.05 686.05,661.85C685.75,662.45 685.5,663.4 685.5,663.95C685.5,664.6 684.8,665.45 683.75,666.1C682.75,666.75 681.85,667.75 681.7,668.4C681.25,670.1 680,669.8 680,667.95ZM710.8,667.7C710.35,666.55 710.4,666.5 711.75,666.5C712.65,666.5 713,666.75 713,667.5C713,668.7 711.25,668.9 710.8,667.7ZM730,667.55C730,666.75 730.3,666.5 731.3,666.5C732.95,666.5 732.8,668.15 731.1,668.4C730.25,668.55 730,668.3 730,667.55ZM558,661.25C558,659.85 558.2,659.5 559,659.5C559.8,659.5 560,659.15 560,658C560,656.85 560.2,656.5 561,656.5C561.75,656.5 562,656.15 562,655.25C562,654.2 562.25,654 563.55,654C565.3,654 565.45,653.7 561.9,658.05C559.85,660.55 559.55,661.5 560.75,661.5C561.15,661.5 561.5,661.85 561.5,662.25C561.5,662.75 560.95,663 559.75,663C558.1,663 558,662.9 558,661.25ZM586.5,662.25C586.5,661.85 586.8,661.5 587.15,661.5C587.55,661.5 588.85,659.85 590.1,657.8L592.4,654.05L590.95,653.75C588.7,653.25 589.1,652 591.5,652C593.45,652 593.5,651.95 593.5,650.25C593.5,649.3 593.75,648.5 594,648.5C594.3,648.5 594.5,648.25 594.5,647.95C594.5,647.1 595.85,646 596.95,646C597.5,646 598.1,645.8 598.25,645.5C598.7,644.75 599.5,644.9 599.5,645.75C599.5,646.15 599.15,646.5 598.75,646.5C598.35,646.5 597.3,647.45 596.5,648.65C595.65,649.8 594.65,651.15 594.25,651.65C593.85,652.1 593.5,653.2 593.5,654C593.5,654.85 593.3,655.5 593,655.5C592.75,655.5 592.5,656.2 592.5,657C592.5,658 592.25,658.5 591.75,658.5C591.3,658.5 591,658.95 591,659.75C591,660.75 590.7,661.1 589.55,661.3C588.7,661.5 587.95,661.9 587.8,662.3C587.45,663.25 586.5,663.2 586.5,662.25ZM796.5,661.75C796.5,660.85 796.25,660.5 795.5,660.5C794.75,660.5 794.5,660.15 794.5,659.25C794.5,658.35 794.25,658 793.5,658C792.7,658 792.5,657.65 792.5,656.25C792.5,655.3 792.6,654.5 792.7,654.5C792.85,654.5 796.95,659.5 799.15,662.4C799.5,662.85 799.25,663 798.05,663C796.75,663 796.5,662.8 796.5,661.75ZM650.9,661.6C650.4,661.5 650,661.1 650,660.7C650,660.15 651.1,660 655.75,660C660.35,660 661.5,660.15 661.5,660.7C661.5,661.1 660.9,661.55 660.2,661.7C658.9,662.05 652.45,662 650.9,661.6ZM566.1,658.9C565.15,657.95 565.4,657.5 567,657.5C568.15,657.5 568.5,657.7 568.5,658.5C568.5,659.65 567.05,659.85 566.1,658.9ZM569.5,658.5C569.5,657.6 569.85,657.5 573,657.5C575.65,657.5 576.5,657.65 576.5,658.2C576.5,659.05 574.95,659.5 571.9,659.5C569.85,659.5 569.5,659.35 569.5,658.5ZM577.9,659.1C576.2,658.75 576.9,657.5 578.75,657.5C579.9,657.5 580.5,657.75 580.5,658.2C580.5,658.95 579.25,659.4 577.9,659.1ZM623.85,659.2C623.45,658.75 623.4,656.7 623.8,655.15C624.3,653.3 625.5,653.75 625.5,655.75L625.5,657.5L641.45,657.5L641.75,654.75C642.1,652.05 642.15,652 643.8,652C645.65,652 646.2,653.2 644.55,653.65C643.9,653.8 643.6,654.5 643.4,656.2C643.25,657.5 642.95,658.7 642.75,658.9C642.3,659.4 624.35,659.65 623.85,659.2ZM674.5,656.75L674.5,655L648.6,655L648.3,653.9C647.85,652.2 647.95,651.5 648.55,651.5C648.85,651.5 648.95,651.9 648.8,652.4C648.55,653.2 649.4,653.25 662.25,653.25C672.9,653.25 676,653.1 676,652.65C676,652.3 676.45,652 677,652C678.25,652 678.3,653.3 677.05,653.65C676.25,653.85 676.15,654.2 676.35,656.2C676.6,658.3 676.55,658.5 675.55,658.5C674.7,658.5 674.5,658.2 674.5,656.75ZM686,656C686,654.35 686.15,654 687,654C688.05,654 688.25,654.8 687.7,656.9C687.15,658.85 686,658.25 686,656ZM732,656.25C732,653.6 732.65,653.95 734.4,657.65C734.5,657.85 734,658 733.3,658C732.15,658 732,657.8 732,656.25ZM761.35,655.55C760.25,653.65 760.25,653.5 761.75,653.5C762.85,653.5 763,653.7 763,655.25C763,657.4 762.5,657.45 761.35,655.55ZM583.5,654.25C583.5,652.6 583.6,652.5 585.25,652.5C586.2,652.5 587,652.75 587,653C587,653.3 586.65,653.5 586.25,653.5C585.85,653.5 585.4,654.05 585.2,654.75C584.7,656.7 583.5,656.3 583.5,654.25ZM594,654.3C594,653.5 595.55,653 598.25,653C600.95,653 602.5,653.5 602.5,654.3C602.5,654.85 601.55,655 598.25,655C594.95,655 594,654.85 594,654.3ZM708.5,654.3C708.5,653.5 709.75,653.1 711.15,653.4C712.75,653.8 712.1,655 710.25,655C709.05,655 708.5,654.75 708.5,654.3ZM785.4,653.65C786,653.55 786.5,653.25 786.5,653.1C786.5,652.1 782.2,647 781.4,647C781.15,647 781.1,647.8 781.3,648.75C781.55,650.3 781.5,650.5 780.55,650.5C779.7,650.5 779.5,650.2 779.5,648.75C779.5,647.55 779.75,647 780.25,647C780.65,647 781,646.8 781,646.5C781,646.25 781.55,646 782.2,646C783.25,646 783.45,645.7 783.6,644.4L783.75,642.75L785.85,645.5C787.95,648.25 787.95,648.25 786.75,648.4C785,648.65 785,650.5 786.75,650.5C787.85,650.5 788,650.7 788,652.25C788,653.95 787.95,654 786.15,653.95C784.95,653.9 784.7,653.8 785.4,653.65ZM758,652.25C758,650.8 758.4,650.65 759.3,651.9C760.25,653.1 760.15,653.5 759,653.5C758.25,653.5 758,653.15 758,652.25ZM755.1,646.75L755.15,644.5L762.5,644.5L762.45,646.4C762.4,647.4 762.3,647.85 762.15,647.4C762,646.8 761.4,646.45 760.2,646.4C759.25,646.35 758.1,646.3 757.65,646.3C756.75,646.25 756.65,646.6 757.25,648.15C757.55,648.8 757.35,649 756.3,649C755.05,649 755,648.85 755.1,646.75ZM646,646.95C646,646 646.2,645.9 647.75,646.15C649.15,646.4 649.6,646.25 650,645.45C650.65,644.3 651.5,644.2 651.5,645.25C651.5,646.6 649.6,648 647.75,648C646.3,648 646,647.8 646,646.95ZM579,645.5C579,644.7 578.8,644 578.5,644C578.25,644 578,643 578,641.75C578,639.5 578,639.5 579.75,639.5C580.7,639.5 581.5,639.75 581.5,640C581.5,640.3 581.15,640.5 580.75,640.5C580.25,640.5 580,641 580,642C580,643.85 580.95,646 581.85,646C582.2,646 582.5,646.25 582.5,646.5C582.5,646.8 581.7,647 580.75,647C579.15,647 579,646.9 579,645.5ZM599.7,642.25C600.4,640.6 600.4,640.5 599.45,640.5C598.95,640.5 598.5,640.3 598.5,640C598.5,639.75 599.3,639.5 600.25,639.5C601.85,639.5 602,639.6 602,640.95C602,643.2 601.5,644 600.2,644C599,644 599,643.95 599.7,642.25ZM650.5,642.45C650.5,641.7 650.25,641.5 649.75,641.7C649.25,641.9 649,641.65 649,641C649,640.2 649.35,640 650.75,640C652.4,640 652.5,640.1 652.5,641.75C652.5,643.15 652.3,643.5 651.5,643.5C650.8,643.5 650.5,643.15 650.5,642.45ZM779,639.25C779,638.15 778.8,638 777.25,638C775.6,638 775.5,637.9 775.5,636.25C775.5,634.3 776.7,633.75 777.15,635.5C777.3,636.05 777.95,636.7 778.65,636.95C779.3,637.2 780.35,638.1 781,638.95L782.05,640.5L780.55,640.5C779.25,640.5 779,640.3 779,639.25ZM579,636.75C579,635.5 579.2,635 579.8,635C580.3,635 580.5,635.3 580.35,635.7C580.15,636.2 580.65,636.5 582.05,636.7C583.3,636.9 584,637.3 584,637.75C584,638.3 583.4,638.5 581.5,638.5L579,638.5L579,636.75ZM754,637.8C754,637.05 755.05,636.5 756.55,636.5C757.15,636.5 757.5,636.85 757.5,637.5C757.5,638.3 757.15,638.5 755.75,638.5C754.6,638.5 754,638.25 754,637.8ZM760,637.45C760,636.45 760.15,636.4 762.8,636.75C765.35,637.05 765.6,637 765.85,636.05C766.3,634.3 767.5,634.8 767.5,636.75L767.5,638.5L763.75,638.5C760.25,638.5 760,638.45 760,637.45ZM766,633.9C766,632.4 766.65,631 767.3,631C767.75,631 768,631.6 768,632.75C768,634.15 767.8,634.5 767,634.5C766.45,634.5 766,634.2 766,633.9ZM686.5,631.5C686.5,630.65 686.85,630.5 688.5,630.5C690.65,630.5 691.1,631.15 689.55,632C687.9,632.85 686.5,632.6 686.5,631.5ZM693.35,632.15C692.55,631.4 693.05,630.5 694.25,630.5C695.15,630.5 695.5,630.75 695.5,631.5C695.5,632.5 694.1,632.9 693.35,632.15ZM578.5,629.75C578.5,629.35 578.15,629 577.75,629C577.3,629 577,628.55 577,627.75C577,626.1 577.75,626.15 579.55,627.95C581.35,629.75 581.4,630.5 579.75,630.5C578.95,630.5 578.5,630.2 578.5,629.75ZM766.5,628.25C766.5,627.85 766.3,627.45 766,627.45C765.75,627.4 765.2,627.35 764.9,627.3C764.55,627.3 764.2,626.85 764.1,626.4C763.95,625.65 764.3,625.5 765.7,625.5C767.4,625.5 767.5,625.6 767.5,627.25C767.5,628.2 767.3,629 767,629C766.75,629 766.5,628.65 766.5,628.25ZM768,622.2C768,621.8 768.25,621.6 768.55,621.8C769.25,622.2 770,621.1 770,619.65C770,618.25 770.7,617.8 772.3,618.2C773.8,618.6 774,620.5 772.5,620.5C771.75,620.5 771.5,620.85 771.5,621.75C771.5,622.85 771.3,623 769.75,623C768.5,623 768,622.8 768,622.2ZM774.1,622.15C774.55,622.05 775.1,621.3 775.25,620.45C775.7,618.35 777,618.55 777,620.75C777,622.45 776.95,622.5 775.15,622.45C774.1,622.4 773.65,622.3 774.1,622.15ZM777.5,619.95C777.5,618.75 777.7,618.45 778.4,618.6C778.9,618.7 779.3,619.3 779.4,620.15C779.55,621.25 779.35,621.5 778.55,621.5C777.7,621.5 777.5,621.2 777.5,619.95ZM766.1,619.15C766.35,617.85 768,617.7 768,618.95C768,619.7 767.7,620 766.95,620C766.25,620 766,619.75 766.1,619.15ZM683.25,537.3C683.7,536.6 684.6,535.7 685.3,535.25C686.45,534.5 686.5,534.5 686.5,535.75C686.5,537.45 685.45,538.5 683.75,538.5C682.5,538.5 682.5,538.45 683.25,537.3ZM656,535.25C656,533.7 656.55,533.65 658.35,535.25L659.75,536.45L657.9,536.5C656.2,536.5 656,536.35 656,535.25ZM688,534.3C688,533.65 689.4,533 690.9,533C691.2,533 691.5,533.45 691.5,534C691.5,534.8 691.15,535 689.75,535C688.6,535 688,534.75 688,534.3ZM692,534C692,532.9 693,532.7 694.55,533.5C696.05,534.3 695.7,535 693.75,535C692.35,535 692,534.8 692,534Z" style="fill:rgb(235,172,153);"/>
                </g>
                <g transform="matrix(2.00091,0,0,2.00091,12624.5,-2577.67)">
                    <path d="M658.5,537.15L658.55,535.25L659.75,536.65C661.35,538.45 661.3,539 659.75,539C658.65,539 658.5,538.8 658.5,537.15ZM648.5,534.3C648.5,533.65 649.9,533 651.4,533C651.7,533 652,533.45 652,534C652,534.8 651.65,535 650.25,535C649.1,535 648.5,534.75 648.5,534.3Z" style="fill:rgb(20,152,231);"/>
                </g>
                <g transform="matrix(2.00091,0,0,2.00091,12624.5,-2577.67)">
                    <path d="M541.15,698.65C538.95,698.2 537.45,694.5 539.5,694.5C540.15,694.5 540.5,694.85 540.5,695.5C540.5,696.25 540.95,696.55 542.5,696.8C544,697.05 544.5,697.35 544.5,698.05C544.5,699 543.7,699.15 541.15,698.65ZM552,698C552,697.1 552.35,697 554.75,697C557.15,697 557.5,697.1 557.5,698C557.5,698.9 557.15,699 554.75,699C552.35,699 552,698.9 552,698ZM574,698C574,697.2 574.35,697 575.75,697C577.15,697 577.5,697.2 577.5,698C577.5,698.8 577.15,699 575.75,699C574.35,699 574,698.8 574,698ZM586,698C586,697.2 586.35,697 587.75,697C589.15,697 589.5,697.2 589.5,698C589.5,698.8 589.15,699 587.75,699C586.35,699 586,698.8 586,698ZM598,698C598,697.2 598.35,697 599.75,697C601.15,697 601.5,697.2 601.5,698C601.5,698.8 601.15,699 599.75,699C598.35,699 598,698.8 598,698ZM602,698C602,697 602.35,697 616.75,697C631.15,697 631.5,697 631.5,698C631.5,699 631.15,699 616.75,699C602.35,699 602,699 602,698ZM634,698C634,697.1 634.35,697 636.75,697C639.15,697 639.5,697.1 639.5,698C639.5,698.9 639.15,699 636.75,699C634.35,699 634,698.9 634,698ZM646,698C646,697.2 646.35,697 647.75,697C649.15,697 649.5,697.2 649.5,698C649.5,698.8 649.15,699 647.75,699C646.35,699 646,698.8 646,698ZM650,698C650,697.2 650.35,697 651.75,697C653.15,697 653.5,697.2 653.5,698C653.5,698.8 653.15,699 651.75,699C650.35,699 650,698.8 650,698ZM654,698C654,697.2 654.35,697 655.75,697C657.15,697 657.5,697.2 657.5,698C657.5,698.8 657.15,699 655.75,699C654.35,699 654,698.8 654,698ZM658,698C658,697.1 658.35,697 660.75,697C663.15,697 663.5,697.1 663.5,698C663.5,698.9 663.15,699 660.75,699C658.35,699 658,698.9 658,698ZM668,698C668,697.05 668.35,697 679.75,697C691.15,697 691.5,697.05 691.5,698C691.5,698.95 691.15,699 679.75,699C668.35,699 668,698.95 668,698ZM694,698C694,697.2 694.35,697 695.75,697C697.15,697 697.5,697.2 697.5,698C697.5,698.8 697.15,699 695.75,699C694.35,699 694,698.8 694,698ZM701.5,698C701.5,697.2 701.85,697 703.25,697C704.65,697 705,697.2 705,698C705,698.8 704.65,699 703.25,699C701.85,699 701.5,698.8 701.5,698ZM706,698C706,697 706.35,697 736.75,697C767.15,697 767.5,697 767.5,698C767.5,699 767.15,699 736.75,699C706.35,699 706,699 706,698ZM778,698C778,697.2 778.35,697 779.75,697C781.15,697 781.5,697.2 781.5,698C781.5,698.8 781.15,699 779.75,699C778.35,699 778,698.8 778,698ZM782,698C782,697.2 782.35,697 783.75,697C785.15,697 785.5,697.2 785.5,698C785.5,698.8 785.15,699 783.75,699C782.35,699 782,698.8 782,698ZM786,698C786,697.05 786.35,697 791.5,697C796.65,697 797,697.05 797,698C797,698.95 796.65,699 791.5,699C786.35,699 786,698.95 786,698ZM812,696.75C812,695.35 812.2,695 813,695C814.1,695 814.3,696 813.5,697.55C812.7,699.05 812,698.7 812,696.75ZM538.5,687.45C538.5,682.2 538.95,680 540,680C540.3,680 540.5,682.65 540.5,686.5C540.5,692.65 540.45,693 539.5,693C538.55,693 538.5,692.65 538.5,687.45ZM811.85,682.15C811.65,682 811.5,681.3 811.5,680.65C811.5,679.85 811.2,679.5 810.5,679.5C809.75,679.5 809.5,679.15 809.5,678.25C809.5,677.35 809.25,677 808.5,677C807.85,677 807.5,676.65 807.5,676C807.5,675.45 807.15,675 806.75,675C806.3,675 806,674.55 806,673.8C806,672.9 805.7,672.55 804.9,672.4C804.15,672.3 803.7,671.85 803.6,671.15C803.4,669.9 802,669.55 802,670.75C802,671.25 801.5,671.5 800.3,671.5C798.25,671.5 797.45,670.65 799.25,670.4C800.45,670.25 800.35,670.05 796.95,666C793.55,661.9 793.5,661.75 794.7,661.6C796.2,661.4 796.45,660 795,660C794.25,660 794,659.65 794,658.75C794,657.85 793.75,657.5 793,657.5C792.25,657.5 792,657.15 792,656.25C792,655.35 791.75,655 791,655C790.25,655 790,654.65 790,653.75C790,652.95 789.7,652.5 789.25,652.5C788.8,652.5 788.5,652.95 788.5,653.75C788.5,654.85 788.3,655 786.75,655C785.55,655 785,654.75 785,654.25C785,653.85 785.35,653.5 785.75,653.5C786.9,653.5 786.65,652.75 784.75,650.05C783.25,647.95 782.15,647 781.2,647C781.1,647 781.05,647.95 781.1,649.1C781.2,650.8 781.05,651.25 780.4,651.4C779.7,651.55 779.5,651.25 779.5,650.3C779.5,649.6 779.75,649 780,649C780.3,649 780.5,648.2 780.5,647.25C780.5,645.7 780.65,645.5 781.75,645.5C782.55,645.5 783,645.2 783,644.75C783,644.35 782.65,644 782.25,644C781.8,644 781.3,643.6 781.15,643.15C780.95,642.65 780.6,642.1 780.35,641.95C780.15,641.8 780,640.9 780.1,639.95C780.25,638.25 780.25,638.25 784.25,643.5C787.85,648.25 803.8,668.4 811.05,677.35C812.7,679.35 814,681.35 814,681.75C814,682.5 812.45,682.8 811.85,682.15ZM800,666.5C800,665.95 799.65,665.5 799.25,665.5C798.85,665.5 798.5,665.95 798.5,666.5C798.5,667.05 798.85,667.5 799.25,667.5C799.65,667.5 800,667.05 800,666.5ZM798,663.25C798,662.85 797.65,662.5 797.25,662.5C796.85,662.5 796.5,662.85 796.5,663.25C796.5,663.65 796.85,664 797.25,664C797.65,664 798,663.65 798,663.25ZM547,680.8C547,679.7 548.5,679.55 562.95,679.5C570.5,679.5 576.8,679.35 577.05,679.25C577.5,678.95 582,671.3 582,670.85C582,670.65 581.5,670.5 580.9,670.45C580.25,670.45 580.05,670.3 580.4,670.15C580.7,670.05 581,669.5 581,668.95C581,668.45 581.25,668 581.5,668C581.8,668 582,667.65 582,667.25C582,666.85 582.45,666.5 583,666.5C583.8,666.5 584,666.15 584,665C584,663.85 584.2,663.5 585,663.5C585.65,663.5 586,663.15 586,662.5C586,661.85 586.35,661.5 587,661.5C587.55,661.5 588,661.6 588,661.75C588,661.9 586.75,663.9 585.25,666.15C582.75,669.8 582.6,670.25 583.5,670.4C584.5,670.55 584.95,671.5 584,671.5C583.75,671.5 583.5,671.95 583.5,672.5C583.5,673.05 583.15,673.5 582.75,673.5C582.3,673.5 582,673.95 582,674.75C582,675.55 581.7,676 581.25,676C580.8,676 580.5,676.45 580.5,677.25C580.5,678.25 580.25,678.5 579.25,678.5C578.2,678.5 578,678.75 578,680L578,681.5L562.5,681.5C549.6,681.5 547,681.4 547,680.8ZM608.5,679.75C608.5,678.3 608.7,678 609.5,678C610.2,678 610.5,678.3 610.4,678.8C610.25,679.5 611.85,679.6 626.5,679.55L642.75,679.5L644,675.15C644.9,672 645.5,670.7 646.15,670.6C646.8,670.45 647,670.75 647,671.7C647,672.4 646.8,673 646.5,673C646.25,673 646,673.45 646,673.95C646,676.05 644.8,680 644.15,680C643.8,680 643.5,680.35 643.5,680.75C643.5,681.4 641.2,681.5 626,681.5L608.5,681.5L608.5,679.75ZM741.5,680.5C741.5,679.95 741.3,679.5 741.1,679.5C740.45,679.5 739.5,677.1 739.5,675.5C739.5,674.5 739.25,674 738.75,674C738.25,674 738,673.45 738,672.25C738,670.1 739.25,669.85 739.75,671.9C739.95,672.65 740.8,674.7 741.7,676.5C742.95,679.1 743.55,679.75 744.5,679.85C745.2,679.85 746.15,679.9 746.65,679.95C747.1,680 747.5,680.35 747.5,680.75C747.5,681.35 746.85,681.5 744.5,681.5C741.85,681.5 741.5,681.4 741.5,680.5ZM751.5,680.75C751.5,679.65 753.9,679.45 765.15,679.6C770.85,679.7 775.5,679.65 775.5,679.55C775.5,679.45 774.5,677.7 773.25,675.7L771,672L772.45,672C773.9,672 774.5,672.75 774.5,674.55C774.5,675.05 774.8,675.5 775.2,675.5C775.85,675.5 776.5,677.9 776.5,680.4L776.5,681.5L764,681.5C753.4,681.5 751.5,681.4 751.5,680.75ZM708,680.25C708,679.85 708.35,679.5 708.8,679.5C709.5,679.5 709.55,679.15 709.3,677.25C709,675.25 709.05,675 709.9,675C710.65,675 710.95,675.45 711.2,676.9C711.8,680.65 711.7,681 709.75,681C708.55,681 708,680.75 708,680.25ZM545,677.75C545,676.55 544.75,676 544.25,676C543.75,676 543.5,676.5 543.5,677.5C543.5,678.85 543.35,679 541.95,679C540.15,679 539.85,679.55 545,673.3C547.95,669.75 548.25,669.5 548.4,670.65C548.5,671.55 548.9,672 549.75,672.1C550.85,672.25 550.8,672.4 548.35,675.85C546.9,677.85 545.6,679.45 545.4,679.45C545.15,679.5 545,678.7 545,677.75ZM547.3,674C547.7,674 548,673.8 548,673.5C548,673.25 547.55,673 547,673C546.2,673 546,673.3 546.05,674.65C546.1,675.8 546.2,675.95 546.35,675.15C546.45,674.5 546.9,674 547.3,674ZM702,676.5C702,675.35 702.2,675 703,675C704.15,675 704.35,676.45 703.4,677.4C702.45,678.35 702,678.1 702,676.5ZM610,675.25C610,674.05 610.25,673.5 610.75,673.5C611.25,673.5 611.5,673 611.5,672C611.5,670.85 611.75,670.5 612.45,670.5C613.35,670.5 613.7,669.85 616.35,663.6C617,662.05 617,661.9 616,661.65C614.85,661.35 614.8,661 615.6,659.25C616.3,657.75 618.85,657.35 618.25,658.9C617.4,660.95 617.4,661.5 618.2,661.5C619.2,661.5 619.25,662.95 618.25,663.3C617.85,663.5 617.5,664.2 617.5,665C617.5,666.95 617.05,668 616.2,668C615.75,668 615.5,668.55 615.5,669.5C615.5,670.65 615.25,671 614.55,671C613.9,671 613.25,671.85 612.35,674C610.85,677.4 610,677.85 610,675.25ZM680,674.75C680,672.8 681.2,672.25 681.65,674C681.8,674.55 682.25,675 682.7,675C683.15,675 683.5,675.35 683.5,675.75C683.5,676.25 682.95,676.5 681.75,676.5C680.1,676.5 680,676.4 680,674.75ZM701.25,670.95C701.6,668.55 701.5,668.35 700.1,667.1C698.45,665.65 696.5,662.3 696.5,660.9C696.5,660.45 696.9,659.95 697.4,659.85C698.05,659.65 698,659.6 697.15,659.55C696.25,659.5 696,659.05 695.55,656.9C694.3,650.5 694.3,650.5 695.45,650.5C696.15,650.5 696.5,650.8 696.5,651.5C696.5,652.3 696.85,652.5 698,652.5C698.85,652.5 699.5,652.75 699.5,653C699.5,653.3 699.15,653.5 698.75,653.5C697.8,653.5 697.85,654.55 698.9,658C699.5,659.85 700.15,660.9 700.9,661.25C702.3,661.85 702.35,663 700.95,663C700.2,663 700,663.2 700.2,663.8C700.35,664.25 700.5,665.15 700.5,665.8C700.5,666.8 700.75,667 702,667C703.65,667 703.7,667.2 703.2,671.2C702.95,673.05 702.65,673.5 701.9,673.5C701,673.5 700.95,673.25 701.25,670.95ZM708.3,672.4C707.85,670.65 707.9,670.5 709,670.5C709.8,670.5 710,670.85 710,672C710,673.8 708.75,674.05 708.3,672.4ZM674,671.5C674,670.85 674.35,670.5 675,670.5C675.65,670.5 676,670.15 676,669.5C676,668.85 676.35,668.5 677,668.5C677.65,668.5 678,668.85 678,669.5C678,670.15 677.65,670.5 677,670.5C676.35,670.5 676,670.85 676,671.5C676,672.15 675.65,672.5 675,672.5C674.35,672.5 674,672.15 674,671.5ZM643.5,670C643.5,669.75 643.95,669.5 644.5,669.5C645.05,669.5 645.5,669.75 645.5,670C645.5,670.3 645.05,670.5 644.5,670.5C643.95,670.5 643.5,670.3 643.5,670ZM705,666.9C704.7,664.9 704.3,662.85 704.2,662.4C704,661.75 704.2,661.5 704.9,661.5C705.8,661.5 705.85,661.3 705.5,659.65C704.45,654.6 704.45,653.5 705.45,653.5C706.2,653.5 706.45,654 706.7,655.9C707.3,659.9 707.35,660 709.55,660C711.45,660 711.5,660.05 711.5,661.75C711.5,662.7 711.3,663.5 711,663.5C710.75,663.5 710.5,663.15 710.5,662.75C710.5,662.2 709.9,662 708.25,662C707,662 706,662.15 706,662.4C706.05,662.6 706.35,664.2 706.75,666C707.7,670.25 707.65,670.5 706.55,670.5C705.75,670.5 705.5,669.9 705,666.9ZM767,668.25C767,667.5 766.7,667 766.3,667C765.9,667 765.45,666.65 765.3,666.2C764.85,665.05 764.95,662.5 765.4,662.5C765.75,662.5 769.5,668.65 769.5,669.25C769.5,669.4 768.95,669.5 768.25,669.5C767.25,669.5 767,669.25 767,668.25ZM644,667C644,665.9 644.25,665 644.5,665C644.8,665 645,664.2 645,663.25C645,661.85 645.2,661.5 646,661.5C647.1,661.5 647.25,662.3 646.55,664.1C646.25,664.75 645.95,666.1 645.75,667.15C645.35,669.75 644,669.7 644,667ZM550.05,667C550.7,666.2 553.5,662.7 556.25,659.15C559.55,654.95 561.3,653.1 561.4,653.65C561.65,654.85 563,654.7 563,653.5C563,652.7 563.35,652.5 564.75,652.5C566.4,652.5 566.5,652.6 566.5,654.25C566.5,656.2 565.65,656.65 565.4,654.9C565.25,653.9 564.8,654.35 562.3,657.5C559.65,660.9 559.5,661.25 560.45,661.4C562.15,661.65 561.65,662.5 559.75,662.5C558.35,662.5 558,662.3 558,661.5C558,660.95 557.8,660.5 557.5,660.5C557.25,660.5 557,660.95 557,661.5C557,662.25 556.65,662.5 555.75,662.5C554.7,662.5 554.5,662.75 554.5,664C554.5,665.25 554.3,665.5 553.25,665.5C552.2,665.5 552,665.75 552,667C552,668.35 551.85,668.5 550.45,668.5L548.85,668.5L550.05,667ZM711.1,667.9C710.25,667.05 710.35,665.5 711.3,665.5C711.7,665.5 712.4,665.8 712.8,666.2C713.2,666.6 713.5,667.3 713.5,667.7C713.5,668.65 711.95,668.75 711.1,667.9ZM729.5,667.5C729.5,666.95 729.75,666.5 730,666.5C730.3,666.5 730.5,665.7 730.5,664.75C730.5,663.6 730.75,663 731.2,663C732.55,663 733,667.7 731.7,668.2C730.25,668.75 729.5,668.5 729.5,667.5ZM738.3,668.05C738.15,667.85 737.8,667.05 737.55,666.3C737.05,665.1 737.15,665 738.25,665C739.35,665 739.5,665.2 739.5,666.75C739.5,668.4 738.9,669.05 738.3,668.05ZM678.5,662.3C678.5,661.55 680,661 682.05,661C683.25,661 683.4,660.75 683.95,658C684.35,656 684.8,655 685.3,655C685.7,655 686,654.5 686,653.75C686,652.85 686.25,652.5 687,652.5C688.15,652.5 688.2,652.95 687.45,657.3C686.9,660.5 685.7,662.8 685.2,661.65C684.75,660.65 684,660.9 684,662C684,662.9 683.65,663 681.25,663C679.25,663 678.5,662.8 678.5,662.3ZM676,662C676,661.75 675.65,661.5 675.25,661.5C674.65,661.5 674.5,660.85 674.5,658.5C674.5,656.3 674.7,655.5 675.2,655.5C676,655.5 676.5,657 676.5,659.65C676.5,660.95 676.7,661.5 677.25,661.5C677.65,661.5 678,661.75 678,662C678,662.3 677.55,662.5 677,662.5C676.45,662.5 676,662.3 676,662ZM763.4,661.65C764,661.55 764.5,661.35 764.5,661.2C764.5,661.05 763.6,659.4 762.5,657.45C761.4,655.5 760.5,653.8 760.5,653.7C760.5,653.6 760.95,653.5 761.5,653.5C762.05,653.5 762.5,653.85 762.5,654.25C762.5,654.65 762.8,655 763.2,655C763.6,655 764.2,655.8 764.55,656.75C764.9,657.7 765.4,658.5 765.65,658.5C765.85,658.5 766,659.25 765.9,660.15C765.75,661.6 765.6,661.75 764,661.85C763.05,661.85 762.75,661.8 763.4,661.65ZM588.5,661C588.5,660.75 589.4,659.05 590.5,657.2C592.45,654.1 592.5,653.9 591.5,653.65C590.2,653.3 590.2,652.15 591.5,651.75C592.05,651.6 592.5,651.1 592.5,650.7C592.5,650.3 593,650 593.75,650C595.2,650 595.3,650.4 594.25,651.8C593.3,653.05 593.3,653.5 594.25,653.5C594.65,653.5 595,653.8 595,654.2C595,654.6 594.65,655 594.25,655.2C593.85,655.35 593.5,655.8 593.5,656.25C593.5,656.65 593.15,657 592.75,657C592.3,657 592,657.45 592,658.25C592,659.05 591.7,659.5 591.25,659.5C590.85,659.5 590.5,659.95 590.5,660.5C590.5,661.15 590.15,661.5 589.5,661.5C588.95,661.5 588.5,661.3 588.5,661ZM732.8,659.9C732.65,659.25 732.5,658.25 732.5,657.65C732.5,656.95 732.2,656.5 731.7,656.5C731.15,656.5 731,656.1 731.1,654.9C731.25,653.4 731.4,653.25 733,653.15C733.95,653.15 734.25,653.2 733.65,653.35C733,653.45 732.5,653.65 732.5,653.75C732.5,653.85 733.05,655.1 733.75,656.6C734.45,658.05 735,659.65 735,660.15C735,661.45 733.2,661.25 732.8,659.9ZM647.5,660.15C647.5,660 647.75,658.4 648.05,656.65C648.5,654 648.75,653.5 649.6,653.5C650.5,653.5 650.6,653.7 650.25,655.15C650.1,656 649.8,657.6 649.65,658.65C649.45,660 649.15,660.5 648.45,660.5C647.9,660.5 647.5,660.35 647.5,660.15ZM566.4,658.95C564.7,657.95 565.55,657.5 569,657.5C571.65,657.5 572.5,657.65 572.5,658.2C572.5,659.4 568.1,659.95 566.4,658.95ZM641.2,657.45C641.35,656.6 641.5,655.55 641.5,655.2C641.5,654.8 642,654.5 642.55,654.5C643.5,654.5 643.6,654.7 643.3,656.05C643.15,656.9 643,657.95 643,658.3C643,658.7 642.5,659 641.95,659C641,659 640.9,658.8 641.2,657.45ZM623.5,657.9C623.5,656.4 624.15,655 624.8,655C625.25,655 625.5,655.6 625.5,656.75C625.5,658.15 625.3,658.5 624.5,658.5C623.95,658.5 623.5,658.2 623.5,657.9ZM618,655.8C618,654.2 618.15,654 619.25,654C620.45,654 620.5,654.05 619.85,655.6C618.9,657.9 618,658 618,655.8ZM646,652.5C646,651.95 646.35,651.5 646.75,651.5C647.15,651.5 647.5,651.05 647.5,650.55C647.5,650 647.65,649.25 647.8,648.8C648.05,648.2 647.8,648 646.8,648C645.8,648 645.5,647.75 645.5,646.95C645.5,646.05 645.7,645.95 647.7,646.25C649.85,646.6 649.9,646.55 650.25,645.05C650.7,643 652,643 652,645C652,646 651.75,646.5 651.25,646.5C650.4,646.5 650.45,646.45 649.25,650.65C648.55,653.15 648.3,653.5 647.25,653.5C646.35,653.5 646,653.25 646,652.5ZM758.2,653.15C757.2,652.95 755.5,650.2 755.5,648.75C755.5,648.15 754.65,648 751.25,648C747.35,648 747,647.9 747,647C747,646.1 747.35,646 751.25,646L755.55,646L754.75,644.5C753.75,642.6 753.8,642.5 755.2,642.5C756,642.5 756.55,642.85 756.75,643.5C756.9,644.05 757.3,644.5 757.55,644.5C757.8,644.5 758,644.85 758,645.25C758,645.65 757.65,646 757.25,646C756.2,646 756.3,646.35 758.3,650.15C759.25,652 759.9,653.45 759.65,653.45C759.45,653.4 758.8,653.25 758.2,653.15ZM761.75,651.05C761.6,650.75 761.6,649.65 761.8,648.55C762.1,646.7 762.05,646.55 760.8,646.2C758.85,645.75 759.15,644.5 761.2,644.5C762.75,644.5 762.9,644.65 763.15,646.4C763.3,647.4 763.6,649 763.75,649.9C764.1,651.3 764,651.5 763.1,651.5C762.5,651.5 761.95,651.3 761.75,651.05ZM686.5,648C686.5,646.6 686.7,646 687.2,646C688.3,646 688.6,646.85 688.25,648.5C687.75,650.8 686.5,650.4 686.5,648ZM694.5,647.5C694.5,646.85 694.85,646.5 695.5,646.5C696.15,646.5 696.5,646.85 696.5,647.5C696.5,648.15 696.15,648.5 695.5,648.5C694.85,648.5 694.5,648.15 694.5,647.5ZM580,647C580,646.45 579.7,646 579.3,646C578.45,646 578,644.45 578,641.4L578,639L579.75,639C581.7,639 582.2,640.2 580.45,640.65C579.35,640.95 579.35,641.7 580.5,644.75L581,646L588,646C594.65,646 595,646.05 595,647C595,647.95 594.65,648 587.5,648C580.35,648 580,647.95 580,647ZM596,647C596,646.35 596.35,646 597,646C597.5,646 598.2,645.55 598.5,645C599.25,643.6 600,643.75 600,645.25C600,646.25 599.75,646.5 598.75,646.5C598.05,646.5 597.35,646.85 597.2,647.25C596.75,648.35 596,648.15 596,647ZM569.1,642.75C570.55,640.55 571,640.55 571,642.75C571,644.35 570.9,644.5 569.5,644.5L568,644.5L569.1,642.75ZM685.5,640.75C685.5,638.75 686.7,638.3 687.2,640.15C687.7,642 687.55,642.5 686.5,642.5C685.7,642.5 685.5,642.15 685.5,640.75ZM570.75,639.55C570.9,639.3 570.8,638.95 570.5,638.75C569.55,638.15 569.95,636.5 571,636.5C571.8,636.5 572,636.85 572,638.25C572,639.5 571.8,640 571.2,640C570.8,640 570.55,639.8 570.75,639.55ZM578.5,636.75C578.5,635.3 578.7,635 579.55,635C580.3,635 580.5,635.2 580.3,635.8C580.1,636.35 580.35,636.7 581,636.85C582.75,637.3 582.2,638.5 580.25,638.5C578.6,638.5 578.5,638.4 578.5,636.75ZM755,637.6C755,636.8 755.45,636.65 757.75,636.55C761.05,636.45 762.5,636.8 762.5,637.8C762.5,638.35 761.65,638.5 758.75,638.5C755.45,638.5 755,638.4 755,637.6ZM776,636.75C776,635.8 776.25,635 776.5,635C776.8,635 777,635.35 777,635.75C777,636.15 777.55,636.6 778.25,636.8C780.2,637.3 779.8,638.5 777.75,638.5C776.1,638.5 776,638.4 776,636.75ZM766,634.65C766,632.95 766.6,631.5 767.3,631.5C767.8,631.5 768,632.15 768,633.5C768,635.15 767.85,635.5 767,635.5C766.4,635.5 766,635.15 766,634.65ZM569.7,633.25C569.55,632.55 569.55,631.4 569.7,630.7C570.05,629.35 572.1,627 573,627C573.9,627 573.55,629.25 572.5,630C571.8,630.5 571.5,631.3 571.5,632.6C571.5,634.8 570.2,635.3 569.7,633.25ZM686,631.55C686,630.75 686.3,630.5 687.25,630.5C688.05,630.5 688.5,630.2 688.5,629.75C688.5,629.35 688.95,629 689.5,629C690.25,629 690.5,629.35 690.5,630.2C690.5,631.65 690.3,631.8 687.85,632.25C686.2,632.6 686,632.5 686,631.55ZM693.65,632.15C692.25,631.6 693,630.5 694.75,630.5C696.15,630.5 696.5,630.7 696.5,631.5C696.5,632.5 695.2,632.8 693.65,632.15ZM579,631C579,630.75 578.55,630.05 578,629.5C577.45,628.95 576.8,628.5 576.5,628.5C576.25,628.5 576,628.05 576,627.5C576,626 577.7,626.25 579.45,628.05C581.25,629.8 581.5,631.5 580,631.5C579.45,631.5 579,631.3 579,631ZM766.5,628.2C766.5,627.75 766.05,627.3 765.5,627.15C763.75,626.7 764.3,625.5 766.25,625.5C767.9,625.5 768,625.6 768,627.25C768,628.45 767.75,629 767.25,629C766.85,629 766.5,628.65 766.5,628.2ZM775.5,627.25C775.5,625.6 775.6,625.5 777.25,625.5C779.2,625.5 779.75,626.7 778,627.15C777.45,627.3 777,627.75 777,628.2C777,628.65 776.65,629 776.25,629C775.75,629 775.5,628.45 775.5,627.25ZM766.85,623.65C766.65,623.5 766.5,622.6 766.5,621.65C766.5,620.5 766.25,620 765.75,620C765.35,620 765,619.65 765,619.25C765,618.85 765.35,618.45 765.75,618.45C766.15,618.4 766.8,618.35 767.15,618.3C767.45,618.25 767.85,619 768,620C768.35,622.3 769.7,622.4 769.9,620.15C770.2,617.15 773.5,617.55 773.5,620.55C773.5,622.4 774.85,622.5 775.3,620.75C775.8,618.8 777,619.2 777,621.3L777,623.15L774.3,622.8C772.15,622.55 771.55,622.65 771.3,623.25C771.05,624 767.5,624.35 766.85,623.65ZM777.5,621C777.5,619.2 777.7,618.5 778.2,618.5C778.95,618.5 779.5,620 779.5,622.15C779.5,623.15 779.25,623.5 778.5,623.5C777.65,623.5 777.5,623.15 777.5,621ZM660,540.75C660,538.75 661.2,538.3 661.7,540.15C662.2,542 662.05,542.5 661,542.5C660.2,542.5 660,542.15 660,540.75ZM656.5,536.55C656.5,536.3 655.5,535.8 654.25,535.45C652.65,535 652,534.5 652,533.9C652,533.3 652.4,533 653.1,533C654.5,533 658.15,534.75 659.25,536C660.15,537 660.1,537 658.35,537C657.3,537 656.5,536.8 656.5,536.55ZM696,536.5C696,536.25 695.65,536 695.25,536C694.85,536 694.5,535.8 694.5,535.5C694.5,534.75 690.45,534.95 689,535.75C688.3,536.15 686.95,536.45 686,536.45L684.25,536.45L685.65,535.25C687,534.05 689.85,533 691.7,533C693.55,533 696.5,534.15 698.1,535.55L699.75,536.95L697.9,537C696.85,537 696,536.8 696,536.5ZM647,535C647,534.4 648.65,533.5 649.7,533.5C650.15,533.5 650.5,533.95 650.5,534.5C650.5,535.3 650.15,535.5 648.75,535.5C647.8,535.5 647,535.3 647,535Z" style="fill:rgb(165,99,110);"/>
                </g>
                <g transform="matrix(2.00091,0,0,2.00091,12624.5,-2577.67)">
                    <path d="M711.1,698.6C710.05,698.9 552.3,697 626.25,697C698.95,697 712,697.1 712,697.7C712,698.05 711.6,698.5 711.1,698.6ZM719.4,698.6C717.7,698.25 718.4,697 720.25,697C721.4,697 722,697.25 722,697.7C722,698.45 720.75,698.9 719.4,698.6ZM723.4,698.6C722.9,698.5 722.5,698.1 722.5,697.7C722.5,697.1 724.8,697 737.25,697C750.05,697 752,697.1 752,697.75C752,698.15 751.7,698.5 751.4,698.55C749.6,698.7 724.1,698.75 723.4,698.6ZM754.4,698.6C753.9,698.5 753.5,698.1 753.5,697.7C753.5,697.1 757.4,697 780.25,697C803.05,697 807,697.1 807,697.7C807,698.1 806.4,698.55 805.65,698.7C804.1,699 755.8,698.9 754.4,698.6ZM612.5,671.9C612.5,670.5 614.35,669 616,669C618,669 618,670.3 615.95,670.75C615.1,670.95 614.3,670.95 614.1,670.8C613.95,670.6 613.5,671 613.15,671.6C612.65,672.5 612.55,672.6 612.5,671.9ZM645.3,671.25C645.5,670.85 645.9,670.5 646.3,670.5C646.7,670.5 647,670.85 647,671.25C647,671.65 646.55,672 646,672C645.35,672 645.1,671.75 645.3,671.25ZM770.7,671.25C770.5,670.85 769.95,670.5 769.45,670.5C768.85,670.5 768.5,670.15 768.5,669.5C768.5,668.95 768.65,668.5 768.9,668.5C769.1,668.5 769.55,668.95 769.9,669.5C770.25,670.05 770.85,670.5 771.25,670.5C771.65,670.5 772,670.85 772,671.25C772,671.65 771.75,672 771.5,672C771.2,672 770.85,671.65 770.7,671.25ZM548,669.5C549.55,667.3 550,667.25 550,669.2C550,670.85 549.9,671 548.45,671L548,669.5ZM643.5,669.5C643.5,668.85 643.85,668.5 644.5,668.5C645.15,668.5 645.5,668.85 645.5,669.5C645.5,670.15 645.15,670.5 644.5,670.5C643.85,670.5 643.5,670.15 643.5,669.5ZM735.8,662.7C735.35,661.55 735.4,661.5 736.5,661.5C737.15,661.5 737.5,661.85 737.5,662.5C737.5,663.7 736.25,663.85 735.8,662.7ZM554.05,662.15C554.45,661.65 555.15,660.8 555.65,660.3C556.5,659.35 556.5,659.35 556.5,661.15C556.5,662.9 556.4,663 554.95,663C553.55,663 553.45,662.9 554.05,662.15ZM734,660.75C734,660.35 734.25,660 734.5,660C734.8,660 735,660.35 735,660.75C735,661.15 734.8,661.5 734.5,661.5C734.25,661.5 734,661.15 734,660.75ZM729,654.75C729,654.35 728.8,654 728.5,654C728.2,654 728,652.6 728,650.8C728,649 728.25,647.4 728.5,647.25C728.8,647.1 729,646.2 729,645.25C729,644.3 729.25,643.4 729.5,643.25C730.1,642.9 729.65,639.65 728.65,636.75C727.55,633.55 725.55,631.1 722.55,629.25C719.35,627.25 719,627.15 719,628.45C719,629.45 714.8,634.05 712.55,635.6C711.65,636.25 711.45,636.7 711.7,637.7L712,638.95L714.25,637.95C715.7,637.3 717.3,637 718.65,637.1C720.7,637.25 720.75,637.3 720.9,639.15C721.05,640.95 720.8,641.35 718.05,644.25C716.2,646.2 714.85,648.05 714.7,648.95C714.45,650.05 714.1,650.5 713.4,650.5C712.5,650.5 712.4,650.25 712.7,648.4L713.05,646.25L703.45,646.55L703.8,648.8C704.1,650.8 704,651 703.1,651C702.3,651 702.05,650.65 701.9,649.4L701.75,647.75L698.9,647.9C696.6,648.05 696,647.95 696,647.35C696,646.95 696.45,646.5 697,646.35C698.4,646 698.25,644.55 696.75,644C696.05,643.75 695.35,643.2 695.2,642.8C695.05,642.4 695.55,640.25 696.3,638.05C697.95,633.15 697.6,632.45 693.4,632.05C692.5,631.95 693.1,630.5 694,630.5C694.7,630.5 695,630.2 694.95,629.4C694.9,627.8 694.1,625.5 694.05,626.65C694,627.7 693,627.8 693,626.75C693,626.2 692.45,626 691,626C689.45,626 689.1,626.15 689.3,626.75C689.5,627.15 689.8,627.5 690.05,627.5C690.3,627.5 690.5,627.95 690.5,628.5C690.5,629.15 690.15,629.5 689.5,629.5C688.95,629.5 688.5,629.3 688.5,629C688.5,628.75 688.3,628.5 688.05,628.5C687.8,628.5 687.45,629.4 687.25,630.5C687.05,631.75 686.65,632.5 686.2,632.5C685,632.5 684.95,633.65 685.95,636.65C686.95,639.45 686.95,639.5 685.95,639.5C685.25,639.5 685,639.85 685,640.75C685,641.75 685.25,642 686.35,642L687.7,642L686,643.75C684.55,645.2 684.45,645.5 685.2,645.8C685.65,646 686.2,646 686.35,645.85C686.75,645.45 688.5,646.4 688.5,647C688.5,647.3 687.25,647.5 685.75,647.5C684,647.5 683,647.3 683,646.9C683,646.6 682.65,646.7 682.1,647.15C681.6,647.65 680.45,648 679.6,648C678.25,648 678,648.2 678,649.25C678,650.15 677.75,650.5 677,650.5C676.2,650.5 676,650.15 676,648.65L676,646.75L670.4,646.9C667.3,647 664.1,646.95 663.25,646.8C661.1,646.4 660,644.3 660,640.65C660,638.9 659.8,638 659.55,638.4C659.3,638.8 658.4,639 657.2,638.9C655.5,638.75 655.2,638.55 655,637.35L654.75,635.95L652.5,638.2C650.55,640.25 650.4,640.5 651.4,640.5C652.3,640.5 652.5,640.8 652.5,642.25C652.5,643.7 652.3,644 651.45,644C650.6,644 650.45,643.75 650.6,642.75C650.75,642.05 650.7,641.5 650.45,641.5C650.25,641.5 648.55,642.45 646.7,643.65L643.4,645.75L645.2,645.9C646.6,646.05 647,646.3 647,647.05C647,647.85 646.65,648 644.25,648C642.15,648 641.5,647.85 641.5,647.25C641.5,646.7 640.95,646.5 639.5,646.5C636.65,646.5 636.3,645.35 636.7,637.6L637.05,631.45L635.55,630C634.75,629.15 633.7,628.5 633.25,628.5C630.75,628.5 627.95,634.35 629.8,635.7C631.8,637.2 629.5,649.55 627.05,650.2C626.6,650.3 625.65,650.55 624.95,650.7C624.05,650.9 623.5,651.4 623.3,652.25C623.05,653.15 622.65,653.5 621.8,653.5C620.65,653.5 620.6,653.4 621.15,651.7C621.8,649.55 621.45,649.25 617.65,648.75C616.15,648.55 614,648 612.85,647.45C611.7,646.95 610.15,646.5 609.45,646.5C607.85,646.5 606.6,645.15 604.3,641.1C602.3,637.55 602.15,637 603.25,637C604.15,637 604.2,637.05 603.2,633.3C602.55,630.9 602.45,628.65 602.65,622.5C602.85,615.7 603.1,614.15 604.45,609.65C605.95,604.75 611.35,591.75 614.5,585.5L616.05,582.45L612.8,578.15C609.35,573.55 604.95,565.45 602.8,559.75C592.95,533.4 599.5,503.75 619.7,483.7C626.85,476.6 630.75,473.75 638.75,469.75C656,461.2 674.9,459.65 694.25,465.25C714.25,471.05 732.65,488.45 740.3,508.85C743.8,518.1 745.25,525.95 745.15,535C745.1,544.85 743,555.1 739.2,564.05C737.6,567.9 733.35,575.05 730.65,578.55C729.5,580.05 728.5,581.45 728.5,581.65C728.5,581.85 730,583.85 731.85,586.1C738.7,594.6 745.45,606.85 747.8,615C749,619.1 749.1,620.2 748.9,625.4C748.7,629.8 748.4,631.95 747.6,634C747,635.5 746.5,636.8 746.5,636.85C746.5,636.9 746.95,637 747.5,637.1C748.5,637.25 748.5,637.3 747.4,638.85C746.55,640.05 745.75,640.5 744.2,640.75C743.05,640.9 740.8,641.85 739.2,642.8C737.55,643.8 735,644.9 733.5,645.25L730.75,645.9L736.4,645.95C741.65,646 742,646.05 742,647C742,647.95 741.65,648 737.5,648L733,648L733,649.75C733,651.8 731.8,652.2 731.3,650.25C730.8,648.2 730,648.8 730,651.25C730,652.9 730.2,653.5 730.75,653.5C731.15,653.5 731.5,653.15 731.5,652.75C731.5,652.35 731.75,652 732,652C732.3,652 732.5,652.8 732.5,653.75C732.5,655.4 732.4,655.5 730.75,655.5C729.55,655.5 729,655.25 729,654.75ZM649.15,577.05C648.95,575.1 648.75,574.6 648.4,575.2C648.05,575.85 648.85,580.35 649.3,579.9C649.35,579.8 649.25,578.55 649.15,577.05ZM667.75,562.9C671.5,561.65 679.55,561.15 682.85,561.95C684.15,562.3 685.7,562.65 686.25,562.8C686.95,562.95 686.8,562.8 685.9,562.25C684.15,561.25 678.8,560 676.25,560C673.35,560 668.85,561.25 664.65,563.25C660.9,565 659.5,566.15 662.9,564.7C663.9,564.25 666.1,563.45 667.75,562.9ZM650,598.15C650,597.75 649.55,598.15 647.5,600.4L645.25,602.75L647.65,600.5C648.95,599.3 650,598.25 650,598.15ZM643.5,549.9C641.5,546.4 641.1,541.5 642.8,541.5C643.25,541.5 643.5,542.1 643.5,543.15C643.5,545.15 645,548.45 646.5,549.75C647.4,550.55 648.3,550.75 650.95,550.7C654.7,550.7 657.6,549.55 659.15,547.4C660.25,545.9 660.95,541 660.05,541C659.75,541 659.5,540.2 659.5,539.2C659.5,536.6 660.55,537.25 661.65,540.55C662.4,542.7 662.5,543.8 662.1,545.9C661.85,547.3 661.85,548.5 662,548.5C662.8,548.5 667.15,543.3 668.15,541.1C669.1,539.1 669.25,537.85 669.25,533C669.25,527.85 669.1,526.95 667.95,524.5C667.25,523 666.2,521.2 665.65,520.55C664.7,519.35 664.6,519.35 662.7,520.1C661.65,520.55 659.8,521.05 658.65,521.25C656.7,521.55 656.5,521.5 656.5,520.55C656.5,519.8 656.8,519.5 657.65,519.5C658.7,519.5 664,517.3 664,516.85C664,516.75 662.7,517.1 661.15,517.65C658.65,518.5 657.35,518.6 651.5,518.35C647.35,518.15 643.25,517.7 640.85,517.1C638.7,516.55 637.1,516.3 637.35,516.55C637.9,517.1 646.95,519.5 648.65,519.5C649.7,519.5 650,519.75 650,520.55C650,521.5 649.8,521.55 647.4,521.25C645.95,521.05 643.1,520.45 641.05,519.95C639,519.4 636.95,519 636.45,519C635.35,519 632.7,523.05 631.75,526.2C631.35,527.55 631,530.45 631,532.6C631,539.9 633.8,545.05 639.95,549.1C641.95,550.4 643.8,551.5 644.05,551.5C644.3,551.5 644.05,550.75 643.5,549.9ZM642.6,539.45C643.15,537.8 646.05,534.5 646.95,534.5C647.25,534.5 647.5,535.05 647.5,535.75C647.5,536.55 647.2,537 646.75,537C646.35,537 646,537.35 646,537.75C646,538.15 645.65,538.5 645.25,538.5C644.8,538.5 644.5,538.95 644.5,539.75C644.5,540.75 644.25,541 643.3,541C642.15,541 642.1,540.9 642.6,539.45ZM679.5,576.7C679.5,576.4 674.2,579.4 671.65,581.1C667.85,583.65 669.35,583.05 674.5,579.95C677.25,578.25 679.5,576.8 679.5,576.7ZM640.5,607.25C642,605.75 643.1,604.5 642.95,604.5C642.85,604.5 641.5,605.75 640,607.25C638.5,608.75 637.4,610 637.55,610C637.65,610 639,608.75 640.5,607.25ZM666,584.1C665.05,584 663.9,583.65 663.5,583.35C662.85,582.8 662.85,582.85 663.5,583.75C664.65,585.3 665.05,585.45 666.45,584.85L667.75,584.25L666,584.1ZM696.15,550.25C697.85,549.45 700,546.7 700,545.35C700,544.85 700.4,544.5 701,544.5C702.3,544.5 702.3,546.15 701,548.75C700.45,549.8 700.15,550.8 700.3,550.95C700.85,551.5 705.2,548.6 707.7,546C711.8,541.75 713.6,535.9 712.55,530.25C711.3,523.6 707.3,518.2 701.55,515.35C698.55,513.9 697.85,513.75 693.5,513.75C689.2,513.75 688.45,513.9 685.4,515.35C679.1,518.3 675.55,522.85 674.4,529.35C673.7,533.5 674.35,538.3 676,541.8C677.15,544.2 681.2,548.95 681.7,548.45C681.85,548.3 681.75,546.95 681.45,545.45C680.85,542.5 681.6,539.05 682.95,538.6C683.5,538.4 683.6,538.95 683.3,541.4C682.9,544.95 683.95,547.7 686.3,549.25C689.1,551.1 693.5,551.55 696.15,550.25ZM700,542C700,541.2 699.8,540.5 699.5,540.5C699.25,540.5 699,539.7 699,538.75C699,537.8 699.2,537 699.45,537C700,537 701.4,539.95 701.8,541.95C702.1,543.3 702,543.5 701.05,543.5C700.2,543.5 700,543.2 700,542ZM683.55,537.05C683.9,536.55 684.55,535.9 685.05,535.55C685.9,535.05 686,535.15 686,536.5C686,537.85 685.85,538 684.5,538C683.15,538 683.05,537.9 683.55,537.05ZM651.7,591.75C651.65,588.6 650.65,582.15 650.25,582.6C650.15,582.7 650.3,585 650.6,587.75C650.85,590.5 650.95,593.75 650.8,595C650.55,596.9 650.6,597.1 651.1,596.25C651.45,595.7 651.7,593.7 651.7,591.75ZM659.4,635.25C660,634.3 660.45,633.5 660.35,633.5C660.25,633.5 659.45,634.3 658.5,635.25C657.45,636.3 657.1,637 657.55,637C657.9,637 658.75,636.2 659.4,635.25ZM693.5,502.6C697.75,502.45 699.4,502.6 702,503.45C704.4,504.2 705,504.25 704.25,503.7C702.2,502.2 696.6,500.85 693.3,501.15C690.05,501.4 684.6,503.35 682.5,505C681.65,505.7 682.4,505.5 684.75,504.4C687.85,502.95 688.85,502.75 693.5,502.6ZM697,574.95C697,572.15 692.85,570.25 689.5,571.6C687.8,572.3 687.85,572.3 691.15,572.1C695.6,571.8 696.2,572.3 695.85,576C695.6,578.55 695.6,578.65 696.25,577.5C696.65,576.8 696.95,575.65 697,574.95ZM676.65,615.55C680.2,614.6 683.5,613.25 683.5,612.8C683.5,612.3 672.7,616.1 672.05,616.85C671.4,617.5 671.4,617.6 672,617.15C672.4,616.85 674.5,616.15 676.65,615.55ZM689.55,608.4C690.85,607.05 691.75,605.45 692.3,603.75C693,601.35 692.95,600.9 692.25,599.15C691.8,598.1 691.05,596.8 690.55,596.25C690,595.65 689.5,594.2 689.4,592.6C689.25,591.15 688.8,589.6 688.3,589.1C687.85,588.6 687.5,587.55 687.5,586.85C687.5,585.2 687.15,585.2 685.25,586.75L683.75,588L685.3,588C687.45,588 688,588.8 688,591.95C688,594.45 688.15,594.8 689.75,596.3C691.4,597.8 691.5,598.05 691.5,601.2C691.5,605.25 690.85,606.7 687.65,609.5C686.35,610.7 685.75,611.35 686.4,611.05C687.05,610.7 688.45,609.5 689.55,608.4ZM657,573.25C657,572.8 654.05,571.5 653,571.5C652.4,571.5 651.45,571.8 650.85,572.15C649.85,572.7 650.15,572.8 653.25,573.05C655.2,573.2 656.8,573.35 656.9,573.4C656.95,573.45 657,573.4 657,573.25ZM667.9,627.1C666.65,626.95 666.5,626.75 666.5,625.15L666.5,623.4L664.15,626C661.2,629.25 661.1,629.5 662.7,629.5C663.65,629.5 664,629.75 664,630.5C664,631.35 664.35,631.2 666.65,629.4C669.2,627.3 669.25,627.25 667.9,627.1ZM690.3,624C692.45,624 692.5,624 692.5,622.3C692.5,621.05 692.75,620.5 693.4,620.3C694.2,620.05 704.65,618.75 714.65,617.65C717.8,617.3 719.05,616.5 716.4,616.5C710.95,616.5 685.2,620.7 678.25,622.75C674.15,623.9 675.1,624.05 679.5,622.95C681.55,622.4 684.15,622.05 685.25,622.1C687.05,622.25 687.25,622.4 687.45,623.75C687.55,624.6 687.75,624.95 687.85,624.65C688,624.25 689,624 690.3,624ZM710.5,654.25C710.5,653.85 710.85,653.5 711.3,653.5C711.75,653.5 712.2,653.05 712.35,652.5C712.8,650.75 714,651.3 714,653.25C714,654.9 713.9,655 712.25,655C711.05,655 710.5,654.75 710.5,654.25ZM561.35,652.9C564.5,648.7 568.6,643.5 568.8,643.5C568.9,643.5 569,644.3 569,645.25C569,646.65 568.8,647 568,647C567.25,647 567,647.35 567,648.25C567,649.05 566.7,649.5 566.25,649.5C565.85,649.5 565.5,649.95 565.5,650.5C565.5,651.05 565.15,651.5 564.75,651.5C564.35,651.5 564,651.95 564,652.5C564,653.3 563.65,653.5 562.45,653.5C561.25,653.5 561,653.35 561.35,652.9ZM648.5,647.5C648.5,646.95 648.8,646.5 649.2,646.5C649.6,646.5 650,646.15 650.2,645.75C650.55,644.8 652,644.75 652,645.7C652,646.05 651.55,646.5 651,646.65C650.45,646.8 650,647.25 650,647.7C650,648.15 649.65,648.5 649.25,648.5C648.85,648.5 648.5,648.05 648.5,647.5ZM570.45,640.35C570.75,639.65 570.75,638.85 570.45,638.45C569.75,637.3 569.9,637 571.25,637C572.4,637 572.5,637.2 572.5,639.25C572.5,641.3 572.4,641.5 571.25,641.5C570.15,641.5 570.1,641.35 570.45,640.35ZM753.5,637.75C753.5,636.9 753.8,636.85 758.5,636.9C763.05,636.9 763,636.9 763,637.75C763,638.35 762.15,638.5 758.25,638.5C754.35,638.5 753.5,638.35 753.5,637.75ZM579,634.75C579,633.35 579.2,633 580,633C581.1,633 581.3,634 580.5,635.55C579.7,637.05 579,636.7 579,634.75ZM569.95,634.4C569.95,634.05 569.85,633.25 569.7,632.65C569.55,631.75 569.75,631.5 570.5,631.5C571.3,631.5 571.5,631.85 571.5,633.25C571.5,634.45 571.25,635 570.75,635C570.35,635 570,634.7 569.95,634.4ZM770,619.55C770,618.15 772.65,617.8 772.9,619.15C773.05,619.8 772.75,620 771.55,620C770.7,620 770,619.8 770,619.55Z" style="fill:rgb(18,143,71);"/>
                </g>
                <g transform="matrix(2.00091,0,0,2.00091,12624.5,-2577.67)">
                    <path d="M539.7,697.8C538.8,697.1 538.75,696.5 538.9,688.95L539.1,680.8L541.25,678.05C542.45,676.5 545.85,672.35 548.75,668.75C551.65,665.2 555.7,660.1 557.75,657.5C559.75,654.9 563.25,650.45 565.45,647.6C570.1,641.7 571.25,639.75 570.7,638.6C570.35,637.8 569.9,634 569.9,631.55C569.9,628.75 572.5,626.5 575.75,626.5C577.2,626.5 578,626.9 579.35,628.25C581,629.9 581.1,630.15 580.9,632.65C580.75,634.05 580.45,635.65 580.25,636.15C579.9,636.95 580.65,637 592.2,637L604.5,637L605.75,639.5C606.45,640.85 607.65,642.75 608.5,643.65C609.3,644.6 610,645.65 610,645.95C610,646.3 608.15,646.5 604.25,646.5C597.8,646.5 597.75,646.45 599.5,643C600.05,641.9 600.5,640.9 600.5,640.75C600.5,640.6 595.75,640.5 589.95,640.5L579.35,640.5L579.65,642.3C579.8,643.3 580.3,644.6 580.7,645.25C581.4,646.35 581.65,646.35 589.5,646.3C598.6,646.15 598.15,645.85 595,650.5L592.95,653.5L620.55,653.5L621.4,651.5C622,650.1 622.65,649.4 623.5,649.2C624.2,649.05 625.1,648.8 625.55,648.7C627.65,648.1 630.1,637.9 628.3,637.2C626.55,636.5 627.65,629.75 629.85,628C631.45,626.75 634.8,626.65 636.45,627.8C638.6,629.35 639.05,631.35 638.45,637.1C637.7,643.75 638.15,645.25 640.8,644.85C641.75,644.7 643.35,643.9 644.4,643.1C647.65,640.5 661.1,626.45 666.15,620.4L671,614.55L676.1,612.95C681.65,611.3 683.7,610.25 686.65,607.55C689.05,605.4 690,603.55 690,601.2C690,599.75 689.65,599.05 688.05,597.55C686.15,595.85 686.1,595.65 686.35,593.4C686.7,590.5 686,589.5 683.65,589.5C681.8,589.5 681,588.4 681.85,587.05C682.1,586.6 684.5,584.8 687.15,583C689.8,581.2 692.35,579.15 692.9,578.5C694.15,576.85 694.6,574.95 693.9,574.15C692.55,572.5 688.05,574.1 680,579C677.1,580.75 672.95,583.25 670.8,584.6C666.95,586.9 664.6,587.55 663.15,586.6C662.8,586.4 661.4,584.1 660,581.5C658.6,578.9 656.9,576.25 656.2,575.65C654.7,574.25 651.3,574.05 650.8,575.3C650.65,575.7 651.1,578.35 651.85,581.15C653.65,588.1 653.8,595.9 652.15,598.5C651.2,600 636.6,614.05 631.6,618.25C629.75,619.8 628.7,619.65 628.2,617.65C627.85,616.35 628.55,615.6 638.45,606C647.8,596.9 649.05,595.55 649.2,594C649.45,590.6 648.55,583.7 647.3,580.15C646,576.3 646.1,574.75 647.75,572.15C648.9,570.45 651.6,569.4 653.9,569.8C657.9,570.5 659.9,572.35 663,578.1C664.15,580.25 665.3,582.1 665.55,582.3C665.8,582.45 667.15,581.75 668.5,580.75C672.65,577.7 684.75,571.2 688.5,570C691.65,569 692.3,568.95 694.15,569.5C698.15,570.65 699.55,573.1 698.5,577.1C697.8,579.6 694.3,583.35 691.05,585C688.75,586.15 688.65,586.3 689.8,587.6C690.3,588.1 690.75,589.65 690.9,591.1C691,592.7 691.5,594.15 692.05,594.75C695.55,598.6 695.1,605.75 691.1,609.8C688.3,612.7 682.8,615.8 678.25,617.05C676.05,617.65 673.8,618.45 673.15,618.85C672.15,619.55 668,624.65 668,625.25C668,625.4 669.65,624.65 671.65,623.55C675.6,621.4 677.3,620.85 684.75,619.45C699.9,616.55 718.3,614.1 719.05,614.85C719.85,615.65 720.05,617.8 719.4,618.35C719.05,618.6 714.5,619.35 709.25,619.95C695.2,621.55 695.25,621.55 694.5,622C693.9,622.35 693.95,622.65 694.85,623.6C695.45,624.25 696.1,625.75 696.35,627C696.7,628.9 697.05,629.4 698.7,630.25C701.75,631.85 701.85,632.35 700.35,636.65C699.6,638.7 699,640.8 699,641.25C699,642.7 701.15,646 702.05,646C703.25,646 703.4,646.35 703.8,650.15L704.15,653.5L701.1,653.5C699.45,653.5 697.95,653.65 697.85,653.9C697.75,654.1 698.15,655.85 698.75,657.75L699.85,661.25L702.95,661.4C705.75,661.55 706.05,661.45 705.85,660.65C705.7,660.15 705.45,658.75 705.25,657.5C705.05,656.25 704.8,654.85 704.7,654.4C704.45,653.6 704.85,653.5 708.45,653.5L712.5,653.5L712.5,651.65C712.5,648.05 713.5,645.95 716.65,642.65C718.95,640.2 719.55,639.35 719.1,638.9C718.65,638.45 717.9,638.55 715.9,639.45C710.95,641.6 710.5,641.45 709.8,637.2C709.45,635.35 709.55,635.1 710.85,634.25C713.5,632.5 717.5,628 717.5,626.7C717.5,624.8 718.65,624.75 722.1,626.6C726.15,628.75 728.7,631.4 730,634.8C731.2,638.1 731.9,644.2 731.05,644.7C730.75,644.9 730.5,645.35 730.5,645.75C730.5,646.3 732.75,646.4 742.9,646.3C756.75,646.2 756.2,646.4 753.8,642.6L752.5,640.5L748.35,640.5C746.05,640.5 744.05,640.35 743.85,640.2C743.7,640 744.15,639.2 744.9,638.45L746.25,637L765.85,637L766.2,634.7C766.35,633.4 766.5,631.15 766.5,629.7C766.5,627.15 766.45,627 765.25,627C764,627 764,626.95 764,622.75L764,618.5L765.95,618.5C767.9,618.5 767.95,618.55 768.1,620.4C768.3,622.85 769.65,622.95 770,620.5C770.2,619.05 770.5,618.7 771.65,618.6C772.75,618.45 773,618.6 773,619.6C773,621.2 773.75,622.2 774.7,621.85C775.2,621.65 775.5,620.95 775.5,620C775.5,618.65 775.65,618.5 777.2,618.5C778.85,618.5 778.85,618.55 779.2,621.15C779.8,626.2 779.65,627 778.25,627L776.95,627L777.1,631.9C777.25,636.5 777.3,636.75 778.35,636.9C779.05,637 780.15,638 781.1,639.4C782.85,642 789.8,650.85 804.45,669.25L814,681.25L814,688.6C814,692.65 813.8,696.5 813.5,697.2L813,698.5L676.85,698.5C559.75,698.5 540.55,698.4 539.7,697.8ZM660.45,633.95L662.65,630.75L659.6,633.7C657.9,635.35 656.65,636.85 656.8,637.1C657.35,637.95 658.25,637.15 660.45,633.95ZM731.5,651.55C731.5,649.7 730.55,648.15 729.85,648.85C729.3,649.35 729.45,651.95 730.05,653.05C730.8,654.45 731.5,653.75 731.5,651.55ZM650.2,645.35C650.35,644.75 650.55,643.65 650.75,642.9C651.15,641 650.35,641.1 646.8,643.5C645.2,644.6 643.65,645.5 643.45,645.5C643.2,645.5 643,645.7 643,645.95C643,646.15 644.6,646.35 646.5,646.4C649.7,646.4 650,646.3 650.2,645.35ZM577.1,679.15C578.2,677.9 582,671.6 582,671C582,670.7 576.6,670.5 567.35,670.5L552.7,670.5L551.15,672.15C548.85,674.6 546,678.55 546,679.3C546,679.9 548.75,680 561.15,680C575,680 576.4,679.9 577.1,679.15ZM701.35,671.7C701.8,668.7 701.75,668.35 700.85,667.8C699.2,666.8 697.15,663.2 696.35,659.95C695.1,655.05 694.4,650.35 694.6,648.45C694.75,646.95 694.95,646.7 696.45,646.5C698.8,646.15 698.9,645.2 696.8,643.95C695.8,643.4 695,642.7 695,642.45C695,642.2 695.55,640.5 696.25,638.65C698,634 697.8,632.85 695.15,632.3L693.05,631.85L692.9,628.8C692.75,625.85 692.7,625.75 691.3,625.6C689.3,625.35 688.6,626.2 689.7,627.45C690.4,628.2 690.55,628.9 690.3,630.2C690,631.8 689.85,631.95 687.5,632.25C685.9,632.45 685,632.85 685,633.25C685,633.65 685.6,635.75 686.3,638L687.6,642.05L686.05,643.6C685.2,644.45 684.5,645.3 684.5,645.55C684.5,645.75 685.35,646 686.4,646.1L688.25,646.25L688.1,649.5C687.85,654.55 687.05,659.55 686.25,661.15C685.85,662 685.5,663.15 685.5,663.75C685.5,664.5 684.85,665.3 683.5,666.2L681.5,667.5L681.5,675L700.85,675L701.35,671.7ZM642.9,679.15C643.15,678.65 643.6,677.15 643.95,675.75C644.25,674.4 644.8,672.65 645.1,671.85L645.65,670.5L660.7,670.6L675.75,670.75L675.9,675.15L676.05,679.5L709.85,679.5L709.15,675.9C708.8,673.9 708.45,671.9 708.35,671.5C708.25,670.85 710.3,670.75 723.65,670.6L739.05,670.5L738.75,669.35C738.55,668.75 737.8,666.85 737,665.15C736.2,663.45 735.7,661.95 735.9,661.8C736.05,661.65 742.55,661.5 750.35,661.5C758.7,661.5 764.5,661.3 764.5,661.05C764.5,660.8 763.6,659.05 762.5,657.15L760.55,653.75L773.8,653.5L787,653.25L785.7,651.25C782.8,646.85 780.6,645.55 781.15,648.5C781.8,651.5 781.8,651.5 771.75,651.5C764.95,651.5 762.45,651.35 762.15,650.9C761.95,650.55 761.75,649.35 761.75,648.25L761.75,646.25L758.8,646.1L755.9,645.95L757.9,649.7L759.95,653.5L746.25,653.5C738.7,653.5 732.5,653.65 732.5,653.85C732.5,654.05 732.95,655.1 733.5,656.25C734.05,657.35 734.6,659 734.8,659.85C735.1,661.3 735,661.45 733.7,661.6C732.3,661.75 732.25,661.85 732.25,664.65C732.25,666.65 732,667.7 731.5,668C730.5,668.65 712.45,668.65 711.5,668C711.05,667.75 710.65,666.45 710.5,664.65L710.25,661.75L708.25,661.9C707.15,662 706.2,662.15 706.1,662.25C705.95,662.4 706.65,666.75 707.25,669.15C707.6,670.45 707.5,670.5 705.8,670.5L704,670.5L704,673.4C704,678.2 704.55,678.05 691,677.9L679.25,677.75L679,674.25C678.75,671.05 678.65,670.75 677.5,670.5C676.3,670.2 676.25,670.05 676.1,665.85L675.95,661.5L647.4,661.5L647.75,658.95C647.95,657.6 648.25,655.85 648.45,655.1L648.8,653.75L662.4,653.6L675.95,653.5L676.1,657.35L676.25,661.25L678.7,661.4C682.8,661.65 683.35,661.35 683.95,658.5C685.05,653.4 685.1,653.5 680.25,653.5L676,653.5L676,652.05C676,651.3 676.15,649.6 676.3,648.3C676.65,646.05 676.65,646 678.2,646.25C679.5,646.5 680.05,646.25 681.7,644.75C683.85,642.75 683.85,642.8 682.3,635.8C681.45,631.85 681.65,631.15 684.05,630.05C685.7,629.3 685.75,629.1 685.75,626.5L685.75,623.75L683.75,623.9C680.3,624.2 674.4,626.45 670.8,628.85C666.1,632.05 661.5,638.05 661.5,641C661.5,641.6 662.1,643.05 662.8,644.3L664.1,646.5L650.15,646.5L649.5,649.5C648.8,652.85 648.1,653.5 645.35,653.5C643.7,653.5 643.65,653.55 643.2,656.15L642.75,658.75L633.15,658.9L623.55,659L623.65,656.4C623.75,653.75 623.75,653.75 622.25,653.75C620.9,653.75 620.6,654.1 618.8,657.65L616.85,661.5L602.7,661.5C594.9,661.5 588.5,661.35 588.5,661.15C588.5,660.95 589.4,659.3 590.5,657.45C591.6,655.6 592.5,653.95 592.5,653.75C592.5,653.6 590.85,653.5 588.9,653.6L585.25,653.75L584.75,658.75L565.75,658.75L565.6,656.4C565.5,655.05 565.3,654 565.1,654C564.75,654.05 559.9,660.25 559.6,661.05C559.5,661.3 565.85,661.55 573.75,661.6L588.1,661.75L585.3,665.9C583.75,668.15 582.5,670.15 582.5,670.25C582.5,670.4 589.45,670.5 597.95,670.5L613.45,670.5L614.65,667.85C615.3,666.35 616.15,664.35 616.45,663.35L617.1,661.5L647.1,661.5L646.8,662.65C646.6,663.25 646.2,665 645.9,666.5C645.6,668 645.3,669.55 645.2,669.9C645.05,670.35 641.45,670.5 629.35,670.5L613.65,670.5L611.85,675C610.85,677.45 610,679.6 610,679.75C610,679.9 617.3,680 626.25,680C641.2,680 642.5,679.95 642.9,679.15ZM775.5,679.6C775.5,679.2 772.4,673.85 771.4,672.55C770.9,671.9 770.5,671.15 770.5,670.95C770.5,670.7 777.25,670.5 785.5,670.5C793.75,670.5 800.5,670.3 800.5,670.1C800.5,669.85 800.05,669.25 799.45,668.7C798.85,668.2 797.25,666.35 795.9,664.65L793.4,661.5L779.45,661.5C771.8,661.5 765.5,661.65 765.5,661.9C765.5,662.1 766.5,664 767.75,666.1C769,668.25 770,670.1 770,670.25C770,670.4 763.15,670.5 754.75,670.5C741.95,670.5 739.5,670.6 739.5,671.2C739.5,671.6 740.35,673.75 741.35,676L743.15,680.05L759.35,679.95C768.25,679.9 775.5,679.75 775.5,679.6ZM659.55,567.2C658.25,566.3 658.2,564.95 659.4,563.85C660.8,562.6 666.45,560.1 670,559.2C675.65,557.75 685.45,558.95 688.5,561.4C689.45,562.2 689.55,562.5 689.05,563.4C688.35,564.75 686.5,564.8 682.5,563.75C677.2,562.35 671,563.25 663.9,566.4C660.9,567.75 660.5,567.85 659.55,567.2ZM646.25,552.05C643.8,551 642,547.35 642,543.6C642,538.85 644.6,535.2 649,533.75C652.1,532.7 654.65,533.05 657.6,534.95C660.65,536.9 661.75,539.3 661.75,543.85C661.75,548.05 660.85,549.65 657.7,551.2C655.55,552.25 648,552.85 646.25,552.05ZM687.45,552C683.75,550.9 681.4,547.55 681.4,543.55C681.45,539.35 683.3,536.45 687.25,534.35C691.9,531.95 697.85,533.8 700.5,538.5C702.25,541.7 702.25,546.55 700.5,549.15C699.8,550.15 698.55,551.35 697.65,551.75C696,552.55 689.75,552.7 687.45,552ZM646.5,521.05C637.8,519.45 631.95,516.65 633.45,514.8C634.35,513.75 635.05,513.8 641.1,515.25C644,516 648.55,516.65 651.5,516.85C656.9,517.15 657.85,516.95 663.85,514.45C666.15,513.5 666.8,514.3 665.95,516.8C665.35,518.35 664.75,518.9 662.5,519.95C660.15,521 658.9,521.2 654.25,521.3C651.25,521.4 647.75,521.25 646.5,521.05ZM680.3,507.4C679.05,505.65 679.35,504.6 681.45,503.25C688.95,498.25 699.8,498.2 707.25,503.1C710.1,505 710.5,506 709.05,507.45L708,508.5L705.35,507.05C701.35,504.8 697.4,503.85 693.2,504.1C689.85,504.35 687.65,505.15 681.4,508.4C681.25,508.45 680.75,508.05 680.3,507.4Z" style="fill:rgb(31,33,33);"/>
                </g>
            </g>
        </g>
    </g>
</svg>
