<?xml version="1.0" encoding="UTF-8" standalone="no"?>
<!DOCTYPE svg PUBLIC "-//W3C//DTD SVG 1.1//EN" "http://www.w3.org/Graphics/SVG/1.1/DTD/svg11.dtd">
<svg width="100%" height="100%" viewBox="0 0 430 430" version="1.1" xmlns="http://www.w3.org/2000/svg" xmlns:xlink="http://www.w3.org/1999/xlink" xml:space="preserve" xmlns:serif="http://www.serif.com/" style="fill-rule:evenodd;clip-rule:evenodd;stroke-linejoin:round;stroke-miterlimit:2;">
    <g transform="matrix(1,0,0,1,-8544.07,-1006.09)">
        <g transform="matrix(1,0,0,1,6691,0)">
            <g transform="matrix(1,0,0,1,-13772,1950)">
                <g transform="matrix(2.00091,0,0,2.00091,14487.5,-2557.76)">
                    <path d="M662.25,1005.45C657.65,1004.85 650.1,1002.9 645.75,1001.25C643.8,1000.5 641.35,999.6 640.25,999.15C636.4,997.75 627.25,992.85 623.05,990C618.45,986.9 610.75,980.2 608.95,977.75C608.35,976.95 606.9,975.25 605.75,974C601.6,969.55 595.95,961.4 593.1,955.7C591.15,951.8 587.15,940.7 586.1,936.25C584,927.2 583.75,924.95 583.8,913C583.8,900 584.5,894.55 587.55,885.05C589.45,879.05 594.7,867.75 597.1,864.45C597.6,863.8 598.9,861.8 600.05,860C603.2,855 604.35,854 606.7,854C608.7,854 609.05,854.35 624.4,869.45C639.4,884.2 640.05,884.95 639.9,886.55L639.75,888.25L627.15,888.5L614.6,888.75L612.7,890.3C611.65,891.1 610.55,892.6 610.2,893.55C609.75,894.85 609.55,903.25 609.55,928.25L609.5,961.3L610.65,963.5C611.45,965.15 612.35,966.05 614,966.9C616.2,968 616.45,968.05 631.25,967.9C645.95,967.75 646.3,967.75 647.85,966.6C648.75,966 650,964.75 650.6,963.85L651.75,962.25L651.8,938C651.85,924.65 651.9,910.75 651.95,907.15L652,900.5L653.9,900.5C655.55,900.5 656.15,900.9 659,903.75L662.25,907.05L662.25,934.65C662.25,965.3 662.1,964.1 665.6,966.6L667.25,967.75L695.05,968L722.8,968.25L729.4,974.5C735.45,980.25 736,980.9 736,982.55C736,984.05 735.6,984.7 733.65,986.6C729.1,990.85 720.75,995.75 714.4,997.95C712.95,998.45 710.75,999.35 709.5,999.9C699.85,1004.3 693.25,1005.55 678,1005.75C671.25,1005.85 664.2,1005.7 662.25,1005.45ZM742.1,970.75C740.3,968.8 740.05,966.75 741.25,963.85C741.9,962.25 742,955.45 742,912.95C742,858.6 742.2,861.6 738.75,859.5C737.15,858.5 736.35,858.5 701.9,858.5C666.9,858.5 666.65,858.5 665.3,859.55C662.5,861.75 662.3,862.85 662.4,873.75C662.45,879.25 662.35,884.6 662.2,885.65C661.95,887.3 661.75,887.5 660.4,887.5C659.15,887.5 657.1,885.65 645.6,874.15C638.25,866.75 628.95,857.3 624.9,853.1C617.95,845.95 617.5,845.35 617.5,843.55C617.5,842.45 617.85,841.15 618.4,840.55C619.6,839.05 629.45,832.9 634.75,830.25C639.15,828.1 649.15,824.5 650.75,824.5C651.2,824.5 652.6,824.2 653.9,823.8C663.15,821.1 678.35,820.35 690.95,822.05C698.85,823.1 711.15,827.15 717.75,830.9C718.3,831.2 720.2,832.15 721.95,833C730.6,837.25 742.65,847.55 750.75,857.75C753.4,861.1 761.5,876.15 761.5,877.75C761.5,878.2 761.7,878.9 761.9,879.4C765.1,885.95 765.6,887.65 766.95,895.75C768.85,907.7 769.25,913.45 768.6,920.15C767.85,927.3 767.2,931.5 766.15,935.95C763.5,947.25 755.85,963.25 749.75,970.4C748.15,972.25 747.7,972.5 745.8,972.5C744,972.5 743.4,972.25 742.1,970.75ZM627.05,965.2C625.65,963.4 625.6,959.9 627,958.5C627.75,957.75 628.65,957.5 630.65,957.5C634.2,957.5 635,958.35 635,962.15C635,965.75 634.3,966.5 630.75,966.5C628.45,966.5 627.95,966.3 627.05,965.2ZM698.15,965.5C696.6,964.1 696.55,960.2 698.05,958.3C698.95,957.15 699.45,957 701.9,957C703.45,957 705,957.2 705.3,957.4C706.35,958.05 707,959.95 707,962.1C707,965.4 706.2,966.15 702.45,966.4C699.7,966.55 699.1,966.45 698.15,965.5ZM611,956.5L611,897.5L650.5,897.5L650.5,956.5L611,956.5ZM665.35,955.65C664.9,955.25 664.9,931 665.35,921.1L665.65,913.5L666.95,913.5C667.95,913.5 670.25,915.5 677.25,922.4C682.2,927.25 688.3,933.4 690.85,936C693.35,938.6 698.15,943.3 701.5,946.45C707.3,951.9 707.55,952.2 707.4,953.95L707.25,955.75L686.45,955.9C675.05,955.95 665.55,955.85 665.35,955.65ZM727.55,955.65C727.05,955.45 688.65,917.1 677.4,905.55C677.05,905.2 674.1,902.4 670.9,899.3L665,893.75L665,866L739,866L739,956L733.65,955.95C730.65,955.95 727.95,955.8 727.55,955.65ZM623.35,895.65C623.15,895.5 623,894.4 623,893.25C623,891.2 623.05,891.1 624.9,890.8C627.3,890.4 636.2,890.4 637.2,890.8C637.8,891 638,891.8 638,893.55L638,896L630.85,896C626.9,896 623.5,895.85 623.35,895.65Z" style="fill:white;"/>
                </g>
                <g transform="matrix(2.00091,0,0,2.00091,14487.5,-2557.76)">
                    <path d="M669,1021.2C662.75,1020.85 650.5,1018.15 641.55,1015.15C631.85,1011.95 619.35,1005.3 612,999.55C602.45,992.05 598.15,987.9 592.6,981.05C576.45,961 568.1,936.75 568.55,911.25C568.65,905.5 569.9,895.2 570.95,891.15C573.8,880.15 575.25,875.6 577.45,870.75C577.95,869.65 578.75,867.85 579.25,866.75C580.95,862.85 582.15,860.7 585.25,856C593.9,843.05 605.95,831.15 618.75,822.95C624.55,819.25 638.75,812.5 642.8,811.6C643.9,811.35 646.9,810.55 649.5,809.85C672.7,803.55 700.45,806.4 723.55,817.45C733.85,822.35 749.5,834.35 756.8,842.9C765.95,853.65 772.1,864.1 776.7,877C777.45,879.05 778.25,881.25 778.5,881.85C779.2,883.55 781.9,894.9 782.6,899C783.65,905.2 783.4,921.95 782.1,929.75C779.85,943.25 776.15,954.4 770.45,964.75C763.7,977 757.25,984.9 745.25,995.55C737.7,1002.3 723.35,1010.75 713,1014.5C706.9,1016.75 696.55,1019.4 690.75,1020.25C685.4,1021 674.35,1021.5 669,1021.2ZM687.5,1017.95C700.35,1016.55 714.6,1012 725.15,1005.95C739.1,997.95 749.05,989.7 757.55,979C771.45,961.55 779.2,942 781,919.6C782.1,906 779.15,889.65 772.9,874.25C760.45,843.75 732.75,819.8 700.95,812C690.9,809.55 684.15,808.85 673.25,809.15C663.15,809.45 658.2,810.15 649.1,812.55C627.75,818.15 605.85,832.95 592.4,850.85C577.45,870.75 569.4,896.8 571.05,919.9C572.8,945.1 585.05,971 603.4,988.55C621.85,1006.2 644.6,1016.45 669.75,1018.45C675.25,1018.85 680.25,1018.75 687.5,1017.95ZM610.5,923.75L610.5,898L612.25,898C613.2,898 614,898.25 614,898.5C614,898.8 613.65,899 613.25,899C612.6,899 612.5,902.15 612.5,924.25C612.5,949.15 612.5,949.5 611.5,949.5C610.5,949.5 610.5,949.15 610.5,923.75ZM665.25,1006.5C647,1004.55 627.25,995.75 613.6,983.4C601.3,972.3 592.6,958.95 587.3,943C583.85,932.75 582.9,926.4 582.85,913.75C582.8,902.75 583.4,897.5 585.55,889.5C588.65,877.9 594.6,865.9 602.15,855.9C604.45,852.8 604.85,852.5 606.5,852.5C608.15,852.5 609.25,853.5 624.15,868.4C639.95,884.25 640,884.25 640,886.4C640,888.45 640,888.5 638.25,888.5C636.25,888.5 635.8,887.3 637.6,886.85C638.55,886.55 636.65,884.5 623,871.05C614.35,862.5 607,855.5 606.7,855.5C605.9,855.5 603.8,857.9 601.55,861.5C600.4,863.3 599.1,865.3 598.6,865.95C596.2,869.25 590.95,880.55 589.05,886.55C586.15,895.65 585.3,901.65 585.3,913C585.3,923.35 585.55,925.95 587.6,934.75C588.65,939.2 592.65,950.3 594.6,954.2C597.45,959.9 603.1,968.05 607.25,972.5C608.4,973.75 609.85,975.45 610.45,976.25C612.25,978.7 619.95,985.4 624.55,988.5C628.85,991.4 637.85,996.2 642,997.75C657,1003.45 660.85,1004.2 675.5,1004.2C684.95,1004.25 688.2,1004.05 692.25,1003.3C697.25,1002.35 703.8,1000.35 708,998.4C709.25,997.85 711.45,996.95 712.9,996.45C719.45,994.2 728.75,988.6 732.75,984.5L734.7,982.5L728.3,976.4C724.75,973 721.2,970.05 720.45,969.8C719.65,969.55 719,969.05 719,968.7C719,967.95 720.85,967.35 722.45,967.6C723,967.7 726.5,970.75 730.25,974.45C738.4,982.55 738.55,983 734.4,986.75C730.55,990.2 722.8,995.2 717.2,997.8C710.15,1001.1 700.15,1004.3 693.25,1005.5C686.45,1006.7 671.8,1007.2 665.25,1006.5ZM736,955C736,954.75 736.35,954.5 736.75,954.5C737.4,954.5 737.5,949.35 737.5,911C737.5,872.65 737.4,867.5 736.75,867.5C736.35,867.5 736,867.3 736,867C736,866.75 736.8,866.5 737.75,866.5L739.5,866.5L739.5,955.5L737.75,955.5C736.8,955.5 736,955.3 736,955ZM644.5,968.6C644.5,967.6 646.1,967 648.8,967C651.3,967 649.45,968.7 646.3,969.25C644.7,969.55 644.5,969.5 644.5,968.6ZM665.9,969.15C664.25,968.75 664.9,967.5 666.75,967.5C668.15,967.5 668.5,967.7 668.5,968.5C668.5,969.5 667.8,969.65 665.9,969.15ZM651.5,920.15C651.5,911.65 651.65,903.55 651.8,902.15C652.15,899.55 652.2,899.5 653.75,899.5C655.05,899.5 655.95,900.1 658.9,903.2C662.5,906.9 662.5,906.9 662.5,909.7C662.5,911.75 662.3,912.5 661.8,912.5C661.1,912.5 660.5,911.05 660.5,909.25C660.5,908.15 654.25,901.6 653.75,902.1C653.55,902.25 653.45,909.85 653.45,918.95C653.45,935 653.4,935.5 652.45,935.5C651.55,935.5 651.5,935 651.5,920.15ZM705.5,968.5C705.5,967.55 705.85,967.5 710.25,967.5C714.65,967.5 715,967.55 715,968.5C715,969.45 714.65,969.5 710.25,969.5C705.85,969.5 705.5,969.45 705.5,968.5ZM699.9,966.15C698.1,965.95 698,965.85 698,964.15L698,962.35L699.3,963.7C700.75,965.1 701.7,965.3 703.7,964.5C704.9,964.05 705,964.15 705,965.25C705,966.6 704.7,966.65 699.9,966.15ZM741.85,971.5C740.4,969.95 740,969.05 740,967.65C740,965.25 741.5,962.05 742.65,962C743.7,962 743.75,962.9 742.7,965.45L741.9,967.45L743.65,969.3C744.75,970.5 745.65,971.05 746.15,970.85C748.25,970.05 754.45,960.5 758.4,952C763.35,941.4 765.6,932.8 767,919.25C767.6,913.5 767.15,907.15 765.2,895.75C764.1,889.05 763.45,887.15 760.4,880.9C760.2,880.4 760,879.7 760,879.25C760,877.65 751.9,862.6 749.25,859.25C741.15,849.05 729.1,838.75 720.45,834.5C718.7,833.65 716.8,832.7 716.25,832.4C711.7,829.8 706.15,827.65 698.7,825.55C685.2,821.8 667.6,821.7 655.4,825.3C654.1,825.7 652.7,826 652.25,826C650.55,826 640,829.85 635.75,832C629.7,835.1 620.55,841 619.65,842.4C618.95,843.45 619,843.65 620.65,845.65C621.6,846.8 630.95,856.35 641.4,866.9L660.4,886L660.7,884.25C660.9,883.2 661.35,882.5 661.75,882.5C662.3,882.5 662.5,883.2 662.5,885.25L662.5,888L660.55,888C658.7,888 658.05,887.4 637.3,866.5C617.6,846.6 616,844.9 616,843.3C616,841.25 617.6,839.7 623.75,835.75C644.55,822.35 667,817.65 692,821.55C706.55,823.8 721.65,830.5 734.3,840.3C739.85,844.6 749.45,854.75 753.1,860.2C756.8,865.75 762.9,878.15 764.9,884.25C771.4,904 770.95,926.8 763.7,946.35C761.25,953.05 755.95,963.1 751.95,968.65L748.65,973.25L746.15,973.4C743.8,973.55 743.55,973.45 741.85,971.5ZM651.2,963.4C651.35,961.95 651.5,955.2 651.5,948.4C651.5,936.15 651.5,936 652.55,936C653.6,936 653.6,936.05 653.4,949.9C653.25,961.05 653.1,963.95 652.5,964.9C651.3,966.7 650.85,966.2 651.2,963.4ZM660.8,962.7C660.4,961.2 660.45,944.5 660.85,943C661,942.45 661.45,942 661.8,942C662.4,942 662.5,943.95 662.5,953C662.5,962.05 662.4,964 661.8,964C661.4,964 660.95,963.4 660.8,962.7ZM612.5,968.4C609.2,966.7 606.5,961 609,961C609.8,961 610,961.35 610,962.75C610,963.95 610.25,964.5 610.75,964.5C611.15,964.5 611.5,964.85 611.5,965.25C611.5,965.65 611.85,966 612.25,966C612.65,966 613,966.35 613,966.75C613,967.25 613.55,967.5 614.75,967.5C616.15,967.5 616.5,967.7 616.5,968.5C616.5,969.8 615.3,969.8 612.5,968.4ZM627,964.25C627,963.3 627.1,962.5 627.2,962.5C627.35,962.5 628.1,963.2 628.95,964.05C629.8,964.9 630.5,965.65 630.5,965.8C630.5,965.9 629.7,966 628.75,966C627.1,966 627,965.9 627,964.25ZM632.4,959.9C631.6,959.1 631,958.35 631,958.2C631,958.1 631.8,958 632.75,958C634.4,958 634.5,958.1 634.5,959.75C634.5,961.85 634.2,961.85 632.4,959.9ZM608.85,891.5C609.2,890.2 612.45,887.5 613.6,887.5C614.15,887.5 614.5,887.9 614.5,888.5C614.5,889.3 614.15,889.5 612.75,889.5C611.15,889.5 611,889.6 611,891C611,892.25 610.8,892.5 609.8,892.5C608.85,892.5 608.65,892.3 608.85,891.5ZM635,895C635,894.75 635.35,894.5 635.75,894.5C636.15,894.5 636.5,894.05 636.5,893.55C636.5,892.5 635.4,891.9 634.25,892.3C633,892.8 630,892.05 630,891.25C630,890.65 630.85,890.5 633.95,890.5C638.3,890.5 638.5,890.65 638.5,893.8C638.5,895.4 638.4,895.5 636.75,895.5C635.8,895.5 635,895.3 635,895ZM702.75,932.05C689.55,918.9 675.65,905 671.9,901.15L665,894.15L665,890.6C665,887.8 665.15,887 665.7,887C666.55,887 667.2,889.55 666.75,891.05C666.45,891.95 667.35,893.05 672.3,897.75C675.6,900.85 678.55,903.7 678.9,904.05C698.1,923.75 728.75,954.05 729.7,954.3C731.85,954.85 731.3,956 728.85,956L726.75,956L702.75,932.05ZM704,955.3C704,954.95 704.5,954.45 705.15,954.3C706.15,954 705.6,953.35 700,948C696.55,944.75 692.85,941.15 691.75,940C690.65,938.9 684.65,932.85 678.4,926.55L667,915.15L667,919.7C667,924.9 666.7,926.5 665.7,926.5C665.1,926.5 665,925.3 665.1,919.9L665.25,913.25L666.95,913.1C668.6,912.95 669.4,913.65 688.35,932.6C707.25,951.5 708,952.3 708,954.1C708,956 708,956 706,956C704.65,956 704,955.8 704,955.3ZM741,861.95C741,861.6 740.65,861.1 740.2,860.8C739.7,860.4 739.5,859.65 739.6,858.75L739.75,857.3L741.3,858.9C743.45,861 743.8,862.5 742.2,862.5C741.55,862.5 741,862.25 741,861.95ZM624.05,892.4L624,890.5L626.25,890.5C629.2,890.5 629.4,891.85 626.55,892.3C625.3,892.5 624.45,892.95 624.35,893.45C624.2,893.9 624.1,893.4 624.05,892.4ZM665,954.25C665,952.3 666.2,951.75 666.65,953.5C666.8,954.05 667.25,954.5 667.7,954.5C668.15,954.5 668.5,954.85 668.5,955.25C668.5,955.75 667.95,956 666.75,956C665.1,956 665,955.9 665,954.25ZM704.95,960.4C704.6,959.75 704,959 703.55,958.65C702.9,958.15 703.05,958.05 704.65,958C706.45,958 706.5,958.05 706.5,959.75C706.5,961.75 705.8,962 704.95,960.4ZM663.65,858.25C665.35,856.75 667,856.6 667,857.95C667,859.05 666.05,859.5 663.85,859.5L662.25,859.45L663.65,858.25ZM660.9,880.65C660.55,879.3 660.45,865.45 660.8,863.9C660.95,863.1 661.4,862.5 661.8,862.5C662.4,862.5 662.5,864.15 662.5,872C662.5,879.75 662.35,881.5 661.8,881.5C661.45,881.5 661,881.1 660.9,880.65Z" style="fill:rgb(235,172,153);"/>
                </g>
                <g transform="matrix(2.00091,0,0,2.00091,14487.5,-2557.76)">
                    <path d="M623.5,968.5C623.5,967.55 623.85,967.5 635.5,967.5C645.4,967.5 647.5,967.6 647.5,968.2C647.5,969.3 645.8,969.5 634.4,969.5C623.85,969.5 623.5,969.45 623.5,968.5ZM666.1,969.15C664.85,968.9 661.5,965.95 661.5,965.05C661.5,964 663.75,964.5 664.9,965.9L666.1,967.25L688.05,967.4C706.1,967.5 710,967.65 710,968.2C710,968.6 709.5,969 708.9,969.15C707.65,969.5 667.8,969.5 666.1,969.15ZM712.9,969.15C712.4,969.05 712,968.6 712,968.2C712,967.65 713.05,967.5 717.25,967.5C722.05,967.5 722.5,967.6 722.5,968.45C722.5,969.25 722.05,969.35 718.15,969.4C715.7,969.4 713.35,969.3 712.9,969.15ZM611.8,968.05C609.9,966.75 608.6,964.7 608.2,962.1C607.9,960.2 607.95,960 608.9,960C609.75,960 609.95,960.45 610.25,962.5C610.5,964.2 610.85,965 611.3,965C611.7,965 612.15,965.35 612.3,965.75C612.5,966.15 612.9,966.5 613.3,966.5C613.7,966.5 614,967 614,967.75C614,969.25 613.7,969.3 611.8,968.05ZM648,967.25C648,966.35 648.25,966 649,966C649.65,966 650,965.65 650,965C650,964.25 650.35,964 651.25,964C652.95,964 652.8,964.8 650.8,966.8C648.8,968.8 648,968.95 648,967.25ZM740,966.4C740,965.5 740.35,964.3 740.75,963.8C741.25,963.1 741.5,961.55 741.5,958.9C741.5,955.35 741.6,955 742.5,955C743.4,955 743.5,955.35 743.5,959.05C743.5,962.2 743.25,963.65 742.4,965.55C741.1,968.4 740,968.75 740,966.4ZM626.9,965.4C625.8,964.05 625.7,961 626.7,961C627.1,961 627.55,961.55 627.7,962.2C628.65,966.05 633.5,965.85 633.5,962C633.5,959.95 632.2,958.85 630.15,959.15C628.65,959.4 628.5,959.3 628.5,958.2C628.5,957.2 628.75,957 630.15,957C632.95,957 634,957.5 634,958.8C634,959.6 634.3,960 634.8,960C635.5,960 635.6,960.4 635.4,962.45C635.05,965.8 634.25,966.5 630.65,966.5C628.25,966.5 627.6,966.3 626.9,965.4ZM705.15,960.75C704.6,959.1 704.65,959 705.8,959C706.85,959 707,959.25 707,960.75C707,961.85 706.75,962.5 706.35,962.5C705.95,962.5 705.45,961.7 705.15,960.75ZM660.8,960.15C660.65,959.35 660.6,958.3 660.7,957.75C660.85,957.2 660.95,956.45 660.95,956.15C661,955.8 661.35,955.5 661.75,955.5C662.35,955.5 662.5,956.15 662.5,958.5C662.5,960.75 662.3,961.5 661.8,961.5C661.4,961.5 660.95,960.9 660.8,960.15ZM697.5,959.75C697.5,958.1 697.6,958 699.25,958L701.05,958L699.65,959.75C698.9,960.7 698.1,961.5 697.9,961.5C697.65,961.5 697.5,960.7 697.5,959.75ZM611.15,956.65C610.2,956.3 610.25,946.5 611.2,946.5C612.1,946.5 612.5,948.05 612.5,951.9C612.5,954.85 612.55,955 613.75,955C614.65,955 615,955.25 615,956C615,956.8 614.7,957 613.4,956.95C612.5,956.95 611.45,956.8 611.15,956.65ZM735,955.55C735,954.85 735.4,954.5 736.4,954.4C737.4,954.3 737.7,954 737.65,953.25C737.4,951.35 738.05,949 738.8,949C739.4,949 739.5,949.65 739.4,952.65L739.25,956.25L737.15,956.4C735.3,956.55 735,956.4 735,955.55ZM608,946.25C608,936.85 608.05,936.5 609,936.5C609.95,936.5 610,936.85 610,946.25C610,955.65 609.95,956 609,956C608.05,956 608,955.65 608,946.25ZM660.9,954.15C660.6,952.75 661,951.5 661.8,951.5C662.25,951.5 662.5,952.05 662.5,953.25C662.5,955.1 661.3,955.75 660.9,954.15ZM651.5,949.25C651.5,947.4 652.7,946.75 653.1,948.4C653.4,949.75 653,951 652.2,951C651.75,951 651.5,950.45 651.5,949.25ZM651.5,934.75C651.5,930.4 651.65,929.5 652.25,929.5C653.1,929.5 653.1,929.45 653.25,934.45C653.4,938.7 653.15,940 652.2,940C651.65,940 651.5,938.9 651.5,934.75ZM660.45,908.25L659.65,906.5L661.05,906.5C662.35,906.5 662.5,906.65 662.5,908.25C662.5,910.5 661.5,910.5 660.45,908.25ZM651.5,902.75L651.5,899.5L653.25,899.5C654.8,899.5 655,899.65 655,900.8C655,901.9 654.9,902.05 654.25,901.5C653.6,900.95 653.5,901.1 653.5,902.3C653.5,904.5 652.95,906 652.2,906C651.65,906 651.5,905.2 651.5,902.75ZM649,901.5C649,899.6 648.8,899 648.25,899C647.85,899 647.5,898.65 647.5,898.25C647.5,897.75 648.05,897.5 649.25,897.5L651,897.5L651,900.75C651,903.65 650.9,904 650,904C649.15,904 649,903.65 649,901.5ZM610.5,899.25C610.5,897.6 610.6,897.5 612.25,897.5C614.2,897.5 614.75,898.7 613,899.15C612.45,899.3 612,899.75 612,900.2C612,900.65 611.65,901 611.25,901C610.75,901 610.5,900.45 610.5,899.25ZM608,894.85C608,892.5 610.15,889.3 612.5,888.15C615.3,886.7 616.5,886.7 616.5,888C616.5,888.8 616.15,889 614.75,889C613.55,889 613,889.25 613,889.75C613,890.15 612.65,890.5 612.25,890.5C611.85,890.5 611.5,890.85 611.5,891.25C611.5,891.65 611.15,892 610.75,892C610.2,892 610,892.55 610,894C610,895.65 609.85,896 609,896C608.3,896 608,895.65 608,894.85ZM623,894.8C623,894.15 623.15,892.9 623.3,892.05C623.6,890.7 623.8,890.5 625.3,890.5C627.35,890.5 627.65,891.75 625.75,892.2C624.25,892.6 624.1,894 625.5,894.35C627.25,894.8 626.7,896 624.75,896C623.25,896 623,895.85 623,894.8ZM635,895.25C635,894.85 635.3,894.5 635.7,894.5C636.1,894.5 636.55,894.3 636.7,894.05C637.15,893.35 636.5,892 635.7,892C635.3,892 635,891.8 635,891.5C635,891.25 635.8,891 636.75,891L638.5,891L638.5,896L636.75,896C635.55,896 635,895.75 635,895.25ZM664.5,891.5C664.5,889.85 664.65,889.5 665.5,889.5C666.2,889.5 666.5,889.85 666.5,890.7C666.5,891.35 666.65,892.25 666.8,892.7C667.05,893.3 666.8,893.5 665.8,893.5C664.6,893.5 664.5,893.3 664.5,891.5ZM637,887.75C637,887.35 637.35,887 637.8,887C638.35,887 638.55,886.7 638.35,886C638.15,885.2 638.35,885 639.3,885C640.35,885 640.5,885.25 640.5,886.75C640.5,888.4 640.4,888.5 638.75,888.5C637.55,888.5 637,888.25 637,887.75ZM737.95,881.75C737.7,879.05 737.95,878 738.75,878C739.3,878 739.5,878.6 739.5,880.25C739.5,881.9 739.3,882.5 738.75,882.5C738.35,882.5 737.95,882.15 737.95,881.75ZM738,868.7C738,868.25 737.55,867.8 737,867.65C735.25,867.2 735.8,866 737.75,866C739.4,866 739.5,866.1 739.5,867.75C739.5,868.95 739.25,869.5 738.75,869.5C738.35,869.5 738,869.15 738,868.7ZM741.5,862.5C741.5,860.35 742.15,859.9 743,861.45C743.85,863.1 743.6,864.5 742.5,864.5C741.65,864.5 741.5,864.15 741.5,862.5ZM661.5,861.05C661.5,860.75 662.05,859.9 662.75,859.15L663.95,857.75L664,859.65C664,861.3 663.85,861.5 662.75,861.5C662.05,861.5 661.5,861.3 661.5,861.05Z" style="fill:rgb(165,99,110);"/>
                </g>
                <g transform="matrix(2.00091,0,0,2.00091,14487.5,-2557.76)">
                    <path d="M668.25,1019.95C647.05,1018.15 628.2,1010.95 611.55,998.35C587.25,979.95 571.65,951.1 569.5,920.65C567.7,895.9 575.55,869.75 590.9,849.35C604.35,831.45 626.25,816.65 647.6,811.05C658,808.3 665.8,807.35 677.25,807.4C700.45,807.55 721.35,814.55 739.75,828.4C755.55,840.3 767.25,855.25 774.4,872.75C785.9,901.05 785.55,929.5 773.3,957.3C764.05,978.35 748.75,994.8 726.65,1007.45C710.5,1016.7 687.55,1021.65 668.25,1019.95ZM691.75,1004C698.65,1002.8 708.6,999.6 715.7,996.3C721.4,993.65 729.3,988.55 733.05,985.1L735.6,982.75L728.8,976C725.05,972.3 721.75,969.2 721.5,969.2C721.2,969.15 720.45,969.1 719.85,969.05C719.05,969 716.35,966.7 711.5,961.9C705.6,956 704.55,954.7 705.45,954.6C706,954.5 706.5,954.3 706.5,954.1C706.5,953.9 697.6,944.85 686.75,934C669.45,916.7 666.95,914.4 666.7,915.4C666.4,916.45 665,917 665,916.05C665,915.8 664.1,914.65 663,913.45C661.6,911.9 661,910.8 661,909.75C661,908.5 660.3,907.5 657.35,904.6C655.35,902.65 653.6,901 653.4,901C653.2,901 653,901.5 652.9,902.1C652.75,903.15 652.7,903.15 651.15,901.8C650.25,901.05 649.5,900.15 649.45,899.85C649.4,899.5 646.6,896.65 643.25,893.5C639.85,890.35 637.05,887.6 637.05,887.4C637,887.2 637.5,887 638.15,886.9C639.05,886.7 636.65,884.1 622.85,870.2L606.5,853.75L605.25,855.25C602.35,858.65 596.4,868.1 593.85,873.25C586.95,887.25 584.3,898.5 584.35,913.75C584.45,928.4 587.35,940.75 593.85,953.95C606.1,978.9 629.35,997.1 656.8,1003.25C660.05,1004 664.55,1004.8 666.75,1005C672.8,1005.65 684.95,1005.15 691.75,1004ZM750.45,967.15C756.6,958.6 762.4,946.1 765.25,935.35C766.65,930.1 768,919.55 768,913.85C768,905.5 766.1,894 763.4,885.75C761.4,879.65 755.3,867.25 751.6,861.7C746,853.4 734.75,842.5 725.5,836.55C703.4,822.3 675.85,818.15 650.85,825.3C645.25,826.95 637.9,829.9 633.05,832.55C627.95,835.35 620,840.6 618.6,842.15L617.4,843.4L638.75,864.95C650.55,876.8 660.3,886.5 660.55,886.5C660.75,886.5 661,886.05 661.1,885.5C661.25,884.6 661.6,884.8 663.95,886.95C666.3,889.1 666.6,889.6 666.3,890.75C665.9,892.3 666.45,892.9 704.25,930.55C725.45,951.7 728.45,954.5 729.8,954.5C731.05,954.5 732.15,955.35 736.6,959.9C741.2,964.5 741.85,965.45 741.65,966.55C741.35,968.25 744.6,972.15 746.15,971.9C746.75,971.8 748.5,969.9 750.45,967.15Z" style="fill:rgb(222,68,41);"/>
                </g>
                <g transform="matrix(2.00091,0,0,2.00091,14487.5,-2557.76)">
                    <path d="M614.5,969.15C611.6,968.2 610.6,967 612.7,967C615.3,967 617,967.6 617,968.55C617,969.5 616.1,969.7 614.5,969.15ZM627.5,959.25C627.5,957.6 627.6,957.5 629.25,957.5C630.2,957.5 631,957.75 631,958C631,958.3 630.8,958.5 630.55,958.5C630.35,958.5 629.55,959.05 628.8,959.75L627.5,960.95L627.5,959.25ZM698,959.25C698,957.6 698.1,957.5 699.75,957.5C701.8,957.5 702,958.05 700.25,959C699.55,959.35 699,959.95 699,960.35C699,960.7 698.8,961 698.5,961C698.25,961 698,960.2 698,959.25ZM704.8,959.75C704.65,959.35 703.95,958.9 703.25,958.7C701.3,958.2 701.65,957 703.75,957C705.4,957 705.5,957.1 705.5,958.75C705.5,960.6 705.3,960.95 704.8,959.75ZM737,858C737,856.9 738,856.7 739.55,857.5C741.05,858.3 740.7,859 738.75,859C737.35,859 737,858.8 737,858Z" style="fill:rgb(18,143,71);"/>
                </g>
                <g transform="matrix(2.00091,0,0,2.00091,14487.5,-2557.76)">
                    <path d="M717.65,968C717.5,967.45 717.15,967 716.8,967C716.5,967 714.05,964.75 711.35,962.1C707.05,957.8 706.45,957 706.6,955.7C706.75,954.3 707,954.5 713.85,961.25C717.8,965.1 721,968.4 721,968.65C721,968.85 720.3,969 719.45,969C718.35,969 717.85,968.75 717.65,968ZM738.3,964.7L736.35,962.5L738.2,962.5C739.8,962.5 740,962.65 740,963.75C740,964.75 740.25,965 741.25,965C742.4,965 742.45,965.1 741.9,966C741,967.4 740.55,967.2 738.3,964.7ZM731.15,957.45C729.7,956.05 728.5,954.85 728.5,954.7C728.5,954.6 729.25,954.5 730.15,954.5C732.4,954.5 734.15,956.3 733.9,958.4L733.75,959.95L731.15,957.45ZM664.5,914.75C664.5,913.85 664.25,913.5 663.6,913.5C662.2,913.5 661,911.85 661,909.95L661,908.25L663.75,911.15C666.6,914.2 667.25,916 665.5,916C664.75,916 664.5,915.65 664.5,914.75ZM651,900.75C651,899.2 650.85,899 649.65,899C648.55,899 647.05,897.8 642.9,893.65C639.9,890.75 637.5,888.05 637.5,887.65C637.5,887.3 638,887 638.65,887C639.4,887 641.7,889 646.4,893.8C652.85,900.45 654.2,902.5 652,902.5C651.2,902.5 651,902.15 651,900.75ZM663.1,889.1C661.95,888.1 661,886.85 661,886.4C661,885.1 662.75,885.3 663.85,886.65C664.35,887.3 665.15,887.95 665.65,888.15C666.65,888.5 666.85,891 665.9,891C665.55,891 664.3,890.15 663.1,889.1Z" style="fill:rgb(59,27,40);"/>
                </g>
                <g transform="matrix(2.00091,0,0,2.00091,14487.5,-2557.76)">
                    <path d="M613.8,968.75C610.85,967.7 609.1,965.75 608.6,962.8C608.35,961.4 608.15,945.05 608.2,926.5C608.25,893.7 608.3,892.7 609.25,891.1C609.8,890.2 611.05,888.95 612,888.35C613.65,887.3 614.4,887.25 626.45,887.1L639.15,886.95L653,900.8L653,932.2C653,963 653,963.65 651.95,965.3C649.8,968.8 649.55,968.85 631.75,969.15C619,969.4 615.35,969.3 613.8,968.75ZM636.9,893.4C636.75,892.3 636.6,892.25 630.75,892.25C624.9,892.25 624.75,892.3 624.6,893.4C624.45,894.5 624.5,894.5 630.75,894.5C637,894.5 637.05,894.5 636.9,893.4ZM649,929.6C649,915.65 649.15,903.05 649.3,901.65L649.65,899L612,899L612,926.95C612,945.05 612.2,955 612.5,955.1C612.75,955.2 621.1,955.2 631,955.1L649,955L649,929.6ZM633.4,963.4C634.7,960.6 631.65,957.65 629.15,959.25C627.6,960.3 627.2,962.2 628.25,963.8C628.9,964.85 629.4,965.05 630.9,964.9C632.35,964.8 632.9,964.45 633.4,963.4ZM664.45,968.2C663.75,967.75 662.7,966.65 662.1,965.8C661,964.2 661,964.2 661,936.45L661,908.75L663.75,911.6L666.5,914.4L666.5,954.5L706.75,954.5L713.65,961.4C717.45,965.2 720.4,968.45 720.2,968.65C720,968.85 707.65,969 692.8,969C668.95,968.95 665.6,968.9 664.45,968.2ZM704.5,964C706.55,961.95 705.15,958.5 702.3,958.5C700.2,958.5 699.1,959.35 698.7,961.3C698.1,964.4 702.2,966.3 704.5,964ZM734.6,960.7C731.5,957.5 729,954.75 729,954.65C729,954.5 730.95,954.5 733.4,954.55L737.75,954.7L737.9,911.1L738,867.5L666.5,867.5L666.5,878.65C666.5,884.75 666.3,890 666.1,890.35C665.85,890.8 665,890.35 663.35,888.95L661,886.9L661,874.35C661,861.8 661,861.7 662.2,859.95C662.9,858.95 664.05,857.9 664.85,857.55C665.9,857.15 675.8,857 702.85,857.1L739.45,857.25L741,858.75C741.8,859.55 742.75,861.05 743.05,862.15C743.4,863.45 743.5,880.5 743.4,913.95C743.25,960.7 743.2,963.9 742.35,965.15C741.9,965.9 741.2,966.5 740.85,966.5C740.45,966.5 737.65,963.9 734.6,960.7Z" style="fill:rgb(31,33,33);"/>
                </g>
            </g>
        </g>
    </g>
</svg>
