<?xml version="1.0" encoding="UTF-8" standalone="no"?>
<!DOCTYPE svg PUBLIC "-//W3C//DTD SVG 1.1//EN" "http://www.w3.org/Graphics/SVG/1.1/DTD/svg11.dtd">
<svg width="100%" height="100%" viewBox="0 0 743 424" version="1.1" xmlns="http://www.w3.org/2000/svg" xmlns:xlink="http://www.w3.org/1999/xlink" xml:space="preserve" xmlns:serif="http://www.serif.com/" style="fill-rule:evenodd;clip-rule:evenodd;stroke-linejoin:round;stroke-miterlimit:2;">
    <g transform="matrix(1,0,0,1,-7677.72,-1047.25)">
        <g transform="matrix(1,0,0,1,6691,0)">
            <g transform="matrix(1,0,0,1,-11838,1892)">
                <g transform="matrix(2.00091,0,0,2.00091,12656.5,-2464.29)">
                    <path d="M270.7,1007.3C270.55,1006.9 270.5,1005.95 270.6,1005.2C270.75,1003.85 270.9,1003.75 274.95,1003.2C277.25,1002.85 281.55,1002.45 284.5,1002.25L289.9,1001.9L287.8,996.05C286.7,992.85 285.55,989.95 285.35,989.65C285.1,989.3 283.95,989 282.7,989L280.5,989L280.5,984.65L284.45,984.3C286.6,984.15 288.7,984.1 289.1,984.25C290.05,984.65 290.4,985.45 293.6,994.2C295.55,999.4 296.2,1001.95 296.25,1004L296.25,1006.75L288.25,1007.35C276.7,1008.2 271.05,1008.15 270.7,1007.3ZM212.5,1006.5C209.9,1006 203.05,1004.75 197.25,1003.75C191.5,1002.8 186.35,1001.85 185.9,1001.7C185.2,1001.5 185,1000.9 185,999.2C185,997.1 185.2,996.75 190.35,991.2L195.7,985.4L199,985.65C203.25,985.95 224.65,989.3 227.5,990.15C229.55,990.75 229.75,990.95 229.9,992.5C230,993.95 229.35,995.35 225.85,1000.75L221.65,1007.25L219.45,1007.35C218.25,1007.4 215.1,1007 212.5,1006.5ZM321.55,997.45C318.55,992.6 317.5,990.45 317.5,989.2C317.5,987.05 317.55,987 327.5,985.3C331.75,984.55 337.9,983.35 341.2,982.7C344.45,982.05 348.2,981.5 349.55,981.5C351.95,981.5 351.95,981.5 355.4,985.65C360.3,991.5 362,994.15 362,996C362,996.85 361.7,997.6 361.4,997.7C360.75,997.9 339.6,1002.1 333.25,1003.3C331.35,1003.65 328.8,1003.95 327.7,1003.95L325.6,1004L321.55,997.45ZM337.6,997C341.55,996.2 346.8,995.15 349.35,994.7L353.95,993.9L351.1,990.45C349.25,988.25 347.9,987 347.2,987C346.3,987 340.2,988.1 327.6,990.55C325.85,990.9 325.1,991.25 325.3,991.65C326.75,994.15 329.8,998.5 330.1,998.5C330.3,998.5 333.7,997.85 337.6,997ZM261.65,1002C256.6,1001.8 252.15,1001.5 251.75,1001.3C250.3,1000.75 250.9,996.95 253.65,989.2C257.2,979.3 257.1,979.5 259.65,979.5C260.8,979.5 262.6,979.65 263.65,979.8C265.35,980.1 265.5,980.25 265.5,981.8C265.5,983.4 265.4,983.5 263.8,983.5C262.9,983.5 261.9,983.8 261.65,984.15C261.05,984.85 259.35,989.7 258,994.4L257.05,997.5L264.2,997.5C269.75,997.5 271.5,997.35 271.95,996.8C272.5,996.1 274.5,986.95 274.5,985C274.5,984.1 274.15,984 271.5,984L268.5,984L268.5,982.3C268.5,980.15 268.9,980 275.05,980L280,980L280,982.45C280,984.75 277.25,1001.2 276.7,1002.05C276.4,1002.55 275.4,1002.55 261.65,1002ZM270.55,966.15L268.85,965.95L269.15,963.5C269.4,961.25 269.3,960.9 267.95,959.55C265.85,957.4 266.05,955.5 269.5,945C271.15,940 272.5,935.8 272.5,935.7C272.5,935.4 269.95,935.45 267.3,935.8L265,936.15L265,955L260,955L259.95,946.9C259.95,942.4 259.8,939.05 259.65,939.4C259.55,939.7 259.05,940 258.6,940C258.2,940 257.1,940.25 256.2,940.6L254.6,941.15L256.3,946.2C257.25,948.95 258,952.15 258,953.35L258,955.5L253.25,955.5L251.05,949.1C249.55,944.85 248.85,941.85 248.8,940L248.75,937.25L251.75,936.05C253.4,935.4 255.95,934.75 257.4,934.6C259.95,934.4 260,934.35 260,932.75C260,931.2 260.1,931.1 262.4,930.8C263.7,930.65 267.9,930.5 271.75,930.5L278.75,930.55L287.85,933.55C292.85,935.2 297.2,936.9 297.55,937.3C298.5,938.45 297.75,942.65 295.35,949.25L293.2,955.25L288.25,955.25L288.1,953.45C288,952.25 288.65,949.85 289.9,946.45L291.9,941.25L290.3,940.6C287.7,939.5 279.8,937 278.95,937C277.75,937 272,954.3 272,957.8C272,960.55 272.45,961 275.4,961C276.4,961 276.5,961.25 276.5,963.75L276.5,966.5L274.4,966.4C273.2,966.4 271.5,966.25 270.55,966.15ZM359.7,959.65C359.05,959.15 356.75,954 348.2,933.75C347.3,931.55 346.5,928.9 346.5,927.9C346.5,926.05 346.55,926 350.75,923.95C354.1,922.35 355.45,921.95 357,922.1L359,922.3L359,920.15C359,919 359.2,917.9 359.5,917.75C359.95,917.45 364.2,916.85 370.65,916.15L373.5,915.85L373.5,918.4C373.5,919.8 373.35,921.05 373.1,921.2C372.9,921.3 370.95,921.65 368.8,921.95C366.6,922.25 364.8,922.55 364.75,922.65C364.7,922.7 364.85,925.1 365.1,928C365.3,930.9 365.65,936.4 365.8,940.25L366.15,947.25L369.05,937.25C370.65,931.75 372.7,924.7 373.6,921.55L375.15,915.9L377.95,916.15C380.4,916.4 395.85,920.7 398.9,922C400.7,922.8 400.35,926.3 397.55,936.15C396.2,940.9 394.95,945.5 394.75,946.4C394.45,947.8 394.25,948 392.75,948C390.05,948 389.5,947.6 389.5,945.55C389.5,943.8 389.95,941.9 392.85,931.55C393.9,927.65 394,926.8 393.45,926.45C392.65,925.95 380.75,922 380,922C379.75,922 379.15,922.85 378.75,923.85C378,925.55 374.8,936.9 373.25,943.35C372.9,944.8 371.85,947.4 370.95,949.2C369.4,952.25 369.15,952.5 367.65,952.5C366.05,952.5 366,952.45 365.9,950.15C365.85,947.95 365.8,947.9 365.65,949.65C365.45,951.4 365.35,951.5 363.7,951.5C362.75,951.5 362,951.7 362,951.95C362,953 363.9,954.5 365.75,954.9C367.55,955.25 367.75,955.45 367.9,956.95C368,957.9 367.9,958.8 367.65,959C367.05,959.55 360.35,960.1 359.7,959.65ZM361,942C360.5,937.2 359.9,931.45 359.7,929.25C359.45,927.05 359.2,925.75 359.1,926.3C359,927.1 358.45,927.5 357.25,927.7C356.3,927.9 354.85,928.3 354.05,928.65L352.55,929.3L354.7,934.5C355.85,937.4 357.3,940.65 357.85,941.75C358.4,942.85 359.45,945.4 360.25,947.4C361,949.4 361.7,951 361.8,950.9C361.9,950.8 361.55,946.8 361,942ZM144.75,939.9C143.35,934.9 142.25,929.75 142.1,927.65C141.9,924.2 141.95,924 143.05,923.55C145.1,922.75 151.15,921.5 153.15,921.5C154.95,921.5 155,921.55 155,923.4C155,924.4 154.8,925.5 154.6,925.85C154.4,926.15 152.6,926.8 150.6,927.25C148.6,927.7 147.1,928.25 147.25,928.45C147.95,929.6 151.5,944.55 151.5,946.4L151.5,948.5L147.15,948.5L144.75,939.9ZM256.5,911.3C252.05,910.1 248.85,907.3 247.55,903.55C246.8,901.25 246.85,893.95 247.65,892.2C249.7,887.5 252.85,885.45 258.5,885.1C265.1,884.7 269.2,886.95 271.9,892.25L272.9,894.2L273.2,892.65C273.65,890.55 276.65,887.2 279.2,885.9C281.4,884.75 286.15,884.4 289.65,885.15C292.15,885.7 295.35,888.65 296.8,891.75C297.75,893.75 298,895.1 298,898.4L298,902.5L296.05,902.5C294.5,902.5 294,902.25 293.75,901.5C293.3,900.1 290.6,898 289.3,898C287.75,898 285.8,899.6 285,901.45C284.2,903.45 285.45,905.55 288.35,907.1C290.2,908.1 290.5,908.45 290.5,909.85L290.5,911.5L286.85,911.5C279.95,911.5 275.25,908.7 273.5,903.5C272.75,901.45 272.55,901.1 272.5,902.15C272.5,903.35 272.3,903.5 270.85,903.5C269.4,903.5 269.1,903.25 268.3,901.45C267.7,900.1 266.85,899.15 265.65,898.6C264,897.8 263.85,897.85 262.1,898.75C261.1,899.3 259.95,900.4 259.55,901.2C258.95,902.45 259,902.85 259.7,904.3C260.1,905.2 261.25,906.5 262.25,907.1C263.6,908 264,908.6 264,909.8C264,910.8 263.7,911.5 263.2,911.7C262,912.15 259,912 256.5,911.3ZM368.25,876.65C367.7,876.55 366.75,876.35 366.15,876.2C365.25,876.05 365,875.65 365,874.3C365,872.8 365.2,872.6 367.1,872.05C369.9,871.2 372,869.05 372,867C372,863.85 369.35,861 366.45,861C365.85,861 364.4,861.95 363.1,863.25C361.45,864.9 360.5,865.5 359.35,865.5L357.85,865.5L358.1,861.4C358.35,856.55 359.45,854.1 362.45,851.35C365,849.05 367.7,848.35 373,848.6C379.05,848.9 382.8,851.15 385.3,856C386.7,858.75 386.9,865.75 385.65,868.55C383.2,874.1 378.65,877.05 372.75,876.95C370.85,876.9 368.8,876.8 368.25,876.65ZM397.75,876.75C397.5,876.65 396.65,876.45 395.9,876.3C394.7,876.05 394.5,875.75 394.5,874.3C394.5,872.8 394.7,872.55 396,872.25C399.95,871.4 402,867.4 400.2,864.15C398.35,860.65 394.8,860.05 392.2,862.75C390.9,864.15 390.2,864.5 388.7,864.5L386.85,864.5L387.2,861.4C387.85,855.4 391.6,850.35 396.4,849C397.4,848.75 400.05,848.5 402.25,848.5C407.15,848.5 410.45,849.85 413.05,852.95C415.35,855.55 416,857.85 416,862.95C416,866.3 415.8,867.45 414.75,869.45C413.15,872.6 409.6,875.75 406.75,876.45C404.75,876.95 398.95,877.15 397.75,876.75Z" style="fill:white;"/>
                </g>
                <g transform="matrix(2.00091,0,0,2.00091,12656.5,-2464.29)">
                    <path d="M84.5,1019.95C83.65,1018.4 84.2,990.3 85.2,982.75C87.9,962.45 92.65,946.05 100.9,928.8L103.75,922.85L102.25,921.8C98.85,919.45 94.55,914.45 92.75,910.8C87.2,899.65 89.5,843.95 90.7,840.35C95.3,826.65 109,817.45 122.95,818.7C130.6,819.4 137.35,822.65 142.85,828.35L146.4,832.05L150.6,827.8C153.9,824.45 155.6,823.15 158.5,821.8C163.5,819.45 167.4,818.5 172.1,818.5C177.55,818.5 180.55,819.25 186,821.9C194.3,825.95 199.65,832.6 202,841.8C204.45,851.4 203.15,902.5 201.75,907.2C200.1,912.85 195.05,919.3 191.2,920.8C189.2,921.55 189,921.75 189.7,922.25C190.85,923.15 190.7,923.5 189.1,923.5C187.15,923.5 182.35,921.65 181.75,920.7C181.5,920.25 180.8,919.3 180.2,918.6C179.15,917.35 179,917.3 169.05,916.85L158.95,916.4L157,917.7C155.9,918.4 155,919.25 155,919.5C155,919.8 154.5,920.25 153.9,920.5C153,920.85 152.95,920.95 153.65,920.95C154.75,921 154.9,924.5 153.75,924.5C153.3,924.5 153.15,924.2 153.35,923.7C153.6,923 153.4,922.9 152.35,923.1C151.3,923.3 151,923.15 151,922.45C151,921.3 150.7,921.3 146.8,922.3C143.75,923.1 142.3,923.95 141.45,925.6C141.1,926.2 141.85,929.5 144.05,937.1C145.75,942.95 147.25,948.85 147.4,950.15L147.6,952.55L150.3,950C153.4,947.05 155.3,946.15 159.2,945.7C160.75,945.5 162,945.15 162,944.95C162,944.7 161.65,944.5 161.25,944.5C160.75,944.5 160.5,944 160.5,943C160.5,940.7 161.45,939.1 163,938.9L164.45,938.7L163.45,940.55C162.25,942.9 162.25,943.5 163.4,943.5C164.05,943.5 164.8,942.4 166,939.65C169,932.7 173.85,922.65 174.3,922.35C175.05,921.9 190.55,928.9 191.25,930C191.45,930.3 188.8,936.7 185.45,944.3C178.65,959.6 179.7,958.3 175.4,957.2C174.3,956.95 174,957.05 174,957.7C174,958.15 173.65,958.5 173.25,958.5C172.7,958.5 172.5,957.95 172.5,956.45L172.5,954.4L174.4,954.6C175.4,954.75 176.6,955 177.05,955.2C177.85,955.55 178.2,954.95 186.4,936.75C187.8,933.75 188.8,931.1 188.7,930.95C188.45,930.55 176.2,925 175.6,925C175.35,925 173,929.6 170.45,935.25L165.75,945.5L162.25,945.6L164.2,946.1C166.95,946.85 170.15,950.15 170.95,953.15C171.35,954.45 171.55,956.65 171.4,958.1L171.2,960.75L173.1,960.6C174.35,960.45 175.5,960.75 176.65,961.45C180.65,963.9 181.7,962.65 188.65,947C191.8,940 194.6,933.5 194.95,932.65C195.65,930.9 197.5,930.3 197.5,931.85C197.5,932.3 197.85,933.05 198.25,933.5C199.85,935.3 210.5,967.25 210.5,970.25C210.5,971.05 210.8,971.5 211.25,971.5C211.65,971.5 212,971.85 212,972.25C212,972.9 210.65,973 202.9,973L193.75,973.05L192.2,974.4C190.55,975.85 188,978.55 163.55,1004.4L147.85,1021L116.45,1021C85.25,1021 85.05,1021 84.5,1019.95ZM169.75,865.15C172.1,865.45 172.15,865.4 171,864.75C169.4,863.85 167.4,863.8 165.25,864.7C162.95,865.7 163,866.05 165.35,865.4C166.4,865.1 168.35,865 169.75,865.15ZM119.7,953.15C119.4,951.45 118.5,949.65 118.5,950.7C118.5,951.4 119.65,955 119.85,955C119.95,955 119.9,954.15 119.7,953.15ZM132.15,963.15C131.25,963.05 129.75,963.05 128.9,963.15C128,963.25 128.7,963.35 130.5,963.35C132.3,963.35 133,963.25 132.15,963.15ZM134.5,991.85L136.75,991.1L134.25,991.4C130.8,991.85 122.7,991.85 120,991.35C117.1,990.85 117.6,991.25 121.05,992.25C124.35,993.15 131.2,992.95 134.5,991.85ZM141.05,865.6C144.3,865.7 144.85,865.65 144.2,865.15C142.6,864 140.05,863.85 137.75,864.75C136.5,865.2 135.35,865.8 135.2,866.1C135,866.4 135.35,866.35 136,866C136.65,865.65 138.65,865.5 141.05,865.6ZM159.9,895.55C163.45,893.75 165.55,891.55 167.2,888L168.5,885.25L167.45,884.4C166.5,883.6 165.15,883.5 154.8,883.55C142.6,883.6 141.15,883.75 140.3,885.15C139.55,886.3 141.4,889.7 144.15,892.3L146.2,894.25L144.1,891.9C142.3,889.85 142,889.2 142,887.25L142,885L166.5,885L166.5,886.75C166.5,889.95 164,893.2 160.4,894.7C157.9,895.75 150.6,895.75 148.1,894.7C147.1,894.3 146.5,894.2 146.8,894.5C147.1,894.8 148.7,895.6 150.3,896.3C153.85,897.75 155.8,897.6 159.9,895.55ZM132,871.3L131.95,869.75L131.25,871C130.85,871.7 130.55,872.65 130.5,873.2C130.5,873.95 130.65,874 131.25,873.5C131.65,873.15 132,872.15 132,871.3ZM159.1,871.45C159.35,870 159.3,869.95 158.65,870.75C157.95,871.8 157.75,873.7 158.45,873.3C158.7,873.15 159,872.3 159.1,871.45ZM149.25,870.55C148.15,868.35 148,868.65 148.95,871.4C149.35,872.7 149.8,873.4 149.9,872.9C150,872.45 149.7,871.4 149.25,870.55ZM178,873C178,872.2 176.1,868.6 175.45,868.25C175.15,868.05 175.25,868.6 175.7,869.4C176.15,870.25 176.5,871.35 176.5,871.9C176.5,872.4 176.65,873 176.85,873.15C177.35,873.65 178,873.55 178,873ZM385.4,1020.65C384.9,1020.55 384.5,1020.1 384.5,1019.7C384.5,1019.15 385.75,1019 391.25,1019C396.7,1019 398,1019.15 398,1019.7C398,1020.1 397.5,1020.5 396.9,1020.6C395.35,1020.95 386.45,1021 385.4,1020.65ZM276.5,1003.6C276.5,1002.8 277,1002.6 279.15,1002.3C283.9,1001.75 287.5,1001.9 287.5,1002.75C287.5,1003.55 286.3,1003.8 280.4,1004.25C276.8,1004.5 276.5,1004.45 276.5,1003.6ZM289.5,1002.45C289.5,1001.45 287.3,994.9 285.7,991.15C285.05,989.6 284.85,989.5 282.5,989.5L280,989.5L280,987.5C280,985.5 280,985.5 281.9,985.55C282.9,985.6 283.35,985.7 282.9,985.85C282.4,985.95 282,986.4 282,986.8C282,987.3 282.65,987.5 284.2,987.5C285.45,987.5 286.6,987.8 286.85,988.15C287.45,989.1 291.6,1000.55 291.85,1002.15C292.1,1003.35 291.95,1003.5 290.8,1003.5C289.8,1003.5 289.5,1003.25 289.5,1002.45ZM328.25,999.65C327.2,998.65 322,990.65 322,990.1C322,989.85 323.75,989.4 325.9,989.05C328,988.7 333,987.8 337,987C348.95,984.7 348.8,984.7 350.25,986.3C354.25,990.6 357.15,994.6 356.55,994.95C356.2,995.2 354.3,995.65 352.35,995.95C349.35,996.5 333.8,999.5 330.15,1000.25C329.55,1000.4 328.7,1000.15 328.25,999.65ZM338.7,996.55C342.55,995.75 347.5,994.85 349.65,994.5C352.35,994.05 353.4,993.7 353,993.3C352.75,993.05 352.5,992.45 352.5,992C352.5,991.6 352,991 351.4,990.75C350.75,990.45 350.2,989.8 350.1,989.25C350.05,988.7 349.35,987.95 348.55,987.6C347.4,987.1 346.05,987.2 339.95,988.45C336,989.25 331.1,990.15 329.1,990.5C325.75,991.05 325.5,991.2 325.8,992.15C326,992.75 326.4,993.45 326.7,993.75C327,994.05 327.8,995.15 328.5,996.15C329.2,997.15 330.15,998 330.7,998C331.2,998 334.8,997.35 338.7,996.55ZM275,963.6C275,962.85 274.75,962.7 273.8,962.85C273.15,963 272.45,962.85 272.3,962.55C271.75,961.65 271,961.9 271,963C271,963.65 270.75,963.9 270.25,963.7C269.85,963.5 269.5,963 269.5,962.5C269.5,961.95 269.3,961.4 269,961.25C268.75,961.1 268.5,960.15 268.5,959.15C268.5,957.35 268.5,957.35 269.55,958.3L270.6,959.25L270.3,957C270.05,955.1 270.55,953.25 273.4,945C276.05,937.35 276.95,935.2 277.7,935.1C279.35,934.75 285,936.55 285,937.35C285,938 284.55,938.05 282.65,937.8C281.3,937.6 279.8,937.4 279.25,937.35C278.4,937.25 277.85,938.5 275.15,946.45L272,955.6L272.85,958.05C273.65,960.2 273.9,960.5 275.15,960.5C276.45,960.5 276.55,960.6 276.4,962.35C276.25,964.25 275,965.35 275,963.6ZM287.5,953.6C287.5,952.85 288.5,949.65 289.7,946.5C291.9,940.9 291.9,940.75 290.85,940.6C288.15,940.2 286.5,939.4 286.5,938.45C286.5,937.95 286.85,937.5 287.25,937.5C288.4,937.5 294,940.2 294,940.75C294,941.05 292.95,943.95 291.7,947.25C289.65,952.55 289.5,953.25 290.2,953.8C291.4,954.65 291.15,955 289.25,955C287.65,955 287.5,954.85 287.5,953.6ZM154,943.9C154,943 154.4,941.8 154.8,941.25C155.55,940.3 155.6,940.3 155.4,941.9C155.25,942.75 155.35,943.5 155.6,943.5C156.4,943.5 156.95,941.15 158,933.25C158.55,928.85 159.2,924.25 159.4,923L159.8,920.75L164,920.75C167.85,920.75 168.95,920.45 169,919.4C169,919.2 168.5,918.95 167.9,918.85C167.2,918.7 167.45,918.6 168.65,918.55C170.4,918.5 170.5,918.6 170.5,920.05C170.5,922.65 169.55,923.15 165.25,922.75C161.65,922.4 161.55,922.4 161.3,923.55C160.75,926.1 159,939.9 159,941.8C159,944.25 157.85,945.5 155.6,945.5C154.15,945.5 154,945.35 154,943.9ZM351.8,942.7C351.65,942.25 351.5,941.5 351.5,940.95C351.5,940.45 351.3,940 351,940C350.75,940 350.5,939.2 350.5,938.25C350.5,935 351.7,936.4 354.05,942.4C354.4,943.35 354.3,943.5 353.3,943.5C352.65,943.5 351.95,943.15 351.8,942.7ZM364.3,942.4C364.15,941.75 364,939.85 364,938.15C364,935.35 364.1,935 365,935C365.9,935 366,935.35 366,939.25C366,942.55 365.85,943.5 365.3,943.5C364.95,943.5 364.5,943 364.3,942.4ZM395,938.45C395,937 396.25,934 396.85,934C397.55,934 397.7,935.9 397.2,937.9C396.9,939 395,939.5 395,938.45ZM164,935.55C164,933.3 164.5,932.5 165.8,932.5C167.25,932.5 167.25,932.55 166,935C164.8,937.35 164,937.55 164,935.55ZM363.8,930.15C363.65,929.35 363.4,927 363.2,924.9L362.9,921.1L365.3,920.75C371.1,920 371.75,919.75 371.9,918.6C372,917.85 371.8,917.5 371.3,917.5C370.85,917.5 370.5,917.15 370.5,916.75C370.5,916.2 371.05,916 372.3,916L374.15,916L373.85,918.5C373.45,921.75 373.25,922 371.3,922C370.4,922 368.6,922.15 367.3,922.3L364.95,922.65L365.3,927.05C365.6,930.9 365.5,931.5 364.85,931.5C364.4,931.5 363.95,930.9 363.8,930.15ZM346.5,928.75C346.5,927.15 346.65,927 347.9,927C348.8,927 349.05,927.15 348.6,927.4C348.15,927.75 348.1,928.15 348.45,929.15C348.95,930.4 348.85,930.5 347.75,930.5C346.65,930.5 346.5,930.3 346.5,928.75ZM187,925.75C185.75,925.1 185,924.55 185.25,924.55C185.55,924.55 186.75,925.1 188,925.75C189.25,926.4 190.05,926.95 189.75,926.95C189.5,926.95 188.25,926.4 187,925.75ZM357.35,924.45C357.15,923.7 356.8,923.45 356.3,923.65C355.75,923.9 355.5,923.65 355.5,923C355.5,922.2 355.85,922 357.25,922C358.9,922 359,922.1 359,923.75C359,925.7 357.8,926.2 357.35,924.45ZM182.5,923.75C181.8,923.35 181.5,923.05 181.75,923.05C182.05,923.05 182.8,923.35 183.5,923.75C184.2,924.15 184.55,924.45 184.25,924.45C184,924.45 183.2,924.15 182.5,923.75ZM377.4,917.65C375.6,917.2 376.4,916 378.5,916C380.15,916 380.5,916.15 380.5,917C380.5,918 379.5,918.2 377.4,917.65ZM286.5,910.5C286.5,910.25 287.1,910 287.9,910L289.25,909.95L287.9,909.2C286,908.2 286.15,907.5 288.25,907.5C289.9,907.5 290,907.6 290,909.25C290,910.9 289.9,911 288.25,911C287.3,911 286.5,910.8 286.5,910.5ZM257.85,900C258.1,899 260.25,897 261.05,897C261.8,897 261.55,898.95 260.65,900C259.45,901.35 257.5,901.35 257.85,900ZM397,872.7C397,871.75 397.3,871.4 398.5,871.2C399.55,870.95 400,870.6 400,869.95C400,869.25 400.35,869 401.25,869C402.2,869 402.4,869.2 402.15,869.9C401.65,871.3 400,872.9 398.45,873.45C397.1,873.9 397,873.85 397,872.7ZM370.5,871.15C370.5,870.35 370.85,869.3 371.25,868.8C371.65,868.25 372,866.85 372,865.65C372,864.1 372.2,863.5 372.75,863.5C374.45,863.5 374.1,869.5 372.2,871.55C371,872.85 370.5,872.75 370.5,871.15ZM398.5,861.7C398.5,861 398,860.95 394.75,861.25C392.1,861.5 391,861.4 391,861C391,860.35 394,859 395.45,859C397.1,859 400.5,860.55 401.05,861.55C401.45,862.4 401.35,862.5 400,862.5C398.95,862.5 398.5,862.25 398.5,861.7ZM362.5,860.95C362.5,860.1 366,858.9 367.55,859.25C369.8,859.75 369.3,860.8 366.7,861.2C363.45,861.65 362.5,861.6 362.5,860.95Z" style="fill:rgb(242,143,185);"/>
                </g>
                <g transform="matrix(2.00091,0,0,2.00091,12656.5,-2464.29)">
                    <path d="M148,1020C148,1019.1 148.35,1019 151.75,1019C154.6,1019 155.5,1019.15 155.5,1019.7C155.5,1020.55 153.95,1021 150.65,1021C148.35,1021 148,1020.85 148,1020ZM270.5,1006.25C270.5,1004.7 270.65,1004.5 271.75,1004.5C272.55,1004.5 273,1004.2 273,1003.75C273,1003.2 273.6,1003 275.5,1003C277.3,1003 278,1003.2 278,1003.7C278,1004.5 276.5,1005 274.15,1005C272.3,1005 271.45,1005.95 272.95,1006.35C274.7,1006.8 274.2,1008 272.25,1008C270.6,1008 270.5,1007.9 270.5,1006.25ZM279,1007.3C279,1006.65 280.4,1006 281.9,1006C282.2,1006 282.5,1006.45 282.5,1007C282.5,1007.8 282.15,1008 280.75,1008C279.6,1008 279,1007.75 279,1007.3ZM285.5,1006.8C285.5,1006.45 286,1006 286.65,1005.8C288.7,1005.25 289.5,1005.45 289.5,1006.5C289.5,1007.35 289.15,1007.5 287.5,1007.5C286.15,1007.5 285.5,1007.3 285.5,1006.8ZM212.4,1006.65C211.4,1006.5 211,1006.15 211,1005.45C211,1004.35 211.15,1004.3 214.5,1005.05C216.05,1005.4 217,1005.85 217,1006.3C217,1007 215.5,1007.1 212.4,1006.65ZM200.15,1004.35C197.6,1003.95 197,1003.7 197,1002.95C197,1001.8 196.75,1001.8 202,1002.75C204.35,1003.15 206.3,1003.5 206.4,1003.5C206.45,1003.5 206.5,1003.85 206.5,1004.25C206.5,1005.1 205,1005.15 200.15,1004.35ZM221,1004.7C221,1004.1 222.7,1001.5 223.1,1001.5C223.3,1001.5 223.5,1002.3 223.5,1003.25C223.5,1004.8 223.35,1005 222.25,1005C221.55,1005 221,1004.85 221,1004.7ZM294.8,1003.9C294.3,1002 294.45,1001.5 295.5,1001.5C296.3,1001.5 296.5,1001.85 296.5,1003.25C296.5,1005.25 295.3,1005.7 294.8,1003.9ZM327.5,1003.5C327.5,1003.25 326.85,1003 326,1003C324.75,1003 324.5,1002.8 324.5,1001.75C324.5,1000.95 324.2,1000.5 323.75,1000.5C323.3,1000.5 323,1000.05 323,999.25C323,998.45 322.7,998 322.25,998C321.85,998 321.5,997.65 321.5,997.25C321.5,996.85 321.3,996.5 321,996.5C320.75,996.5 320.5,995.95 320.5,995.25C320.5,994.45 320.2,994 319.75,994C319.35,994 319,993.65 319,993.25C319,992.85 318.8,992.5 318.5,992.5C318.25,992.5 318,991.7 318,990.75C318,989.8 318.2,989 318.4,989C318.6,989 320.65,992.05 322.95,995.8C327.65,1003.35 326.6,1002.7 332.15,1001.7C333.75,1001.45 334,1001.5 334,1002.4C334,1003.15 333.55,1003.45 331.7,1003.7C328.45,1004.1 327.5,1004.1 327.5,1003.5ZM267.5,1001.45C267.5,1000.4 267.65,1000.4 271.2,1000.7C273.25,1000.9 275.05,1000.85 275.2,1000.6C275.55,1000.05 278.5,983.75 278.5,982.4C278.5,981.55 278.15,981.45 274.8,981.55C270.15,981.65 268.5,982.5 272.9,982.5L276,982.5L276,985C276,988.1 274.25,997.35 273.45,998.3C273,998.85 271,999 264.2,999C259.1,999 255.45,998.8 255.25,998.5C254.8,997.75 259,984.1 260.15,982.65C260.4,982.3 261.45,981.95 262.45,981.95L264.25,981.9L262.75,981.5C259.9,980.75 259.05,980.95 258.3,982.4C256.85,985.25 252.4,998.55 252.7,999.25C252.85,999.75 253.65,1000 255.1,1000C258.05,1000 259.5,1000.45 259.5,1001.4C259.5,1002.05 258.9,1002.1 255.4,1001.8C253.2,1001.6 251.15,1001.35 250.9,1001.2C250,1000.65 250.6,997.35 252.6,991.7C253.75,988.4 254.9,985.7 255.1,985.6C255.3,985.5 255.5,984.95 255.5,984.35C255.5,983.75 255.95,982.25 256.5,981.05L257.5,978.85L260.6,979.2C262.25,979.35 267.1,979.5 271.3,979.5L279,979.5L279,981.25C279,982.2 279.25,983 279.5,983C279.8,983 280,983.55 280,984.2C280,985.5 278.3,995.7 277.4,999.9L276.85,1002.5L272.15,1002.5C267.75,1002.5 267.5,1002.45 267.5,1001.45ZM272.55,993.5C273,991.7 273.5,988.95 273.7,987.4L274.05,984.55L268,984.4L261.9,984.25L261.15,986C260.75,986.95 259.85,989.55 259.2,991.75C258.5,993.95 257.85,996.05 257.7,996.4C257.55,996.9 259.05,997 264.65,996.9L271.75,996.75L272.55,993.5ZM335.5,1001.8C335.5,1001.15 336.9,1000.5 338.4,1000.5C338.7,1000.5 339,1000.95 339,1001.5C339,1002.3 338.65,1002.5 337.25,1002.5C336.1,1002.5 335.5,1002.25 335.5,1001.8ZM340,1000.8C340,1000.15 341.4,999.5 342.9,999.5C343.2,999.5 343.5,999.95 343.5,1000.5C343.5,1001.3 343.15,1001.5 341.75,1001.5C340.6,1001.5 340,1001.25 340,1000.8ZM345,999.8C345,999.15 346.4,998.5 347.9,998.5C348.2,998.5 348.5,998.95 348.5,999.5C348.5,1000.3 348.15,1000.5 346.75,1000.5C345.6,1000.5 345,1000.25 345,999.8ZM350.5,998.8C350.5,998.1 351.85,997.7 357.15,996.75C358.75,996.45 359,996.5 359,997.35C359,998.15 358.45,998.45 355.8,998.9C351.65,999.7 350.5,999.65 350.5,998.8ZM226.5,996.2C226.5,996 226.95,995.1 227.55,994.2L228.6,992.5L227.4,992.05C226.75,991.8 225.5,991.45 224.65,991.25C222.75,990.85 222.4,989.5 224.2,989.5C226.45,989.5 228.5,990.15 228.5,990.8C228.5,991.2 228.85,991.5 229.25,991.5C229.75,991.5 230,992.05 230,993.25C230,994.2 229.8,995 229.5,995C229.25,995 229,995.35 229,995.75C229,996.2 228.55,996.5 227.75,996.5C227.05,996.5 226.5,996.35 226.5,996.2ZM292.3,996.05C292.15,995.85 291.8,995.05 291.55,994.3C291.05,993.1 291.15,993 292.25,993C293.35,993 293.5,993.2 293.5,994.75C293.5,996.4 292.9,997.05 292.3,996.05ZM360.15,996.2C360.3,996 359.8,994.9 358.95,993.7L357.45,991.5L359,991.5C360,991.5 360.5,991.75 360.5,992.25C360.5,992.65 360.75,993 361,993C361.3,993 361.5,993.8 361.5,994.75C361.5,996.05 361.3,996.5 360.65,996.5C360.2,996.5 359.95,996.35 360.15,996.2ZM355.2,988.65C351.55,984.2 351.7,984.5 353.45,984.5C354.85,984.5 355,984.65 355,986C355,987.25 355.2,987.5 356.25,987.5C357.35,987.5 357.5,987.7 357.5,989.25C357.5,990.2 357.4,991 357.35,991C357.25,991 356.3,989.95 355.2,988.65ZM206.75,988.45C205.4,988.2 203.5,987.9 202.65,987.75C201.65,987.55 201,987.15 201,986.75C201,985.85 201.55,985.85 206.9,986.6C210.35,987.05 211,987.3 211,988.1C211,989.1 210.6,989.15 206.75,988.45ZM321.5,987.05C321.5,986.3 322.3,986 326.9,985.25C329.85,984.8 335.5,983.75 339.45,982.95C347.7,981.3 349,981.2 349,982.25C349,982.65 348.9,983 348.8,983C348.65,983 346.9,983.35 344.9,983.75C340.75,984.65 322.55,988 321.9,988C321.7,988 321.5,987.6 321.5,987.05ZM281,985.9L281,984L284.75,984C288.05,984 288.5,984.1 288.5,984.95C288.5,985.7 288.05,985.85 285.4,985.95C283.15,986 282.15,986.25 281.7,986.9C281.1,987.65 281.05,987.5 281,985.9ZM269.3,965.7C269.15,965.25 269,964.25 269,963.45C269,962.3 269.2,962 270.05,962C270.9,962 271.05,962.25 270.9,963.25C270.7,964.25 270.85,964.5 271.7,964.5C273.55,964.5 275,965.1 275,965.8C275,966.85 269.7,966.75 269.3,965.7ZM175.15,961.1C173.2,960.35 173,960.1 173,958.65C173,957.75 173.25,957 173.5,957C173.8,957 174,957.3 174,957.7C174,958.45 179.15,960.5 179.9,960.05C180.15,959.9 181.65,957.1 183.15,953.9C185.95,947.95 187,946.75 187,949.5C187,951.35 184.55,956.5 183.65,956.5C183.25,956.5 183,957.15 183,958.25C183,959.45 182.75,960 182.25,960C181.85,960 181.5,960.45 181.5,961C181.5,961.85 181.2,962 179.4,961.95C178.2,961.9 176.3,961.5 175.15,961.1ZM266.5,956.75C266.5,954.5 267.5,954.5 268.55,956.75L269.35,958.5L267.95,958.5C266.65,958.5 266.5,958.35 266.5,956.75ZM253.5,954.25C253.5,953.15 253.25,952.5 252.85,952.5C252.1,952.5 250.5,947.9 250.5,945.8C250.5,943.15 251.75,944.8 253.25,949.4C254.4,952.85 254.95,954 255.65,954C256.85,954 256.75,953.35 254.5,946.8C253.4,943.6 252.5,940.8 252.5,940.5C252.5,939.9 255.7,938.5 257.05,938.5C257.65,938.5 258.1,938 258.3,937.25C258.8,935.3 260,935.7 260,937.75C260,939.15 259.8,939.5 259,939.5C258.45,939.5 258,939.7 258,939.9C258,940.1 257.35,940.55 256.5,940.85L255.05,941.4L256.75,946.5C258.65,952.05 259,955.2 257.7,955.7C257.25,955.85 256.15,956 255.2,956C253.6,956 253.5,955.9 253.5,954.25ZM361.6,955.35C361.3,955 360.1,952.35 358.95,949.5C357.85,946.6 356.5,943.45 356,942.45C354.6,939.7 350.5,929.45 350.5,928.7C350.5,927.95 353.1,926.7 355.75,926.2C356.75,926.05 357.5,925.6 357.5,925.2C357.5,924.8 357.85,924.5 358.25,924.5C358.75,924.5 359,925.05 359,926.25C359,927.7 358.8,928 357.95,928C357.35,928 356,928.25 354.95,928.6C352.6,929.25 352.55,928.75 356.35,937.5C359.8,945.35 361.5,949.8 361.5,950.8C361.5,951.2 361.85,951.9 362.25,952.3C363.05,953.1 363.3,956 362.55,956C362.3,956 361.9,955.7 361.6,955.35ZM262,954.25C262,953.85 262.35,953.5 262.75,953.5C263.4,953.5 263.5,952.1 263.5,944.05L263.5,934.65L265.8,934.3C270.15,933.75 271.5,933.9 271.5,935C271.5,935.9 271.15,936 268.5,936L265.5,936L265.5,955L263.75,955C262.55,955 262,954.75 262,954.25ZM267.5,952.2C267.5,950.5 269.55,944 270.1,944C270.3,944 270.5,943.35 270.5,942.5C270.5,941.35 270.7,941 271.5,941C272.85,941 272.75,941.75 270.55,947.95C268.75,953.2 267.5,954.9 267.5,952.2ZM147.3,949.05C146.7,948.1 142.1,930.75 141.75,928.15C141.25,924.45 141.7,923.5 143.8,923.5C144.75,923.5 145.5,923.3 145.5,923.1C145.5,922.65 152.1,921 153.9,921C154.85,921 155,921.25 155,922.75C155,924.15 155.2,924.5 156,924.5C157.05,924.5 157.3,925.65 156.7,927.9C156.2,929.65 155,929.25 155,927.4C155,926.35 154.85,926 154.6,926.4C154.35,926.75 152.75,927.25 151.05,927.55C147.35,928.2 147.45,927.25 150.2,937.65C151.45,942.2 152,945.3 151.9,946.9L151.75,949.25L149.65,949.4C148.55,949.5 147.45,949.35 147.3,949.05ZM150,946.45C150,945.8 147.35,935.45 146.05,930.8C145.5,928.9 145.15,927.2 145.25,926.95C145.4,926.75 147.2,926.2 149.2,925.75C151.45,925.25 153.05,924.6 153.2,924.15C153.7,922.85 153.05,922.55 151.35,923.2C150.5,923.6 148.75,924.05 147.5,924.25C143.75,924.85 143.35,925.25 143.7,927.9C144.3,932.3 148.65,947 149.35,947C149.7,947 150,946.75 150,946.45ZM362.5,947.25C362.5,945.6 362.3,945 361.75,945C361.25,945 361,944.45 361,943.25C361,940.95 362.35,940.85 362.7,943.15C363.45,948 363.55,949.5 363.05,949.5C362.75,949.5 362.5,948.5 362.5,947.25ZM364,948.4C364,946.45 364.6,945 365.3,945C365.8,945 366,945.65 366,947.25C366,949.15 365.85,949.5 365,949.5C364.3,949.5 364,949.15 364,948.4ZM369,948.75C369,948.65 369.45,947.65 370.05,946.55C370.6,945.45 371.35,943.35 371.75,941.9C373.6,934.4 376.65,923.7 377.4,922.05C378.2,920.4 378.45,920.25 380.15,920.35C381.15,920.4 385.15,921.5 389,922.8C395.05,924.8 396,925.25 396,926.2C396,926.75 395.35,929.5 394.55,932.25C393.8,935 392.6,939.2 392,941.65C391.2,944.65 390.6,946 390.1,946C389.05,946 389.55,942.1 391.55,935C394.1,925.75 394.65,926.95 387.15,924.55C383.6,923.45 380.5,922.5 380.2,922.5C379.15,922.5 373.85,940.7 373.95,943.9C374,945.15 373.8,946 373.5,946C372.65,946 371.5,947.3 371.5,948.2C371.5,948.7 371.05,949 370.25,949C369.55,949 369,948.9 369,948.75ZM367,944.75C367,943.35 367.2,943 368,943C369.05,943 369.2,943.5 368.7,945.4C368.2,947.2 367,946.75 367,944.75ZM153.5,942.75C153.5,940.3 153.6,940 154.55,940C155.4,940 155.55,940.3 155.5,941.65C155.35,944 155.45,944.2 156.25,943.5C156.9,942.95 157,943.1 157,944.2C157,945.35 156.8,945.5 155.25,945.5L153.5,945.5L153.5,942.75ZM393.5,944C393.5,943.7 393.85,942.15 394.35,940.5C395.25,937.1 396.5,936.4 396.5,939.25C396.5,940.2 396.3,941 396,941C395.75,941 395.5,941.8 395.5,942.75C395.5,944.15 395.3,944.5 394.5,944.5C393.95,944.5 393.5,944.25 393.5,944ZM189,941.2C190.3,937.75 191.5,936.95 191.5,939.45C191.5,941.65 191,942.5 189.7,942.5C188.65,942.5 188.55,942.35 189,941.2ZM162,939.9C162,937.75 162.6,936.85 163.95,937.1L165,937.25L163.95,939.4C162.7,941.9 162,942.1 162,939.9ZM368.5,939.75C368.5,938.8 368.75,938 369,938C369.3,938 369.5,937.4 369.5,936.7C369.5,934.85 370.55,931 371.05,931C371.3,931 371.5,930.45 371.5,929.75C371.5,929.05 371.85,927.15 372.3,925.55C372.95,923.2 373.35,922.55 374.25,922.4L375.4,922.15L374.4,925.45C373.9,927.25 372.65,931.6 371.65,935.15C370.5,939.1 369.55,941.5 369.15,941.5C368.75,941.5 368.5,940.85 368.5,939.75ZM360.5,938.25C360.5,936.25 361.7,935.8 362.2,937.65C362.7,939.5 362.55,940 361.5,940C360.7,940 360.5,939.65 360.5,938.25ZM154,937.4C154,936.75 154.15,934.75 154.35,932.9C154.6,929.95 154.8,929.5 155.6,929.5C156.5,929.5 156.55,929.75 156.25,932.65C156.1,934.35 155.85,936.35 155.7,937.15C155.35,938.8 154,939 154,937.4ZM192.3,934.15C192.75,933.1 193.35,931.5 193.65,930.65C193.95,929.75 194.45,929 194.85,929C195.75,929 195.7,928.2 194.75,927.8C193.9,927.5 193.7,925 194.5,925C195.45,925 197.35,927.45 197.7,929.05C197.85,929.9 197.7,931.3 197.25,932.3C196.55,934.05 195.5,934.6 195.5,933.25C195.5,932.85 195.15,932.5 194.75,932.5C194.25,932.5 194,933.05 194,934.25C194,935.8 193.85,936 192.75,936L191.5,936L192.3,934.15ZM348.5,933.75C348.5,932.55 348.25,932 347.75,932C347.25,932 347,931.45 347,930.25C347,927 348.2,928.4 350.55,934.4C350.9,935.35 350.8,935.5 349.75,935.5C348.65,935.5 348.5,935.3 348.5,933.75ZM360,933.75C360,931.75 361.2,931.3 361.7,933.15C362.2,935 362.05,935.5 361,935.5C360.2,935.5 360,935.15 360,933.75ZM165,933.25C165,931.7 165.15,931.5 166.3,931.5C167,931.5 167.5,931.65 167.4,931.9C165.65,935.55 165,935.9 165,933.25ZM396.5,933.4C396.5,931.9 397.15,930.5 397.8,930.5C398.25,930.5 398.5,931.1 398.5,932.25C398.5,933.65 398.3,934 397.5,934C396.95,934 396.5,933.7 396.5,933.4ZM167,928.9C167,926.75 167.6,925.85 168.9,926.1L169.95,926.25L169,928.4C167.85,930.9 167,931.1 167,928.9ZM359.5,928.5C359.5,926.25 360.65,925.65 361.2,927.65C361.75,929.7 361.55,930.5 360.5,930.5C359.65,930.5 359.5,930.15 359.5,928.5ZM190.05,927.1C186.65,925.7 185.6,924.55 187.6,924.45C188.25,924.45 188.45,924.3 188.15,924.15C187.5,923.9 187.2,921.5 187.8,921.5C188.45,921.5 192,923.7 192,924.1C192,924.3 191.55,924.5 190.95,924.5C190.05,924.5 190,924.6 190.7,925.25C191.1,925.65 191.9,926 192.45,926C193.25,926 193.5,926.3 193.5,927.25C193.5,927.95 193.45,928.5 193.4,928.5C193.3,928.5 191.8,927.85 190.05,927.1ZM183.65,924.25C181.5,923.35 181.55,922.5 183.75,922.5C185.3,922.5 185.5,922.65 185.5,923.75C185.5,924.45 185.45,925 185.4,925C185.3,924.95 184.5,924.65 183.65,924.25ZM353,923.75C353,922.65 353.2,922.5 354.8,922.5C357,922.5 356.9,923.4 354.6,924.35C353.05,925 353,924.95 353,923.75ZM155.65,920.95C155.8,919.3 156.05,917.8 156.2,917.65C156.35,917.5 158.15,917.25 160.25,917.1C163.8,916.9 164,916.9 164,917.95C164,918.9 163.75,919 161,919C157.75,919 157.8,918.95 157.25,922.15C157.05,923.4 156.7,924 156.15,924C155.5,924 155.4,923.5 155.65,920.95ZM170,922.55C170,920.3 170.5,919.5 171.8,919.5C172.45,919.5 173,919.3 173,919C173,918.35 175.25,918.35 177.65,919.05C179.15,919.45 179.5,919.8 179.5,920.75C179.5,922.2 179.4,922.25 177.6,921.3C176.85,920.95 175.55,920.45 174.65,920.3C173.15,919.95 173,920.05 172,921.95C170.8,924.35 170,924.6 170,922.55ZM389.4,921.15C387.75,920.75 388.4,919.5 390.25,919.5C391.65,919.5 392,919.7 392,920.5C392,921.5 391.3,921.65 389.4,921.15ZM372,919C372.35,917.7 372.3,917.5 371.45,917.5C370.95,917.5 370.5,917.3 370.5,917C370.5,916.75 371.3,916.5 372.25,916.5C373.95,916.5 374,916.55 374,918.5C374,920.3 373.85,920.5 372.8,920.5C371.65,920.5 371.6,920.35 372,919ZM374.5,918.75C374.5,917.05 374.55,917 376.4,917.05C377.4,917.1 377.85,917.2 377.4,917.35C376.95,917.45 376.4,918.2 376.25,919.05C375.8,921.15 374.5,920.95 374.5,918.75ZM383.15,919.15C380.65,918.35 379,917.55 379,917.15C379,916.25 381.1,916.3 384.3,917.35C386.3,917.95 386.95,918.4 387.15,919.35C387.25,919.95 387.35,920.5 387.3,920.45C387.3,920.45 385.4,919.85 383.15,919.15ZM399,861.5C399,860.15 399.1,860.05 399.95,860.55C400.45,860.9 401.1,861.55 401.45,862.05C401.95,862.9 401.85,863 400.5,863C399.15,863 399,862.85 399,861.5Z" style="fill:rgb(235,172,153);"/>
                </g>
                <g transform="matrix(2.00091,0,0,2.00091,12656.5,-2464.29)">
                    <path d="M277.1,1002.7C277.25,1001.65 278,997.55 278.8,993.65C280,987.8 280.4,986.5 281.1,986.5C281.65,986.5 281.85,986.75 281.7,987.25C281.45,987.85 281.9,988 283.95,988C286.9,988 286.5,987.35 289.95,996.95C291.4,1000.9 291.85,1002.75 291.5,1003C291.15,1003.2 288.2,1003.5 284.85,1003.65C281.5,1003.8 278.35,1004.1 277.8,1004.3C277,1004.6 276.9,1004.45 277.1,1002.7ZM325.65,995.65C324.05,993.2 322.55,991 322.35,990.65C322.1,990.25 322.8,989.9 324.6,989.55C344.5,985.75 347.25,985.3 348.85,985.45C349.5,985.5 356.5,993.8 356.5,994.5C356.5,994.95 353.7,995.65 348.4,996.5C346.6,996.75 341.85,997.65 337.85,998.5C333.8,999.3 330.1,1000 329.55,1000C328.9,1000 327.65,998.6 325.65,995.65ZM274.15,965.15C274.7,965 275,964.45 275,963.4C275,962.1 274.9,961.95 274.25,962.5C273.65,963 273.3,963 272.9,962.6C272,961.7 270.5,957.4 270.5,955.7C270.5,954 276.2,936.7 277.1,935.6C277.5,935.15 278.25,935 279.45,935.25C281.8,935.7 293.1,939.5 293.7,940C293.95,940.25 293,943.3 291.6,946.95C289.25,953.05 289.15,953.5 290.05,953.75C291.6,954.25 290.6,955 288.35,955C285.4,955 282.55,955.9 280.55,957.35C278.7,958.75 277.05,962 277,964.15C277,965.4 276.85,965.5 275.15,965.45C274.1,965.4 273.65,965.3 274.15,965.15ZM270.5,962.75C270.5,962.35 270.15,962 269.75,962C269.2,962 269,961.45 269,959.9L269,957.75L270,959C270.85,960.1 271.4,963.5 270.75,963.5C270.6,963.5 270.5,963.15 270.5,962.75ZM359.5,958.75C359.5,958.05 359.2,957.5 358.85,957.5C358,957.5 353.5,947.4 353.5,945.5C353.5,944.5 353.25,944 352.75,944C352.3,944 352,943.55 352,942.75C352,942.05 351.8,941.5 351.5,941.5C351.25,941.5 351,940.95 351,940.25C351,939.55 350.8,939 350.5,939C350.25,939 350,938.2 350,937.2C350,936.1 350.2,935.5 350.55,935.6C351.05,935.75 354.5,943.3 359.35,954.75C360.05,956.4 360.8,957.85 361.05,958C361.7,958.45 366,957.8 366.15,957.25C366.2,957 365.3,956.6 364.15,956.35C362.8,956.1 362,955.65 362,955.2C362,954.45 363.5,954.3 366.65,954.8C368.4,955.1 368.5,955.2 368.5,957.1C368.5,959.45 367.45,960 362.7,960C359.6,960 359.5,959.95 359.5,958.75ZM172.65,957.65C172.3,957.55 172,956.85 172,956.2C172,953.35 168.7,948.75 165.2,946.7C163.85,945.9 163,945.05 163,944.45C163,943.95 163.25,943.65 163.65,943.75C164.05,943.9 165.95,940.3 169.2,933.25C171.9,927.35 174.3,922.5 174.6,922.5C175.15,922.5 180.3,924.7 186.4,927.5C189.7,929.05 191,929.9 191,930.55C191,931.4 189.6,934.65 182.45,950.25C178.4,959.05 179,958.45 176.3,957.1C174.05,956.05 174,956.05 174,957C174,958 173.75,958.15 172.65,957.65ZM363.95,953.15C362.35,952.95 362.05,952.75 361.8,951.4C361.65,950.55 361.5,949 361.5,947.95C361.5,945.2 362.8,945.35 363.4,948.15L363.85,950.25L364.2,948.25C364.55,946.25 364.6,946.2 366.3,946.4L368.05,946.6L367.75,948.95L367.45,951.25L368.4,949.6C369.4,947.75 370,947.95 370,950.1C370,953.35 369.3,953.7 363.95,953.15ZM390,946.25C390,945.3 390.25,944.5 390.5,944.5C390.8,944.5 391,944.85 391,945.25C391,945.65 391.1,946 391.2,946C391.3,946 391.75,946.15 392.15,946.3C392.7,946.5 393,946.1 393.25,945.05C393.75,942.75 395,943.05 395,945.45C395,947.55 394.35,948 391.4,948C390.15,948 390,947.85 390,946.25ZM156.25,943.5C156.75,942.95 157.25,941.65 157.35,940.6C157.6,937.85 159.5,923.45 159.8,922.1C160.05,920.95 160.2,920.9 163.95,921.05C166.7,921.15 168.15,921 168.7,920.55C170.35,919.15 169.5,922.7 166.6,929.5C165,933.2 163.05,937.8 162.3,939.65C160.7,943.45 159.55,944.5 157.05,944.5C155.35,944.5 155.35,944.5 156.25,943.5ZM364.3,937.15C364.1,933.05 363.75,928 363.45,925.8C363.15,923.6 363.1,921.7 363.35,921.45C363.6,921.2 365.55,920.85 367.65,920.7C370.7,920.4 371.65,920.15 372.05,919.4C372.3,918.9 372.75,918.5 373,918.5C373.65,918.5 373.65,921.25 373,922.4C372.75,922.85 371.95,925.85 371.25,929C370.55,932.15 369.25,936.95 368.4,939.65C367.1,943.9 366.75,944.5 365.75,944.5C364.65,944.5 364.65,944.35 364.3,937.15ZM395,938.9C395,937.4 395.65,936 396.3,936C396.75,936 397,936.6 397,937.75C397,939.15 396.8,939.5 396,939.5C395.45,939.5 395,939.2 395,938.9ZM397,931.95C397,931.65 397.4,930 397.85,928.3C398.3,926.55 398.55,924.8 398.35,924.35C398.2,923.9 397.15,923.3 396.05,922.95C393.7,922.25 393.3,921 395.4,921C397.75,921 399,921.55 399,922.55C399,923.1 399.35,923.5 399.75,923.5C400.75,923.5 400.7,925.8 399.65,929.5C399,931.7 398.5,932.5 397.9,932.5C397.4,932.5 397,932.25 397,931.95ZM346.65,928.5C347,925.45 347.25,925 348.55,925C349.05,925 349.5,924.8 349.5,924.5C349.5,924.25 350.3,924 351.25,924C353.65,924 353.45,924.7 350.5,926.3C347.8,927.75 347.75,927.8 348.5,929.7C348.95,930.9 348.85,931 347.65,931C346.4,931 346.35,930.95 346.65,928.5ZM354,923.2C354,922.15 354.25,922 355.75,922C356.85,922 357.5,922.25 357.5,922.65C357.5,923.05 356.7,923.55 355.75,923.85C354.1,924.4 354,924.35 354,923.2ZM358.5,920.8C358.5,918.1 358.9,917.5 360.8,917.5C362.7,917.5 363.2,918.7 361.5,919.15C360.75,919.35 360.5,919.85 360.5,920.95C360.5,922.15 360.3,922.5 359.5,922.5C358.7,922.5 358.5,922.15 358.5,920.8ZM387.9,920.65C386.25,920.25 386.9,919 388.75,919C390.15,919 390.5,919.2 390.5,920C390.5,921 389.8,921.15 387.9,920.65ZM367.5,872.85C367.5,871.95 368,871.4 369.5,870.7C370.95,870 371.5,869.45 371.5,868.65C371.5,867.85 371.8,867.5 372.5,867.5C373.8,867.5 373.8,868.7 372.45,870.8C371.9,871.75 371.35,872.5 371.25,872.5C371.2,872.5 370.3,872.85 369.3,873.25C367.55,874 367.5,874 367.5,872.85ZM396.5,872.75C396.5,871.9 396.75,871.5 397.4,871.5C397.85,871.5 398.55,871.05 398.9,870.5C399.45,869.6 402,869.05 402,869.8C402,870.75 400.7,872.15 399,873C396.55,874.25 396.5,874.25 396.5,872.75ZM358.5,863.75C358.5,862.8 358.75,862 359,862C359.3,862 359.5,862.45 359.5,863C359.5,863.8 359.8,863.65 361.25,862.05C363.5,859.6 365,859.1 365,860.8C365,861.8 364.75,862 363.5,862C362.1,862 362,862.15 362,863.75C362,865.4 361.9,865.5 360.25,865.5C358.6,865.5 358.5,865.4 358.5,863.75ZM389.95,862.1C390.7,860.7 391.65,860.05 393.4,859.7C394.8,859.4 395,859.5 395,860.45C395,861 394.7,861.5 394.3,861.5C393.95,861.5 393.35,861.85 393,862.25C392.65,862.65 391.7,863 390.9,863C389.65,863 389.55,862.85 389.95,862.1Z" style="fill:rgb(152,106,184);"/>
                </g>
                <g transform="matrix(2.00091,0,0,2.00091,12656.5,-2464.29)">
                    <path d="M397.35,1020.6C396.9,1020.5 396.5,1020.1 396.5,1019.65C396.5,1019 391.65,1013.5 381.25,1002.5C379,1000.15 374.95,995.8 372.25,992.75C369.5,989.75 365.6,985.45 363.5,983.25C361.45,981.05 358.5,977.85 356.95,976.1L354.15,973L340.85,973C329.8,973 327.5,972.9 327.5,972.3C327.5,971.95 327.9,971.5 328.4,971.4C329.1,971.2 329.4,970.2 329.95,966.45C332.65,947.2 337.45,932.5 344.45,922.15C346.7,918.75 348.75,915.9 349.05,915.75C350.05,915.1 333.103,888.085 339.251,858.746C340.652,852.063 345.65,839.2 349.2,833.9C359.45,818.5 376.35,809.4 394.5,809.4C408.7,809.4 422.3,815.25 432.3,825.65C440.75,834.35 445.5,843.45 447.25,854.15C452.163,884.189 438,914.15 438,914.25C438,914.4 439.1,916.7 440.45,919.4C445.9,930.4 449.3,941.8 452.2,959.25C454.9,975.3 455.25,979.95 455.25,1000.35C455.25,1012.55 455.05,1019.65 454.75,1019.95C454.3,1020.4 399.55,1021 397.35,1020.6ZM405.25,874.95C408.1,874.25 411.65,871.1 413.25,867.95C415.45,863.65 414.75,858.15 411.55,854.45C405.95,847.85 395.1,848.75 390.75,856.2C389.55,858.25 388.3,863 388.95,863C389.1,863 389.8,862.4 390.5,861.65C391.6,860.5 391.75,860.45 391.95,861.25C392.05,861.75 391.8,863 391.5,864.05C391,865.55 391,866.25 391.5,867.5C392.45,869.85 395.2,872 397.25,872C399.45,872 399.5,872.65 397.4,873.65L395.8,874.45L397.25,874.75C398.1,874.95 399,875.15 399.25,875.25C400.35,875.6 403.15,875.45 405.25,874.95ZM401,866.75C401,864.3 402.15,863.55 402.65,865.6C403.05,867.15 402.55,869 401.7,869C401.2,869 401,868.35 401,866.75ZM413,961.5C413.55,961.15 412.85,961.05 410.75,961.05C408.5,961.1 408.05,961.2 409,961.5C410.75,962.05 412.15,962.05 413,961.5ZM420.65,990.35C420.85,990.3 418.1,990.25 414.55,990.25C411,990.25 408.15,990.3 408.2,990.4C409,991.2 418.15,991.15 420.65,990.35ZM365.05,959.7C365.45,959.3 366.7,959 367.8,959L369.75,959L369.75,954.6C369.8,949.55 370.45,948.2 374,945.75C375.75,944.5 376.65,944.3 380.2,944.1C385.8,943.8 387.35,944.4 391.4,948.4C394.7,951.7 394.75,951.7 394.6,950.2C394.4,948.5 395.95,942.1 398.75,933C399.7,929.85 400.5,927.1 400.5,926.9C400.5,926.65 400.05,926.5 399.45,926.5C398.9,926.5 398.6,926.3 398.75,926C398.95,925.7 398.75,924.9 398.3,924.25C397.55,923.15 397.6,923.05 398.65,922.9C399.65,922.75 399.65,922.65 398.15,921.85C396.2,920.8 395.5,920.75 395.5,921.75C395.5,922.55 394.9,922.65 393.15,922.2C391.95,921.85 391.55,920.5 392.65,920.45C392.95,920.45 391.55,920 389.5,919.45C386.6,918.7 385.45,918.15 384.5,916.95C382.85,915 380.6,914.5 376.7,915.35C375,915.7 370.9,916.15 367.55,916.4C360.95,916.85 360.4,917.1 358.25,920.5C357.3,922 356.65,922.35 353.6,923.15C350.75,923.9 349.55,924.5 347.8,926.15L345.6,928.25L350.2,938.5C357.35,954.4 360.05,959.85 360.45,959C360.6,958.6 361.1,958.3 361.5,958.3C361.9,958.35 362.65,958.4 363.15,958.45C363.6,958.45 364,958.85 364,959.25C364,959.75 363.5,960 362.4,960C361.15,960 360.95,960.15 361.5,960.5C362.35,961.05 363.9,960.7 365.05,959.7ZM365.9,958C366.9,957.55 367.5,956.4 366.65,956.55C365.4,956.75 364.5,956.4 364.5,955.75C364.5,955.25 365.05,955 366.25,955C367.9,955 368,955.1 368,956.75C368,958.4 367.9,958.5 366.4,958.45C364.9,958.45 364.85,958.4 365.9,958ZM389.9,890.15C388.85,890.05 387.15,890.05 386.15,890.15C385.1,890.25 385.95,890.35 388,890.35C390.05,890.35 390.9,890.25 389.9,890.15ZM377.25,874.3C380.15,873 382.7,870.25 384.15,867.05C386.55,861.65 383.6,854.4 377.8,851.4C375.3,850.15 370.9,849.7 368.1,850.45C365.5,851.15 362.3,853.95 360.9,856.65C359.7,859.05 359.05,864 359.95,864C360.3,864 360.45,863.8 360.3,863.55C360.15,863.35 360.6,862.6 361.25,862L362.5,860.85L362.5,862.4C362.5,863.3 362.25,864.45 361.95,864.95C361.05,866.3 361.85,868.45 363.8,870.35C365.2,871.65 366,872 367.55,872C369.9,872 370.1,872.8 367.9,873.75C366.1,874.5 365.9,874.35 369.75,875.15C372.3,875.7 374.95,875.4 377.25,874.3ZM370.15,862.75C369.35,861.9 369.3,860 370,860C370.7,860 373,862.3 373,863C373,863.75 370.85,863.6 370.15,862.75ZM288,954.5C288,953.45 288.5,953.3 290.4,953.8C292.2,954.3 291.75,955.5 289.75,955.5C288.35,955.5 288,955.3 288,954.5Z" style="fill:rgb(20,152,231);"/>
                </g>
                <g transform="matrix(2.00091,0,0,2.00091,12656.5,-2464.29)">
                    <path d="M146,1020.55C146,1020.25 146.95,1018.95 148.15,1017.65L150.25,1015.35L150.6,1017.8C150.8,1019.15 150.85,1020.3 150.75,1020.4C150.65,1020.55 149.55,1020.75 148.25,1020.85C146.75,1021.05 146,1020.95 146,1020.55ZM151.95,1013.65C152.45,1012.85 154.2,1011 155.7,1009.5L158.5,1006.8L158.5,1008.55C158.5,1009.95 158.05,1010.7 156.1,1012.65C154.4,1014.3 153.3,1015 152.3,1015L150.95,1015L151.95,1013.65ZM270.8,1007.4C270.3,1005.4 270.5,1003.6 271.25,1003.3C271.65,1003.15 272,1002.55 272,1002C272,1001.2 272.3,1001 273.65,1001C275.3,1001 275.35,1000.9 275.9,998.4C276.8,994.25 278.5,984 278.5,982.75C278.5,981.5 277.45,980.85 276.25,981.3C275,981.8 272,981.05 272,980.25C272,979.65 272.85,979.5 276,979.5C279.85,979.5 280,979.55 280.3,980.75C280.45,981.45 280.5,982.5 280.4,983.15C280.2,984.2 280.3,984.25 283.85,984.1C286.25,984 287.5,984.1 287.5,984.45C287.5,984.75 288.2,985 289,985C290.4,985 290.5,985.15 290.5,986.75C290.5,988.75 289.8,989 288.95,987.4C288.1,985.75 287.75,985.65 284.85,985.8C282,985.9 281.85,986.1 281.25,990.15C280.95,991.95 279.8,992.7 279.4,991.4C279.25,991.05 278.9,992.45 278.55,994.5C278.25,996.55 277.85,998.75 277.65,999.4C277.45,1000.2 277.6,1000.5 278.2,1000.5C279.1,1000.5 279.2,1001.35 278.5,1003.2C278.15,1004.2 277.65,1004.5 276.4,1004.55C272.25,1004.7 270.2,1006.5 274.2,1006.5C276.15,1006.5 276.5,1006.65 276.5,1007.5C276.5,1008.4 276.15,1008.5 273.8,1008.5C271.45,1008.5 271.1,1008.35 270.8,1007.4ZM279.5,1007.3C279.5,1006.6 280.95,1006 282.9,1006C283.65,1006 284,1006.3 284,1007C284,1007.85 283.65,1008 281.75,1008C280.15,1008 279.5,1007.8 279.5,1007.3ZM216,1006.5C216,1005.5 217.1,1005.2 218.7,1005.8C220.2,1006.4 219.6,1007.5 217.75,1007.5C216.35,1007.5 216,1007.3 216,1006.5ZM286.5,1006.8C286.5,1006.05 288,1005.5 290.15,1005.5C291.15,1005.5 291.5,1005.75 291.5,1006.5C291.5,1007.35 291.15,1007.5 289,1007.5C287.2,1007.5 286.5,1007.3 286.5,1006.8ZM293,1006.3C293,1005.95 293.45,1005.5 294,1005.35C294.55,1005.2 295,1004.75 295,1004.35C295,1003.6 294.9,1003.25 291.8,994.9L290.05,990L291.25,990C292.25,990 292.5,990.3 292.8,991.9C293,992.9 293.3,993.85 293.55,994C293.75,994.15 294.25,995.4 294.6,996.75C294.95,998.15 295.45,999.4 295.7,999.6C296,999.8 296.3,1001.55 296.4,1003.45L296.6,1007L294.8,1007C293.6,1007 293,1006.75 293,1006.3ZM205,1005.25C201.85,1004.6 198.65,1004.05 197.9,1004.05C196.85,1004 196.5,1003.75 196.5,1003C196.5,1002.45 196.65,1002 196.9,1002C197.45,1002 211.5,1004.5 212.85,1004.8C213.5,1005 214,1005.4 214,1005.8C214,1006.75 212.05,1006.6 205,1005.25ZM161.95,1003.15C162.55,1002.35 166.05,998.6 169.75,994.75L176.5,987.75L176.5,989.5C176.5,991.75 173.45,995 171.35,995C170.15,995 170,995.2 170,996.65C170,998 169.45,998.85 166.85,1001.4C164.5,1003.7 163.35,1004.5 162.35,1004.5L160.95,1004.5L161.95,1003.15ZM325,1003.25C325,1002.85 324.8,1002.5 324.55,1002.5C324.3,1002.5 323.9,1002 323.7,1001.4C323.55,1000.8 323.05,1000 322.7,999.6C322.3,999.25 322,998.6 322,998.2C322,997.8 321.8,997.5 321.5,997.5C321.25,997.5 321,996.95 321,996.25C321,995.45 320.7,995 320.25,995C319.85,995 319.5,994.65 319.5,994.25C319.5,993.85 319.3,993.5 319,993.5C318.75,993.5 318.5,993.15 318.5,992.75C318.5,992.35 318.3,992 318,992C317.75,992 317.5,990.9 317.5,989.6C317.5,987.2 317.55,987.15 319.4,986.6C320.4,986.3 324.05,985.6 327.5,985C330.95,984.4 337,983.3 341,982.45C345,981.65 349,981 349.9,981C351.35,981 351.5,981.15 351.5,982.5C351.5,983.85 351.4,983.95 350.55,983.4C349.75,982.9 347.7,983.15 339.4,984.7C321.95,988 319.85,988.45 319.35,988.95C318.85,989.45 326.3,1001.95 327.35,1002.35C328.05,1002.6 359.55,996.5 360.15,996C360.5,995.7 357.95,992.05 353.3,986.15L352.35,984.95L354.05,985.1C355.5,985.2 355.75,985.45 355.9,986.65C356,987.6 356.35,988 357.05,988C357.65,988 358,988.35 358,989C358,989.55 358.35,990 358.75,990C359.15,990 359.5,990.45 359.5,991C359.5,991.55 359.85,992 360.25,992C360.65,992 361,992.35 361,992.75C361,993.15 361.25,993.5 361.5,993.5C361.8,993.5 362,994.3 362,995.25C362,996.65 361.8,997 361,997C360.45,997 360,997.3 360,997.65C360,998.05 355.1,999.2 345.1,1001.15C329.85,1004.15 325,1004.65 325,1003.25ZM222.2,1002.75C222.35,1002.35 223.85,1000 225.5,997.5C227.15,995 228.4,992.75 228.25,992.5C227.95,992 225.65,991.35 222.4,990.75C221.15,990.55 220.5,990.2 220.5,989.65C220.5,989 220.95,988.9 223.65,989.2C225.35,989.4 226.85,989.8 226.9,990.05C227,990.3 227.75,990.5 228.55,990.5C229.9,990.5 230,990.65 230,992.25C230,993.45 229.75,994 229.25,994C228.75,994 228.5,994.55 228.5,995.75C228.5,996.7 228.3,997.5 228,997.5C227.75,997.5 227.5,997.85 227.5,998.25C227.5,998.65 227.3,999 227,999C226.75,999 226.5,999.35 226.5,999.75C226.5,1000.15 226.05,1000.5 225.5,1000.5C224.7,1000.5 224.5,1000.85 224.5,1002C224.5,1003.3 224.3,1003.5 223.2,1003.5C222.25,1003.5 221.95,1003.3 222.2,1002.75ZM186.9,1002.15C185.7,1001.95 185.5,1001.7 185.5,1000.2C185.5,999.25 185.75,998.5 186,998.5C186.3,998.5 186.5,998.8 186.5,999.2C186.5,999.95 187,1000.15 189.9,1000.75C190.8,1000.95 191.5,1001.4 191.5,1001.8C191.5,1002.5 190,1002.6 186.9,1002.15ZM262,1001.5C262,1000.6 262.35,1000.5 265.15,1000.5C268.95,1000.5 270.5,1000.9 270.5,1001.8C270.5,1002.35 269.55,1002.5 266.25,1002.5C262.35,1002.5 262,1002.4 262,1001.5ZM253,1001C253,999.95 254.15,999.7 256.4,1000.3C258.45,1000.85 257.7,1002 255.25,1002C253.35,1002 253,1001.85 253,1001ZM250.5,998.7C250.5,996.95 251.55,993.5 252.1,993.5C252.3,993.5 252.5,993 252.5,992.4C252.5,991.05 255.5,982.8 256.05,982.6C256.3,982.5 256.5,982 256.5,981.5C256.5,979.25 256.95,979 260.8,979C264.25,979 264.5,979.1 264.5,980.05C264.5,981.05 264.3,981.1 261.7,980.9C259.35,980.7 258.85,980.8 258.45,981.65C257.3,983.75 252,999.1 252.3,999.55C252.45,999.8 252.1,1000 251.55,1000C250.75,1000 250.5,999.7 250.5,998.7ZM119.55,993.7C113.65,992.15 106.5,987.65 102.9,983.3C98.95,978.6 97.95,975.45 100.35,975.1C101.15,975 102.05,975.75 104.15,978.4C107.85,983 110.75,985.45 114.8,987.45C117.5,988.75 123.2,990.45 125.15,990.5C125.35,990.5 125.5,990.85 125.5,991.25C125.5,991.75 124.9,992 123.65,992.1C121.8,992.15 121.8,992.15 123.4,992.35C124.6,992.5 125,992.8 125,993.55C125,994.7 123.5,994.75 119.55,993.7ZM128.5,993.55C128.5,992.8 128.9,992.5 130.4,992.35L132.25,992.15L130.4,992.1C129.1,992.05 128.5,991.75 128.5,991.25C128.5,990.8 129.2,990.45 130.4,990.25C140.7,988.65 151.7,982.4 160.5,973.2C165.05,968.4 167.8,964.35 169.15,960.4C170.05,957.75 170.1,957.1 169.55,955.05C167.95,949 161.95,945.85 156.35,948.15C155.4,948.6 152.7,950.65 150.4,952.8C147.3,955.7 146.2,956.45 146.1,955.85C146,955.35 145.45,955 144.7,955C143.8,955 143.5,955.25 143.5,956.15C143.5,956.8 143.25,957.55 142.9,957.9C142.45,958.35 142.5,958.5 143.25,958.5C144.75,958.55 140.55,962.15 137.05,963.85C134.7,965 133.6,965.2 130.35,965.15C127,965.15 126.15,964.95 124.1,963.65C121.15,961.85 118.8,958.4 117.45,953.95C116.35,950.25 116.5,948.75 118.05,948.25C119.6,947.75 120.85,949.25 121.25,951.95C122.3,959.45 129.1,963.55 135.2,960.25C140.55,957.4 146.35,951.85 145.85,950.1C143.8,943.25 139.55,928 139.5,927.25C139.3,925.3 139.5,924.55 140.75,923.1C141.8,921.85 142.9,921.4 147.5,920.25C151.3,919.3 153.2,918.6 153.5,918C154.85,915.5 160.5,913.9 160.5,916C160.5,916.8 160.85,917 162,917C163.15,917 163.5,916.8 163.5,916C163.5,915.05 163.75,915.05 170.9,915.3C180.2,915.7 180.95,915.85 182.45,918.1C183.1,919.1 184.35,920.2 185.2,920.5C188.75,921.85 194.85,925.2 196.15,926.55C198.65,929.25 198.4,930.25 189.55,950C183.75,962.85 182.9,964 179.1,964C177.6,964 176.2,963.65 175.25,963C174.45,962.45 173.6,962 173.4,962C173.2,962 172.35,963.3 171.5,964.9C164.85,977.4 150.2,989.2 136.3,993.25C130.8,994.8 128.5,994.9 128.5,993.55ZM179.85,918.7C178.65,917.65 177.95,917.5 174.7,917.5C169.85,917.5 169.9,918.35 174.8,918.6C176.85,918.7 178.7,919 178.9,919.3C179.3,919.95 180.65,920.45 181,920.15C181.15,920 180.6,919.35 179.85,918.7ZM160.6,943.45C160.4,941.8 160.95,940.25 163.55,934.7C165.25,931 166.85,928 167.1,928C167.3,928 167.5,927.55 167.5,927C167.5,926.4 167.85,925.3 168.25,924.5C168.95,923.15 168.95,923 168.25,923C167.3,923 167.3,922.75 168.35,920.95C168.8,920.2 169.1,919.4 168.95,919.3C168.55,918.9 158.15,918.7 157.75,919.05C157.5,919.35 156.9,924.55 155.25,941.15C155.1,942.7 155.1,944 155.25,944C155.4,944 156.4,943.45 157.5,942.75L159.5,941.5L159.5,942.8C159.5,943.55 159.1,944.45 158.65,944.8C157.85,945.4 157.9,945.45 159.25,945.5C160.75,945.5 160.75,945.45 160.6,943.45ZM172.1,957.5C171.95,955.05 172.05,954.5 172.7,954.5C173.15,954.5 173.6,955.2 173.85,956.55C174.2,958.45 174.45,958.7 176.75,959.55C178.15,960.1 179.5,960.4 179.8,960.3C180.05,960.2 181.25,958.15 182.4,955.8C184.4,951.7 185.45,950.5 185.55,952.4C185.55,953.1 185.65,953.1 186,952.25C186.6,950.8 186.6,950.6 185.75,950.4C185.2,950.3 186,948.05 189.2,941C192.95,932.7 194.5,930.15 194.5,932.1C194.5,932.6 194.65,932.55 195,932C195.65,931 195.6,930.5 194.85,930.5C194.5,930.5 194,930 193.75,929.45C193.4,928.7 191,927.4 186.25,925.3C182.4,923.6 178.7,921.85 178,921.4C177.3,920.95 175.9,920.4 174.9,920.25C172.65,919.85 173.3,918.85 167,932.45L162.05,943.1L163.55,943.65C164.95,944.2 165.6,945.5 164.4,945.5C164.1,945.5 164.8,946 166,946.65C167.2,947.25 168.4,948.2 168.7,948.75C169,949.3 169.5,949.95 169.85,950.25C170.95,951.15 171.5,953.5 171.5,957.05C171.5,958.95 171.65,960.5 171.9,960.5C172.1,960.5 172.15,959.15 172.1,957.5ZM155.4,921C155.55,919.5 155.5,919.45 154.8,920.15C153.85,921.1 153.7,923.2 154.65,922.9C154.95,922.75 155.3,921.95 155.4,921ZM159.5,978.55C159.5,978.35 158.95,978.25 158.25,978.4C157.55,978.5 157,978.7 157,978.8C157,978.9 157.55,979 158.25,979C158.95,979 159.5,978.8 159.5,978.55ZM149,950.75C149.5,950.15 149.5,950 148.8,950C148.35,950 148,950.35 148,950.75C148,951.15 148.1,951.5 148.2,951.5C148.3,951.5 148.65,951.15 149,950.75ZM150.2,946.2C150.2,945.4 150,943.9 149.8,942.9C149.45,941.2 149.5,941 150.45,941C151.25,941 151.5,941.3 151.5,942.25C151.5,943.15 151.75,943.5 152.5,943.5C153.4,943.5 153.5,943.15 153.5,940.5L153.5,937.5L152,937.5C150.5,937.5 150.5,937.45 150.5,934.75L150.5,932L152.5,932C153.95,932 154.5,931.8 154.5,931.25C154.5,930.75 153.95,930.5 152.75,930.5C151.1,930.5 151,930.4 151,928.8C151,926.6 151.45,925.5 152.3,925.5C152.9,925.5 153.9,923.2 153.45,922.75C153.1,922.45 143.75,925.1 143.45,925.6C143.3,925.85 143.35,927.15 143.6,928.4C144.05,931.05 147.8,944.85 148.5,946.8C149.15,948.45 150.25,948.05 150.2,946.2ZM207.25,988.45C198.5,987 198.5,987 198.5,986.25C198.5,985.3 198.95,985.3 207.4,986.6C213.5,987.55 214.5,987.8 214.5,988.6C214.5,989.65 214.45,989.65 207.25,988.45ZM177.95,986.15C178.5,985.35 180.65,983.05 182.7,981L186.5,977.3L186.5,979.05C186.5,980.5 186,981.25 183.1,984.15C180.55,986.7 179.4,987.5 178.35,987.5L176.95,987.5L177.95,986.15ZM187.95,975.55C190.4,972.15 195,970.15 195,972.5C195,973.3 194.65,973.5 193.5,973.5C192.6,973.5 192,973.75 192,974.15C192,975.3 189.75,977 188.3,977L186.95,977L187.95,975.55ZM208.5,972.5C208.5,971.55 208.85,971.5 213,971.5C217.15,971.5 217.5,971.55 217.5,972.5C217.5,973.45 217.15,973.5 213,973.5C208.85,973.5 208.5,973.45 208.5,972.5ZM269,964.05C269,962.4 268.7,961.25 268,960.35C267.45,959.65 267,958.85 267,958.55C267,958.25 266.8,958 266.5,958C266.25,958 266,957.4 266,956.65C266,955.25 265.95,955.25 263.25,955.4L260.5,955.6L260.5,953.8C260.5,952.8 260.75,952 261,952C261.3,952 261.5,952.35 261.5,952.75C261.5,953.2 261.95,953.5 262.75,953.5L264,953.5L264,934.5L266.45,934.5C270.1,934.5 272.1,933.95 272.35,932.9C272.75,931.55 274,931.8 274,933.25C274,933.95 274.2,934.5 274.45,934.5C274.7,934.5 273.3,939.35 271.35,945.25C268.35,954.3 267.85,956.15 268.4,956.9C270.7,960.1 271,960.85 270.9,962.75C270.75,964.45 270.9,964.75 271.75,964.8C274.15,964.9 274.5,965.05 274.5,965.75C274.5,966.35 273.85,966.5 271.75,966.5L269,966.5L269,964.05ZM358.5,957.25C358.5,955.1 359.2,955 360.25,956.95C360.65,957.75 361.25,958.5 361.6,958.65C361.95,958.8 361.4,958.95 360.4,958.95C358.55,959 358.5,958.95 358.5,957.25ZM363.35,956.15C361.85,955.9 361,954.6 359.45,950.15L358.55,947.5L359.8,947.5C360.45,947.5 361,947.7 361,947.95C361,948.2 361.45,948.3 361.95,948.15C362.7,947.95 363,948.25 363.25,949.55C363.5,950.65 363.45,951.25 363.05,951.4C361.4,951.95 363.3,954.45 365.4,954.5C366.15,954.5 366.5,954.8 366.5,955.5C366.5,956.5 366.25,956.55 363.35,956.15ZM255.5,955C255.5,954.75 255.85,954.35 256.35,954.1C257.1,953.65 257,953.2 255.65,949.05L254.1,944.5L255.25,944.5C256.4,944.5 257,945.6 257,947.9C257,948.8 257.3,949 258.5,949C260,949 260,949.05 260,951.65C260,953.1 259.75,954.55 259.4,954.9C258.7,955.6 255.5,955.7 255.5,955ZM287.5,954.5C287.5,953.45 288,953.3 289.9,953.8C291.7,954.3 291.25,955.5 289.25,955.5C287.85,955.5 287.5,955.3 287.5,954.5ZM252.5,952.75C252.5,951.65 252.75,951 253.15,951C253.55,951 254.05,951.8 254.35,952.75C254.9,954.4 254.85,954.5 253.7,954.5C252.65,954.5 252.5,954.25 252.5,952.75ZM364.25,951C363.8,950.25 364.55,948 365.3,948C365.7,948 366,947.65 366,947.25C366,946.85 365.65,946.5 365.25,946.5C364.75,946.5 364.5,945.95 364.5,944.75C364.5,943.8 364.75,943 365,943C365.3,943 365.5,942.7 365.5,942.35C365.5,942 365.85,941.25 366.25,940.7C366.8,939.95 367.1,939.9 367.4,940.4C367.7,940.85 368.15,939.9 368.7,937.65C369.2,935.8 369.9,933.25 370.3,932.05C371.2,929.25 371.15,929 370.25,929C369.45,929 369.35,928.4 369.8,926.65C370.15,925.3 371.5,925.1 371.55,926.4C371.6,926.95 371.75,926.85 372,926C372.6,924.05 372.55,923.5 371.75,923.5C370.9,923.5 370.7,921.25 371.45,920.75C371.7,920.6 372.05,919.8 372.25,919C372.6,917.5 373.7,917 374.15,918.15C374.3,918.45 374.45,918.25 374.45,917.7C374.5,916.75 374.9,916.55 377.3,916.25C379.55,916 380.9,916.15 384.55,917.3C387,918.05 389,918.85 389,919.1C389,919.3 389.55,919.5 390.25,919.5C392.8,919.5 396,920.65 396,921.6C396,922.1 395.7,922.5 395.3,922.5C394.9,922.5 390.9,921.4 386.45,920C382,918.65 377.95,917.5 377.45,917.5C376.95,917.5 376.45,917.9 376.3,918.4C375.85,920.05 370.9,937.3 369.05,943.55C367.85,947.75 367.05,949.75 366.6,949.6C366.25,949.5 366,949.85 366,950.45C366,951.5 364.8,951.9 364.25,951ZM368.35,950.15C368.55,949.65 369.3,948.15 370.05,946.75C370.8,945.4 371.55,943.5 371.75,942.65C372.15,940.55 373.3,940.5 373.7,942.55C374.25,945.3 374.05,946.15 372.55,947.45C371.8,948.15 370.95,949.25 370.8,949.9C370.55,950.65 370.05,951 369.25,951C368.3,951 368.1,950.8 368.35,950.15ZM360.8,943.15C360.35,937.7 360.4,937 361.2,937C362,937 362.3,938.2 362.75,943.4C363.1,946.75 363.05,947 362.1,947C361.25,947 361.1,946.55 360.8,943.15ZM389,945.05C389,942.4 389.4,941.5 390.6,941.5C391.45,941.5 391.55,941.75 391.25,943.7C390.95,945.5 391.05,946 391.85,946.45C392.6,946.9 392.45,946.95 390.9,947C389,947 389,946.95 389,945.05ZM352.8,945.4C352.4,943.75 352.45,941.5 352.9,941.5C353.35,941.5 354.2,942.95 355,945.15C355.45,946.4 355.35,946.5 354.3,946.5C353.5,946.5 353,946.15 352.8,945.4ZM393.5,944.4C393.5,944.1 394.55,940.15 395.85,935.65C397.35,930.45 398.4,927.5 398.85,927.5C399.25,927.5 399.5,928.15 399.5,929.25C399.5,930.2 399.3,931 399,931C398.75,931 398.5,931.55 398.5,932.25C398.5,933.95 397.4,938 396.9,938C396.7,938 396.5,938.55 396.5,939.25C396.5,941.8 395.35,945 394.4,945C393.9,945 393.5,944.75 393.5,944.4ZM253,940.75C253,940.35 254.05,939.65 255.55,939.15C257.1,938.6 258.25,937.9 258.4,937.4C258.5,936.9 258.95,936.5 259.3,936.5C259.8,936.5 260,937.15 260,938.7L260,940.85L257.4,941.2C253.55,941.65 253,941.6 253,940.75ZM350.5,939.45C350.5,938.9 350.15,938.1 349.75,937.7C349.35,937.25 349,936.5 349,935.95C349,935.4 348.65,934.6 348.25,934.2C347.4,933.35 347.2,930 348.05,930C348.55,930 350,933 352.05,938.15L353,940.5L351.75,940.5C350.8,940.5 350.5,940.25 350.5,939.45ZM360,934.5C360,932.25 361.15,931.65 361.7,933.65C362.25,935.7 362.05,936.5 361,936.5C360.15,936.5 360,936.15 360,934.5ZM359.5,929.75C359.5,927.3 360.65,926.55 361.2,928.65C361.8,930.85 361.55,932 360.5,932C359.65,932 359.5,931.65 359.5,929.75ZM351.1,928.65C351.25,927.75 354,926.6 356.15,926.55C357.3,926.5 357.5,926.3 357.5,925C357.5,924 357.75,923.5 358.25,923.5C358.65,923.5 359,923.3 359,923C359,922.75 359.35,922.5 359.75,922.5C360.45,922.5 361.4,925.75 360.85,926.3C360.7,926.45 359.65,926.7 358.55,926.85C357.3,927.05 356.5,927.4 356.5,927.8C356.5,928.25 355.95,928.5 355,928.5C354.2,928.5 353.5,928.75 353.5,929C353.5,929.3 352.9,929.5 352.2,929.5C351.3,929.5 350.95,929.25 351.1,928.65ZM348.5,925.75C348.5,924.95 348.8,924.5 349.3,924.5C349.7,924.5 350.4,924.15 350.8,923.75C351.65,922.9 355,922.7 355,923.5C355,923.75 353.9,924.5 352.6,925.15C348.55,927.1 348.5,927.1 348.5,925.75ZM365,917.5C365,916.9 365.35,916.5 365.9,916.5C366.35,916.5 367.95,916.35 369.4,916.2C371.55,915.9 372,916 372,916.65C372,917.15 371.2,917.6 369.5,917.95C365.8,918.75 365,918.65 365,917.5ZM148.95,897.85C147.4,897.2 145.5,896.2 144.7,895.65C141.55,893.35 138.5,889.2 138.5,887.15C138.5,885.5 140.2,885.65 140.85,887.4L141.4,888.75L141.45,886.9C141.5,885.15 141.6,885.05 143.65,884.75C144.8,884.6 150.45,884.5 156.25,884.6L166.75,884.75L167,886.25C167.3,887.7 167.3,887.7 167.7,886.6C168.55,884.1 167.9,884 154.25,884C143.65,884 141.5,884.1 141,884.75C140.1,885.85 138.5,885.7 138.5,884.55C138.5,882.4 139.45,882.25 153.85,882.1C169.35,881.9 170,882.05 170,885.15C170,887.3 167.85,891.85 165.85,893.9C161.55,898.4 154.25,900.1 148.95,897.85ZM157.65,896.35C158.9,895.85 158.45,895.75 154.25,895.75C150.05,895.75 149.6,895.85 150.85,896.35C151.6,896.7 153.15,896.95 154.25,896.95C155.35,896.95 156.9,896.7 157.65,896.35ZM158.9,893.2C161.05,892.3 163.3,890.3 164.3,888.4C164.7,887.65 165,886.95 165,886.75C165,886.6 160.15,886.5 154.25,886.5C145.05,886.5 143.5,886.6 143.5,887.25C143.5,888.45 147.1,892.1 149.25,893.05C151.75,894.2 156.4,894.25 158.9,893.2ZM260,898C260,897.4 261.65,896.5 262.7,896.5C263.15,896.5 263.5,896.95 263.5,897.5C263.5,898.3 263.15,898.5 261.75,898.5C260.8,898.5 260,898.3 260,898ZM148.3,874.9C147.85,874.3 147.5,873.5 147.5,873.1C147.5,871.7 145.4,868.5 144,867.75C142.15,866.8 138.85,866.8 137,867.75C135.1,868.75 133.5,871.05 133.5,872.85C133.5,874.75 132.7,875.5 130.7,875.5C128.85,875.5 128.4,874.7 128.85,872.35C129.9,866.7 134.85,862.5 140.5,862.5C143.75,862.5 145.75,863.4 148.15,865.8C150.5,868.15 151.25,869.6 151.7,872.3C152.25,875.55 149.95,877.25 148.3,874.9ZM133.45,867.4C134.05,866.65 134,866.5 133.3,866.5C132.8,866.5 132.5,866.9 132.5,867.6C132.5,868.2 132.55,868.55 132.65,868.45C132.7,868.35 133.1,867.85 133.45,867.4ZM141.65,864.65C141,864.55 139.9,864.55 139.15,864.65C138.35,864.75 138.9,864.85 140.25,864.85C141.65,864.85 142.25,864.75 141.65,864.65ZM157,875.1C153.75,872.5 159.95,863.6 165.65,862.65C167.3,862.4 167.5,862.5 167.5,863.4C167.5,864.05 167.1,864.5 166.4,864.65C165.75,864.75 166.5,864.85 168,864.85C169.5,864.85 170.25,864.75 169.65,864.65C168.9,864.5 168.5,864.05 168.5,863.45C168.5,861.45 173.25,862.9 176.2,865.8C179.95,869.6 180.75,876 177.5,876C176.45,876 175,874.45 175,873.3C175,871.9 173.05,868.55 171.7,867.65C169.95,866.55 166.5,866.6 164.45,867.8C162.45,869 160.5,871.7 160.5,873.3C160.5,874.4 159.35,876 158.5,876C158.3,876 157.6,875.6 157,875.1ZM400.55,868.15C400.65,864.1 400.1,862 399,862C397.4,862 396.5,861.45 396.5,860.45C396.5,857.45 402.45,862 402.55,865.05C402.65,867.6 402.45,869.15 401.95,870.15C401.05,871.8 400.45,871 400.55,868.15Z" style="fill:rgb(165,99,110);"/>
                </g>
                <g transform="matrix(2.00091,0,0,2.00091,12656.5,-2464.29)">
                    <path d="M255.5,997.9C255.5,997 258.2,988.25 259.4,985.25C260.35,982.9 260.5,982.75 262.2,982.8C263.2,982.8 266.6,982.85 269.8,982.9L275.65,983L275.35,987.15C275.15,989.4 274.6,992.85 274.15,994.75L273.25,998.25L264.4,998.4C257.45,998.5 255.5,998.4 255.5,997.9ZM258.5,951.65C258.5,951 258.15,950.7 257.45,950.7C256.6,950.75 256.15,950 254.7,946.05C253.75,943.5 253,941.1 253,940.75C253,940.1 255.45,939.3 257.4,939.35C258.15,939.35 258.5,939.05 258.5,938.4C258.5,937.85 258.75,937.5 259.15,937.65C259.6,937.8 259.75,939.7 259.75,945C259.75,950.3 259.6,952.2 259.15,952.4C258.75,952.5 258.5,952.15 258.5,951.65ZM357.8,945.85C353.45,936.05 351,929.9 351,929C351,928.05 352.5,927.25 355.35,926.7C356.4,926.5 357.5,926 357.8,925.6C358.1,925.2 358.55,925 358.85,925.15C359.35,925.45 360.15,930.45 361,938.75C361.25,941.25 361.7,944.75 362.05,946.55C362.6,949.5 362.6,950 361.9,950.7C361.45,951.15 360.9,951.5 360.65,951.5C360.45,951.5 359.15,948.95 357.8,945.85ZM150.7,947.05C150.85,946.85 150.75,946 150.5,945.2C150.2,944.4 148.95,940.05 147.7,935.55C145.95,929.2 145.6,927.25 146.1,926.95C146.45,926.75 148.25,926.3 150.1,926C152.4,925.6 153.5,925.2 153.5,924.7C153.5,924.3 153.75,924 154.05,924C154.5,924 154.55,925.1 154.3,927.9C154.15,930 153.85,934.8 153.7,938.5C153.35,947.2 153.3,947.5 151.7,947.5C151,947.5 150.55,947.3 150.7,947.05ZM386.65,945.2C385.25,944.35 383.45,943.8 381.55,943.65C379,943.4 378.25,943.55 376.25,944.7C374.05,945.9 369.65,946.65 371.5,945.55C371.95,945.25 372.2,944.2 372.25,942.65C372.3,940.4 376.2,926 377.85,922.15C378.5,920.5 378.7,920.4 380.3,920.65C382.25,921 394.4,924.8 395.4,925.45C396.05,925.85 394.75,931.15 391.45,941.9C390.7,944.35 390.6,945.25 391.05,945.8C392.05,947.05 389,946.6 386.65,945.2Z" style="fill:rgb(222,68,41);"/>
                </g>
                <g transform="matrix(2.00091,0,0,2.00091,12656.5,-2464.29)">
                    <path d="M216.5,1006.5C216.5,1005.75 216.75,1005.55 217.65,1005.7C218.25,1005.85 219.05,1005.95 219.4,1005.95C219.7,1006 220,1006.35 220,1006.75C220,1007.25 219.45,1007.5 218.25,1007.5C216.85,1007.5 216.5,1007.3 216.5,1006.5ZM192.4,1003.15C191.4,1003 191,1002.65 191,1001.95C191,1000.85 191.15,1000.8 194.5,1001.55C196.05,1001.9 197,1002.35 197,1002.8C197,1003.5 195.5,1003.6 192.4,1003.15ZM185,998.25C185,996.65 185.15,996.5 186.45,996.5L187.85,996.5L187.05,998.25C186,1000.5 185,1000.5 185,998.25ZM358.5,997.3C358.5,996.95 359,996.5 359.55,996.35C360.3,996.15 360.55,995.8 360.35,995.3C360.1,994.75 360.35,994.5 361,994.5C361.8,994.5 362,994.85 362,996.25C362,997.9 361.9,998 360.25,998C359.1,998 358.5,997.75 358.5,997.3ZM190,992.85C190,990.85 190.6,990.3 192.5,990.6C193.5,990.75 193.5,990.85 191.8,992.75L190.05,994.75L190,992.85ZM218.75,990.25C218.5,990.15 217.4,989.95 216.4,989.75C215.2,989.55 214.5,989.2 214.5,988.75C214.5,987.9 215.25,987.85 218.7,988.3C220.5,988.55 221,988.85 221,989.55C221,990.45 220.1,990.7 218.75,990.25ZM289.2,987.75C288.75,986.65 288.05,985.9 287.25,985.7C285.3,985.2 285.7,984 287.75,984C289.15,984 289.5,984.2 289.5,985C289.5,985.55 289.85,986 290.25,986C290.75,986 291,986.55 291,987.75C291,990 290.15,990 289.2,987.75ZM234.5,978.8C230.95,977.8 228.4,976.6 226.4,975C224.65,973.55 224.35,973.5 219.55,973.5C215.45,973.5 214.5,973.35 214.5,972.75C214.5,971.75 217.4,971.3 221.6,971.65C224.75,971.9 225.05,971.85 224.7,971.1C222.8,966.7 222.4,964.6 222.6,960C223,950.9 227.55,943.2 237.7,934.35L241.3,931.2L238.15,927.8C232,921.15 228.95,912.6 228.95,902C228.95,894.4 230,889.8 233.2,883.25C239.15,871.2 248.8,863.15 261.85,859.4C267.35,857.8 278.35,857.85 284.25,859.45C294.9,862.3 303.5,868.55 309.55,877.65C316.45,888.2 318.6,900.45 315.55,912C314.2,917 310.65,924 307.5,927.9L304.95,931.1L307.1,932.9C311.65,936.75 315.2,940.35 317.25,943.25C321.65,949.4 324,955.65 324,961C324,963.95 322.9,968.8 322.05,969.65C321.75,969.95 321.5,970.55 321.5,971C321.5,971.65 322.15,971.7 325.75,971.55C329.8,971.4 330,971.45 330,972.45C330,973.45 329.75,973.5 325.95,973.5C322.25,973.5 321.75,973.6 320.05,974.95C315.8,978.3 311.5,979.5 303.8,979.5C293.35,979.5 283.9,976.55 279.85,972L278,970L278,971.5C278,972.85 277.85,973 276.4,973C275.5,973 273.25,973.15 271.4,973.35L268,973.65L268,970.45L266.4,972.3C264.3,974.7 257.7,977.8 252.7,978.75C248.1,979.65 237.6,979.65 234.5,978.8ZM288.75,909.5C288.6,909.25 288.1,909 287.7,909C286.25,909 287.05,907.6 288.7,907.3C291.5,906.75 294.5,902.3 293.05,900.85C292.75,900.55 292.5,899.5 292.5,898.55L292.5,896.85L293.75,898C294.4,898.65 295.1,899.55 295.3,900.1C295.85,901.9 296.5,900.95 296.5,898.4C296.5,893.75 293.1,888.45 289.25,887C286.8,886.05 282.95,886.25 280.65,887.4C276.95,889.3 274,893.8 274,897.6C274,898.25 274.35,900.05 274.8,901.55C275.75,904.8 278.8,908 282.05,909.15C284.55,910.05 289.25,910.25 288.75,909.5ZM285.5,907.85C284.3,906.95 283,904.9 283,903.9C283,902.55 284.85,902.75 285.3,904.15C285.5,904.75 285.85,905.4 286.1,905.55C286.35,905.7 286.5,906.45 286.4,907.15C286.3,908.2 286.1,908.35 285.5,907.85ZM283,901.75C283,900.7 284.25,898.35 285.2,897.55C286.25,896.7 289.5,896 290.9,896.35C292.45,896.75 292.3,898 290.65,898C288.75,898 286,899.1 286,899.85C286,900.2 285.8,900.5 285.5,900.5C285.25,900.5 285,900.95 285,901.5C285,902.15 284.65,902.5 284,902.5C283.45,902.5 283,902.15 283,901.75ZM285.4,932C282.5,930.45 278.1,929.5 274.25,929.55C271.05,929.6 270.95,929.65 272.75,930.05C273.85,930.25 275.75,930.45 277.05,930.45C278.3,930.5 280.85,931.05 282.8,931.7C287,933.2 287.85,933.3 285.4,932ZM277.75,965.35C277.8,960.6 278.65,958.55 281.15,956.95C282.55,956.1 283.35,955.95 287.25,956.15C289.75,956.3 292.25,956.55 292.9,956.75C293.9,957.1 294,956.95 293.95,955.45C293.9,954.5 293.8,954.15 293.65,954.65C293.35,955.75 290,955.9 290,954.75C290,954.35 290.35,954 290.75,954C291.6,954 292.15,952.8 294.75,945.15C296.85,938.8 296.8,938.45 293.45,937.4C292.1,937 291.5,936.55 291.5,935.9C291.5,935.4 291.3,935 291,935C290.75,935 290.5,935.3 290.5,935.7C290.5,936.25 288.75,935.85 283.5,934.1C278.6,932.45 276.35,931.95 276,932.3C275.7,932.6 274.75,934.95 273.85,937.5C272.1,942.5 271,943.8 271,940.8C271,939.8 271.25,939 271.5,939C271.8,939 272,938.35 272,937.55C272,936.75 272.25,936 272.55,935.9C272.95,935.75 273.05,935.1 272.8,933.85C272.5,932.2 272.3,932 271,932C269.85,932 269.5,931.75 269.5,931C269.5,930.2 269.15,930 267.75,930C266.35,930 266,930.2 266,930.95C266,931.5 265.55,932 264.9,932.2C263.1,932.65 261.5,932.55 261.5,931.95C261.5,931.15 260.5,932 260,933.2C259.75,933.9 258.85,934.55 257.55,934.95C256.4,935.25 255.5,935.85 255.5,936.2C255.5,936.55 254.6,937.1 253.45,937.45C252.35,937.8 251,938.5 250.45,939.05C249.65,939.85 249.5,939.85 249.5,939.2C249.5,938.8 249.3,938.6 249,938.75C248.2,939.25 248.45,940.35 249.45,940.65C250.65,940.95 252.85,947 251.75,947C251.2,947 251.25,947.55 252.05,949.85C253,952.7 253.3,956.25 252.65,956.65C252.4,956.75 252.6,956.75 253,956.6C254.85,956 261.95,955.95 263.9,956.5C265.9,957 266.2,957.3 267.6,960.3C268.8,962.85 269.05,964.05 268.9,965.65L268.65,967.75L272.3,967.6C275.4,967.45 276.05,967.55 276.85,968.4C277.35,968.95 277.75,969.45 277.75,969.45L277.75,965.35ZM302.75,958.55C302.2,958.3 300.5,958 299,957.85L296.25,957.55L298.5,958.25C301.05,959 304.5,959.25 302.75,958.55ZM273.9,921.15C273.4,921.05 272.5,921.05 271.9,921.15C271.25,921.25 271.65,921.35 272.75,921.35C273.85,921.4 274.35,921.3 273.9,921.15ZM249.85,957.65C249.5,957.35 242.5,958.6 242.5,959C242.5,959.2 244.2,959 246.25,958.6C248.35,958.2 249.95,957.75 249.85,957.65ZM261.75,910.2C262.4,909.95 262.2,909.65 260.8,908.65C259,907.45 257.5,905.2 257.5,903.75C257.5,902.7 259.35,902.8 259.75,903.9C260.2,905.25 262.4,907.5 263.25,907.5C265.25,907.5 268.5,904.85 268.5,903.3C268.5,901.8 266.75,899.15 265.55,898.75C264.35,898.4 264.1,896.5 265.25,896.5C266.9,896.5 268.9,898.05 269.9,900.1L270.95,902.25L271,898.6C271,896.2 270.75,894.4 270.2,893.35C264.65,882.35 248.5,885.6 248.5,897.75C248.5,903.9 251.85,908.15 258,909.8C260.75,910.55 260.75,910.55 261.75,910.2ZM257.5,901.7C257.5,900.6 258.95,898.3 260.05,897.6C260.9,897.05 261,897.15 261,898.5C261,899.5 260.75,900 260.25,900C259.8,900 259.5,900.45 259.5,901.25C259.5,902.15 259.25,902.5 258.5,902.5C257.9,902.5 257.5,902.15 257.5,901.7ZM361,918C361,917.2 361.35,917 362.75,917C364.75,917 365.2,918.2 363.4,918.7C361.5,919.2 361,919.05 361,918ZM371.5,864.25C371.5,863.45 371.2,863 370.75,863C370.35,863 370,862.65 370,862.25C370,861.8 369.55,861.5 368.75,861.5C367.85,861.5 367.5,861.25 367.5,860.5C367.5,859.3 368.6,859.2 370.5,860.3C373.05,861.85 374.45,865.5 372.5,865.5C371.75,865.5 371.5,865.15 371.5,864.25Z" style="fill:rgb(18,143,71);"/>
                </g>
                <g transform="matrix(2.00091,0,0,2.00091,12656.5,-2464.29)">
                    <path d="M148.85,1017.15L151.75,1013.85L151.9,1015.45C152.1,1017.5 151.3,1018.5 149.45,1018.5C148.35,1018.5 148,1018.75 148,1019.5C148,1020.2 147.65,1020.5 146.95,1020.5C146.1,1020.5 146.4,1019.95 148.85,1017.15ZM156.9,1008.65C157.45,1007.85 158.5,1006.7 159.2,1006.05L160.5,1004.85L160.5,1006.6C160.5,1008.65 159.25,1010 157.3,1010L155.95,1010L156.9,1008.65ZM276.65,1003.15C276.75,1002.35 277.5,998.55 278.3,994.65C279.5,988.75 279.9,987.5 280.65,987.5C281.65,987.5 281.65,987.7 280.95,992C280.15,997.1 278.45,1003.7 277.8,1004.1C276.75,1004.8 276.4,1004.5 276.65,1003.15ZM168.4,996.65C168.95,995.85 170,994.7 170.7,994.05L172,992.85L172,994.4C172,996.45 170.65,998 168.85,998L167.45,998L168.4,996.65ZM120.55,993.75C112.65,991.95 103.1,985.1 99.95,978.9C98.8,976.65 98.75,975.7 99.8,975.3C100.95,974.85 101.65,975.4 104.45,979.05C108.5,984.45 113.3,987.75 119.95,989.7C123.4,990.7 130.2,990.75 134.5,989.75C138.75,988.75 147.85,984.25 152.25,980.9C157.05,977.3 163.85,970.35 166.25,966.6C167.4,964.85 168.5,963.6 168.9,963.75C169.2,963.85 169.5,963.75 169.5,963.55C169.5,963.3 169.3,963 169.05,962.9C168.45,962.7 169.8,959.5 170.5,959.5C170.75,959.5 171,959.85 171,960.25C171,960.75 171.5,961 172.5,961C173.35,961 174,961.25 174,961.5C174,961.8 173.7,962 173.35,962C173,962 172.15,963.2 171.4,964.65C170.1,967.35 164.8,974.75 163.35,975.95C162.6,976.55 162.5,976.45 162.5,974.8C162.5,973.8 162.3,973 162.05,973C161.45,973 161.1,976.95 161.7,977.15C162.35,977.35 155.45,983.25 151.55,985.75C146.8,988.8 144.85,989.75 144.6,989.05C144.5,988.75 144.2,988.5 143.95,988.5C143.75,988.5 143.65,988.85 143.8,989.25C144.05,989.8 143.45,990.3 141.75,991.05C135.05,994 126.5,995.1 120.55,993.75ZM174.9,989.65C175.45,988.85 176.6,987.6 177.45,986.8L179,985.3L179,987.05C179,989.2 177.3,991 175.3,991L173.95,991L174.9,989.65ZM184.95,979.15C185.5,978.35 187.3,976.4 189,974.75L192.05,971.75L200.05,971.6C208.95,971.4 211.5,971.65 211.5,972.75C211.5,973.4 210.05,973.5 202.55,973.5C197.1,973.5 193.45,973.7 193.25,974C193.1,974.3 192.5,974.5 191.95,974.5C191.35,974.5 191,974.85 191,975.5C191,976.05 190.65,976.5 190.25,976.5C189.85,976.5 189.5,976.8 189.5,977.15C189.5,978.3 186.75,980.5 185.3,980.5L183.95,980.5L184.95,979.15ZM125.7,964.3C121.7,962.55 118.05,957.3 117.2,952.1C116.9,950.2 116.95,950 117.9,950C118.45,950 119.05,949.7 119.2,949.4C119.6,948.4 121,950.45 121,952C121,952.7 121.6,954.5 122.3,955.95C124.55,960.45 128.95,962.75 132.9,961.45C135.7,960.55 141,956.9 143.85,953.85L146.45,951.1L145.45,947.95C143.55,941.7 139.85,928.2 139.6,926.7C139.45,925.5 139.75,924.75 140.85,923.5C142,922.2 143.15,921.7 147.5,920.55C151.8,919.4 153.1,918.8 154.6,917.35C156.8,915.25 159.45,914.75 165.35,915.25C170.9,915.7 172,915.95 172,916.85C172,917.55 171.25,917.6 165.8,917.3C159.2,916.9 158.4,917.1 155.55,919.5C154.6,920.35 154.45,920.65 154.95,921C155.45,921.25 155.55,922.15 155.4,923.95C155.2,925.9 155.3,926.5 155.8,926.5C156.55,926.5 156.65,927.15 156.2,928.9C156,929.5 155.55,930 155.2,930C154.75,930 154.5,930.6 154.5,931.75C154.5,933.2 154.3,933.5 153.45,933.5C152.4,933.5 152.35,933.35 152.65,930.4C152.85,928.65 153.1,926.2 153.3,924.9C153.6,922.9 153.5,922.5 152.85,922.5C152.45,922.5 152,922.3 151.9,922C151.8,921.75 150.2,921.95 148,922.55C145.95,923.15 143.65,923.7 142.9,923.85C141.85,924.05 141.5,924.4 141.5,925.3C141.5,926 141.8,926.5 142.2,926.5C143.1,926.5 144.05,930.35 143.65,932.65C143.45,934.1 143.55,934.5 144.15,934.5C145,934.5 145.7,936.65 145.25,938.05C144.85,939.3 145.85,942.55 146.9,943.4C147.4,943.8 147.75,944.8 147.75,946.05C147.75,947.15 147.8,947.8 147.9,947.5C148.05,947.15 148.3,947.2 148.7,947.7C149.35,948.6 149.95,948.3 151.15,946.4C151.75,945.4 152,943.95 152,940.9C152,938.6 152.15,936.25 152.3,935.65C152.65,934.35 154,934.05 154,935.25C154,935.65 154.35,936 154.8,936C155.5,936 155.55,936.35 155.35,937.85C155.15,938.9 154.8,939.8 154.5,939.9C153.85,940.15 153.85,941.5 154.5,941.5C154.8,941.5 155,942.2 155,943C155,943.85 155.15,944.5 155.3,944.5C155.45,944.5 156.45,943.8 157.5,943C158.9,941.9 159.85,940.45 161,937.6C166.65,924 169.1,919 170.15,919C170.35,919 170.5,919.8 170.5,920.75C170.5,921.7 170.3,922.5 170,922.5C169.75,922.5 169.5,922.75 169.5,923.05C169.5,923.35 169.15,924.4 168.65,925.35C168,926.7 168,927.2 168.45,927.5C168.95,927.8 168.9,928.2 168.3,929.45C167.85,930.3 167.2,931 166.8,931C165.95,931 164.75,933.55 165.45,933.95C166,934.3 164.8,937.5 164.05,937.5C163.8,937.5 163,938.8 162.3,940.4C161.55,941.95 160.35,943.75 159.6,944.35C158.55,945.25 158.45,945.5 159.15,945.5C160.4,945.5 160.2,946.85 158.9,947.2C157.1,947.65 156.5,947.55 156.5,946.75C156.5,945.6 154.15,945.8 153.5,947C153.05,947.85 153.1,948 154.1,948C155.1,948.05 155,948.25 153,950.1C150.95,951.95 150.75,952.05 150.6,951.05C150.5,950.3 150.05,950 149.2,950C148.2,950 148,950.25 148,951.45C148,952.45 148.3,953 148.85,953.1C150.15,953.35 141.15,961.5 137.7,963.2C134.05,965 131,965.5 131,964.3C131,963.85 130.65,963.5 130.25,963.5C129.85,963.5 129.5,963.85 129.5,964.25C129.5,965.2 127.8,965.2 125.7,964.3ZM124,960.25C124,959.85 123.65,959.5 123.25,959.5C122.85,959.5 122.5,959.85 122.5,960.25C122.5,960.65 122.85,961 123.25,961C123.65,961 124,960.65 124,960.25ZM177.4,963.65C175.85,963.25 176.35,962 178.05,962C180.35,962 182.15,960.7 183.2,958.2C183.7,957 184.3,956 184.55,956C184.8,956 185,955.55 185,955.05C185,953.55 185.55,952.5 186.3,952.5C186.75,952.5 187,951.95 187,951C187,949.4 188.45,946 189.1,946C189.3,946 189.5,945.55 189.5,945.05C189.5,943.35 190.1,942.5 191.3,942.5C192.7,942.5 192.75,942.3 189.2,950.1C183.8,962.05 183.55,962.55 181.75,963.3C180.05,964 179,964.1 177.4,963.65ZM275.5,962.15C275.55,960.4 277.4,957.1 279.05,955.85C280.85,954.5 283.85,953.5 286.15,953.5C287.15,953.5 287.5,953.75 287.5,954.5C287.5,955.25 287.15,955.5 286.2,955.5C284.45,955.5 281,956.55 281,957.1C281,957.3 280.55,957.5 280,957.5C279.35,957.5 279,957.85 279,958.5C279,959.05 278.8,959.5 278.55,959.5C278.3,959.5 277.95,960.3 277.8,961.25C277.55,962.55 277.2,963 276.5,963C275.9,963 275.5,962.65 275.5,962.15ZM169.6,954.05C168.8,951.45 165.55,948.2 163.05,947.45C161.1,946.85 160.2,945.5 161.75,945.5C162.15,945.5 162.5,945.15 162.5,944.75C162.5,942.7 168.25,945.35 170.65,948.55C172.45,951 173.5,953.25 173.5,954.75C173.5,955.85 173.3,956 171.85,956C170.3,956 170.1,955.8 169.6,954.05ZM262.5,954.75C262.5,954.35 262.85,954 263.25,954C264.4,954 265.4,952.05 268,944.6C271.1,935.65 271.85,934 272.45,934C272.75,934 273,934.6 273,935.4C273,936.9 270.5,944.15 269.9,944.4C269.7,944.5 269.5,945.25 269.5,946.05C269.5,946.85 269.3,947.5 269.05,947.5C268.8,947.5 268.5,948.35 268.3,949.4C268.15,950.4 267.55,952.2 267,953.4C266.15,955.3 265.9,955.5 264.25,955.5C263.05,955.5 262.5,955.3 262.5,954.75ZM360.6,952.55C359.9,950.25 359.85,949 360.45,949C360.7,949 360.6,947.7 360.2,946.15C359.25,942.15 359.3,941 360.4,941C361.1,941 361.4,941.7 361.9,944.5C362.75,949.4 362.7,954.5 361.85,954.5C361.45,954.5 360.9,953.65 360.6,952.55ZM364.5,946.75C364.5,946.05 365.2,943.55 366,941.1C366.85,938.7 368.3,933.55 369.25,929.65C371.1,921.9 372.15,919 373.05,919C373.75,919 373.45,921.7 372.2,926.15C371.45,928.95 371.4,929.65 371.95,929.95C372.9,930.55 372.2,933.35 371.05,933.65C370.4,933.8 370,934.55 369.75,936.05C369.55,937.25 368.75,940.1 367.95,942.35C367.15,944.6 366.5,946.8 366.5,947.2C366.5,947.65 366.1,948 365.5,948C364.75,948 364.5,947.65 364.5,946.75ZM370.35,946.8C371.05,945.6 373.85,943.5 376.2,942.45C378.3,941.55 378.9,941.5 382.35,942C386.1,942.5 389.55,944 391,945.7C391.55,946.4 391.4,946.5 389.8,946.5C388.8,946.5 388,946.3 388,946.1C388,945.55 383.8,944.1 381.15,943.7C379.45,943.45 378.65,943.6 376.7,944.7C375.45,945.4 374.05,946 373.7,946C373.3,946 373,946.35 373,946.75C373,947.25 372.5,947.5 371.5,947.5C370.3,947.5 370.05,947.35 370.35,946.8ZM192.5,938.9C192.5,936.75 193.1,935.85 194.4,936.1L195.45,936.25L194.5,938.4C193.35,940.9 192.5,941.1 192.5,938.9ZM359.3,938.4C359.15,937.5 358.95,935.5 358.8,934C358.6,932.5 358.35,930.4 358.2,929.4C357.9,927.75 358,927.5 358.85,927.5C359.7,927.5 359.9,928.05 360.4,931.65C361.25,937.4 361.2,940 360.25,940C359.85,940 359.45,939.35 359.3,938.4ZM181.9,923.2C180.4,922.4 180.15,921.75 181.15,921.35C181.65,921.15 181.65,921.05 181.15,921.05C180.8,921 180.5,920.7 180.5,920.35C180.5,919.2 178.75,918 177.1,918C175.85,918 175.5,917.8 175.5,917C175.5,916.15 175.85,916 177.7,916C180.1,916 182.5,917.45 182.5,918.95C182.5,919.6 183.25,920.15 184.9,920.7C190.3,922.7 191.15,923.85 186.75,923.3C185,923.1 184,923.2 184,923.5C184,924.15 183.5,924.1 181.9,923.2ZM147.75,897.05C142.55,894.6 138.55,889.65 138.5,885.7C138.5,883.6 139.85,882.5 142.4,882.5C144.15,882.5 144.5,882.65 144.5,883.5C144.5,884.15 144.85,884.5 145.5,884.5C147.25,884.5 146.65,885.95 144.75,886.3C143.8,886.45 143,886.9 143,887.2C143,888.25 146.55,892 148.45,892.95C154.3,895.95 161.75,893.9 164.5,888.5C165,887.45 165.3,886.5 165.15,886.3C164.95,886.15 162.85,886 160.4,886C156.1,886 156,885.95 156,884.8C156,883.7 156.2,883.6 160.15,883.3C162.45,883.1 164.7,883.1 165.15,883.3C165.65,883.45 166,883.35 166,883.05C166,882.3 168.15,882.35 168.9,883.1C169.9,884.1 169.6,887.35 168.3,889.9C164.45,897.45 155.25,900.65 147.75,897.05ZM129.2,874.75C128.3,872.4 130.65,867.1 133.6,865C139.1,861 146.05,862.3 149.85,868.05C151.55,870.6 152.05,874.8 150.75,875.3C149.4,875.85 148.35,874.9 147.7,872.65C146.8,869.6 145.65,868.15 143.45,867.3C140.9,866.3 139.7,866.3 137.2,867.45C134.95,868.45 133,871.1 133,873.1C133,873.75 132.75,874.55 132.4,874.9C131.55,875.75 129.55,875.65 129.2,874.75ZM157.15,875.2C156.25,874.8 156.35,871.7 157.3,869.7C158.45,867.25 162.7,863.6 165.15,862.95C171.15,861.35 178.1,865.7 179.2,871.8C179.7,874.4 179.2,875.5 177.5,875.5C176.3,875.5 175.95,875.25 175.7,874.15C175.05,871.5 173.1,868.25 171.6,867.4C167.3,864.85 161.2,868 160.1,873.3C159.7,875.25 158.75,875.85 157.15,875.2Z" style="fill:rgb(59,27,40);"/>
                </g>
                <g transform="matrix(2.00091,0,0,2.00091,12656.5,-2464.29)">
                    <path d="M146.5,1020.15C146.5,1019.75 152.1,1013.75 168.75,996.2C182.75,981.45 188.65,975.35 190.4,973.65L192.1,972.05L209.1,971.9L226.05,971.75L227.15,972.9C228.5,974.35 232.6,976.35 236.05,977.25C242.25,978.9 252.2,977.85 258.85,974.75C263.7,972.5 265.8,970.55 266.75,967.3C267.5,964.85 267.45,964.75 266.05,961.7C264.75,958.95 264.35,958.5 262.65,958.05C259.75,957.25 257.55,957.4 253.2,958.7C248.15,960.2 242.35,961.25 241.25,960.85C240.7,960.6 240.5,960.05 240.6,958.9C240.75,957.3 240.8,957.25 244.25,956.65C248.8,955.85 251.5,955.05 251.5,954.55C251.5,954.3 250.5,951.25 249.25,947.8C246.8,940.9 246.45,938.15 247.9,936.85C248.4,936.4 250.9,935.25 253.5,934.35C256.85,933.1 258.3,932.35 258.55,931.6C259.2,929.85 261.05,929.1 266.4,928.55C273.45,927.8 278.75,927.85 282.15,928.75C284.95,929.45 298.35,936.15 299.15,937.2C300,938.35 299.05,944.1 297.2,949.45C296.15,952.5 295.4,955.1 295.6,955.25C295.75,955.4 297.85,955.85 300.2,956.25C302.6,956.65 304.75,957.1 305,957.25C305.7,957.7 305.6,959.7 304.9,960.4C304,961.3 302.85,961.15 295.05,959.25C291.15,958.3 287.1,957.5 286.1,957.5C281.45,957.5 278.15,962.5 279.5,967.5C280.6,971.65 287.85,975.9 296.05,977.25C306.4,978.9 313.05,977.8 318.65,973.35L320.55,971.9L338.05,971.6L355.55,971.35L358.4,974.55C359.95,976.3 363.05,979.65 365.25,982C369,986 379.15,997.05 388.2,1006.95C390.35,1009.3 394.15,1013.35 396.65,1015.9L401.15,1020.5L273.8,1020.5C203.8,1020.5 146.5,1020.35 146.5,1020.15ZM276.4,971.25C276.5,971.15 276.1,970.6 275.55,970.05C274.85,969.35 273.85,969 272.6,969C270.55,969 269.5,969.7 269.5,971.05C269.5,971.75 269.95,971.85 272.9,971.65C274.75,971.5 276.35,971.3 276.4,971.25ZM265,953C265.45,952.15 268.15,944.75 271.1,936.25C271.4,935.45 271.85,934.55 272.05,934.3C272.3,934 272.5,933.3 272.5,932.75C272.5,931.7 272.3,931.65 268.65,931.85C266.5,931.95 264,932.15 263.15,932.3L261.5,932.55L261.5,942.95C261.5,948.65 261.65,953.5 261.85,953.65C262.55,954.4 264.5,953.95 265,953ZM257.9,953.4C258.6,952.8 258.8,936 258.1,936C257,936 251.15,938.15 250.5,938.8C249.85,939.4 250.05,940.35 252.2,946.65C253.55,950.55 254.7,953.95 254.85,954.15C255.1,954.6 256.95,954.15 257.9,953.4ZM275.3,963.65C276.45,958.35 277.65,956.5 280.85,954.95C282.7,954.05 284,953.85 287.5,953.85L291.85,953.85L294,947.8C295.2,944.45 296.15,941 296.2,940.05L296.25,938.35L287.25,935.2C282.3,933.45 277.65,932.05 276.95,932.05C275.65,932 275.5,932.35 271.55,944.05L267.5,956.15L269,958.15C270.2,959.75 270.5,960.7 270.5,962.6L270.5,965L272.75,965C274.8,965 275,964.9 275.3,963.65ZM344.9,999.4C353.45,997.7 360.5,996.05 360.5,995.8C360.5,995.1 353.9,986.55 351.65,984.4L349.75,982.5L342.5,984C338.5,984.8 332.45,985.9 329,986.5C321.45,987.75 319,988.45 319,989.3C319,989.6 320.3,992 321.9,994.55C323.5,997.15 325.25,1000 325.8,1000.9C326.45,1002.05 327.1,1002.5 328,1002.5C328.7,1002.5 336.3,1001.1 344.9,999.4ZM275.5,1000.25C276.55,997.55 279,982.3 278.55,981.6C278.4,981.35 273.85,981 268.4,980.9L258.6,980.6L256.85,985.2C252.9,995.55 251.85,999.05 252.45,999.65C252.8,1000 257,1000.45 263.4,1000.8C269.1,1001.1 274.05,1001.4 274.4,1001.45C274.75,1001.45 275.25,1000.95 275.5,1000.25ZM285.75,1006C289.6,1005.7 293.25,1005.5 293.9,1005.5C294.7,1005.5 295,1005.2 295,1004.3C295,1003 289.25,987.15 288.4,986.15C287.7,985.3 282.05,985.25 281.8,986.15C281.7,986.45 280.9,990.45 280.05,994.95C279.2,999.45 278.25,1003.45 277.95,1003.85C277.65,1004.2 276.45,1004.5 275.3,1004.5C272.85,1004.5 271.75,1005.1 272.15,1006.2C272.45,1006.9 273,1007 275.6,1006.75C277.35,1006.6 281.9,1006.25 285.75,1006ZM224.25,999.55C226.6,996 228.5,992.9 228.5,992.65C228.5,991.85 225.6,991.2 211.25,988.95L197.35,986.75L191.95,992.5C188.25,996.4 186.55,998.55 186.65,999.25C186.75,1000.15 187.75,1000.4 196,1001.85C201.1,1002.75 208.05,1004 211.5,1004.7C214.95,1005.35 218.25,1005.9 218.85,1005.95C219.8,1006 220.8,1004.75 224.25,999.55ZM123.25,993.95C119.1,993.4 116.1,992.4 112.3,990.3C106.95,987.3 101.65,982.15 99.7,978.05C98.9,976.45 98.95,976.3 99.75,975.65C100.9,974.85 101.4,975.25 104,978.75C107.15,983.05 110.05,985.45 114.75,987.8C123.8,992.25 132.9,991.85 143.65,986.45C157.3,979.55 170,965.4 170,957.1C170,949.65 162.85,944.95 156.1,948C154.95,948.5 151.25,951.5 147.85,954.65C138.55,963.25 135.95,964.75 130.25,964.75C127.3,964.75 126.35,964.5 124.35,963.35C121.45,961.65 119.35,958.55 117.95,953.9C116.8,950.15 116.85,948.85 118.15,948.6C119.55,948.3 120.4,949.4 120.8,951.9C121,953.2 121.45,954.95 121.85,955.75C123.6,959.2 127.5,962 130.65,962C133.9,962 140.65,957.7 144.95,952.9L146.65,951L145.85,948.35C145.45,946.95 144.4,943.3 143.55,940.25C142.7,937.25 141.4,932.8 140.7,930.45C138.75,923.85 139.55,922.75 147.85,920.65C151.7,919.7 153.1,919.05 154.6,917.75C155.65,916.8 157.05,915.9 157.75,915.7C158.5,915.5 163.8,915.6 169.55,915.9C180.45,916.45 181.2,916.6 182,918.8C182.45,919.9 185,921.5 186.35,921.5C187.4,921.5 195.7,925.8 196.55,926.8C198.3,928.9 197.5,931.55 190.5,946.9C186.1,956.6 183.45,961.9 182.6,962.5C181.1,963.7 177.35,963.8 175.5,962.75C173.4,961.55 172.7,961.85 171.25,964.65C168.2,970.45 163.95,975.55 158,980.6C146.3,990.45 133.8,995.25 123.25,993.95ZM151.3,946.65C152.2,945.25 152.4,944.05 152.65,936.4C152.85,931.65 153.2,926.65 153.5,925.3C153.75,923.95 153.9,922.75 153.75,922.6C153.5,922.3 146.75,923.9 144.65,924.8C142.35,925.7 142.3,925.35 146.75,941.75C148.8,949.2 149.2,949.7 151.3,946.65ZM184.15,952.4C190.3,939.15 194,930.6 194,929.6C194,928.9 193,928.2 190.4,927C188.4,926.1 184.2,924.15 181.15,922.7C173.1,918.85 173.25,918.85 170.1,925.4C164.7,936.8 162,942.65 162,943.05C162,943.25 163.3,944 164.9,944.75C169.9,947.05 172.75,950.75 173.4,955.75C173.75,958.6 173.8,958.65 176,959.5C180.2,961.15 179.95,961.4 184.15,952.4ZM157.35,943.45C159.3,942.25 159.85,941.25 163.75,931.75C165.35,927.9 167.3,923.55 168.1,922.05C168.9,920.6 169.4,919.25 169.25,919.05C169.05,918.9 166.5,918.7 163.55,918.6C159.5,918.45 158.1,918.55 157.7,919.05C157.4,919.45 156.9,922.35 156.55,925.5C156,930.85 155.3,937.35 154.75,942.4C154.5,944.8 154.85,945 157.35,943.45ZM411.25,992.65C407.1,992.15 402.25,990.65 397.6,988.45C386.3,983.15 376.75,974.85 371.25,965.6C369.6,962.8 368.05,960.5 367.8,960.5C367.55,960.5 366.95,960.85 366.45,961.3C365.95,961.75 364.5,962.25 363.3,962.35C359.8,962.75 358.8,961.8 355.65,955.1C350,943.25 344,929.25 344,927.95C344,925.7 347.8,922.75 352.1,921.65C355.15,920.85 355.8,920.5 356.75,919C358.9,915.65 359.5,915.35 365.9,914.9C369.1,914.7 373.5,914.15 375.6,913.7C380.9,912.65 383.75,913.1 385.8,915.35C387.15,916.8 388.05,917.2 392.55,918.3C399.35,919.9 400.3,920.35 401.6,922.1C402.95,924 402.65,926.65 400.25,934.5C399.25,937.65 397.9,942.35 397.25,944.95C395.8,950.55 395.8,950.55 400.6,954.55C406.8,959.7 411.8,960.8 415.7,957.8C417.75,956.25 418.25,955.5 419.95,950.8C421.4,946.95 422.45,945.9 423.75,947C425.45,948.4 423.25,955.45 420,959.2C419.1,960.2 417.2,961.65 415.8,962.35C413.65,963.45 412.85,963.6 410.2,963.35C404.3,962.9 400.1,960.3 391.9,951.9C389.25,949.2 386.3,946.65 385.3,946.25C381.45,944.65 377.05,945.6 373.85,948.65C371.2,951.25 370.7,953.6 371.8,957.95C373.25,963.55 380.25,972.1 388.7,978.45C405.8,991.4 421.95,992.15 433.9,980.55C435,979.45 436.7,977.35 437.7,975.8C439.1,973.6 439.75,973 440.75,973C442.55,973 442.75,974.05 441.55,976.75C439.45,981.5 431.1,988.6 424.8,990.95C423.35,991.5 420.45,992.15 418.3,992.45C414.4,993 414.05,993 411.25,992.65ZM364.35,951.15C363.9,950.45 365.05,944.8 366.25,941.45C366.9,939.65 368,935.6 368.75,932.45C369.5,929.3 370.65,924.8 371.35,922.35C372.1,919.95 372.55,917.85 372.4,917.7C371.9,917.25 360.8,919 360.4,919.65C360.2,919.95 360.15,920.7 360.25,921.25C360.4,921.8 361.05,928.1 361.75,935.25C363.2,950.2 363.35,951.5 364.05,951.5C364.35,951.5 364.45,951.35 364.35,951.15ZM365.7,958C367.65,957.3 367.25,956.6 364.8,956.25C363.55,956.05 362.25,955.55 361.85,955.05C360.8,953.8 359.95,950.4 360.5,949.75C360.8,949.35 360.7,947.75 360.25,945.3C359.85,943.15 359.5,940.35 359.5,939.1C359.5,937.8 359.15,934.6 358.7,932C357.9,927.55 357.65,925.65 357.55,924.15C357.5,923.8 357.15,923.5 356.7,923.5C355.35,923.5 348.5,926.9 348.2,927.75C347.85,928.6 358.7,954.8 360.65,957.9C361.15,958.6 363.9,958.7 365.7,958ZM368.75,949.5C370.25,946.6 371.4,945.4 374.75,943.45C378.8,941.1 384.9,941.65 389.6,944.8C392.25,946.6 393.5,946.7 393.5,945.15C393.5,944.65 394.75,939.9 396.25,934.55C399.5,923.35 399.55,923.7 394.35,922.25C392.65,921.8 388.45,920.5 385.05,919.4C381.6,918.35 378.25,917.5 377.6,917.6C376.3,917.75 376.45,917.25 369.25,942.25C367.4,948.7 366.7,952 367.2,952C367.35,952 368.05,950.9 368.75,949.5ZM267.65,922.2C264.85,921.15 261,917.75 261,916.25C261,914.5 262.1,914.45 264.45,916.05C267.05,917.75 271.55,919.5 273.4,919.5C275.35,919.45 278.6,917.9 280.95,915.75C283.15,913.75 284.5,913.7 284.5,915.6C284.5,917.55 282.8,919.7 280,921.2C276.65,923 271.05,923.45 267.65,922.2ZM259.95,907.6C257.85,905.45 257.25,903.8 257.7,901.35C258.4,897.55 263.35,895.35 266.95,897.25C268.7,898.15 270.45,901.3 270.5,903.55C270.5,905.35 268.75,907.45 266.3,908.55C263.25,909.9 262.15,909.75 259.95,907.6ZM285.85,908C283.1,905.8 282.35,902.8 283.8,899.7C284.85,897.55 286.75,896.5 289.75,896.5C291.7,896.5 292.35,896.75 293.5,898C295.4,900 295.7,902.1 294.55,904.7C293.3,907.45 291.95,908.55 289.4,908.85C287.7,909.05 286.95,908.85 285.85,908ZM151.15,898C149.75,897.45 149.65,897 150.95,897.25C151.65,897.4 151.85,897.2 151.65,896.7C151.5,896.3 151.1,896 150.7,896C150.3,896 150,895.8 150,895.5C150,895.25 149.4,895 148.7,895C147.85,895 147.55,895.2 147.8,895.65C148,895.95 147.95,896.1 147.75,895.85C147.5,895.65 147.25,894.95 147.15,894.35C147.05,893.75 146.2,892.55 145.2,891.7C144.25,890.85 143.1,889.55 142.7,888.75C141.9,887.15 141.8,885.5 142.5,885.5C143.15,885.5 143.15,884.15 142.55,883.75C142.3,883.6 141.75,883.85 141.35,884.25C140.9,884.65 140.35,885 140.05,885C139.75,885 139.5,885.75 139.45,886.65C139.45,888.1 139.4,888.15 139,887.1C138.35,885.55 139.2,883.6 140.75,883C142.45,882.35 166.55,882.35 168.2,883C170.5,883.85 169.25,884.85 165.35,885.2C163.35,885.4 161.2,885.7 160.55,885.85C159.6,886.1 159.45,886 159.75,885.45C160.05,884.9 160,884.85 159.45,885.4C159,885.8 156.55,886 150.95,886C146,886 142.95,886.2 142.75,886.5C142.35,887.15 143.65,889.25 145.8,891.3C148.15,893.6 151.3,894.65 155.1,894.4C159.05,894.15 161.75,892.85 163.45,890.45C164.95,888.3 165.55,888 165.1,889.65C164.8,890.85 162.55,893.8 162,893.65C161.8,893.6 161.65,893.9 161.65,894.3C161.65,894.8 162,895 162.6,894.85C163.65,894.55 163.85,895.25 162.8,895.65C162.45,895.8 161.85,895.65 161.55,895.35C161.15,894.95 160.7,895 159.85,895.45C159.2,895.8 158,896.05 157.2,896C155.05,895.85 154.65,895.95 155.5,896.5C156.05,896.85 155.75,897 154.35,897C153.15,897 152.55,897.2 152.75,897.5C153.05,898 155.5,897.9 158.85,897.25C160,897.05 159.9,897.15 158.5,897.7C156.5,898.5 152.8,898.65 151.15,898ZM143.75,894.2L142.25,892.9L143.9,894C144.75,894.6 145.5,895.15 145.5,895.3C145.5,895.65 145.3,895.55 143.75,894.2ZM166.5,891.75C166.5,891 167.4,889.75 167.7,890.05C167.85,890.2 167.65,890.75 167.25,891.3C166.85,891.8 166.55,892.05 166.5,891.75ZM381.35,891.45C378.8,890.85 375.7,889.2 375.35,888.3C375.05,887.6 376.15,886 376.9,886C377.05,886 379.1,886.6 381.4,887.3C387.6,889.25 391.85,888.9 397.85,886.05C400.25,884.9 403.4,883.05 404.85,881.95C406.3,880.9 407.8,880 408.2,880C409.3,880 409.95,881.55 409.45,882.85C408.6,885.15 400.65,889.8 395.15,891.2C391.85,892.05 384.5,892.2 381.35,891.45ZM148.5,874.2C148.2,873.5 148,872.65 148,872.35C148,872 147.65,871.1 147.25,870.3C146.6,869.05 146.6,868.95 147.25,869.2C148.35,869.6 148.15,868.75 146.7,866.5C145.15,864.15 144,863.75 139.4,863.75C137.05,863.75 136.35,863.65 137.15,863.35C137.75,863.1 139.65,863 141.4,863.15C144.85,863.4 146.9,864.6 149.3,867.75C150.85,869.8 151.8,873.8 150.95,874.85C150.05,875.9 149,875.6 148.5,874.2ZM176.7,875.1C176.4,874.9 176,873.95 175.8,872.95C175.45,870.95 171.9,866.5 170.7,866.5C170.3,866.5 170,866.1 170,865.65C170,865.1 169.85,864.95 169.6,865.3C169.4,865.6 168.4,866 167.3,866.2C163,867 160.75,869.25 159.8,873.65C159.55,874.65 159.2,875 158.25,875C155.55,875 156.35,870.25 159.65,866.85C163.1,863.35 166.5,862.35 171.4,863.3C173.55,863.75 176.95,866.75 178.05,869.2C179.2,871.8 179.3,874.8 178.2,875.2C177.25,875.55 177.35,875.55 176.7,875.1ZM165.1,866C165.85,865.65 166.35,865.15 166.15,864.9C166,864.6 166.35,864.65 166.9,864.95C167.65,865.35 167.95,865.3 168.15,864.8C168.3,864.4 168.05,864 167.6,863.9C166.25,863.6 165,864 165,864.8C165,865.2 164.8,865.45 164.6,865.3C164.4,865.2 163.65,865.5 163,866.05C161.9,866.9 161.85,867 162.75,866.85C163.3,866.75 164.35,866.35 165.1,866ZM130,874.25C130,873.85 130.4,873.3 130.9,873.15C131.35,872.95 131.95,872.6 132.15,872.3C132.35,872 132.45,872.45 132.4,873.25C132.3,874.35 131.95,874.8 131.15,874.9C130.35,875 130,874.8 130,874.25ZM362.85,872.45C361.35,871.3 359.5,868.1 359.5,866.65C359.55,864.85 361.5,861.5 363.1,860.5C365.6,858.9 369.55,859.3 371.65,861.4C372.95,862.7 373.2,863.4 373.35,865.85C373.55,869.25 372.95,870.75 370.55,872.35C368.35,873.85 364.8,873.9 362.85,872.45ZM392.6,872.25C390.35,870.35 389.5,868.5 389.5,865.55C389.5,863.5 389.75,862.75 390.9,861.45C392.1,860.1 392.75,859.8 395.05,859.65C399.95,859.3 402.8,862.25 402.4,867.35C402.1,871.05 400.15,873.05 396.65,873.35C394.55,873.6 394,873.45 392.6,872.25ZM130.9,868.25C131.45,867.15 133.3,865.35 134.5,864.8C134.9,864.6 134.7,864.85 134,865.45C133.3,866 132.25,867.05 131.6,867.85C130.9,868.65 130.65,868.8 130.9,868.25ZM145.05,867.8C144.55,867.2 144.65,867.15 145.45,867.35C146.05,867.5 146.5,867.8 146.5,868.05C146.5,868.75 145.7,868.6 145.05,867.8Z" style="fill:rgb(31,33,33);"/>
                </g>
            </g>
        </g>
    </g>
</svg>
